<?xml version="1.0" encoding="utf-8"?>
<!-- Generator: Adobe Illustrator 20.1.0, SVG Export Plug-In . SVG Version: 6.00 Build 0)  -->
<svg version="1.1" id="Layer_1" xmlns="http://www.w3.org/2000/svg" xmlns:xlink="http://www.w3.org/1999/xlink" x="0px" y="0px"
	 viewBox="0 0 65 21.5" style="enable-background:new 0 0 65 21.5;" xml:space="preserve">
<style type="text/css">
	.st0{fill:#82BC00;}
	.st1{fill:#00A1DF;}
	.st2{fill:#231F20;}
</style>
<g>
	<rect y="12.3" class="st0" width="27.6" height="9.2"/>
	<rect y="0" class="st1" width="27.6" height="9.2"/>
	<path class="st2" d="M55,19.6l-0.1,0c-0.4,0.1-0.6,0.1-0.9,0.1c-0.7,0-1.6-0.4-1.6-2.1c0-0.9,0.2-2.1,1.5-2.1h0c0.2,0,0.5,0,1,0.2
		l0.1,0V19.6z M55.2,10.9L55,11v3.2l-0.2-0.1l-0.1,0c-0.2-0.1-0.7-0.2-1.2-0.2c-2.7,0-3.3,2-3.3,3.7c0,2.3,1.3,3.7,3.6,3.7
		c1,0,1.7-0.1,2.4-0.3c0.7-0.2,0.9-0.5,0.9-1.2v-9.2C56.5,10.7,55.8,10.8,55.2,10.9 M62.9,19.7l-0.1,0l-0.4,0.1
		c-0.4,0.1-0.7,0.2-1,0.2c-0.6,0-1-0.3-1-0.8c0-0.3,0.2-0.9,1.2-0.9h1.3V19.7z M62,13.9c-0.8,0-1.7,0.1-2.7,0.5l-0.7,0.2l0.2,1.6
		l0.7-0.2c0.7-0.2,1.6-0.4,2.2-0.4c0.3,0,1.2,0,1.2,1v0.4h-1.3c-2.3,0-3.3,0.7-3.3,2.3c0,1.3,1,2.1,2.6,2.1c0.5,0,1.2-0.1,1.8-0.2
		l0,0l0,0l0.2,0c0.6,0.1,1.3,0.2,1.9,0.4v-5.1C65,14.7,64,13.9,62,13.9 M47,19.7l-0.1,0l-0.4,0.1c-0.4,0.1-0.7,0.2-1,0.2
		c-0.6,0-1-0.3-1-0.8c0-0.3,0.2-0.9,1.2-0.9H47V19.7z M46.1,13.9c-0.8,0-1.7,0.1-2.7,0.5l-0.7,0.2l0.2,1.6l0.7-0.2
		c0.7-0.2,1.6-0.4,2.2-0.4c0.3,0,1.2,0,1.2,1v0.4h-1.3c-2.3,0-3.3,0.7-3.3,2.3c0,1.3,1,2.1,2.6,2.1c0.5,0,1.2-0.1,1.8-0.2l0,0l0,0
		l0.2,0c0.6,0.1,1.3,0.2,2,0.4v-5.1C49,14.7,48,13.9,46.1,13.9 M38.4,13.9c-1,0-1.9,0.3-2.2,0.5l-0.1,0L36,14.4
		c-0.4-0.3-1.1-0.5-2-0.5c-0.8,0-1.5,0.1-2.4,0.4c-0.7,0.2-1,0.5-1,1.2v5.8h2.2v-5.4l0.1,0c0.4-0.1,0.7-0.2,1-0.2c0.6,0,1,0.3,1,1
		v4.6H37v-4.7c0-0.3-0.1-0.4-0.1-0.5l-0.1-0.1l0.1-0.1c0.3-0.1,0.7-0.2,1.1-0.2c0.4,0,1,0.2,1,1v4.6h2.2v-4.8
		C41.2,14.7,40.3,13.9,38.4,13.9"/>
	<path class="st2" d="M61.3,6c-0.3,0-0.8,0-1.3-0.1l-0.1,0V2.7c0-0.3-0.1-0.4-0.1-0.4l-0.1-0.1L60,2.1c0,0,0.1,0,0.1,0l0,0
		c0,0,0.1,0,0.1,0c0,0,0,0,0.1,0c0.5-0.1,0.9-0.1,1.1-0.1h0c1.3,0,1.5,1.2,1.5,2.1C62.9,5.6,62.1,6,61.3,6 M61.3,0
		C61.3,0,61.3,0,61.3,0c-1.3,0-2.6,0.3-3.1,1c-0.3,0.3-0.4,0.7-0.4,1.2l0,0v3.3c0,0.3-0.1,0.4-0.1,0.4L57.7,6h-4V3.8h0
		c0-2.4-1.5-3.7-3.5-3.7H50h-1.8c-0.1,0.6-0.1,1-0.2,1.6h2c1,0,1.6,0.9,1.6,2.2v2.3l-0.1-0.1c0,0-0.2-0.1-0.5-0.1h-3.4
		c-0.1,0.4-0.1,1-0.2,1.6h10.5c0.4-0.1,0.8-0.1,1.1-0.2c0.5,0.3,1.5,0.4,2.2,0.4c2.3,0,3.8-1.5,3.8-3.9C65,1.6,63.6,0,61.3,0
		 M42.9,8.6L42.9,8.6c2.4,0,3.4-0.8,3.4-2.6c0-1.3-1-2.4-2.6-2.4h-2.1c-0.6,0-1-0.4-1-1c0-0.4,0.2-0.9,1.2-0.9h4.6
		c0.1-0.6,0.2-1,0.2-1.6h-4.8c-2.2,0-3.3,0.9-3.3,2.5c0,1.5,1,2.3,2.6,2.3h2.1c0.6,0,1,0.5,1,1C44.2,6.3,44,7,43,7h-0.4l-6.7,0v0
		h-1.2c-1,0-1.8-0.6-1.8-2V4.1c0-1.4,0.6-2.3,1.8-2.3h2c0.1-0.6,0.1-1,0.2-1.6h-2.5h-0.2c-2,0-3.5,1.4-3.5,3.8h0v0.1l0,1
		c0,2.4,1.5,3.5,3.5,3.5h0.2h1.8c0,0,0,0,0,0l3.7,0v0H42H42.9L42.9,8.6z"/>
</g>
</svg>
