<svg width="19" height="19" viewBox="0 0 19 19" fill="none" xmlns="http://www.w3.org/2000/svg">
<path d="M14.1665 2.14716H17.7352C17.9718 2.14716 18.1988 2.24116 18.3661 2.40848C18.5334 2.57579 18.6274 2.80272 18.6274 3.03935V17.3143C18.6274 17.5509 18.5334 17.7778 18.3661 17.9452C18.1988 18.1125 17.9718 18.2065 17.7352 18.2065H1.67588C1.43925 18.2065 1.21232 18.1125 1.04501 17.9452C0.877689 17.7778 0.783691 17.5509 0.783691 17.3143V3.03935C0.783691 2.80272 0.877689 2.57579 1.04501 2.40848C1.21232 2.24116 1.43925 2.14716 1.67588 2.14716H5.24461V0.362793H7.02898V2.14716H12.3821V0.362793H14.1665V2.14716ZM16.843 7.50027V3.93153H14.1665V5.7159H12.3821V3.93153H7.02898V5.7159H5.24461V3.93153H2.56806V7.50027H16.843ZM16.843 9.28464H2.56806V16.4221H16.843V9.28464ZM4.35243 11.069H8.81335V14.6377H4.35243V11.069Z" fill="#A12B94"/>
</svg>
