<svg width="28" height="24" viewBox="0 0 28 24" fill="none" xmlns="http://www.w3.org/2000/svg">
<path d="M25.25 20.75H27.75V23.25H0.25V20.75H2.75V2C2.75 1.66848 2.8817 1.35054 3.11612 1.11612C3.35054 0.881696 3.66848 0.75 4 0.75H16.5C16.8315 0.75 17.1495 0.881696 17.3839 1.11612C17.6183 1.35054 17.75 1.66848 17.75 2V20.75H22.75V10.75H20.25V8.25H24C24.3315 8.25 24.6495 8.3817 24.8839 8.61612C25.1183 8.85054 25.25 9.16848 25.25 9.5V20.75ZM5.25 3.25V20.75H15.25V3.25H5.25ZM7.75 10.75H12.75V13.25H7.75V10.75ZM7.75 5.75H12.75V8.25H7.75V5.75Z" fill="black"/>
</svg>
