<svg width="55" height="46" viewBox="0 0 55 46" fill="none" xmlns="http://www.w3.org/2000/svg">
<path d="M1.68377 2.96648C0.864013 2.96648 0.199219 2.30173 0.199219 1.48357C0.199219 0.663818 0.863972 -0.000976562 1.68377 -0.000976562H8.17513C8.87264 -0.000976562 9.45667 0.480008 9.61652 1.12798L10.7591 4.78095H53.3156C53.4494 4.78255 53.5852 4.79973 53.721 4.83928C54.508 5.06259 54.965 5.88396 54.7417 6.67093L51.7196 17.1863C51.7092 17.2342 51.6956 17.281 51.68 17.3253L49.9858 23.2203C49.8296 23.7648 49.3654 24.1962 48.7678 24.2805L31.7961 26.7046C31.7358 26.7166 31.6759 26.7254 31.614 26.7306L16.5435 28.8834L14.4593 29.253V32.82H47.7983C48.618 32.82 49.2812 33.4848 49.2812 34.3046C49.2812 35.1244 48.6164 35.7875 47.7983 35.7875H45.3706C46.2159 36.8082 46.7244 38.1189 46.7244 39.5487C46.7244 41.1774 46.0629 42.6515 44.9959 43.7185C43.9288 44.7856 42.4531 45.4471 40.8244 45.4471C39.1956 45.4471 37.7215 44.7855 36.6545 43.7185C35.5874 42.6514 34.926 41.1758 34.926 39.5487C34.926 38.1192 35.4345 36.8098 36.2798 35.7875H24.2989C25.1442 36.8082 25.6528 38.1189 25.6528 39.5487C25.6528 41.1774 24.9928 42.6515 23.9242 43.7185C22.8571 44.7856 21.383 45.4471 19.7544 45.4471C18.1256 45.4471 16.6515 44.7855 15.5845 43.7185C14.5175 42.6515 13.8559 41.1758 13.8559 39.5487C13.8559 38.1192 14.3645 36.8098 15.2098 35.7875H12.971C12.1513 35.7875 11.4865 35.1227 11.4865 34.3046V28.011C11.4865 27.3031 11.995 26.6759 12.7149 26.5505L14.3661 26.2569L11.588 17.3742C11.5656 17.3175 11.5485 17.2592 11.5329 17.1989L8.27866 6.79393C8.25629 6.7372 8.23911 6.67888 8.22353 6.61856L7.08098 2.96558H1.67745L1.68377 2.96648ZM14.0666 15.3595H20.2483L19.4185 7.748H11.6867L14.0666 15.3595ZM23.2261 15.3595H30.0094V7.748H22.3979L23.2276 15.3595H23.2261ZM32.9765 15.3595H40.1445L40.9743 7.748H32.9765L32.9765 15.3595ZM43.124 15.3595H49.1599L51.3472 7.748H43.9538L43.124 15.3595ZM48.3058 18.327H42.8008L42.3797 22.1996L47.4002 21.4833L48.3074 18.3289L48.3058 18.327ZM39.8214 18.327H32.9761V23.5415L39.352 22.6311L39.821 18.327L39.8214 18.327ZM30.0091 18.327H23.5506L24.2549 24.7888L30.0107 23.9658V18.327L30.0091 18.327ZM20.5711 18.327H14.9958L17.3256 25.7787L21.3202 25.2082L20.5711 18.3285L20.5711 18.327ZM42.8987 37.476C42.3677 36.9451 41.6358 36.6171 40.8265 36.6171C40.0171 36.6171 39.2853 36.9451 38.7543 37.476C38.2234 38.0069 37.8954 38.7388 37.8954 39.5482C37.8954 40.3575 38.2234 41.0894 38.7543 41.6204C39.2852 42.1513 40.0171 42.4793 40.8265 42.4793C41.6359 42.4793 42.3693 42.1513 42.8987 41.6204C43.4296 41.0894 43.7576 40.3575 43.7576 39.5482C43.7576 38.7388 43.4296 38.0053 42.8987 37.476ZM21.8311 37.476C21.3002 36.9451 20.5683 36.6171 19.7589 36.6171C18.9495 36.6171 18.2161 36.9451 17.6867 37.476C17.1558 38.0069 16.8278 38.7388 16.8278 39.5482C16.8278 40.3575 17.1558 41.0894 17.6867 41.6204C18.2161 42.1513 18.9496 42.4793 19.7589 42.4793C20.5683 42.4793 21.3018 42.1513 21.8311 41.6204C22.362 41.0894 22.6884 40.3575 22.6884 39.5482C22.6884 38.7388 22.3604 38.0053 21.8311 37.476Z" fill="#111827"/>
</svg>
