<svg width="19" height="21" viewBox="0 0 19 21" fill="none" xmlns="http://www.w3.org/2000/svg">
<path d="M1.44873 5.57446V15.5745C1.44873 17.7836 5.03045 19.5745 9.44873 19.5745C13.867 19.5745 17.4487 17.7836 17.4487 15.5745V5.57446M1.44873 5.57446C1.44873 7.7836 5.03045 9.57446 9.44873 9.57446C13.867 9.57446 17.4487 7.7836 17.4487 5.57446M1.44873 5.57446C1.44873 3.36532 5.03045 1.57446 9.44873 1.57446C13.867 1.57446 17.4487 3.36532 17.4487 5.57446M17.4487 10.5745C17.4487 12.7836 13.867 14.5745 9.44873 14.5745C5.03045 14.5745 1.44873 12.7836 1.44873 10.5745" stroke="#A12B94" stroke-width="2"/>
</svg>
