<svg width="60" height="61" viewBox="0 0 60 61" fill="none" xmlns="http://www.w3.org/2000/svg">
<circle cx="29.5664" cy="30.5" r="28.9809" stroke="#50CD89" stroke-width="1.17095"/>
<path fill-rule="evenodd" clip-rule="evenodd" d="M14.9351 32.6532C14.259 31.977 14.259 30.8808 14.9351 30.2046C15.2964 29.8433 15.7777 29.6751 16.2508 29.6999C15.8189 29.7082 15.3895 29.8772 15.06 30.2067C14.3838 30.8829 14.3838 31.9791 15.06 32.6552L23.7168 41.3121C24.0316 41.6269 24.4375 41.7951 24.8496 41.8168C24.3954 41.8255 23.9385 41.6566 23.5919 41.31L14.9351 32.6532ZM43.9526 19.3117C43.4796 19.2869 42.9983 19.4551 42.637 19.8165L24.8776 37.5758L24.9411 37.6393L42.7618 19.8185C43.0914 19.489 43.5207 19.32 43.9526 19.3117ZM45.6505 22.83C46.6387 21.8418 46.6387 20.2396 45.6505 19.2514C44.6623 18.2632 43.0601 18.2632 42.0719 19.2514L24.8162 36.5071L17.9487 29.6396C16.9605 28.6514 15.3583 28.6514 14.3701 29.6396C13.3819 30.6278 13.3819 32.23 14.3701 33.2182L23.0269 41.875C24.0151 42.8632 25.6173 42.8632 26.6055 41.875L45.6505 22.83Z" fill="#4DC41F"/>
</svg>
