<svg width="154" height="164" viewBox="0 0 154 164" fill="none" xmlns="http://www.w3.org/2000/svg">
<path d="M74.1299 141.174C108.167 141.174 135.76 113.487 135.76 79.334C135.76 45.1808 108.167 17.4941 74.1299 17.4941C40.0926 17.4941 12.5 45.1808 12.5 79.334C12.5 113.487 40.0926 141.174 74.1299 141.174Z" fill="#EAEEF9"/>
<path d="M144.323 27.4288C145.132 26.687 145.188 25.4278 144.449 24.6161C143.71 23.8045 142.455 23.7478 141.646 24.4895C140.837 25.2312 140.781 26.4905 141.52 27.3022C142.259 28.1138 143.514 28.1705 144.323 27.4288Z" fill="#EAEEF9"/>
<path opacity="0.3" d="M111.404 50.7416C113.596 50.7416 115.373 48.959 115.373 46.76C115.373 44.561 113.596 42.7783 111.404 42.7783C109.213 42.7783 107.436 44.561 107.436 46.76C107.436 48.959 109.213 50.7416 111.404 50.7416Z" fill="#AAB2C5"/>
<g filter="url(#filter0_d_1951_6717)">
<path d="M84.659 55.9719C84.1639 58.6127 82.0182 61.0885 79.2123 61.7487C77.0666 62.2439 74.9209 61.7487 73.4354 60.5934V79.7395H55.6098C56.27 78.419 56.435 77.0986 56.27 75.6131C55.9399 72.3121 53.134 69.6713 49.998 69.3412C45.7066 68.846 41.9104 72.147 41.9104 76.4384C41.9104 77.5938 42.0755 78.7491 42.5706 79.5744H22.4342V42.7677C22.4342 35.1753 28.5412 29.0684 36.2986 29.0684H73.2704V48.2144C74.5908 47.3892 75.9112 46.894 77.3967 46.894C81.8531 47.5542 85.4843 51.3504 84.659 55.9719Z" fill="url(#paint0_linear_1951_6717)"/>
</g>
<g filter="url(#filter1_d_1951_6717)">
<path d="M61.3865 103.837C60.7263 108.294 64.1924 112.09 68.6488 112.09C70.4644 112.09 72.1149 111.43 73.4353 110.439V130.246H36.4636C28.8712 130.246 22.5992 123.974 22.5992 116.546V79.5745H42.5705C42.0754 78.5842 41.9103 77.5939 41.9103 76.2734C42.0754 72.8073 44.7162 69.8364 48.0173 69.3412C52.4737 68.8461 56.2699 72.1471 56.2699 76.4385C56.2699 77.5939 56.1048 78.5842 55.6097 79.5745H73.1052V99.3808C71.6198 98.0604 69.6391 97.4002 67.4935 97.7303C64.3575 98.0604 61.8817 100.701 61.3865 103.837Z" fill="url(#paint1_linear_1951_6717)"/>
</g>
<g filter="url(#filter2_d_1951_6717)">
<path d="M124.908 79.4952V116.137C124.908 123.729 118.636 129.836 111.043 129.836H74.0716V110.03C72.7512 111.185 71.1006 111.68 69.2851 111.68C64.9937 111.68 61.6927 107.884 62.0228 103.428C62.5179 100.127 65.1588 97.6509 68.1297 97.1558C70.2754 96.9907 72.4211 97.6509 73.7415 98.8063V79H95.0332C94.373 79.9903 94.208 81.1457 94.208 82.301C94.208 86.4274 97.8391 89.8935 102.296 89.3983C105.597 89.0682 108.402 86.2623 108.733 83.1263C108.898 81.6408 108.568 80.3204 108.072 79L124.908 79.4952Z" fill="url(#paint2_linear_1951_6717)"/>
</g>
<path d="M139.786 64.5545L123.446 61.7486C123.776 63.069 123.941 64.3895 123.446 65.7099C122.456 68.8459 119.485 70.9916 116.184 70.8265C111.893 70.4964 108.757 66.7002 109.417 62.5739C109.582 61.4185 110.077 60.4282 110.737 59.6029L89.6104 55.8067L92.9115 36.8257C94.2319 38.1461 96.2125 38.9714 98.5233 38.9714C101.494 38.8063 103.97 36.9908 104.795 34.3499C106.446 30.0586 103.64 25.4371 99.1835 24.7769C97.698 24.4468 96.2125 24.7769 94.8921 25.272L98.1932 6.29102L134.505 12.563C142.097 13.8834 147.049 20.9807 145.728 28.408L139.786 64.5545Z" fill="#C0CBE1"/>
<path d="M147.714 78.4719L153.202 76.8179C153.599 76.7025 153.599 76.1255 153.202 76.0101L147.714 74.3562C147.573 74.3177 147.471 74.2151 147.432 74.0741L145.778 68.5994C145.663 68.2019 145.086 68.2019 144.971 68.5994L143.317 74.0741C143.278 74.2151 143.176 74.3177 143.035 74.3562L137.56 76.0101C137.162 76.1255 137.162 76.7025 137.56 76.8179L143.047 78.4719C143.188 78.5103 143.291 78.6129 143.329 78.7539L144.983 84.2415C145.099 84.639 145.676 84.639 145.791 84.2415L147.445 78.7539C147.471 78.6129 147.573 78.5103 147.714 78.4719Z" fill="#AAB2C5"/>
<path d="M135.574 30.4595L142.399 28.4023C142.894 28.2588 142.894 27.5412 142.399 27.3977L135.574 25.3405C135.398 25.2927 135.271 25.1651 135.223 24.9897L133.166 18.1803C133.022 17.686 132.305 17.686 132.161 18.1803L130.104 24.9897C130.056 25.1651 129.929 25.2927 129.753 25.3405L122.944 27.3977C122.45 27.5412 122.45 28.2588 122.944 28.4023L129.769 30.4595C129.945 30.5073 130.072 30.6349 130.12 30.8103L132.177 37.6356C132.321 38.13 133.038 38.13 133.182 37.6356L135.239 30.8103C135.271 30.6349 135.398 30.5073 135.574 30.4595Z" fill="white"/>
<path d="M85.9582 7.27359L89.388 6.23995C89.6364 6.16783 89.6364 5.80726 89.388 5.73515L85.9582 4.7015C85.8701 4.67746 85.806 4.61336 85.7819 4.52522L84.7482 1.10378C84.6761 0.855382 84.3155 0.855382 84.2434 1.10378L83.2096 4.52522C83.1856 4.61336 83.1215 4.67746 83.0333 4.7015L79.6116 5.73515C79.3632 5.80726 79.3632 6.16783 79.6116 6.23995L83.0414 7.27359C83.1295 7.29763 83.1936 7.36173 83.2177 7.44987L84.2514 10.8793C84.3235 11.1277 84.6841 11.1277 84.7562 10.8793L85.79 7.44987C85.806 7.36173 85.8701 7.29763 85.9582 7.27359Z" fill="#AAB2C5"/>
<defs>
<filter id="filter0_d_1951_6717" x="0.434242" y="18.0684" width="106.342" height="94.6709" filterUnits="userSpaceOnUse" color-interpolation-filters="sRGB">
<feFlood flood-opacity="0" result="BackgroundImageFix"/>
<feColorMatrix in="SourceAlpha" type="matrix" values="0 0 0 0 0 0 0 0 0 0 0 0 0 0 0 0 0 0 127 0" result="hardAlpha"/>
<feOffset dy="11"/>
<feGaussianBlur stdDeviation="11"/>
<feColorMatrix type="matrix" values="0 0 0 0 0.397708 0 0 0 0 0.47749 0 0 0 0 0.575 0 0 0 0.27 0"/>
<feBlend mode="normal" in2="BackgroundImageFix" result="effect1_dropShadow_1951_6717"/>
<feBlend mode="normal" in="SourceGraphic" in2="effect1_dropShadow_1951_6717" result="shape"/>
</filter>
<filter id="filter1_d_1951_6717" x="0.599205" y="58.292" width="94.8361" height="104.954" filterUnits="userSpaceOnUse" color-interpolation-filters="sRGB">
<feFlood flood-opacity="0" result="BackgroundImageFix"/>
<feColorMatrix in="SourceAlpha" type="matrix" values="0 0 0 0 0 0 0 0 0 0 0 0 0 0 0 0 0 0 127 0" result="hardAlpha"/>
<feOffset dy="11"/>
<feGaussianBlur stdDeviation="11"/>
<feColorMatrix type="matrix" values="0 0 0 0 0.397708 0 0 0 0 0.47749 0 0 0 0 0.575 0 0 0 0.27 0"/>
<feBlend mode="normal" in2="BackgroundImageFix" result="effect1_dropShadow_1951_6717"/>
<feBlend mode="normal" in="SourceGraphic" in2="effect1_dropShadow_1951_6717" result="shape"/>
</filter>
<filter id="filter2_d_1951_6717" x="40" y="68" width="106.908" height="94.8359" filterUnits="userSpaceOnUse" color-interpolation-filters="sRGB">
<feFlood flood-opacity="0" result="BackgroundImageFix"/>
<feColorMatrix in="SourceAlpha" type="matrix" values="0 0 0 0 0 0 0 0 0 0 0 0 0 0 0 0 0 0 127 0" result="hardAlpha"/>
<feOffset dy="11"/>
<feGaussianBlur stdDeviation="11"/>
<feColorMatrix type="matrix" values="0 0 0 0 0.397708 0 0 0 0 0.47749 0 0 0 0 0.575 0 0 0 0.27 0"/>
<feBlend mode="normal" in2="BackgroundImageFix" result="effect1_dropShadow_1951_6717"/>
<feBlend mode="normal" in="SourceGraphic" in2="effect1_dropShadow_1951_6717" result="shape"/>
</filter>
<linearGradient id="paint0_linear_1951_6717" x1="53.5852" y1="27.8963" x2="53.5852" y2="80.2857" gradientUnits="userSpaceOnUse">
<stop stop-color="#FDFEFF"/>
<stop offset="0.9964" stop-color="#ECF0F5"/>
</linearGradient>
<linearGradient id="paint1_linear_1951_6717" x1="48.0007" y1="67.8821" x2="48.0007" y2="130.903" gradientUnits="userSpaceOnUse">
<stop stop-color="#FDFEFF"/>
<stop offset="0.9964" stop-color="#ECF0F5"/>
</linearGradient>
<linearGradient id="paint2_linear_1951_6717" x1="93.4334" y1="77.8241" x2="93.4334" y2="130.384" gradientUnits="userSpaceOnUse">
<stop stop-color="#FDFEFF"/>
<stop offset="0.9964" stop-color="#ECF0F5"/>
</linearGradient>
</defs>
</svg>
