<svg width="215" height="116" viewBox="0 0 215 116" fill="none" xmlns="http://www.w3.org/2000/svg">
<path d="M202.092 14.4126C205.956 14.4126 209.089 11.2659 209.089 7.38404C209.089 3.50238 205.956 0.355469 202.092 0.355469C198.226 0.355469 195.094 3.50238 195.094 7.38404C195.094 11.2659 198.226 14.4126 202.092 14.4126Z" fill="#EAEEF9"/>
<path d="M13.15 19.3842C15.7894 19.3842 17.929 17.2351 17.929 14.5842C17.929 11.9332 15.7894 9.78418 13.15 9.78418C10.5107 9.78418 8.37109 11.9332 8.37109 14.5842C8.37109 17.2351 10.5107 19.3842 13.15 19.3842Z" fill="#EAEEF9"/>
<path d="M9.05488 103.24C13.9565 103.24 17.9301 99.2492 17.9301 94.3259C17.9301 89.4026 13.9565 85.4116 9.05488 85.4116C4.15321 85.4116 0.179688 89.4026 0.179688 94.3259C0.179688 99.2492 4.15321 103.24 9.05488 103.24Z" fill="#EAEEF9"/>
<path d="M69.2327 10.3556V11.0413H61.2109V10.1842C61.3816 10.0127 61.3816 9.66987 61.3816 9.49844V6.2413L61.2109 6.06987V5.89844C61.3816 6.24129 61.5523 6.41272 61.8936 6.75558L64.4538 8.46987C64.9658 8.98415 65.8192 8.98415 66.5019 8.46987L68.8914 6.41273L69.0621 6.2413C69.0621 6.41272 69.0621 6.92701 69.0621 9.66987C68.8914 9.8413 69.0621 10.0127 69.2327 10.3556Z" fill="url(#paint0_linear_5948_80318)"/>
<g filter="url(#filter0_d_5948_80318)">
<path d="M197.629 102.67H49.8226C46.5797 102.67 44.0195 100.098 44.0195 96.8411V63.4126C44.0195 60.1554 46.5797 57.584 49.8226 57.584H197.629C200.872 57.584 203.432 60.1554 203.432 63.4126V96.8411C203.603 100.098 200.872 102.67 197.629 102.67Z" fill="white"/>
<mask id="mask0_5948_80318" style="mask-type:alpha" maskUnits="userSpaceOnUse" x="44" y="57" width="160" height="46">
<path d="M197.629 102.67H49.8226C46.5797 102.67 44.0195 100.098 44.0195 96.8411V63.4126C44.0195 60.1554 46.5797 57.584 49.8226 57.584H197.629C200.872 57.584 203.432 60.1554 203.432 63.4126V96.8411C203.603 100.098 200.872 102.67 197.629 102.67Z" fill="white"/>
</mask>
<g mask="url(#mask0_5948_80318)">
<rect x="27.3125" y="54.5356" width="20.994" height="51.3801" fill="#FAF09D"/>
</g>
<path d="M58.2158 75.4664V74.7608H58.9134C59.2234 74.7608 59.476 74.6726 59.6711 74.4962C59.8689 74.3198 59.9678 74.0952 59.9678 73.8226C59.9678 73.5473 59.8756 73.3295 59.6912 73.1691C59.5094 73.0087 59.2502 72.9285 58.9134 72.9285C58.6007 72.9285 58.3467 73.0127 58.1516 73.1811C57.9565 73.3468 57.8456 73.5727 57.8188 73.8587H56.9729C57.0076 73.3509 57.2028 72.9459 57.5582 72.6439C57.9164 72.3418 58.3815 72.1908 58.9535 72.1908C59.5041 72.1908 59.9571 72.3325 60.3126 72.6158C60.6681 72.8965 60.8459 73.2586 60.8459 73.7023C60.8459 74.0605 60.7376 74.3625 60.5211 74.6084C60.3046 74.8517 60.0159 75.0053 59.6551 75.0695V75.0855C60.0934 75.1149 60.4409 75.2553 60.6975 75.5065C60.9568 75.7578 61.0864 76.0852 61.0864 76.4888C61.0864 76.9886 60.8846 77.3975 60.481 77.7156C60.0774 78.0337 59.5709 78.1927 58.9615 78.1927C58.3441 78.1927 57.8456 78.039 57.466 77.7317C57.0892 77.4216 56.886 77.014 56.8566 76.5088H57.7186C57.748 76.7895 57.8723 77.0153 58.0915 77.1864C58.3133 77.3575 58.6033 77.443 58.9615 77.443C59.3143 77.443 59.6043 77.3534 59.8315 77.1744C60.0587 76.9926 60.1723 76.7601 60.1723 76.4768C60.1723 76.164 60.0614 75.9181 59.8395 75.739C59.6203 75.5573 59.3197 75.4664 58.9374 75.4664H58.2158ZM63.1066 77.9762C63.0051 78.0778 62.8808 78.1286 62.7338 78.1286C62.5868 78.1286 62.4625 78.0778 62.3609 77.9762C62.2593 77.8747 62.2085 77.7504 62.2085 77.6034C62.2085 77.4564 62.2593 77.3321 62.3609 77.2305C62.4625 77.1289 62.5868 77.0781 62.7338 77.0781C62.8808 77.0781 63.0051 77.1289 63.1066 77.2305C63.2082 77.3321 63.259 77.4564 63.259 77.6034C63.259 77.7504 63.2082 77.8747 63.1066 77.9762ZM63.1066 75.0535C63.0051 75.155 62.8808 75.2058 62.7338 75.2058C62.5868 75.2058 62.4625 75.155 62.3609 75.0535C62.2593 74.9519 62.2085 74.8276 62.2085 74.6806C62.2085 74.5336 62.2593 74.4093 62.3609 74.3077C62.4625 74.2062 62.5868 74.1554 62.7338 74.1554C62.8808 74.1554 63.0051 74.2062 63.1066 74.3077C63.2082 74.4093 63.259 74.5336 63.259 74.6806C63.259 74.8276 63.2082 74.9519 63.1066 75.0535ZM68.1619 77.3828C67.7743 77.9228 67.2357 78.1927 66.5461 78.1927C65.8565 78.1927 65.3153 77.9241 64.9224 77.3869C64.5321 76.8469 64.337 76.1132 64.337 75.1858C64.337 74.2663 64.5335 73.538 64.9264 73.0007C65.3193 72.4608 65.8592 72.1908 66.5461 72.1908C67.2331 72.1908 67.7716 72.4595 68.1619 72.9967C68.5521 73.5313 68.7472 74.2596 68.7472 75.1818C68.7472 76.1092 68.5521 76.8429 68.1619 77.3828ZM65.5879 76.8416C65.8151 77.2399 66.1345 77.439 66.5461 77.439C66.9577 77.439 67.2758 77.2399 67.5003 76.8416C67.7275 76.4407 67.8411 75.8887 67.8411 75.1858C67.8411 74.4908 67.7262 73.9442 67.4963 73.546C67.2691 73.145 66.9524 72.9446 66.5461 72.9446C66.1399 72.9446 65.8218 73.145 65.5919 73.546C65.3621 73.9469 65.2471 74.4935 65.2471 75.1858C65.2471 75.8887 65.3607 76.4407 65.5879 76.8416ZM73.4537 77.3828C73.0661 77.9228 72.5275 78.1927 71.8379 78.1927C71.1483 78.1927 70.6071 77.9241 70.2142 77.3869C69.8239 76.8469 69.6288 76.1132 69.6288 75.1858C69.6288 74.2663 69.8253 73.538 70.2182 73.0007C70.6111 72.4608 71.151 72.1908 71.8379 72.1908C72.5248 72.1908 73.0634 72.4595 73.4537 72.9967C73.8439 73.5313 74.039 74.2596 74.039 75.1818C74.039 76.1092 73.8439 76.8429 73.4537 77.3828ZM70.8797 76.8416C71.1069 77.2399 71.4263 77.439 71.8379 77.439C72.2495 77.439 72.5676 77.2399 72.7921 76.8416C73.0193 76.4407 73.1329 75.8887 73.1329 75.1858C73.1329 74.4908 73.018 73.9442 72.7881 73.546C72.5609 73.145 72.2442 72.9446 71.8379 72.9446C71.4316 72.9446 71.1136 73.145 70.8837 73.546C70.6538 73.9469 70.5389 74.4935 70.5389 75.1858C70.5389 75.8887 70.6525 76.4407 70.8797 76.8416ZM79.5108 76.1279H76.8807V75.3461H79.5108V76.1279ZM83.7036 75.4664V74.7608H84.4012C84.7112 74.7608 84.9638 74.6726 85.1589 74.4962C85.3567 74.3198 85.4556 74.0952 85.4556 73.8226C85.4556 73.5473 85.3634 73.3295 85.179 73.1691C84.9972 73.0087 84.7379 72.9285 84.4012 72.9285C84.0884 72.9285 83.8345 73.0127 83.6394 73.1811C83.4443 73.3468 83.3334 73.5727 83.3066 73.8587H82.4607C82.4954 73.3509 82.6905 72.9459 83.046 72.6439C83.4042 72.3418 83.8693 72.1908 84.4413 72.1908C84.9919 72.1908 85.4449 72.3325 85.8004 72.6158C86.1559 72.8965 86.3336 73.2586 86.3336 73.7023C86.3336 74.0605 86.2254 74.3625 86.0089 74.6084C85.7924 74.8517 85.5037 75.0053 85.1429 75.0695V75.0855C85.5812 75.1149 85.9287 75.2553 86.1853 75.5065C86.4446 75.7578 86.5742 76.0852 86.5742 76.4888C86.5742 76.9886 86.3724 77.3975 85.9688 77.7156C85.5652 78.0337 85.0587 78.1927 84.4493 78.1927C83.8318 78.1927 83.3334 78.039 82.9538 77.7317C82.5769 77.4216 82.3738 77.014 82.3444 76.5088H83.2064C83.2358 76.7895 83.3601 77.0153 83.5793 77.1864C83.8011 77.3575 84.0911 77.443 84.4493 77.443C84.8021 77.443 85.0921 77.3534 85.3193 77.1744C85.5465 76.9926 85.6601 76.7601 85.6601 76.4768C85.6601 76.164 85.5492 75.9181 85.3273 75.739C85.1081 75.5573 84.8074 75.4664 84.4252 75.4664H83.7036ZM88.5944 77.9762C88.4928 78.0778 88.3686 78.1286 88.2215 78.1286C88.0745 78.1286 87.9503 78.0778 87.8487 77.9762C87.7471 77.8747 87.6963 77.7504 87.6963 77.6034C87.6963 77.4564 87.7471 77.3321 87.8487 77.2305C87.9503 77.1289 88.0745 77.0781 88.2215 77.0781C88.3686 77.0781 88.4928 77.1289 88.5944 77.2305C88.696 77.3321 88.7468 77.4564 88.7468 77.6034C88.7468 77.7504 88.696 77.8747 88.5944 77.9762ZM88.5944 75.0535C88.4928 75.155 88.3686 75.2058 88.2215 75.2058C88.0745 75.2058 87.9503 75.155 87.8487 75.0535C87.7471 74.9519 87.6963 74.8276 87.6963 74.6806C87.6963 74.5336 87.7471 74.4093 87.8487 74.3077C87.9503 74.2062 88.0745 74.1554 88.2215 74.1554C88.3686 74.1554 88.4928 74.2062 88.5944 74.3077C88.696 74.4093 88.7468 74.5336 88.7468 74.6806C88.7468 74.8276 88.696 74.9519 88.5944 75.0535ZM89.8769 73.995C89.8769 73.4738 90.064 73.0435 90.4382 72.704C90.8151 72.3619 91.2909 72.1908 91.8655 72.1908C92.4161 72.1908 92.8745 72.3459 93.2407 72.6559C93.6069 72.966 93.79 73.3509 93.79 73.8106C93.79 74.134 93.7004 74.4414 93.5214 74.7327C93.3423 75.0214 93.0296 75.3942 92.5832 75.8513L91.1358 77.3067V77.3267H93.8822V78.0845H89.925V77.4751L92.0139 75.3461C92.3667 74.9773 92.6032 74.694 92.7235 74.4962C92.8438 74.2957 92.9039 74.0819 92.9039 73.8547C92.9039 73.5981 92.801 73.3803 92.5952 73.2012C92.3894 73.0221 92.1368 72.9325 91.8375 72.9325C91.5221 72.9325 91.2575 73.0341 91.0436 73.2373C90.8325 73.4377 90.7269 73.689 90.7269 73.991V74.003H89.8769V73.995ZM98.5806 77.3828C98.193 77.9228 97.6545 78.1927 96.9649 78.1927C96.2753 78.1927 95.734 77.9241 95.3411 77.3869C94.9509 76.8469 94.7558 76.1132 94.7558 75.1858C94.7558 74.2663 94.9522 73.538 95.3451 73.0007C95.738 72.4608 96.2779 72.1908 96.9649 72.1908C97.6518 72.1908 98.1904 72.4595 98.5806 72.9967C98.9708 73.5313 99.166 74.2596 99.166 75.1818C99.166 76.1092 98.9708 76.8429 98.5806 77.3828ZM96.0067 76.8416C96.2338 77.2399 96.5532 77.439 96.9649 77.439C97.3765 77.439 97.6946 77.2399 97.9191 76.8416C98.1463 76.4407 98.2599 75.8887 98.2599 75.1858C98.2599 74.4908 98.1449 73.9442 97.9151 73.546C97.6879 73.145 97.3711 72.9446 96.9649 72.9446C96.5586 72.9446 96.2405 73.145 96.0107 73.546C95.7808 73.9469 95.6659 74.4935 95.6659 75.1858C95.6659 75.8887 95.7795 76.4407 96.0067 76.8416Z" fill="#1A202C"/>
<path d="M59.2542 87.9116V82.7757H61.0784V82.1262H56.7083V82.7757H58.5325V87.9116H59.2542ZM62.5533 87.9838C63.704 87.9838 64.4818 87.1539 64.4818 85.8268C64.4818 84.4957 63.704 83.6698 62.5533 83.6698C61.3987 83.6698 60.6209 84.4957 60.6209 85.8268C60.6209 87.1539 61.3987 87.9838 62.5533 87.9838ZM62.5533 87.3704C61.8156 87.3704 61.3305 86.8091 61.3305 85.8268C61.3305 84.8445 61.8156 84.2832 62.5533 84.2832C63.2911 84.2832 63.7722 84.8445 63.7722 85.8268C63.7722 86.8091 63.2911 87.3704 62.5533 87.3704ZM66.943 87.9838C67.5444 87.9838 68.0215 87.6871 68.2902 87.206H68.3022V87.9116H68.9677V82.1262H68.2701V84.4195H68.2541C68.0055 83.9625 67.5244 83.6698 66.927 83.6698C65.8766 83.6698 65.1589 84.5198 65.1589 85.8268C65.1589 87.1338 65.8806 87.9838 66.943 87.9838ZM67.0754 84.2832C67.793 84.2832 68.2741 84.8966 68.2741 85.8268C68.2741 86.761 67.793 87.3704 67.0754 87.3704C66.3376 87.3704 65.8726 86.773 65.8726 85.8268C65.8726 84.8846 66.3376 84.2832 67.0754 84.2832ZM71.461 87.3904C70.9599 87.3904 70.6271 87.1298 70.6271 86.7329C70.6271 86.34 70.9479 86.0914 71.5092 86.0553L72.6237 85.9872V86.328C72.6237 86.9293 72.1186 87.3904 71.461 87.3904ZM71.3047 87.9838C71.866 87.9838 72.3952 87.6711 72.6438 87.194H72.6598V87.9116H73.3214V85.0289C73.3214 84.199 72.7039 83.6698 71.7257 83.6698C70.7394 83.6698 70.1219 84.2231 70.0738 84.9448H70.7474C70.8356 84.5358 71.1724 84.2832 71.7096 84.2832C72.287 84.2832 72.6237 84.5879 72.6237 85.0971V85.4459L71.429 85.5141C70.4667 85.5702 69.9175 86.0192 69.9175 86.7329C69.9175 87.4826 70.4748 87.9838 71.3047 87.9838ZM74.7281 89.4712C75.4819 89.4712 75.8267 89.1786 76.1835 88.2043L77.8233 83.742H77.0896L75.9349 87.214H75.9229L74.7682 83.742H74.0225L75.5621 87.9156L75.4659 88.2083C75.3055 88.6934 75.089 88.8819 74.7001 88.8819C74.6119 88.8819 74.5036 88.8779 74.4275 88.8618V89.4472C74.5036 89.4632 74.644 89.4712 74.7281 89.4712Z" fill="#718096"/>
<path d="M150.539 77.1594H125.332C124.675 77.1594 124.281 76.632 124.281 76.1045V72.8079C124.281 72.1485 124.806 71.7529 125.332 71.7529H150.539C151.195 71.7529 151.589 72.2804 151.589 72.8079V76.1045C151.589 76.7638 151.195 77.1594 150.539 77.1594Z" fill="#CED6E2"/>
<path d="M180.472 88.5003H125.332C124.675 88.5003 124.281 87.9728 124.281 87.4453V84.1487C124.281 83.4893 124.806 83.0938 125.332 83.0938H180.341C180.997 83.0938 181.391 83.6212 181.391 84.1487V87.4453C181.523 87.9728 180.997 88.5003 180.472 88.5003Z" fill="#CED6E2"/>
</g>
<g filter="url(#filter1_d_5948_80318)">
<path d="M184.207 88.6697H36.4007C33.1578 88.6697 30.5977 86.0983 30.5977 82.8411V49.4126C30.5977 46.1554 33.1578 43.584 36.4007 43.584H184.207C187.45 43.584 190.01 46.1554 190.01 49.4126V82.8411C190.181 86.0983 187.45 88.6697 184.207 88.6697Z" fill="white"/>
<mask id="mask1_5948_80318" style="mask-type:alpha" maskUnits="userSpaceOnUse" x="30" y="43" width="161" height="46">
<path d="M184.207 88.6697H36.4007C33.1578 88.6697 30.5977 86.0983 30.5977 82.8411V49.4126C30.5977 46.1554 33.1578 43.584 36.4007 43.584H184.207C187.45 43.584 190.01 46.1554 190.01 49.4126V82.8411C190.181 86.0983 187.45 88.6697 184.207 88.6697Z" fill="white"/>
</mask>
<g mask="url(#mask1_5948_80318)">
<rect x="13.8906" y="40.5356" width="20.994" height="51.3801" fill="#FFD3B4"/>
</g>
<path d="M44.7939 61.4664V60.7608H45.4915C45.8016 60.7608 46.0541 60.6726 46.2493 60.4962C46.447 60.3198 46.5459 60.0952 46.5459 59.8226C46.5459 59.5473 46.4537 59.3295 46.2693 59.1691C46.0876 59.0087 45.8283 58.9285 45.4915 58.9285C45.1788 58.9285 44.9249 59.0127 44.7297 59.1811C44.5346 59.3468 44.4237 59.5727 44.397 59.8587H43.551C43.5858 59.3509 43.7809 58.9459 44.1364 58.6439C44.4945 58.3418 44.9596 58.1908 45.5316 58.1908C46.0822 58.1908 46.5353 58.3325 46.8907 58.6158C47.2462 58.8965 47.424 59.2586 47.424 59.7023C47.424 60.0605 47.3157 60.3625 47.0992 60.6084C46.8827 60.8517 46.5941 61.0053 46.2332 61.0695V61.0855C46.6716 61.1149 47.019 61.2553 47.2756 61.5065C47.5349 61.7578 47.6645 62.0852 47.6645 62.4888C47.6645 62.9886 47.4627 63.3975 47.0591 63.7156C46.6555 64.0337 46.149 64.1927 45.5396 64.1927C44.9222 64.1927 44.4237 64.039 44.0442 63.7317C43.6673 63.4216 43.4641 63.014 43.4347 62.5088H44.2967C44.3261 62.7895 44.4504 63.0153 44.6696 63.1864C44.8914 63.3575 45.1815 63.443 45.5396 63.443C45.8924 63.443 46.1824 63.3534 46.4096 63.1744C46.6368 62.9926 46.7504 62.7601 46.7504 62.4768C46.7504 62.164 46.6395 61.9181 46.4176 61.739C46.1985 61.5573 45.8978 61.4664 45.5156 61.4664H44.7939ZM49.6848 63.9762C49.5832 64.0778 49.4589 64.1286 49.3119 64.1286C49.1649 64.1286 49.0406 64.0778 48.939 63.9762C48.8375 63.8747 48.7867 63.7504 48.7867 63.6034C48.7867 63.4564 48.8375 63.3321 48.939 63.2305C49.0406 63.1289 49.1649 63.0781 49.3119 63.0781C49.4589 63.0781 49.5832 63.1289 49.6848 63.2305C49.7863 63.3321 49.8371 63.4564 49.8371 63.6034C49.8371 63.7504 49.7863 63.8747 49.6848 63.9762ZM49.6848 61.0535C49.5832 61.155 49.4589 61.2058 49.3119 61.2058C49.1649 61.2058 49.0406 61.155 48.939 61.0535C48.8375 60.9519 48.7867 60.8276 48.7867 60.6806C48.7867 60.5336 48.8375 60.4093 48.939 60.3077C49.0406 60.2062 49.1649 60.1554 49.3119 60.1554C49.4589 60.1554 49.5832 60.2062 49.6848 60.3077C49.7863 60.4093 49.8371 60.5336 49.8371 60.6806C49.8371 60.8276 49.7863 60.9519 49.6848 61.0535ZM54.74 63.3828C54.3524 63.9228 53.8139 64.1927 53.1243 64.1927C52.4347 64.1927 51.8934 63.9241 51.5005 63.3869C51.1103 62.8469 50.9151 62.1132 50.9151 61.1858C50.9151 60.2663 51.1116 59.538 51.5045 59.0007C51.8974 58.4608 52.4373 58.1908 53.1243 58.1908C53.8112 58.1908 54.3498 58.4595 54.74 58.9967C55.1302 59.5313 55.3253 60.2596 55.3253 61.1818C55.3253 62.1092 55.1302 62.8429 54.74 63.3828ZM52.166 62.8416C52.3932 63.2399 52.7126 63.439 53.1243 63.439C53.5359 63.439 53.8539 63.2399 54.0785 62.8416C54.3057 62.4407 54.4193 61.8887 54.4193 61.1858C54.4193 60.4908 54.3043 59.9442 54.0745 59.546C53.8473 59.145 53.5305 58.9446 53.1243 58.9446C52.718 58.9446 52.3999 59.145 52.17 59.546C51.9402 59.9469 51.8252 60.4935 51.8252 61.1858C51.8252 61.8887 51.9388 62.4407 52.166 62.8416ZM60.0318 63.3828C59.6442 63.9228 59.1056 64.1927 58.416 64.1927C57.7264 64.1927 57.1852 63.9241 56.7923 63.3869C56.402 62.8469 56.2069 62.1132 56.2069 61.1858C56.2069 60.2663 56.4034 59.538 56.7963 59.0007C57.1892 58.4608 57.7291 58.1908 58.416 58.1908C59.103 58.1908 59.6415 58.4595 60.0318 58.9967C60.422 59.5313 60.6171 60.2596 60.6171 61.1818C60.6171 62.1092 60.422 62.8429 60.0318 63.3828ZM57.4578 62.8416C57.685 63.2399 58.0044 63.439 58.416 63.439C58.8277 63.439 59.1457 63.2399 59.3703 62.8416C59.5974 62.4407 59.711 61.8887 59.711 61.1858C59.711 60.4908 59.5961 59.9442 59.3662 59.546C59.1391 59.145 58.8223 58.9446 58.416 58.9446C58.0098 58.9446 57.6917 59.145 57.4618 59.546C57.232 59.9469 57.117 60.4935 57.117 61.1858C57.117 61.8887 57.2306 62.4407 57.4578 62.8416ZM66.0889 62.1279H63.4588V61.3461H66.0889V62.1279ZM70.2817 61.4664V60.7608H70.9793C71.2893 60.7608 71.5419 60.6726 71.737 60.4962C71.9348 60.3198 72.0337 60.0952 72.0337 59.8226C72.0337 59.5473 71.9415 59.3295 71.7571 59.1691C71.5753 59.0087 71.3161 58.9285 70.9793 58.9285C70.6666 58.9285 70.4126 59.0127 70.2175 59.1811C70.0224 59.3468 69.9115 59.5727 69.8848 59.8587H69.0388C69.0735 59.3509 69.2687 58.9459 69.6242 58.6439C69.9823 58.3418 70.4474 58.1908 71.0194 58.1908C71.57 58.1908 72.023 58.3325 72.3785 58.6158C72.734 58.8965 72.9118 59.2586 72.9118 59.7023C72.9118 60.0605 72.8035 60.3625 72.587 60.6084C72.3705 60.8517 72.0818 61.0053 71.721 61.0695V61.0855C72.1594 61.1149 72.5068 61.2553 72.7634 61.5065C73.0227 61.7578 73.1523 62.0852 73.1523 62.4888C73.1523 62.9886 72.9505 63.3975 72.5469 63.7156C72.1433 64.0337 71.6368 64.1927 71.0274 64.1927C70.41 64.1927 69.9115 64.039 69.5319 63.7317C69.1551 63.4216 68.9519 63.014 68.9225 62.5088H69.7845C69.8139 62.7895 69.9382 63.0153 70.1574 63.1864C70.3792 63.3575 70.6692 63.443 71.0274 63.443C71.3802 63.443 71.6702 63.3534 71.8974 63.1744C72.1246 62.9926 72.2382 62.7601 72.2382 62.4768C72.2382 62.164 72.1273 61.9181 71.9054 61.739C71.6863 61.5573 71.3856 61.4664 71.0033 61.4664H70.2817ZM75.1725 63.9762C75.071 64.0778 74.9467 64.1286 74.7997 64.1286C74.6527 64.1286 74.5284 64.0778 74.4268 63.9762C74.3252 63.8747 74.2745 63.7504 74.2745 63.6034C74.2745 63.4564 74.3252 63.3321 74.4268 63.2305C74.5284 63.1289 74.6527 63.0781 74.7997 63.0781C74.9467 63.0781 75.071 63.1289 75.1725 63.2305C75.2741 63.3321 75.3249 63.4564 75.3249 63.6034C75.3249 63.7504 75.2741 63.8747 75.1725 63.9762ZM75.1725 61.0535C75.071 61.155 74.9467 61.2058 74.7997 61.2058C74.6527 61.2058 74.5284 61.155 74.4268 61.0535C74.3252 60.9519 74.2745 60.8276 74.2745 60.6806C74.2745 60.5336 74.3252 60.4093 74.4268 60.3077C74.5284 60.2062 74.6527 60.1554 74.7997 60.1554C74.9467 60.1554 75.071 60.2062 75.1725 60.3077C75.2741 60.4093 75.3249 60.5336 75.3249 60.6806C75.3249 60.8276 75.2741 60.9519 75.1725 61.0535ZM76.455 59.995C76.455 59.4738 76.6421 59.0435 77.0163 58.704C77.3932 58.3619 77.869 58.1908 78.4436 58.1908C78.9943 58.1908 79.4527 58.3459 79.8188 58.6559C80.185 58.966 80.3681 59.3509 80.3681 59.8106C80.3681 60.134 80.2786 60.4414 80.0995 60.7327C79.9204 61.0214 79.6077 61.3942 79.1613 61.8513L77.714 63.3067V63.3267H80.4603V64.0845H76.5032V63.4751L78.592 61.3461C78.9448 60.9773 79.1814 60.694 79.3016 60.4962C79.4219 60.2957 79.4821 60.0819 79.4821 59.8547C79.4821 59.5981 79.3791 59.3803 79.1733 59.2012C78.9675 59.0221 78.7149 58.9325 78.4156 58.9325C78.1002 58.9325 77.8356 59.0341 77.6217 59.2373C77.4106 59.4377 77.305 59.689 77.305 59.991V60.003H76.455V59.995ZM85.1587 63.3828C84.7712 63.9228 84.2326 64.1927 83.543 64.1927C82.8534 64.1927 82.3121 63.9241 81.9192 63.3869C81.529 62.8469 81.3339 62.1132 81.3339 61.1858C81.3339 60.2663 81.5303 59.538 81.9232 59.0007C82.3162 58.4608 82.8561 58.1908 83.543 58.1908C84.2299 58.1908 84.7685 58.4595 85.1587 58.9967C85.549 59.5313 85.7441 60.2596 85.7441 61.1818C85.7441 62.1092 85.549 62.8429 85.1587 63.3828ZM82.5848 62.8416C82.812 63.2399 83.1314 63.439 83.543 63.439C83.9546 63.439 84.2727 63.2399 84.4972 62.8416C84.7244 62.4407 84.838 61.8887 84.838 61.1858C84.838 60.4908 84.7231 59.9442 84.4932 59.546C84.266 59.145 83.9493 58.9446 83.543 58.9446C83.1367 58.9446 82.8186 59.145 82.5888 59.546C82.3589 59.9469 82.244 60.4935 82.244 61.1858C82.244 61.8887 82.3576 62.4407 82.5848 62.8416Z" fill="#1A202C"/>
<path d="M45.8323 73.9116V68.7757H47.6565V68.1262H43.2864V68.7757H45.1106V73.9116H45.8323ZM49.1315 73.9838C50.2821 73.9838 51.0599 73.1539 51.0599 71.8268C51.0599 70.4957 50.2821 69.6698 49.1315 69.6698C47.9768 69.6698 47.199 70.4957 47.199 71.8268C47.199 73.1539 47.9768 73.9838 49.1315 73.9838ZM49.1315 73.3704C48.3938 73.3704 47.9086 72.8091 47.9086 71.8268C47.9086 70.8445 48.3938 70.2832 49.1315 70.2832C49.8692 70.2832 50.3503 70.8445 50.3503 71.8268C50.3503 72.8091 49.8692 73.3704 49.1315 73.3704ZM53.5212 73.9838C54.1226 73.9838 54.5997 73.6871 54.8683 73.206H54.8803V73.9116H55.5459V68.1262H54.8482V70.4195H54.8322C54.5836 69.9625 54.1025 69.6698 53.5051 69.6698C52.4547 69.6698 51.737 70.5198 51.737 71.8268C51.737 73.1338 52.4587 73.9838 53.5212 73.9838ZM53.6535 70.2832C54.3711 70.2832 54.8523 70.8966 54.8523 71.8268C54.8523 72.761 54.3711 73.3704 53.6535 73.3704C52.9158 73.3704 52.4507 72.773 52.4507 71.8268C52.4507 70.8846 52.9158 70.2832 53.6535 70.2832ZM58.0392 73.3904C57.538 73.3904 57.2052 73.1298 57.2052 72.7329C57.2052 72.34 57.526 72.0914 58.0873 72.0553L59.2019 71.9872V72.328C59.2019 72.9293 58.6967 73.3904 58.0392 73.3904ZM57.8828 73.9838C58.4441 73.9838 58.9733 73.6711 59.2219 73.194H59.2379V73.9116H59.8995V71.0289C59.8995 70.199 59.282 69.6698 58.3038 69.6698C57.3175 69.6698 56.7001 70.2231 56.652 70.9448H57.3255C57.4137 70.5358 57.7505 70.2832 58.2877 70.2832C58.8651 70.2832 59.2019 70.5879 59.2019 71.0971V71.4459L58.0071 71.5141C57.0449 71.5702 56.4956 72.0192 56.4956 72.7329C56.4956 73.4826 57.0529 73.9838 57.8828 73.9838ZM61.3063 75.4712C62.06 75.4712 62.4048 75.1786 62.7616 74.2043L64.4014 69.742H63.6677L62.5131 73.214H62.501L61.3464 69.742H60.6006L62.1402 73.9156L62.044 74.2083C61.8836 74.6934 61.6671 74.8819 61.2782 74.8819C61.19 74.8819 61.0818 74.8779 61.0056 74.8618V75.4472C61.0818 75.4632 61.2221 75.4712 61.3063 75.4712Z" fill="#718096"/>
<path d="M137.117 63.1594H111.91C111.253 63.1594 110.859 62.632 110.859 62.1045V58.8079C110.859 58.1485 111.385 57.7529 111.91 57.7529H137.117C137.773 57.7529 138.167 58.2804 138.167 58.8079V62.1045C138.167 62.7638 137.773 63.1594 137.117 63.1594Z" fill="#CED6E2"/>
<path d="M167.05 74.5003H111.91C111.253 74.5003 110.859 73.9728 110.859 73.4453V70.1487C110.859 69.4893 111.385 69.0938 111.91 69.0938H166.919C167.576 69.0938 167.969 69.6212 167.969 70.1487V73.4453C168.101 73.9728 167.576 74.5003 167.05 74.5003Z" fill="#CED6E2"/>
</g>
<g filter="url(#filter2_d_5948_80318)">
<path d="M170.785 74.6697H22.9788C19.7359 74.6697 17.1758 72.0983 17.1758 68.8411V35.4126C17.1758 32.1554 19.7359 29.584 22.9788 29.584H170.785C174.028 29.584 176.589 32.1554 176.589 35.4126V68.8411C176.759 72.0983 174.028 74.6697 170.785 74.6697Z" fill="white"/>
<mask id="mask2_5948_80318" style="mask-type:alpha" maskUnits="userSpaceOnUse" x="17" y="29" width="160" height="46">
<path d="M170.785 74.6697H22.9788C19.7359 74.6697 17.1758 72.0983 17.1758 68.8411V35.4126C17.1758 32.1554 19.7359 29.584 22.9788 29.584H170.785C174.028 29.584 176.589 32.1554 176.589 35.4126V68.8411C176.759 72.0983 174.028 74.6697 170.785 74.6697Z" fill="white"/>
</mask>
<g mask="url(#mask2_5948_80318)">
<rect x="0.46875" y="26.5356" width="20.994" height="51.3801" fill="#CDF0D5"/>
</g>
<path d="M31.372 47.4664V46.7608H32.0696C32.3797 46.7608 32.6323 46.6726 32.8274 46.4962C33.0252 46.3198 33.1241 46.0952 33.1241 45.8226C33.1241 45.5473 33.0319 45.3295 32.8474 45.1691C32.6657 45.0087 32.4064 44.9285 32.0696 44.9285C31.7569 44.9285 31.503 45.0127 31.3079 45.1811C31.1127 45.3468 31.0018 45.5727 30.9751 45.8587H30.1291C30.1639 45.3509 30.359 44.9459 30.7145 44.6439C31.0727 44.3418 31.5377 44.1908 32.1097 44.1908C32.6603 44.1908 33.1134 44.3325 33.4689 44.6158C33.8244 44.8965 34.0021 45.2586 34.0021 45.7023C34.0021 46.0605 33.8939 46.3625 33.6774 46.6084C33.4608 46.8517 33.1722 47.0053 32.8113 47.0695V47.0855C33.2497 47.1149 33.5972 47.2553 33.8538 47.5065C34.113 47.7578 34.2427 48.0852 34.2427 48.4888C34.2427 48.9886 34.0409 49.3975 33.6373 49.7156C33.2337 50.0337 32.7272 50.1927 32.1177 50.1927C31.5003 50.1927 31.0018 50.039 30.6223 49.7317C30.2454 49.4216 30.0423 49.014 30.0129 48.5088H30.8749C30.9043 48.7895 31.0286 49.0153 31.2477 49.1864C31.4696 49.3575 31.7596 49.443 32.1177 49.443C32.4706 49.443 32.7606 49.3534 32.9878 49.1744C33.2149 48.9926 33.3285 48.7601 33.3285 48.4768C33.3285 48.164 33.2176 47.9181 32.9958 47.739C32.7766 47.5573 32.4759 47.4664 32.0937 47.4664H31.372ZM36.2629 49.9762C36.1613 50.0778 36.037 50.1286 35.89 50.1286C35.743 50.1286 35.6187 50.0778 35.5172 49.9762C35.4156 49.8747 35.3648 49.7504 35.3648 49.6034C35.3648 49.4564 35.4156 49.3321 35.5172 49.2305C35.6187 49.1289 35.743 49.0781 35.89 49.0781C36.037 49.0781 36.1613 49.1289 36.2629 49.2305C36.3644 49.3321 36.4152 49.4564 36.4152 49.6034C36.4152 49.7504 36.3644 49.8747 36.2629 49.9762ZM36.2629 47.0535C36.1613 47.155 36.037 47.2058 35.89 47.2058C35.743 47.2058 35.6187 47.155 35.5172 47.0535C35.4156 46.9519 35.3648 46.8276 35.3648 46.6806C35.3648 46.5336 35.4156 46.4093 35.5172 46.3077C35.6187 46.2062 35.743 46.1554 35.89 46.1554C36.037 46.1554 36.1613 46.2062 36.2629 46.3077C36.3644 46.4093 36.4152 46.5336 36.4152 46.6806C36.4152 46.8276 36.3644 46.9519 36.2629 47.0535ZM41.3181 49.3828C40.9306 49.9228 40.392 50.1927 39.7024 50.1927C39.0128 50.1927 38.4715 49.9241 38.0786 49.3869C37.6884 48.8469 37.4933 48.1132 37.4933 47.1858C37.4933 46.2663 37.6897 45.538 38.0826 45.0007C38.4755 44.4608 39.0155 44.1908 39.7024 44.1908C40.3893 44.1908 40.9279 44.4595 41.3181 44.9967C41.7084 45.5313 41.9035 46.2596 41.9035 47.1818C41.9035 48.1092 41.7084 48.8429 41.3181 49.3828ZM38.7442 48.8416C38.9714 49.2399 39.2908 49.439 39.7024 49.439C40.114 49.439 40.4321 49.2399 40.6566 48.8416C40.8838 48.4407 40.9974 47.8887 40.9974 47.1858C40.9974 46.4908 40.8824 45.9442 40.6526 45.546C40.4254 45.145 40.1087 44.9446 39.7024 44.9446C39.2961 44.9446 38.978 45.145 38.7482 45.546C38.5183 45.9469 38.4034 46.4935 38.4034 47.1858C38.4034 47.8887 38.517 48.4407 38.7442 48.8416ZM46.6099 49.3828C46.2223 49.9228 45.6838 50.1927 44.9942 50.1927C44.3046 50.1927 43.7633 49.9241 43.3704 49.3869C42.9802 48.8469 42.7851 48.1132 42.7851 47.1858C42.7851 46.2663 42.9815 45.538 43.3744 45.0007C43.7673 44.4608 44.3072 44.1908 44.9942 44.1908C45.6811 44.1908 46.2197 44.4595 46.6099 44.9967C47.0001 45.5313 47.1953 46.2596 47.1953 47.1818C47.1953 48.1092 47.0001 48.8429 46.6099 49.3828ZM44.036 48.8416C44.2631 49.2399 44.5825 49.439 44.9942 49.439C45.4058 49.439 45.7239 49.2399 45.9484 48.8416C46.1756 48.4407 46.2892 47.8887 46.2892 47.1858C46.2892 46.4908 46.1742 45.9442 45.9444 45.546C45.7172 45.145 45.4004 44.9446 44.9942 44.9446C44.5879 44.9446 44.2698 45.145 44.04 45.546C43.8101 45.9469 43.6952 46.4935 43.6952 47.1858C43.6952 47.8887 43.8088 48.4407 44.036 48.8416ZM52.667 48.1279H50.0369V47.3461H52.667V48.1279ZM56.8598 47.4664V46.7608H57.5574C57.8675 46.7608 58.1201 46.6726 58.3152 46.4962C58.513 46.3198 58.6119 46.0952 58.6119 45.8226C58.6119 45.5473 58.5196 45.3295 58.3352 45.1691C58.1535 45.0087 57.8942 44.9285 57.5574 44.9285C57.2447 44.9285 56.9908 45.0127 56.7957 45.1811C56.6005 45.3468 56.4896 45.5727 56.4629 45.8587H55.6169C55.6517 45.3509 55.8468 44.9459 56.2023 44.6439C56.5604 44.3418 57.0255 44.1908 57.5975 44.1908C58.1481 44.1908 58.6012 44.3325 58.9567 44.6158C59.3121 44.8965 59.4899 45.2586 59.4899 45.7023C59.4899 46.0605 59.3816 46.3625 59.1651 46.6084C58.9486 46.8517 58.66 47.0053 58.2991 47.0695V47.0855C58.7375 47.1149 59.085 47.2553 59.3415 47.5065C59.6008 47.7578 59.7304 48.0852 59.7304 48.4888C59.7304 48.9886 59.5286 49.3975 59.125 49.7156C58.7214 50.0337 58.2149 50.1927 57.6055 50.1927C56.9881 50.1927 56.4896 50.039 56.1101 49.7317C55.7332 49.4216 55.5301 49.014 55.5007 48.5088H56.3626C56.3921 48.7895 56.5163 49.0153 56.7355 49.1864C56.9574 49.3575 57.2474 49.443 57.6055 49.443C57.9583 49.443 58.2483 49.3534 58.4755 49.1744C58.7027 48.9926 58.8163 48.7601 58.8163 48.4768C58.8163 48.164 58.7054 47.9181 58.4836 47.739C58.2644 47.5573 57.9637 47.4664 57.5815 47.4664H56.8598ZM61.7507 49.9762C61.6491 50.0778 61.5248 50.1286 61.3778 50.1286C61.2308 50.1286 61.1065 50.0778 61.0049 49.9762C60.9034 49.8747 60.8526 49.7504 60.8526 49.6034C60.8526 49.4564 60.9034 49.3321 61.0049 49.2305C61.1065 49.1289 61.2308 49.0781 61.3778 49.0781C61.5248 49.0781 61.6491 49.1289 61.7507 49.2305C61.8522 49.3321 61.903 49.4564 61.903 49.6034C61.903 49.7504 61.8522 49.8747 61.7507 49.9762ZM61.7507 47.0535C61.6491 47.155 61.5248 47.2058 61.3778 47.2058C61.2308 47.2058 61.1065 47.155 61.0049 47.0535C60.9034 46.9519 60.8526 46.8276 60.8526 46.6806C60.8526 46.5336 60.9034 46.4093 61.0049 46.3077C61.1065 46.2062 61.2308 46.1554 61.3778 46.1554C61.5248 46.1554 61.6491 46.2062 61.7507 46.3077C61.8522 46.4093 61.903 46.5336 61.903 46.6806C61.903 46.8276 61.8522 46.9519 61.7507 47.0535ZM63.0332 45.995C63.0332 45.4738 63.2203 45.0435 63.5945 44.704C63.9713 44.3619 64.4471 44.1908 65.0218 44.1908C65.5724 44.1908 66.0308 44.3459 66.397 44.6559C66.7631 44.966 66.9462 45.3509 66.9462 45.8106C66.9462 46.134 66.8567 46.4414 66.6776 46.7327C66.4985 47.0214 66.1858 47.3942 65.7394 47.8513L64.2921 49.3067V49.3267H67.0384V50.0845H63.0813V49.4751L65.1701 47.3461C65.5229 46.9773 65.7595 46.694 65.8798 46.4962C66 46.2957 66.0602 46.0819 66.0602 45.8547C66.0602 45.5981 65.9573 45.3803 65.7515 45.2012C65.5457 45.0221 65.2931 44.9325 64.9937 44.9325C64.6783 44.9325 64.4137 45.0341 64.1999 45.2373C63.9887 45.4377 63.8831 45.689 63.8831 45.991V46.003H63.0332V45.995ZM71.7369 49.3828C71.3493 49.9228 70.8107 50.1927 70.1211 50.1927C69.4315 50.1927 68.8903 49.9241 68.4974 49.3869C68.1071 48.8469 67.912 48.1132 67.912 47.1858C67.912 46.2663 68.1085 45.538 68.5014 45.0007C68.8943 44.4608 69.4342 44.1908 70.1211 44.1908C70.808 44.1908 71.3466 44.4595 71.7369 44.9967C72.1271 45.5313 72.3222 46.2596 72.3222 47.1818C72.3222 48.1092 72.1271 48.8429 71.7369 49.3828ZM69.1629 48.8416C69.3901 49.2399 69.7095 49.439 70.1211 49.439C70.5327 49.439 70.8508 49.2399 71.0753 48.8416C71.3025 48.4407 71.4161 47.8887 71.4161 47.1858C71.4161 46.4908 71.3012 45.9442 71.0713 45.546C70.8441 45.145 70.5274 44.9446 70.1211 44.9446C69.7148 44.9446 69.3968 45.145 69.1669 45.546C68.937 45.9469 68.8221 46.4935 68.8221 47.1858C68.8221 47.8887 68.9357 48.4407 69.1629 48.8416Z" fill="#1A202C"/>
<path d="M32.4104 59.9116V54.7757H34.2346V54.1262H29.8645V54.7757H31.6887V59.9116H32.4104ZM35.7096 59.9838C36.8603 59.9838 37.6381 59.1539 37.6381 57.8268C37.6381 56.4957 36.8603 55.6698 35.7096 55.6698C34.5549 55.6698 33.7771 56.4957 33.7771 57.8268C33.7771 59.1539 34.5549 59.9838 35.7096 59.9838ZM35.7096 59.3704C34.9719 59.3704 34.4868 58.8091 34.4868 57.8268C34.4868 56.8445 34.9719 56.2832 35.7096 56.2832C36.4473 56.2832 36.9284 56.8445 36.9284 57.8268C36.9284 58.8091 36.4473 59.3704 35.7096 59.3704ZM40.0993 59.9838C40.7007 59.9838 41.1778 59.6871 41.4464 59.206H41.4584V59.9116H42.124V54.1262H41.4264V56.4195H41.4103C41.1618 55.9625 40.6806 55.6698 40.0833 55.6698C39.0328 55.6698 38.3152 56.5198 38.3152 57.8268C38.3152 59.1338 39.0368 59.9838 40.0993 59.9838ZM40.2316 56.2832C40.9493 56.2832 41.4304 56.8966 41.4304 57.8268C41.4304 58.761 40.9493 59.3704 40.2316 59.3704C39.4939 59.3704 39.0288 58.773 39.0288 57.8268C39.0288 56.8846 39.4939 56.2832 40.2316 56.2832ZM44.6173 59.3904C44.1161 59.3904 43.7834 59.1298 43.7834 58.7329C43.7834 58.34 44.1041 58.0914 44.6654 58.0553L45.78 57.9872V58.328C45.78 58.9293 45.2748 59.3904 44.6173 59.3904ZM44.4609 59.9838C45.0222 59.9838 45.5515 59.6711 45.8 59.194H45.8161V59.9116H46.4776V57.0289C46.4776 56.199 45.8602 55.6698 44.8819 55.6698C43.8956 55.6698 43.2782 56.2231 43.2301 56.9448H43.9036C43.9918 56.5358 44.3286 56.2832 44.8659 56.2832C45.4432 56.2832 45.78 56.5879 45.78 57.0971V57.4459L44.5852 57.5141C43.623 57.5702 43.0737 58.0192 43.0737 58.7329C43.0737 59.4826 43.631 59.9838 44.4609 59.9838ZM47.8844 61.4712C48.6381 61.4712 48.9829 61.1786 49.3398 60.2043L50.9796 55.742H50.2459L49.0912 59.214H49.0792L47.9245 55.742H47.1788L48.7183 59.9156L48.6221 60.2083C48.4617 60.6934 48.2452 60.8819 47.8563 60.8819C47.7681 60.8819 47.6599 60.8779 47.5837 60.8618V61.4472C47.6599 61.4632 47.8002 61.4712 47.8844 61.4712Z" fill="#718096"/>
<path d="M123.695 49.1594H98.4878C97.8314 49.1594 97.4375 48.632 97.4375 48.1045V44.8079C97.4375 44.1485 97.9626 43.7529 98.4878 43.7529H123.695C124.351 43.7529 124.745 44.2804 124.745 44.8079V48.1045C124.745 48.7638 124.351 49.1594 123.695 49.1594Z" fill="#CED6E2"/>
<path d="M153.629 60.5003H98.4878C97.8314 60.5003 97.4375 59.9728 97.4375 59.4453V56.1487C97.4375 55.4893 97.9626 55.0938 98.4878 55.0938H153.497C154.154 55.0938 154.548 55.6212 154.548 56.1487V59.4453C154.679 59.9728 154.154 60.5003 153.629 60.5003Z" fill="#CED6E2"/>
</g>
<path d="M36.8047 61.6128C36.9754 61.7842 37.146 61.9556 37.3167 62.1271C37.146 61.9556 36.9754 61.7842 36.8047 61.6128Z" fill="#3973F4"/>
<defs>
<filter id="filter0_d_5948_80318" x="33.0195" y="48.584" width="181.422" height="67.0859" filterUnits="userSpaceOnUse" color-interpolation-filters="sRGB">
<feFlood flood-opacity="0" result="BackgroundImageFix"/>
<feColorMatrix in="SourceAlpha" type="matrix" values="0 0 0 0 0 0 0 0 0 0 0 0 0 0 0 0 0 0 127 0" result="hardAlpha"/>
<feOffset dy="2"/>
<feGaussianBlur stdDeviation="5.5"/>
<feComposite in2="hardAlpha" operator="out"/>
<feColorMatrix type="matrix" values="0 0 0 0 0.917647 0 0 0 0 0.933333 0 0 0 0 0.976471 0 0 0 0.9 0"/>
<feBlend mode="normal" in2="BackgroundImageFix" result="effect1_dropShadow_5948_80318"/>
<feBlend mode="normal" in="SourceGraphic" in2="effect1_dropShadow_5948_80318" result="shape"/>
</filter>
<filter id="filter1_d_5948_80318" x="19.5977" y="34.584" width="181.422" height="67.0859" filterUnits="userSpaceOnUse" color-interpolation-filters="sRGB">
<feFlood flood-opacity="0" result="BackgroundImageFix"/>
<feColorMatrix in="SourceAlpha" type="matrix" values="0 0 0 0 0 0 0 0 0 0 0 0 0 0 0 0 0 0 127 0" result="hardAlpha"/>
<feOffset dy="2"/>
<feGaussianBlur stdDeviation="5.5"/>
<feComposite in2="hardAlpha" operator="out"/>
<feColorMatrix type="matrix" values="0 0 0 0 0.917647 0 0 0 0 0.933333 0 0 0 0 0.976471 0 0 0 0.9 0"/>
<feBlend mode="normal" in2="BackgroundImageFix" result="effect1_dropShadow_5948_80318"/>
<feBlend mode="normal" in="SourceGraphic" in2="effect1_dropShadow_5948_80318" result="shape"/>
</filter>
<filter id="filter2_d_5948_80318" x="6.17578" y="20.584" width="181.422" height="67.0859" filterUnits="userSpaceOnUse" color-interpolation-filters="sRGB">
<feFlood flood-opacity="0" result="BackgroundImageFix"/>
<feColorMatrix in="SourceAlpha" type="matrix" values="0 0 0 0 0 0 0 0 0 0 0 0 0 0 0 0 0 0 127 0" result="hardAlpha"/>
<feOffset dy="2"/>
<feGaussianBlur stdDeviation="5.5"/>
<feComposite in2="hardAlpha" operator="out"/>
<feColorMatrix type="matrix" values="0 0 0 0 0.917647 0 0 0 0 0.933333 0 0 0 0 0.976471 0 0 0 0.9 0"/>
<feBlend mode="normal" in2="BackgroundImageFix" result="effect1_dropShadow_5948_80318"/>
<feBlend mode="normal" in="SourceGraphic" in2="effect1_dropShadow_5948_80318" result="shape"/>
</filter>
<linearGradient id="paint0_linear_5948_80318" x1="65.2244" y1="11.0725" x2="65.2244" y2="8.23929" gradientUnits="userSpaceOnUse">
<stop stop-color="white"/>
<stop offset="1" stop-color="#E2E5EC"/>
</linearGradient>
</defs>
</svg>
