<svg width="15" height="17" viewBox="0 0 15 17" fill="none" xmlns="http://www.w3.org/2000/svg">
<path d="M6.85938 0.168945C5.75481 0.168945 4.85938 1.06438 4.85938 2.16895V10.1689C4.85938 11.2735 5.7548 12.1689 6.85938 12.1689H12.8594C13.9639 12.1689 14.8594 11.2735 14.8594 10.1689V4.58316C14.8594 4.05273 14.6487 3.54402 14.2736 3.16895L11.8594 0.754732C11.4843 0.379659 10.9756 0.168945 10.4452 0.168945H6.85938Z" fill="#718096"/>
<path d="M0.859375 6.16895C0.859375 5.06438 1.75481 4.16895 2.85938 4.16895V14.1689H10.8594C10.8594 15.2735 9.96394 16.1689 8.85938 16.1689H2.85937C1.7548 16.1689 0.859375 15.2735 0.859375 14.1689V6.16895Z" fill="#718096"/>
</svg>
