<svg width="141" height="113" viewBox="0 0 141 113" fill="none" xmlns="http://www.w3.org/2000/svg">
<path d="M72.3946 104.905C100.021 104.905 122.416 82.4887 122.416 54.8378C122.416 27.1869 100.021 4.77148 72.3946 4.77148C44.7685 4.77148 22.373 27.1869 22.373 54.8378C22.373 82.4887 44.7685 104.905 72.3946 104.905Z" fill="#EAEEF9"/>
<path d="M131.693 66.2078C133.806 66.2078 135.518 64.494 135.518 62.3798C135.518 60.2657 133.806 58.5518 131.693 58.5518C129.581 58.5518 127.869 60.2657 127.869 62.3798C127.869 64.494 129.581 66.2078 131.693 66.2078Z" fill="#EAEEF9"/>
<path d="M26.8014 20.4226C28.191 20.4226 29.3175 19.295 29.3175 17.9041C29.3175 16.5132 28.191 15.3857 26.8014 15.3857C25.4117 15.3857 24.2852 16.5132 24.2852 17.9041C24.2852 19.295 25.4117 20.4226 26.8014 20.4226Z" fill="#EAEEF9"/>
<path d="M108 56.0011C108 66.4447 103.583 75.7779 96.5152 82.4441C94.5276 84.222 92.5399 85.7772 90.1105 87.1118C84.8097 90.2221 78.6257 92 72 92C65.3743 92 59.1903 90.2221 53.8897 87.1118C53.0063 86.6662 52.3436 86.2228 51.4601 85.5566C42.1842 79.111 36 68.2227 36 56.0011C36 36.0016 52.1228 20.0023 71.7793 20.0023C91.8772 19.7799 108 36.0016 108 56.0011Z" fill="#DCE2F0"/>
<path d="M64.1808 62.5688C64.6202 63.0087 65.0597 63.6685 65.7188 64.1086C66.1583 64.5474 66.5977 64.7679 67.0372 65.2089C67.257 65.4272 67.6965 65.6477 67.9161 65.8682C67.9161 65.8682 68.136 65.8682 68.136 66.0887L68.3556 66.307V69.3874C68.3556 69.3874 68.3556 69.3875 68.136 69.167C67.9161 68.9465 67.4767 68.726 67.257 68.5076C66.8176 68.2871 66.3781 67.8461 65.9386 67.6278C65.7188 67.6278 65.7188 67.4073 65.4992 67.4073C63.9611 66.5275 62.6427 65.6477 62.6427 64.5474C62.8624 64.1086 63.3018 63.4486 64.1808 62.5688ZM95.3822 79.7225C94.0637 76.8647 91.6468 74.0048 88.5705 72.4657C87.0325 71.8064 85.2746 71.1449 83.5169 71.1449C83.0775 71.1449 82.4182 71.1449 81.9787 71.1449C81.7591 71.1449 81.5392 71.1449 81.3196 71.1449C78.9026 70.9266 78.6828 70.4856 78.6828 70.4856V65.4272C80.2208 64.1086 81.7591 62.5688 83.0775 61.0295C84.176 59.4899 85.055 57.7305 85.4944 55.5312C87.4719 55.0915 88.7903 53.3321 88.5705 51.1328C88.5705 50.253 87.9114 49.3734 87.9114 48.4936C87.9114 48.0539 87.9114 47.614 87.9114 47.1741C87.9114 46.9543 87.9114 46.5143 87.9114 46.2945C87.9114 46.0744 87.9114 45.6348 87.9114 45.4147C87.6916 43.8754 87.2523 42.3358 86.3734 40.5764C83.7366 35.7381 78.9026 32.6592 73.1895 32.6592C72.091 32.6592 70.9924 32.879 69.8936 33.0989C67.9161 33.5388 65.9386 34.4186 64.4006 35.7381C64.1808 35.9579 63.7413 36.178 63.5217 36.6177L63.3018 36.8377C61.5442 38.5971 60.0059 40.5764 59.3468 42.9955C58.4679 45.4147 58.4679 47.8338 58.6875 50.253C58.6875 50.253 58.6875 50.253 58.6875 50.4731V50.6929C58.6875 51.1328 58.9074 51.1328 58.6875 51.3526C58.6875 51.5727 58.4679 51.5727 58.4679 51.7925C58.0284 52.4523 57.8088 53.3321 58.248 54.6516C59.127 56.8507 60.4454 56.6309 61.9834 57.7305C61.9834 57.7305 61.7638 57.7305 61.7638 57.9503L60.2258 58.3903C53.1945 60.5896 50.7773 66.5275 53.8536 70.2673C54.9521 71.5859 56.71 72.6862 59.3468 73.3455C58.6875 73.3455 58.0284 73.7843 57.589 74.2253C54.5127 76.6443 52.5352 80.3818 52.0957 83.9011C52.0957 84.1216 52.0957 84.3421 52.0957 84.5604C52.9746 85.0014 53.634 85.6607 54.5127 86.1017H89.4494C91.6468 84.7809 93.8441 83.2417 95.8216 81.4821C95.6018 80.3818 95.6018 79.943 95.3822 79.7225Z" fill="white"/>
<path d="M95.8245 80.8203C93.847 82.5799 91.8695 84.1191 89.4525 85.4399C84.1789 88.5181 78.0266 90.2777 71.4347 90.2777C64.8429 90.2777 58.6906 88.5181 53.417 85.4399C52.5383 84.9989 51.8789 84.5601 51 83.8986C51 83.6803 51 83.4598 51 83.2393C51.4395 79.72 53.4172 75.9825 56.4932 73.5635C56.9327 73.1225 57.5918 72.9042 58.2511 72.6837C55.6143 72.2427 53.8564 71.1446 52.7579 69.6055H61.1076C63.5245 72.9042 67.2599 74.8821 71.6546 74.8821C75.39 74.8821 78.6859 73.343 81.1028 70.9241C81.3225 70.9241 81.5423 70.9241 81.7619 70.9241C82.2014 70.9241 82.6409 70.9241 83.3 70.9241C85.0578 70.9241 86.8157 71.3629 88.3537 72.2427C91.43 73.784 93.6274 76.4213 95.1654 79.5017C95.6049 79.9405 95.6049 80.3815 95.8245 80.8203Z" fill="#EAEEF9"/>
<path d="M78.9052 65.4297V70.047L65.0625 70.488L65.7216 67.4076C65.9412 67.4076 65.9412 67.6281 66.1611 67.6281C66.6005 67.8486 67.04 68.2874 67.4795 68.5079C67.6991 68.7284 67.9189 68.9467 68.3584 69.1672C68.3584 69.1672 68.578 69.1672 68.578 69.3877V66.3095L68.3584 66.089C70.7754 67.4076 74.0713 68.2874 78.9052 65.4297Z" fill="url(#paint0_linear_5617_70953)"/>
<path d="M87.9142 46.2951C85.2774 47.1747 82.2013 47.6146 79.3449 47.3947C74.7306 46.9548 70.3359 45.1954 66.8204 42.1165C65.7218 45.4152 62.8651 47.8346 59.5692 49.374C59.1298 49.594 58.6903 49.8139 58.2511 49.8139C58.2511 49.8139 58.2511 49.8139 58.2511 49.594C58.0312 47.1747 58.0312 44.7555 58.9101 42.3363C59.5692 39.9172 61.1075 37.938 62.8651 36.1786L63.085 35.9587C63.3046 35.7387 63.7441 35.5188 63.9639 35.0789C65.502 33.7594 67.4795 32.8796 69.4572 32.4399C70.5557 32.2198 71.6543 32 72.7531 32C78.466 32 83.5197 35.0789 85.9367 39.9172C86.8156 41.6766 87.2551 43.436 87.4747 44.7555C87.9142 45.6353 87.9142 46.0752 87.9142 46.2951Z" fill="#A2ABBC"/>
<path d="M70.3335 78.8427C69.0151 80.3818 66.8179 80.3818 64.8402 80.3818C66.8179 78.4017 65.7192 72.0247 58.6879 72.684C49.0198 70.9244 49.8987 60.8079 59.5668 57.729L61.1049 57.2891L61.3247 57.5089C61.9838 59.4884 63.0826 61.2478 64.1811 62.5673C60.2259 65.866 65.7192 66.7458 68.356 69.3852C70.5533 70.7039 72.5308 76.2032 70.3335 78.8427Z" fill="#A2ABBC"/>
<path d="M108 56.0011C108 66.4447 103.583 75.7779 96.5152 82.4441C94.5276 84.222 92.5399 85.7772 90.1105 87.1118C84.8097 90.2221 78.6257 92 72 92C65.3743 92 59.1903 90.2221 53.8897 87.1118C53.0063 86.6662 52.3436 86.2228 51.4601 85.5566C42.1842 79.111 36 68.2227 36 56.0011C36 36.0016 52.1228 20.0023 71.7792 20.0023C91.8772 19.7799 108 36.0016 108 56.0011Z" stroke="white" stroke-width="1.6434" stroke-miterlimit="10" stroke-linecap="round" stroke-linejoin="round"/>
<path opacity="0.7" d="M55.6877 54.0473H11.2017C10.7991 54.0473 10.3965 53.6444 10.3965 53.2414V50.6222C10.3965 50.2193 10.7991 49.8164 11.2017 49.8164H55.6877C56.0903 49.8164 56.4929 50.2193 56.4929 50.6222V53.2414C56.4929 53.7451 56.1909 54.0473 55.6877 54.0473Z" fill="url(#paint1_linear_5617_70953)"/>
<path opacity="0.7" d="M38.5777 65.0279H11.2017C10.7991 65.0279 10.3965 64.6249 10.3965 64.222V61.6028C10.3965 61.1998 10.7991 60.7969 11.2017 60.7969H38.5777C38.9803 60.7969 39.3829 61.1998 39.3829 61.6028V64.222C39.3829 64.7256 39.0809 65.0279 38.5777 65.0279Z" fill="url(#paint2_linear_5617_70953)"/>
<defs>
<linearGradient id="paint0_linear_5617_70953" x1="71.9571" y1="70.3287" x2="71.9571" y2="67.6805" gradientUnits="userSpaceOnUse">
<stop stop-color="white"/>
<stop offset="0.9913" stop-color="#D6DEEA"/>
</linearGradient>
<linearGradient id="paint1_linear_5617_70953" x1="57.7251" y1="51.9197" x2="10.7215" y2="51.9197" gradientUnits="userSpaceOnUse">
<stop offset="0.00651336" stop-color="#A6AEBE" stop-opacity="0"/>
<stop offset="1" stop-color="#A6AAB5"/>
</linearGradient>
<linearGradient id="paint2_linear_5617_70953" x1="40.1577" y1="62.9002" x2="10.6009" y2="62.9002" gradientUnits="userSpaceOnUse">
<stop offset="0.00651336" stop-color="#A6AEBE" stop-opacity="0"/>
<stop offset="1" stop-color="#A6AAB5"/>
</linearGradient>
</defs>
</svg>
