<svg width="24" height="24" viewBox="0 0 24 24" fill="none" xmlns="http://www.w3.org/2000/svg">
<path fill-rule="evenodd" clip-rule="evenodd" d="M15.7767 2.87868L7.24606 11.4645C7.05973 11.652 6.95505 11.9064 6.95505 12.1716V16.1716C6.95505 16.7239 7.39989 17.1716 7.94862 17.1716H11.9229C12.1864 17.1716 12.4392 17.0662 12.6255 16.8787L21.1561 8.29289C22.3202 7.12132 22.3202 5.22183 21.1561 4.05025L19.9921 2.87868C18.828 1.70711 16.9407 1.70711 15.7767 2.87868ZM19.751 5.46447L19.8337 5.55867C20.1367 5.95096 20.1092 6.5182 19.751 6.87868L11.5096 15.1716H8.9422V12.5856L17.1818 4.29289C17.5698 3.90237 18.1989 3.90237 18.5869 4.29289L19.751 5.46447ZM10.96 4.17157C10.96 3.61929 10.5151 3.17157 9.96639 3.17157H5.96147L5.74598 3.17619C3.10226 3.28975 0.993591 5.48282 0.993591 8.17157V18.1716L0.998181 18.3885C1.11101 21.0493 3.28999 23.1716 5.96147 23.1716H15.8972L16.1127 23.167C18.7564 23.0534 20.8651 20.8603 20.8651 18.1716V13.2533L20.8584 13.1366C20.801 12.6393 20.3811 12.2533 19.8715 12.2533C19.3228 12.2533 18.878 12.701 18.878 13.2533V18.1716L18.8729 18.3478C18.7822 19.9227 17.4846 21.1716 15.8972 21.1716H5.96147L5.78633 21.1665C4.22164 21.0752 2.98074 19.7693 2.98074 18.1716V8.17157L2.9858 7.9953C3.07646 6.42049 4.37405 5.17157 5.96147 5.17157H9.96639L10.0823 5.16485C10.5764 5.10708 10.96 4.68441 10.96 4.17157Z" fill="#5E6278"/>
</svg>
