<svg width="22" height="22" viewBox="0 0 22 22" fill="none" xmlns="http://www.w3.org/2000/svg">
<path fill-rule="evenodd" clip-rule="evenodd" d="M14.4564 2.63766L6.6398 10.5048C6.46906 10.6767 6.37314 10.9097 6.37314 11.1528V14.818C6.37314 15.324 6.78075 15.7343 7.28356 15.7343H10.9252C11.1667 15.7343 11.3983 15.6377 11.569 15.4659L19.3856 7.59872C20.4523 6.5252 20.4523 4.78469 19.3856 3.71117L18.319 2.63766C17.2524 1.56414 15.5231 1.56414 14.4564 2.63766ZM18.0981 5.00702L18.1738 5.09334C18.4515 5.4528 18.4263 5.97256 18.0981 6.30287L10.5465 13.9017H8.19398V11.5321L15.744 3.9335C16.0995 3.57567 16.6759 3.57567 17.0315 3.9335L18.0981 5.00702ZM10.0429 3.82234C10.0429 3.31628 9.63525 2.90604 9.13245 2.90604H5.46273L5.26527 2.91027C2.84283 3.01433 0.910645 5.02384 0.910645 7.48755V16.6506L0.91485 16.8493C1.01824 19.2874 3.01484 21.2321 5.46273 21.2321H14.5669L14.7644 21.2279C17.1868 21.1238 19.119 19.1143 19.119 16.6506V12.1439L19.1129 12.0371C19.0603 11.5813 18.6755 11.2276 18.2086 11.2276C17.7058 11.2276 17.2981 11.6379 17.2981 12.1439V16.6506L17.2935 16.8121C17.2104 18.2551 16.0214 19.3995 14.5669 19.3995H5.46273L5.30225 19.3948C3.86852 19.3112 2.73148 18.1145 2.73148 16.6506V7.48755L2.73611 7.32603C2.81919 5.88303 4.00817 4.73864 5.46273 4.73864H9.13245L9.23862 4.73248C9.69141 4.67955 10.0429 4.29225 10.0429 3.82234Z" fill="#A82F96"/>
</svg>
