<svg width="119" height="123" viewBox="0 0 119 123" fill="none" xmlns="http://www.w3.org/2000/svg">
<path d="M104.11 45.3347C106.222 45.3347 107.934 43.6209 107.934 41.5067C107.934 39.3926 106.222 37.6787 104.11 37.6787C101.997 37.6787 100.285 39.3926 100.285 41.5067C100.285 43.6209 101.997 45.3347 104.11 45.3347Z" fill="#EAEEF9"/>
<path d="M2.51618 66.0359C3.90582 66.0359 5.03235 64.9083 5.03235 63.5175C5.03235 62.1266 3.90582 60.999 2.51618 60.999C1.12653 60.999 0 62.1266 0 63.5175C0 64.9083 1.12653 66.0359 2.51618 66.0359Z" fill="#EAEEF9"/>
<path d="M14.0826 111.312C15.4722 111.312 16.5988 110.185 16.5988 108.794C16.5988 107.403 15.4722 106.275 14.0826 106.275C12.6929 106.275 11.5664 107.403 11.5664 108.794C11.5664 110.185 12.6929 111.312 14.0826 111.312Z" fill="#EAEEF9"/>
<path d="M27.5332 111.312L62.8422 100.248V54.8867L27.5332 65.8654V111.312Z" fill="#B7BFCD"/>
<path opacity="0.4" d="M98.1508 111.312L62.8418 100.248V54.8867L98.1508 65.8654V111.312Z" fill="#6D7C9A"/>
<g opacity="0.13">
<path d="M27.5332 111.312L62.8422 100.248V54.8867L27.5332 65.8654V111.312Z" fill="url(#paint0_linear_2443_26304)"/>
<path d="M98.1511 111.312L62.8422 100.248V54.8867L98.1511 65.8654V111.312Z" fill="url(#paint1_linear_2443_26304)"/>
</g>
<path d="M62.8422 122.461L27.5332 111.397V66.0352L62.8422 77.099V122.461Z" fill="#EDF1F9"/>
<path d="M62.8418 122.461L98.1508 111.397V66.0352L62.8418 77.099V122.461Z" fill="#DAE1ED"/>
<path opacity="0.09" d="M54.8422 114.461L27.5332 111.397V66.0352L62.8422 77.099L54.8422 114.461Z" fill="url(#paint2_linear_2443_26304)"/>
<path opacity="0.2" d="M70.8418 106.461L98.1508 111.397V66.0352L62.8418 77.099L70.8418 106.461Z" fill="url(#paint3_linear_2443_26304)"/>
<path d="M62.8418 54.8865L46.2407 42.4609L10.3418 54.546L27.5328 65.8652L62.8418 54.8865Z" fill="#DAE1ED"/>
<path d="M62.8418 54.8865L79.4429 42.4609L115.342 54.546L98.1508 65.8652L62.8418 54.8865Z" fill="#DAE1ED"/>
<path d="M27.5328 66.0352L62.8418 77.099L45.2294 88.333L10.3418 76.7586L27.5328 66.0352Z" fill="#EFF4FD"/>
<path d="M98.1508 66.0352L62.8418 77.099L80.4542 88.333L115.342 76.7586L98.1508 66.0352Z" fill="#EDF1F9"/>
<path d="M72.6933 11.3384C77.6398 24.7629 79.1143 27.7457 79.5982 40.9736C79.4121 43.9931 79.2967 47.2765 77.8731 49.9204C75.972 53.9648 71.322 56.7658 66.9286 56.8112C62.4027 56.892 57.9656 54.1209 55.9685 49.8478C54.5634 47.2545 54.6081 43.7072 56.5355 41.3527C58.6308 39.0945 62.317 38.5315 64.9687 39.9424C67.8856 41.2824 69.6266 44.0686 70.2715 47.0069C70.9163 49.9452 70.633 53.1322 69.8458 56.0298C68.1996 63.0773 66.8361 63.4182 62.7988 75.35" stroke="#ABB5CC" stroke-width="2" stroke-miterlimit="10" stroke-dasharray="4 4"/>
<path d="M78.7127 4.23203C78.7012 6.206 76.8643 7.41469 74.5347 6.7844C72.082 6.36629 70.346 5.93537 70.2343 4.17357C70.2905 2.36678 72.2619 1.65963 74.5692 0.862479C77.3358 -0.236842 78.5562 2.30305 78.7127 4.23203Z" fill="#DAE2EB"/>
<path d="M62.8639 10.2689C64.107 11.5485 66.7277 11.9216 68.0048 9.96704C69.4051 7.80026 70.6038 6.22502 69.316 4.7782C68.0729 3.49857 66.8632 4.36009 64.0966 5.45941C61.8789 6.59092 61.4081 8.86706 62.8639 10.2689Z" fill="#DAE2EB"/>
<path d="M68.6001 2.1038C69.7314 1.62163 71.0865 1.97537 71.6912 2.88846C71.9488 3.17782 72.2511 3.63436 72.3406 3.96872C73.3035 6.21925 73.0008 8.4504 71.7015 8.97756C70.279 9.7169 68.3192 8.45008 67.5691 6.32173C67.39 5.65301 67.3004 5.31865 67.1661 4.81711C67.0207 3.60185 67.4688 2.58596 68.6001 2.1038C68.6001 2.1038 68.7681 2.0588 68.6001 2.1038Z" fill="#989FB0"/>
<path d="M16.5991 38.3316H14.409V36.1416H12.5318V38.3316H10.3418V40.2714H12.5318V42.4614H14.409V40.2714H16.5991V38.3316Z" fill="url(#paint4_linear_2443_26304)"/>
<path d="M21.4096 93.2789H19.2196V91.0889H17.3424V93.2789H15.1523V95.2187H17.3424V97.4087H19.2196V95.2187H21.4096V93.2789Z" fill="url(#paint5_linear_2443_26304)"/>
<path d="M117.147 93.4023L114.467 92.0494L115.82 89.3699L113.523 88.2103L112.17 90.8898L109.491 89.537L108.293 91.9103L110.972 93.2632L109.619 95.9427L111.916 97.1023L113.269 94.4228L115.948 95.7756L117.147 93.4023Z" fill="url(#paint6_linear_2443_26304)"/>
<defs>
<linearGradient id="paint0_linear_2443_26304" x1="51.6959" y1="58.172" x2="46.8799" y2="78.2218" gradientUnits="userSpaceOnUse">
<stop offset="0.00289017" stop-color="#606673" stop-opacity="0"/>
<stop offset="1" stop-color="#373C47"/>
</linearGradient>
<linearGradient id="paint1_linear_2443_26304" x1="51.6959" y1="58.172" x2="46.8799" y2="78.2218" gradientUnits="userSpaceOnUse">
<stop offset="0.00289017" stop-color="#606673" stop-opacity="0"/>
<stop offset="1" stop-color="#373C47"/>
</linearGradient>
<linearGradient id="paint2_linear_2443_26304" x1="35.4493" y1="97.0804" x2="43.9319" y2="73.1223" gradientUnits="userSpaceOnUse">
<stop offset="0.00289017" stop-color="#6C80AA" stop-opacity="0"/>
<stop offset="1" stop-color="#5D6A86"/>
</linearGradient>
<linearGradient id="paint3_linear_2443_26304" x1="81.8976" y1="103.625" x2="82.5647" y2="73.2223" gradientUnits="userSpaceOnUse">
<stop offset="0.00289017" stop-color="#314F91" stop-opacity="0"/>
<stop offset="1" stop-color="#324264"/>
</linearGradient>
<linearGradient id="paint4_linear_2443_26304" x1="13.4709" y1="36.3611" x2="13.4709" y2="39.9084" gradientUnits="userSpaceOnUse">
<stop stop-color="#B0BACC"/>
<stop offset="1" stop-color="#969EAE"/>
</linearGradient>
<linearGradient id="paint5_linear_2443_26304" x1="18.2815" y1="91.3084" x2="18.2815" y2="94.8557" gradientUnits="userSpaceOnUse">
<stop stop-color="#B0BACC"/>
<stop offset="1" stop-color="#969EAE"/>
</linearGradient>
<linearGradient id="paint6_linear_2443_26304" x1="114.537" y1="89.059" x2="112.345" y2="93.3991" gradientUnits="userSpaceOnUse">
<stop stop-color="#B0BACC"/>
<stop offset="1" stop-color="#969EAE"/>
</linearGradient>
</defs>
</svg>
