<svg width="16" height="18" viewBox="0 0 16 18" fill="none" xmlns="http://www.w3.org/2000/svg">
<path fill-rule="evenodd" clip-rule="evenodd" d="M3.05454 -5.40422e-07C2.60122 -5.60238e-07 2.23032 0.449999 2.23032 0.999999L2.23032 6L3.87877 6L3.87877 0.999999C3.87877 0.449999 3.50787 -5.20607e-07 3.05454 -5.40422e-07ZM12.9453 -1.08084e-07C12.492 -1.279e-07 12.1211 0.45 12.1211 1L12.1211 10L13.7695 10L13.7695 1C13.7695 0.45 13.3986 -8.82685e-08 12.9453 -1.08084e-07ZM1.40609 10L2.23032 10L2.23032 17C2.23032 17.55 2.60122 18 3.05455 18C3.50787 18 3.87877 17.55 3.87877 17L3.87877 10L4.703 10C5.15633 10 5.52723 9.55 5.52723 9C5.52723 8.45 5.15633 8 4.703 8L1.40609 8C0.952766 8 0.581863 8.45 0.581863 9C0.581863 9.55 0.952766 10 1.40609 10ZM9.64837 4L8.82414 4L8.82414 1C8.82414 0.45 8.45324 -3.04438e-07 7.99991 -3.24253e-07C7.54659 -3.44069e-07 7.17569 0.45 7.17569 1L7.17569 4L6.35146 4C5.89813 4 5.52723 4.45 5.52723 5C5.52723 5.55 5.89813 6 6.35146 6L9.64837 6C10.1017 6 10.4726 5.55 10.4726 5C10.4726 4.45 10.1017 4 9.64837 4ZM7.99991 18C8.45324 18 8.82414 17.55 8.82414 17L8.82414 8L7.17569 8L7.17569 17C7.17569 17.55 7.54659 18 7.99991 18ZM10.4726 13C10.4726 13.55 10.8435 14 11.2968 14L12.1211 14L12.1211 17C12.1211 17.55 12.492 18 12.9453 18C13.3986 18 13.7695 17.55 13.7695 17L13.7695 14L14.5937 14C15.0471 14 15.418 13.55 15.418 13C15.418 12.45 15.0471 12 14.5937 12L11.2968 12C10.8435 12 10.4726 12.45 10.4726 13Z" fill="#374151"/>
</svg>
