<svg width="17" height="17" viewBox="0 0 17 17" fill="none" xmlns="http://www.w3.org/2000/svg">
<path d="M14.517 10.4659C14.5753 10.5387 14.6119 10.6265 14.6226 10.7192C14.6333 10.8118 14.6177 10.9056 14.5775 10.9898C14.5374 11.074 14.4743 11.1452 14.3956 11.1951C14.3169 11.2451 14.2256 11.2719 14.1323 11.2725H3.21323V13.7541C3.21323 13.8857 3.16094 14.012 3.06786 14.105C2.97478 14.1981 2.84854 14.2504 2.7169 14.2504C2.58527 14.2504 2.45903 14.1981 2.36595 14.105C2.27287 14.012 2.22058 13.8857 2.22058 13.7541V3.33128C2.22058 3.19965 2.27287 3.07341 2.36595 2.98033C2.45903 2.88725 2.58527 2.83496 2.7169 2.83496H14.1323C14.2256 2.83548 14.3169 2.86228 14.3956 2.91227C14.4743 2.96227 14.5374 3.03344 14.5775 3.11762C14.6177 3.20181 14.6333 3.29561 14.6226 3.38826C14.6119 3.48092 14.5753 3.56868 14.517 3.64149L11.7872 7.05371L14.517 10.4659Z" fill="#A12B94"/>
</svg>
