<svg width="12" height="11" viewBox="0 0 12 11" fill="none" xmlns="http://www.w3.org/2000/svg">
<path fill-rule="evenodd" clip-rule="evenodd" d="M5.707 10.1551C5.51947 10.3428 5.26516 10.4482 5 10.4482C4.73484 10.4482 4.48053 10.3428 4.293 10.1551L0.293 6.15008C0.105529 5.96232 0.000213393 5.70769 0.000213405 5.4422C0.000213416 5.1767 0.105529 4.92207 0.293 4.73431L4.293 0.729305C4.4816 0.546919 4.7342 0.445998 4.9964 0.44828C5.2586 0.450561 5.50941 0.555861 5.69482 0.741502C5.88023 0.927142 5.9854 1.17827 5.98767 1.44079C5.98995 1.70332 5.88916 1.95624 5.707 2.14507L3.414 4.44094L11 4.44095C11.2652 4.44095 11.5196 4.54643 11.7071 4.73421C11.8946 4.92198 12 5.17665 12 5.4422C12 5.70775 11.8946 5.96242 11.7071 6.15019C11.5196 6.33796 11.2652 6.44345 11 6.44345L3.414 6.44345L5.707 8.73932C5.89447 8.92708 5.99979 9.18171 5.99979 9.4472C5.99979 9.7127 5.89447 9.96733 5.707 10.1551Z" fill="#111827"/>
</svg>
