<svg width="16" height="16" viewBox="0 0 16 16" fill="none" xmlns="http://www.w3.org/2000/svg">
<path d="M0 3C0 1.34315 1.34315 0 3 0H13C14.6569 0 16 1.34315 16 3V13C16 14.6569 14.6569 16 13 16H3C1.34315 16 0 14.6569 0 13V3Z" fill="#E5EAEE"/>
<path fill-rule="evenodd" clip-rule="evenodd" d="M8.56424 2.77291C8.49741 2.70496 8.40609 2.66669 8.31078 2.66669C8.21547 2.66669 8.12415 2.70496 8.05732 2.77291L3.43505 7.47269C3.29738 7.61267 3.29925 7.83776 3.43923 7.97543C3.57921 8.11311 3.8043 8.11124 3.94197 7.97125L8.31078 3.52918L11.6006 6.87416C11.6087 6.8833 11.6173 6.89201 11.6263 6.90028L12.6796 7.97125C12.8173 8.11124 13.0423 8.11311 13.1823 7.97543C13.3223 7.83776 13.3242 7.61267 13.1865 7.47269L12.2221 6.49208V3.73336C12.2221 3.53702 12.0629 3.37785 11.8666 3.37785H10.4443C10.248 3.37785 10.0888 3.53702 10.0888 3.73336V4.32306L8.56424 2.77291ZM11.5111 4.08886V5.76915L10.7998 5.046V4.08886H11.5111ZM5.1105 8.35552C5.1105 8.15918 4.95133 8.00002 4.755 8.00002C4.55866 8.00002 4.39949 8.15918 4.39949 8.35552V12.2667C4.39949 12.5496 4.51187 12.8209 4.7119 13.0209C4.91193 13.2209 5.18323 13.3333 5.46611 13.3333H7.23442C7.23751 13.3334 7.24061 13.3334 7.24371 13.3334H9.37707C9.38018 13.3334 9.38328 13.3334 9.38637 13.3333H11.1551C11.4379 13.3333 11.7092 13.2209 11.9093 13.0209C12.1093 12.8209 12.2217 12.5496 12.2217 12.2667V8.35552C12.2217 8.15918 12.0625 8.00002 11.8662 8.00002C11.6698 8.00002 11.5107 8.15918 11.5107 8.35552V12.2667C11.5107 12.361 11.4732 12.4514 11.4065 12.5181C11.3398 12.5848 11.2494 12.6223 11.1551 12.6223H9.73263V11.2001C9.73263 10.8229 9.58279 10.4611 9.31607 10.1944C9.04934 9.92767 8.68759 9.77782 8.31039 9.77782C7.93319 9.77782 7.57144 9.92767 7.30472 10.1944C7.038 10.4611 6.88816 10.8229 6.88816 11.2001V12.6223H5.46611C5.3718 12.6223 5.28135 12.5848 5.21466 12.5181C5.14797 12.4514 5.1105 12.361 5.1105 12.2667V8.35552ZM9.02151 12.6223H7.59927V11.2001C7.59927 11.0115 7.67419 10.8306 7.80756 10.6972C7.94092 10.5639 8.12179 10.4889 8.31039 10.4889C8.49899 10.4889 8.67987 10.5639 8.81323 10.6972C8.94659 10.8306 9.02151 11.0115 9.02151 11.2001V12.6223Z" fill="#5E6278"/>
</svg>
