<svg width="21" height="21" viewBox="0 0 21 21" fill="none" xmlns="http://www.w3.org/2000/svg">
<path d="M2.62793 10.5L4.2946 8.83333M4.2946 8.83333L10.1279 3L15.9613 8.83333M4.2946 8.83333V17.1667C4.2946 17.6269 4.66769 18 5.12793 18H7.62793M15.9613 8.83333L17.6279 10.5M15.9613 8.83333V17.1667C15.9613 17.6269 15.5882 18 15.1279 18H12.6279M7.62793 18C8.08817 18 8.46126 17.6269 8.46126 17.1667V13.8333C8.46126 13.3731 8.83436 13 9.2946 13H10.9613C11.4215 13 11.7946 13.3731 11.7946 13.8333V17.1667C11.7946 17.6269 12.1677 18 12.6279 18M7.62793 18H12.6279" stroke="#111827" stroke-width="1.66667" stroke-linecap="round" stroke-linejoin="round"/>
</svg>
