<svg width="36" height="36" viewBox="0 0 36 36" fill="none" xmlns="http://www.w3.org/2000/svg">
<path d="M35.8918 10.5787C35.8042 8.66272 35.4998 7.35425 35.0549 6.20947C34.6031 5.00839 33.8945 3.92047 32.9788 3.02124C32.0798 2.10553 30.9916 1.39664 29.7905 0.94455C28.6455 0.499878 27.3373 0.195831 25.4213 0.108765C23.5017 0.020874 22.8884 0 18 0C13.1116 0 12.4983 0.020874 10.5787 0.108215C8.66272 0.195831 7.35452 0.500153 6.20947 0.945099C5.00839 1.39691 3.92047 2.10553 3.02124 3.02124C2.10553 3.9202 1.39664 5.00812 0.94455 6.2092C0.499878 7.35425 0.195831 8.66272 0.108765 10.5785C0.020874 12.4983 0 13.1114 0 17.9997C0 22.8884 0.020874 23.5017 0.108765 25.4213C0.196106 27.337 0.500427 28.6455 0.945373 29.7905C1.39719 30.9913 2.1058 32.0795 3.02151 32.9785C3.92047 33.8942 5.00867 34.6028 6.20975 35.0546C7.35452 35.4998 8.66299 35.8039 10.579 35.8915C12.4989 35.9791 13.1119 35.9997 18.0003 35.9997C22.8886 35.9997 23.502 35.9791 25.4215 35.8915C27.3376 35.8039 28.6458 35.4998 29.7908 35.0546C32.2086 34.1197 34.12 32.2083 35.0549 29.7905C35.5001 28.6455 35.8042 27.337 35.8918 25.4213C35.9791 23.5014 36 22.8884 36 18C36 13.1114 35.9791 12.4983 35.8918 10.5787ZM32.6516 25.2738C32.5717 27.0288 32.2784 27.9819 32.032 28.6161C31.4264 30.186 30.1858 31.4267 28.6158 32.0323C27.9816 32.2787 27.0286 32.572 25.2735 32.6519C23.3759 32.7387 22.8065 32.7568 18 32.7568C13.1932 32.7568 12.6241 32.7387 10.7262 32.6519C8.97144 32.572 8.01837 32.2787 7.38391 32.0323C6.60223 31.7436 5.89499 31.2836 5.31436 30.6856C4.71643 30.105 4.25638 29.398 3.96771 28.6161C3.72134 27.9819 3.42801 27.0288 3.34808 25.2738C3.26157 23.3759 3.24316 22.8065 3.24316 18.0003C3.24316 13.1938 3.26157 12.6247 3.34808 10.7265C3.42828 8.97144 3.72134 8.01837 3.96771 7.38419C4.25638 6.60223 4.71671 5.89499 5.31436 5.31436C5.89499 4.71643 6.60223 4.25638 7.38419 3.96799C8.01837 3.72134 8.97144 3.42828 10.7265 3.34808C12.6244 3.26157 13.1938 3.24316 18 3.24316H17.9997C22.806 3.24316 23.3753 3.26157 25.2735 3.34836C27.0286 3.42828 27.9814 3.72162 28.6158 3.96799C29.3975 4.25665 30.1047 4.71671 30.6854 5.31436C31.2833 5.89499 31.7433 6.60223 32.0317 7.38419C32.2784 8.01837 32.5717 8.97144 32.6516 10.7265C32.7382 12.6244 32.7566 13.1938 32.7566 18C32.7566 22.8065 32.7384 23.3756 32.6516 25.2738Z" fill="url(#paint0_linear_355_5158)"/>
<path d="M17.9989 8.75665C12.8941 8.75665 8.75586 12.8952 8.75586 18C8.75586 23.1048 12.8941 27.2431 17.9989 27.2431C23.104 27.2431 27.2423 23.1048 27.2423 18C27.2423 12.8952 23.104 8.75665 17.9989 8.75665ZM17.9989 23.9999C14.6855 23.9996 11.999 21.3135 11.9993 17.9997C11.9993 14.6862 14.6855 11.9998 17.9992 11.9998C21.313 12.0001 23.9991 14.6862 23.9991 17.9997C23.9991 21.3135 21.3127 23.9999 17.9989 23.9999Z" fill="url(#paint1_linear_355_5158)"/>
<path d="M29.7674 8.39163C29.7674 9.58447 28.8003 10.5515 27.6075 10.5515C26.4143 10.5515 25.4473 9.58447 25.4473 8.39163C25.4473 7.19852 26.4143 6.23145 27.6075 6.23145C28.8003 6.23145 29.7674 7.19852 29.7674 8.39163Z" fill="url(#paint2_linear_355_5158)"/>
<defs>
<linearGradient id="paint0_linear_355_5158" x1="3.02106" y1="32.9786" x2="32.9789" y2="3.02077" gradientUnits="userSpaceOnUse">
<stop stop-color="#FFD600"/>
<stop offset="0.5" stop-color="#FF0100"/>
<stop offset="1" stop-color="#D800B9"/>
</linearGradient>
<linearGradient id="paint1_linear_355_5158" x1="11.4632" y1="24.5358" x2="24.535" y2="11.464" gradientUnits="userSpaceOnUse">
<stop stop-color="#FF6400"/>
<stop offset="0.5" stop-color="#FF0100"/>
<stop offset="1" stop-color="#FD0056"/>
</linearGradient>
<linearGradient id="paint2_linear_355_5158" x1="26.08" y1="9.91882" x2="29.1347" y2="6.86419" gradientUnits="userSpaceOnUse">
<stop stop-color="#F30072"/>
<stop offset="1" stop-color="#E50097"/>
</linearGradient>
</defs>
</svg>
