<svg width="166" height="107" viewBox="0 0 166 107" fill="none" xmlns="http://www.w3.org/2000/svg">
<path d="M139.096 25.4293C141.771 25.4293 143.941 23.2683 143.941 20.6024C143.941 17.9366 141.771 15.7754 139.096 15.7754C136.42 15.7754 134.25 17.9366 134.25 20.6024C134.25 23.2683 136.42 25.4293 139.096 25.4293Z" fill="#E7EBF6"/>
<path d="M146.187 6.59289C148.014 6.59289 149.496 5.11702 149.496 3.29643C149.496 1.47587 148.014 0 146.187 0C144.36 0 142.878 1.47587 142.878 3.29643C142.878 5.11702 144.36 6.59289 146.187 6.59289Z" fill="#E7EBF6"/>
<path d="M26.3534 25.3117C28.1809 25.3117 29.6624 23.8358 29.6624 22.0152C29.6624 20.1946 28.1809 18.7188 26.3534 18.7188C24.526 18.7188 23.0444 20.1946 23.0444 22.0152C23.0444 23.8358 24.526 25.3117 26.3534 25.3117Z" fill="#E7EBF6"/>
<path d="M6.14528 88.8866C9.53924 88.8866 12.2906 86.1457 12.2906 82.7646C12.2906 79.3835 9.53924 76.6426 6.14528 76.6426C2.75143 76.6426 0 79.3835 0 82.7646C0 86.1457 2.75143 88.8866 6.14528 88.8866Z" fill="#E7EBF6"/>
<path d="M78.059 77.712L37.9501 105.479C35.63 107.07 32.4688 106.521 30.8447 104.207L4.22149 65.9397C2.62644 63.6257 3.17751 60.473 5.49758 58.8533L45.6064 31.0858C47.9266 29.495 51.0877 30.0446 52.7117 32.3584L79.364 70.6254C80.9591 72.9394 80.3791 76.1211 78.059 77.712Z" fill="url(#paint0_linear_1965_21723)"/>
<path d="M71.8527 73.518L36.5869 97.9302C35.601 98.6243 34.2379 98.364 33.5418 97.3806L11.5298 65.7373C10.8337 64.7539 11.0948 63.3944 12.0809 62.7003L47.3465 38.2881C48.3326 37.5938 49.6956 37.8541 50.3916 38.8377L72.4036 70.4809C73.0997 71.4644 72.8386 72.8238 71.8527 73.518Z" fill="#EFF2F5"/>
<path d="M46.5924 73.2578L33.7158 82.1666L35.0789 70.4521L46.5924 73.2578Z" fill="#B0B7C4"/>
<path d="M57.2354 65.8828L38.7036 78.7252L40.6757 61.8623L57.2354 65.8828Z" fill="#CED6E2"/>
<path d="M29.9744 69.4113C31.6081 69.4113 32.9325 68.0904 32.9325 66.461C32.9325 64.8316 31.6081 63.5107 29.9744 63.5107C28.3405 63.5107 27.0161 64.8316 27.0161 66.461C27.0161 68.0904 28.3405 69.4113 29.9744 69.4113Z" fill="#B0B7C4"/>
<path d="M126.635 101.343L89.3689 69.8736C87.2228 68.0514 86.9618 64.8407 88.7599 62.7003L118.95 27.1523C120.777 25.0118 123.996 24.7515 126.143 26.5448L163.409 58.0146C165.555 59.8368 165.816 63.0475 164.019 65.1878L133.828 100.736C132.001 102.876 128.782 103.137 126.635 101.343Z" fill="url(#paint1_linear_1965_21723)"/>
<path d="M129.101 94.2851L96.3298 66.6333C95.4009 65.8524 95.2851 64.493 96.0686 63.5674L121.009 34.1803C121.793 33.2547 123.155 33.1389 124.084 33.9198L156.855 61.5716C157.784 62.3525 157.9 63.712 157.116 64.6376L132.174 94.0248C131.392 94.9504 130.028 95.066 129.101 94.2851Z" fill="#EFF2F5"/>
<path d="M122.807 69.8452L110.858 59.7505L122.576 58.0439L122.807 69.8452Z" fill="#B0B7C4"/>
<path d="M132.726 78.2043L115.499 63.6553L132.349 61.2256L132.726 78.2043Z" fill="#CED6E2"/>
<path d="M125.127 55.0646C126.762 55.0646 128.085 53.7438 128.085 52.1144C128.085 50.4849 126.762 49.1641 125.127 49.1641C123.494 49.1641 122.169 50.4849 122.169 52.1144C122.169 53.7438 123.494 55.0646 125.127 55.0646Z" fill="#B0B7C4"/>
<path d="M109.762 69.0889L61.7898 78.2938C59.0195 78.8177 56.3447 77.0081 55.7974 74.2707L46.9145 28.555C46.3854 25.7952 48.1994 23.1331 50.9472 22.5911L98.919 13.3862C101.69 12.8623 104.365 14.6719 104.912 17.4093L113.794 63.125C114.324 65.8848 112.51 68.5469 109.762 69.0889Z" fill="url(#paint2_linear_1965_21723)"/>
<path d="M105.786 62.7524L63.6182 70.8608C62.4258 71.0917 61.2897 70.3297 61.0565 69.1418L53.7025 31.3623C53.4693 30.1744 54.2332 29.0437 55.4256 28.8128L97.5943 20.7043C98.7868 20.4733 99.9225 21.2353 100.155 22.4233L107.51 60.2029C107.742 61.3908 106.979 62.5214 105.786 62.7524Z" fill="#EFF2F5"/>
<path d="M82.725 52.3189L67.3403 55.2673L73.349 45.1025L82.725 52.3189Z" fill="#B0B7C4"/>
<path d="M95.4799 49.8585L73.3027 54.1124L81.9631 39.5098L95.4799 49.8585Z" fill="#CED6E2"/>
<path d="M72.618 41.2536C73.6421 39.9853 73.4389 38.1294 72.1645 37.1082C70.8899 36.0868 69.0267 36.2871 68.0027 37.5553C66.9788 38.8235 67.1818 40.6795 68.4564 41.7007C69.7308 42.7219 71.5941 42.5218 72.618 41.2536Z" fill="#B0B7C4"/>
<path d="M104.687 87.5828C104.21 89.6103 103.494 91.7569 102.66 93.5458C100.394 97.9588 96.8163 101.417 92.4033 103.683C87.8718 105.949 82.5051 106.903 77.1384 105.71C64.4969 103.087 56.3873 90.6836 59.011 78.0421C61.6347 65.4006 73.9184 57.1717 86.5599 59.9146C91.0918 60.8687 95.0273 63.1346 98.3663 66.2354C103.972 71.8406 106.357 79.9502 104.687 87.5828Z" fill="url(#paint3_linear_1965_21723)"/>
<path d="M89.3023 80.7847H83.9357V75.418C83.9357 74.3447 83.1009 73.3906 81.9083 73.3906C80.8349 73.3906 79.8808 74.2254 79.8808 75.418V80.7847H74.5142C73.4408 80.7847 72.4868 81.6195 72.4868 82.8121C72.4868 84.0047 73.3216 84.8395 74.5142 84.8395H79.8808V90.2062C79.8808 91.2795 80.7157 92.2336 81.9083 92.2336C82.9816 92.2336 83.9357 91.3988 83.9357 90.2062V84.8395H89.3023C90.3757 84.8395 91.3298 84.0047 91.3298 82.8121C91.3298 81.6195 90.3757 80.7847 89.3023 80.7847Z" fill="white"/>
<defs>
<linearGradient id="paint0_linear_1965_21723" x1="41.763" y1="28.416" x2="41.763" y2="107.208" gradientUnits="userSpaceOnUse">
<stop stop-color="#FDFEFF"/>
<stop offset="0.9964" stop-color="#ECF0F5"/>
</linearGradient>
<linearGradient id="paint1_linear_1965_21723" x1="126.364" y1="23.5703" x2="126.364" y2="103.365" gradientUnits="userSpaceOnUse">
<stop stop-color="#FDFEFF"/>
<stop offset="0.9964" stop-color="#ECF0F5"/>
</linearGradient>
<linearGradient id="paint2_linear_1965_21723" x1="48.7593" y1="20.5551" x2="110.987" y2="70.7974" gradientUnits="userSpaceOnUse">
<stop stop-color="#FDFEFF"/>
<stop offset="0.9964" stop-color="#ECF0F5"/>
</linearGradient>
<linearGradient id="paint3_linear_1965_21723" x1="58.4966" y1="82.8118" x2="105.219" y2="82.8118" gradientUnits="userSpaceOnUse">
<stop stop-color="#B0BACC"/>
<stop offset="1" stop-color="#969EAE"/>
</linearGradient>
</defs>
</svg>
