<svg width="12" height="11" viewBox="0 0 12 11" fill="none" xmlns="http://www.w3.org/2000/svg">
<path fill-rule="evenodd" clip-rule="evenodd" d="M4.77988 1.1692C5.3151 0.217689 6.68507 0.217688 7.22029 1.1692L11.1265 8.11358C11.6515 9.04683 10.9771 10.1999 9.9063 10.1999H2.09387C1.02311 10.1999 0.348715 9.04683 0.873666 8.11358L4.77988 1.1692ZM6.70003 8.10002C6.70003 8.48662 6.38662 8.80002 6.00002 8.80002C5.61343 8.80002 5.30002 8.48662 5.30002 8.10002C5.30002 7.71343 5.61343 7.40002 6.00002 7.40002C6.38662 7.40002 6.70003 7.71343 6.70003 8.10002ZM6.00002 2.50002C5.61343 2.50002 5.30002 2.81343 5.30002 3.20002V5.30002C5.30002 5.68662 5.61343 6.00002 6.00002 6.00002C6.38662 6.00002 6.70002 5.68662 6.70002 5.30002V3.20002C6.70002 2.81343 6.38662 2.50002 6.00002 2.50002Z" fill="#B5B5C3"/>
</svg>
