<svg width="20" height="21" viewBox="0 0 20 21" fill="none" xmlns="http://www.w3.org/2000/svg">
<path d="M17.4551 6.96269H16.1901V1.2127C16.1901 1.0602 16.1295 0.913942 16.0217 0.806109C15.9139 0.698275 15.7676 0.637695 15.6151 0.637695H4.57512C4.42262 0.637695 4.27637 0.698275 4.16854 0.806109C4.0607 0.913942 4.00012 1.0602 4.00012 1.2127V6.96269H2.72362C2.0826 6.96422 1.46834 7.21993 1.01561 7.67374C0.562873 8.12756 0.308619 8.74242 0.308621 9.38344V13.9834C0.307106 14.3016 0.368454 14.6168 0.489141 14.9112C0.609828 15.2055 0.787475 15.4731 1.01188 15.6985C1.23628 15.924 1.50302 16.1029 1.79678 16.225C2.09053 16.3471 2.40551 16.4099 2.72362 16.4099H3.87362V19.5954C3.87362 19.7479 3.9342 19.8942 4.04204 20.002C4.14987 20.1099 4.29612 20.1704 4.44862 20.1704H15.7531C15.9056 20.1704 16.0519 20.1099 16.1597 20.002C16.2675 19.8942 16.3281 19.7479 16.3281 19.5954V16.4099H17.4781C18.1182 16.4084 18.7315 16.1535 19.1841 15.7009C19.6367 15.2484 19.8916 14.635 19.8931 13.9949V9.39494C19.8947 9.07462 19.8326 8.75718 19.7105 8.46102C19.5885 8.16486 19.4089 7.89587 19.1821 7.66963C18.9553 7.4434 18.6859 7.26442 18.3895 7.14307C18.093 7.02172 17.7754 6.96041 17.4551 6.96269ZM5.15012 1.78769H15.0401V6.96269H5.15012V1.78769ZM15.1781 19.0377H5.02362V12.3677H15.1781V19.0377ZM18.7201 14.0122C18.7186 14.3472 18.5848 14.6681 18.3479 14.905C18.111 15.1419 17.7902 15.2757 17.4551 15.2772H16.3051V11.8272C16.3051 11.6747 16.2445 11.5284 16.1367 11.4206C16.0289 11.3128 15.8826 11.2522 15.7301 11.2522H4.44862C4.29612 11.2522 4.14987 11.3128 4.04204 11.4206C3.9342 11.5284 3.87362 11.6747 3.87362 11.8272V15.2772H2.72362C2.38859 15.2757 2.06771 15.1419 1.8308 14.905C1.5939 14.6681 1.46013 14.3472 1.45862 14.0122V9.41219C1.4548 9.2434 1.48466 9.07553 1.54644 8.9184C1.60823 8.76127 1.70071 8.61803 1.81848 8.49704C1.93626 8.37606 2.07696 8.27976 2.23237 8.21377C2.38778 8.14777 2.55478 8.11341 2.72362 8.11269H17.4436C17.7796 8.11421 18.1014 8.24877 18.3385 8.48692C18.5755 8.72506 18.7086 9.04741 18.7086 9.38344L18.7201 14.0122Z" fill="#111827"/>
</svg>
