<svg width="17" height="19" viewBox="0 0 17 19" fill="none" xmlns="http://www.w3.org/2000/svg">
<path d="M3.7994 0.631836H13.6134C13.7519 0.631836 13.8885 0.664084 14.0124 0.726026C14.1363 0.787969 14.2441 0.877904 14.3272 0.98871L16.7361 4.20057V17.5833C16.7361 17.82 16.6421 18.0469 16.4748 18.2142C16.3074 18.3815 16.0805 18.4755 15.8439 18.4755H1.56894C1.33232 18.4755 1.10539 18.3815 0.938073 18.2142C0.770755 18.0469 0.676758 17.82 0.676758 17.5833V4.20057L3.08566 0.98871C3.16876 0.877904 3.27652 0.787969 3.40041 0.726026C3.52429 0.664084 3.6609 0.631836 3.7994 0.631836ZM14.9517 5.98494H2.46113V16.6912H14.9517V5.98494ZM14.5056 4.20057L13.1673 2.41621H4.2455L2.90722 4.20057H14.5056ZM6.02986 7.76931V9.55368C6.02986 10.2635 6.31186 10.9443 6.81381 11.4463C7.31576 11.9482 7.99655 12.2302 8.70642 12.2302C9.41628 12.2302 10.0971 11.9482 10.599 11.4463C11.101 10.9443 11.383 10.2635 11.383 9.55368V7.76931H13.1673V9.55368C13.1673 10.7368 12.6974 11.8714 11.8608 12.708C11.0242 13.5446 9.88953 14.0146 8.70642 14.0146C7.52331 14.0146 6.38865 13.5446 5.55207 12.708C4.71548 11.8714 4.2455 10.7368 4.2455 9.55368V7.76931H6.02986Z" fill="#A12B94"/>
</svg>
