<svg width="215" height="116" viewBox="0 0 215 116" fill="none" xmlns="http://www.w3.org/2000/svg">
<path d="M202.092 14.6148C205.956 14.6148 209.089 11.468 209.089 7.58619C209.089 3.70453 205.956 0.557617 202.092 0.557617C198.226 0.557617 195.094 3.70453 195.094 7.58619C195.094 11.468 198.226 14.6148 202.092 14.6148Z" fill="#EAEEF9"/>
<path d="M13.15 19.5863C15.7894 19.5863 17.929 17.4373 17.929 14.7863C17.929 12.1354 15.7894 9.98633 13.15 9.98633C10.5107 9.98633 8.37109 12.1354 8.37109 14.7863C8.37109 17.4373 10.5107 19.5863 13.15 19.5863Z" fill="#EAEEF9"/>
<path d="M9.05488 103.442C13.9565 103.442 17.9301 99.4513 17.9301 94.528C17.9301 89.6048 13.9565 85.6138 9.05488 85.6138C4.15321 85.6138 0.179688 89.6048 0.179688 94.528C0.179688 99.4513 4.15321 103.442 9.05488 103.442Z" fill="#EAEEF9"/>
<path d="M69.2327 10.5577V11.2434H61.2109V10.3863C61.3816 10.2149 61.3816 9.87202 61.3816 9.70059V6.44344L61.2109 6.27202V6.10059C61.3816 6.44344 61.5523 6.61487 61.8936 6.95773L64.4538 8.67201C64.9658 9.1863 65.8192 9.1863 66.5019 8.67201L68.8914 6.61487L69.0621 6.44344C69.0621 6.61487 69.0621 7.12916 69.0621 9.87202C68.8914 10.0434 69.0621 10.2149 69.2327 10.5577Z" fill="url(#paint0_linear_5935_69744)"/>
<g filter="url(#filter0_d_5935_69744)">
<path d="M197.629 102.872H49.8226C46.5797 102.872 44.0195 100.3 44.0195 97.0433V63.6147C44.0195 60.3576 46.5797 57.7861 49.8226 57.7861H197.629C200.872 57.7861 203.432 60.3576 203.432 63.6147V97.0433C203.603 100.3 200.872 102.872 197.629 102.872Z" fill="white"/>
<mask id="mask0_5935_69744" style="mask-type:alpha" maskUnits="userSpaceOnUse" x="44" y="57" width="160" height="46">
<path d="M197.629 102.872H49.8226C46.5797 102.872 44.0195 100.3 44.0195 97.0433V63.6147C44.0195 60.3576 46.5797 57.7861 49.8226 57.7861H197.629C200.872 57.7861 203.432 60.3576 203.432 63.6147V97.0433C203.603 100.3 200.872 102.872 197.629 102.872Z" fill="white"/>
</mask>
<g mask="url(#mask0_5935_69744)">
<rect x="27.3125" y="54.7378" width="20.994" height="51.3801" fill="#FAF09D"/>
</g>
<path d="M58.2158 75.6686V74.9629H58.9134C59.2234 74.9629 59.476 74.8747 59.6711 74.6983C59.8689 74.5219 59.9678 74.2974 59.9678 74.0248C59.9678 73.7495 59.8756 73.5316 59.6912 73.3712C59.5094 73.2109 59.2502 73.1307 58.9134 73.1307C58.6007 73.1307 58.3467 73.2149 58.1516 73.3833C57.9565 73.549 57.8456 73.7748 57.8188 74.0608H56.9729C57.0076 73.553 57.2028 73.1481 57.5582 72.846C57.9164 72.544 58.3815 72.393 58.9535 72.393C59.5041 72.393 59.9571 72.5346 60.3126 72.818C60.6681 73.0986 60.8459 73.4608 60.8459 73.9045C60.8459 74.2626 60.7376 74.5647 60.5211 74.8106C60.3046 75.0538 60.0159 75.2075 59.6551 75.2716V75.2877C60.0934 75.3171 60.4409 75.4574 60.6975 75.7087C60.9568 75.9599 61.0864 76.2873 61.0864 76.6909C61.0864 77.1908 60.8846 77.5997 60.481 77.9178C60.0774 78.2358 59.5709 78.3949 58.9615 78.3949C58.3441 78.3949 57.8456 78.2412 57.466 77.9338C57.0892 77.6238 56.886 77.2161 56.8566 76.711H57.7186C57.748 76.9916 57.8723 77.2175 58.0915 77.3885C58.3133 77.5596 58.6033 77.6451 58.9615 77.6451C59.3143 77.6451 59.6043 77.5556 59.8315 77.3765C60.0587 77.1948 60.1723 76.9622 60.1723 76.6789C60.1723 76.3662 60.0614 76.1203 59.8395 75.9412C59.6203 75.7594 59.3197 75.6686 58.9374 75.6686H58.2158ZM63.1066 78.1784C63.0051 78.2799 62.8808 78.3307 62.7338 78.3307C62.5868 78.3307 62.4625 78.2799 62.3609 78.1784C62.2593 78.0768 62.2085 77.9525 62.2085 77.8055C62.2085 77.6585 62.2593 77.5342 62.3609 77.4326C62.4625 77.3311 62.5868 77.2803 62.7338 77.2803C62.8808 77.2803 63.0051 77.3311 63.1066 77.4326C63.2082 77.5342 63.259 77.6585 63.259 77.8055C63.259 77.9525 63.2082 78.0768 63.1066 78.1784ZM63.1066 75.2556C63.0051 75.3572 62.8808 75.408 62.7338 75.408C62.5868 75.408 62.4625 75.3572 62.3609 75.2556C62.2593 75.154 62.2085 75.0298 62.2085 74.8827C62.2085 74.7357 62.2593 74.6114 62.3609 74.5099C62.4625 74.4083 62.5868 74.3575 62.7338 74.3575C62.8808 74.3575 63.0051 74.4083 63.1066 74.5099C63.2082 74.6114 63.259 74.7357 63.259 74.8827C63.259 75.0298 63.2082 75.154 63.1066 75.2556ZM68.1619 77.585C67.7743 78.1249 67.2357 78.3949 66.5461 78.3949C65.8565 78.3949 65.3153 78.1262 64.9224 77.589C64.5321 77.0491 64.337 76.3154 64.337 75.3879C64.337 74.4685 64.5335 73.7401 64.9264 73.2029C65.3193 72.6629 65.8592 72.393 66.5461 72.393C67.2331 72.393 67.7716 72.6616 68.1619 73.1988C68.5521 73.7334 68.7472 74.4618 68.7472 75.3839C68.7472 76.3114 68.5521 77.0451 68.1619 77.585ZM65.5879 77.0437C65.8151 77.442 66.1345 77.6411 66.5461 77.6411C66.9577 77.6411 67.2758 77.442 67.5003 77.0437C67.7275 76.6428 67.8411 76.0909 67.8411 75.3879C67.8411 74.693 67.7262 74.1464 67.4963 73.7481C67.2691 73.3472 66.9524 73.1467 66.5461 73.1467C66.1399 73.1467 65.8218 73.3472 65.5919 73.7481C65.3621 74.149 65.2471 74.6956 65.2471 75.3879C65.2471 76.0909 65.3607 76.6428 65.5879 77.0437ZM73.4537 77.585C73.0661 78.1249 72.5275 78.3949 71.8379 78.3949C71.1483 78.3949 70.6071 78.1262 70.2142 77.589C69.8239 77.0491 69.6288 76.3154 69.6288 75.3879C69.6288 74.4685 69.8253 73.7401 70.2182 73.2029C70.6111 72.6629 71.151 72.393 71.8379 72.393C72.5248 72.393 73.0634 72.6616 73.4537 73.1988C73.8439 73.7334 74.039 74.4618 74.039 75.3839C74.039 76.3114 73.8439 77.0451 73.4537 77.585ZM70.8797 77.0437C71.1069 77.442 71.4263 77.6411 71.8379 77.6411C72.2495 77.6411 72.5676 77.442 72.7921 77.0437C73.0193 76.6428 73.1329 76.0909 73.1329 75.3879C73.1329 74.693 73.018 74.1464 72.7881 73.7481C72.5609 73.3472 72.2442 73.1467 71.8379 73.1467C71.4316 73.1467 71.1136 73.3472 70.8837 73.7481C70.6538 74.149 70.5389 74.6956 70.5389 75.3879C70.5389 76.0909 70.6525 76.6428 70.8797 77.0437ZM79.5108 76.3301H76.8807V75.5483H79.5108V76.3301ZM83.7036 75.6686V74.9629H84.4012C84.7112 74.9629 84.9638 74.8747 85.1589 74.6983C85.3567 74.5219 85.4556 74.2974 85.4556 74.0248C85.4556 73.7495 85.3634 73.5316 85.179 73.3712C84.9972 73.2109 84.7379 73.1307 84.4012 73.1307C84.0884 73.1307 83.8345 73.2149 83.6394 73.3833C83.4443 73.549 83.3334 73.7748 83.3066 74.0608H82.4607C82.4954 73.553 82.6905 73.1481 83.046 72.846C83.4042 72.544 83.8693 72.393 84.4413 72.393C84.9919 72.393 85.4449 72.5346 85.8004 72.818C86.1559 73.0986 86.3336 73.4608 86.3336 73.9045C86.3336 74.2626 86.2254 74.5647 86.0089 74.8106C85.7924 75.0538 85.5037 75.2075 85.1429 75.2716V75.2877C85.5812 75.3171 85.9287 75.4574 86.1853 75.7087C86.4446 75.9599 86.5742 76.2873 86.5742 76.6909C86.5742 77.1908 86.3724 77.5997 85.9688 77.9178C85.5652 78.2358 85.0587 78.3949 84.4493 78.3949C83.8318 78.3949 83.3334 78.2412 82.9538 77.9338C82.5769 77.6238 82.3738 77.2161 82.3444 76.711H83.2064C83.2358 76.9916 83.3601 77.2175 83.5793 77.3885C83.8011 77.5596 84.0911 77.6451 84.4493 77.6451C84.8021 77.6451 85.0921 77.5556 85.3193 77.3765C85.5465 77.1948 85.6601 76.9622 85.6601 76.6789C85.6601 76.3662 85.5492 76.1203 85.3273 75.9412C85.1081 75.7594 84.8074 75.6686 84.4252 75.6686H83.7036ZM88.5944 78.1784C88.4928 78.2799 88.3686 78.3307 88.2215 78.3307C88.0745 78.3307 87.9503 78.2799 87.8487 78.1784C87.7471 78.0768 87.6963 77.9525 87.6963 77.8055C87.6963 77.6585 87.7471 77.5342 87.8487 77.4326C87.9503 77.3311 88.0745 77.2803 88.2215 77.2803C88.3686 77.2803 88.4928 77.3311 88.5944 77.4326C88.696 77.5342 88.7468 77.6585 88.7468 77.8055C88.7468 77.9525 88.696 78.0768 88.5944 78.1784ZM88.5944 75.2556C88.4928 75.3572 88.3686 75.408 88.2215 75.408C88.0745 75.408 87.9503 75.3572 87.8487 75.2556C87.7471 75.154 87.6963 75.0298 87.6963 74.8827C87.6963 74.7357 87.7471 74.6114 87.8487 74.5099C87.9503 74.4083 88.0745 74.3575 88.2215 74.3575C88.3686 74.3575 88.4928 74.4083 88.5944 74.5099C88.696 74.6114 88.7468 74.7357 88.7468 74.8827C88.7468 75.0298 88.696 75.154 88.5944 75.2556ZM89.8769 74.1972C89.8769 73.676 90.064 73.2456 90.4382 72.9062C90.8151 72.564 91.2909 72.393 91.8655 72.393C92.4161 72.393 92.8745 72.548 93.2407 72.8581C93.6069 73.1681 93.79 73.553 93.79 74.0127C93.79 74.3361 93.7004 74.6435 93.5214 74.9349C93.3423 75.2235 93.0296 75.5964 92.5832 76.0535L91.1358 77.5088V77.5289H93.8822V78.2866H89.925V77.6772L92.0139 75.5483C92.3667 75.1794 92.6032 74.8961 92.7235 74.6983C92.8438 74.4979 92.9039 74.284 92.9039 74.0568C92.9039 73.8002 92.801 73.5824 92.5952 73.4033C92.3894 73.2242 92.1368 73.1347 91.8375 73.1347C91.5221 73.1347 91.2575 73.2363 91.0436 73.4394C90.8325 73.6399 90.7269 73.8911 90.7269 74.1931V74.2052H89.8769V74.1972ZM98.5806 77.585C98.193 78.1249 97.6545 78.3949 96.9649 78.3949C96.2753 78.3949 95.734 78.1262 95.3411 77.589C94.9509 77.0491 94.7558 76.3154 94.7558 75.3879C94.7558 74.4685 94.9522 73.7401 95.3451 73.2029C95.738 72.6629 96.2779 72.393 96.9649 72.393C97.6518 72.393 98.1904 72.6616 98.5806 73.1988C98.9708 73.7334 99.166 74.4618 99.166 75.3839C99.166 76.3114 98.9708 77.0451 98.5806 77.585ZM96.0067 77.0437C96.2338 77.442 96.5532 77.6411 96.9649 77.6411C97.3765 77.6411 97.6946 77.442 97.9191 77.0437C98.1463 76.6428 98.2599 76.0909 98.2599 75.3879C98.2599 74.693 98.1449 74.1464 97.9151 73.7481C97.6879 73.3472 97.3711 73.1467 96.9649 73.1467C96.5586 73.1467 96.2405 73.3472 96.0107 73.7481C95.7808 74.149 95.6659 74.6956 95.6659 75.3879C95.6659 76.0909 95.7795 76.6428 96.0067 77.0437Z" fill="#1A202C"/>
<path d="M59.2542 88.1138V82.9779H61.0784V82.3284H56.7083V82.9779H58.5325V88.1138H59.2542ZM62.5533 88.1859C63.704 88.1859 64.4818 87.356 64.4818 86.0289C64.4818 84.6979 63.704 83.872 62.5533 83.872C61.3987 83.872 60.6209 84.6979 60.6209 86.0289C60.6209 87.356 61.3987 88.1859 62.5533 88.1859ZM62.5533 87.5725C61.8156 87.5725 61.3305 87.0112 61.3305 86.0289C61.3305 85.0467 61.8156 84.4854 62.5533 84.4854C63.2911 84.4854 63.7722 85.0467 63.7722 86.0289C63.7722 87.0112 63.2911 87.5725 62.5533 87.5725ZM66.943 88.1859C67.5444 88.1859 68.0215 87.8892 68.2902 87.4081H68.3022V88.1138H68.9677V82.3284H68.2701V84.6217H68.2541C68.0055 84.1646 67.5244 83.872 66.927 83.872C65.8766 83.872 65.1589 84.7219 65.1589 86.0289C65.1589 87.336 65.8806 88.1859 66.943 88.1859ZM67.0754 84.4854C67.793 84.4854 68.2741 85.0988 68.2741 86.0289C68.2741 86.9631 67.793 87.5725 67.0754 87.5725C66.3376 87.5725 65.8726 86.9751 65.8726 86.0289C65.8726 85.0868 66.3376 84.4854 67.0754 84.4854ZM71.461 87.5926C70.9599 87.5926 70.6271 87.332 70.6271 86.935C70.6271 86.5421 70.9479 86.2936 71.5092 86.2575L72.6237 86.1893V86.5301C72.6237 87.1315 72.1186 87.5926 71.461 87.5926ZM71.3047 88.1859C71.866 88.1859 72.3952 87.8732 72.6438 87.3961H72.6598V88.1138H73.3214V85.2311C73.3214 84.4012 72.7039 83.872 71.7257 83.872C70.7394 83.872 70.1219 84.4252 70.0738 85.1469H70.7474C70.8356 84.738 71.1724 84.4854 71.7096 84.4854C72.287 84.4854 72.6237 84.7901 72.6237 85.2993V85.6481L71.429 85.7162C70.4667 85.7724 69.9175 86.2214 69.9175 86.935C69.9175 87.6848 70.4748 88.1859 71.3047 88.1859ZM74.7281 89.6734C75.4819 89.6734 75.8267 89.3807 76.1835 88.4064L77.8233 83.9441H77.0896L75.9349 87.4162H75.9229L74.7682 83.9441H74.0225L75.5621 88.1178L75.4659 88.4105C75.3055 88.8956 75.089 89.084 74.7001 89.084C74.6119 89.084 74.5036 89.08 74.4275 89.064V89.6493C74.5036 89.6654 74.644 89.6734 74.7281 89.6734Z" fill="#718096"/>
<path d="M150.539 77.3616H125.332C124.675 77.3616 124.281 76.8341 124.281 76.3067V73.01C124.281 72.3507 124.806 71.9551 125.332 71.9551H150.539C151.195 71.9551 151.589 72.4825 151.589 73.01V76.3067C151.589 76.966 151.195 77.3616 150.539 77.3616Z" fill="#CED6E2"/>
<path d="M180.472 88.7024H125.332C124.675 88.7024 124.281 88.1749 124.281 87.6475V84.3508C124.281 83.6915 124.806 83.2959 125.332 83.2959H180.341C180.997 83.2959 181.391 83.8234 181.391 84.3508V87.6475C181.523 88.1749 180.997 88.7024 180.472 88.7024Z" fill="#CED6E2"/>
</g>
<g filter="url(#filter1_d_5935_69744)">
<path d="M184.207 88.8719H36.4007C33.1578 88.8719 30.5977 86.3004 30.5977 83.0433V49.6147C30.5977 46.3576 33.1578 43.7861 36.4007 43.7861H184.207C187.45 43.7861 190.01 46.3576 190.01 49.6147V83.0433C190.181 86.3004 187.45 88.8719 184.207 88.8719Z" fill="white"/>
<mask id="mask1_5935_69744" style="mask-type:alpha" maskUnits="userSpaceOnUse" x="30" y="43" width="161" height="46">
<path d="M184.207 88.8719H36.4007C33.1578 88.8719 30.5977 86.3004 30.5977 83.0433V49.6147C30.5977 46.3576 33.1578 43.7861 36.4007 43.7861H184.207C187.45 43.7861 190.01 46.3576 190.01 49.6147V83.0433C190.181 86.3004 187.45 88.8719 184.207 88.8719Z" fill="white"/>
</mask>
<g mask="url(#mask1_5935_69744)">
<rect x="13.8906" y="40.7378" width="20.994" height="51.3801" fill="#FFD3B4"/>
</g>
<path d="M44.7939 61.6686V60.9629H45.4915C45.8016 60.9629 46.0541 60.8747 46.2493 60.6983C46.447 60.5219 46.5459 60.2974 46.5459 60.0248C46.5459 59.7495 46.4537 59.5316 46.2693 59.3712C46.0876 59.2109 45.8283 59.1307 45.4915 59.1307C45.1788 59.1307 44.9249 59.2149 44.7297 59.3833C44.5346 59.549 44.4237 59.7748 44.397 60.0608H43.551C43.5858 59.553 43.7809 59.1481 44.1364 58.846C44.4945 58.544 44.9596 58.393 45.5316 58.393C46.0822 58.393 46.5353 58.5346 46.8907 58.818C47.2462 59.0986 47.424 59.4608 47.424 59.9045C47.424 60.2626 47.3157 60.5647 47.0992 60.8106C46.8827 61.0538 46.5941 61.2075 46.2332 61.2716V61.2877C46.6716 61.3171 47.019 61.4574 47.2756 61.7087C47.5349 61.9599 47.6645 62.2873 47.6645 62.6909C47.6645 63.1908 47.4627 63.5997 47.0591 63.9178C46.6555 64.2358 46.149 64.3949 45.5396 64.3949C44.9222 64.3949 44.4237 64.2412 44.0442 63.9338C43.6673 63.6238 43.4641 63.2161 43.4347 62.711H44.2967C44.3261 62.9916 44.4504 63.2175 44.6696 63.3885C44.8914 63.5596 45.1815 63.6451 45.5396 63.6451C45.8924 63.6451 46.1824 63.5556 46.4096 63.3765C46.6368 63.1948 46.7504 62.9622 46.7504 62.6789C46.7504 62.3662 46.6395 62.1203 46.4176 61.9412C46.1985 61.7594 45.8978 61.6686 45.5156 61.6686H44.7939ZM49.6848 64.1784C49.5832 64.2799 49.4589 64.3307 49.3119 64.3307C49.1649 64.3307 49.0406 64.2799 48.939 64.1784C48.8375 64.0768 48.7867 63.9525 48.7867 63.8055C48.7867 63.6585 48.8375 63.5342 48.939 63.4326C49.0406 63.3311 49.1649 63.2803 49.3119 63.2803C49.4589 63.2803 49.5832 63.3311 49.6848 63.4326C49.7863 63.5342 49.8371 63.6585 49.8371 63.8055C49.8371 63.9525 49.7863 64.0768 49.6848 64.1784ZM49.6848 61.2556C49.5832 61.3572 49.4589 61.408 49.3119 61.408C49.1649 61.408 49.0406 61.3572 48.939 61.2556C48.8375 61.154 48.7867 61.0298 48.7867 60.8827C48.7867 60.7357 48.8375 60.6114 48.939 60.5099C49.0406 60.4083 49.1649 60.3575 49.3119 60.3575C49.4589 60.3575 49.5832 60.4083 49.6848 60.5099C49.7863 60.6114 49.8371 60.7357 49.8371 60.8827C49.8371 61.0298 49.7863 61.154 49.6848 61.2556ZM54.74 63.585C54.3524 64.1249 53.8139 64.3949 53.1243 64.3949C52.4347 64.3949 51.8934 64.1262 51.5005 63.589C51.1103 63.0491 50.9151 62.3154 50.9151 61.3879C50.9151 60.4685 51.1116 59.7401 51.5045 59.2029C51.8974 58.6629 52.4373 58.393 53.1243 58.393C53.8112 58.393 54.3498 58.6616 54.74 59.1988C55.1302 59.7334 55.3253 60.4618 55.3253 61.3839C55.3253 62.3114 55.1302 63.0451 54.74 63.585ZM52.166 63.0437C52.3932 63.442 52.7126 63.6411 53.1243 63.6411C53.5359 63.6411 53.8539 63.442 54.0785 63.0437C54.3057 62.6428 54.4193 62.0909 54.4193 61.3879C54.4193 60.693 54.3043 60.1464 54.0745 59.7481C53.8473 59.3472 53.5305 59.1467 53.1243 59.1467C52.718 59.1467 52.3999 59.3472 52.17 59.7481C51.9402 60.149 51.8252 60.6956 51.8252 61.3879C51.8252 62.0909 51.9388 62.6428 52.166 63.0437ZM60.0318 63.585C59.6442 64.1249 59.1056 64.3949 58.416 64.3949C57.7264 64.3949 57.1852 64.1262 56.7923 63.589C56.402 63.0491 56.2069 62.3154 56.2069 61.3879C56.2069 60.4685 56.4034 59.7401 56.7963 59.2029C57.1892 58.6629 57.7291 58.393 58.416 58.393C59.103 58.393 59.6415 58.6616 60.0318 59.1988C60.422 59.7334 60.6171 60.4618 60.6171 61.3839C60.6171 62.3114 60.422 63.0451 60.0318 63.585ZM57.4578 63.0437C57.685 63.442 58.0044 63.6411 58.416 63.6411C58.8277 63.6411 59.1457 63.442 59.3703 63.0437C59.5974 62.6428 59.711 62.0909 59.711 61.3879C59.711 60.693 59.5961 60.1464 59.3662 59.7481C59.1391 59.3472 58.8223 59.1467 58.416 59.1467C58.0098 59.1467 57.6917 59.3472 57.4618 59.7481C57.232 60.149 57.117 60.6956 57.117 61.3879C57.117 62.0909 57.2306 62.6428 57.4578 63.0437ZM66.0889 62.3301H63.4588V61.5483H66.0889V62.3301ZM70.2817 61.6686V60.9629H70.9793C71.2893 60.9629 71.5419 60.8747 71.737 60.6983C71.9348 60.5219 72.0337 60.2974 72.0337 60.0248C72.0337 59.7495 71.9415 59.5316 71.7571 59.3712C71.5753 59.2109 71.3161 59.1307 70.9793 59.1307C70.6666 59.1307 70.4126 59.2149 70.2175 59.3833C70.0224 59.549 69.9115 59.7748 69.8848 60.0608H69.0388C69.0735 59.553 69.2687 59.1481 69.6242 58.846C69.9823 58.544 70.4474 58.393 71.0194 58.393C71.57 58.393 72.023 58.5346 72.3785 58.818C72.734 59.0986 72.9118 59.4608 72.9118 59.9045C72.9118 60.2626 72.8035 60.5647 72.587 60.8106C72.3705 61.0538 72.0818 61.2075 71.721 61.2716V61.2877C72.1594 61.3171 72.5068 61.4574 72.7634 61.7087C73.0227 61.9599 73.1523 62.2873 73.1523 62.6909C73.1523 63.1908 72.9505 63.5997 72.5469 63.9178C72.1433 64.2358 71.6368 64.3949 71.0274 64.3949C70.41 64.3949 69.9115 64.2412 69.5319 63.9338C69.1551 63.6238 68.9519 63.2161 68.9225 62.711H69.7845C69.8139 62.9916 69.9382 63.2175 70.1574 63.3885C70.3792 63.5596 70.6692 63.6451 71.0274 63.6451C71.3802 63.6451 71.6702 63.5556 71.8974 63.3765C72.1246 63.1948 72.2382 62.9622 72.2382 62.6789C72.2382 62.3662 72.1273 62.1203 71.9054 61.9412C71.6863 61.7594 71.3856 61.6686 71.0033 61.6686H70.2817ZM75.1725 64.1784C75.071 64.2799 74.9467 64.3307 74.7997 64.3307C74.6527 64.3307 74.5284 64.2799 74.4268 64.1784C74.3252 64.0768 74.2745 63.9525 74.2745 63.8055C74.2745 63.6585 74.3252 63.5342 74.4268 63.4326C74.5284 63.3311 74.6527 63.2803 74.7997 63.2803C74.9467 63.2803 75.071 63.3311 75.1725 63.4326C75.2741 63.5342 75.3249 63.6585 75.3249 63.8055C75.3249 63.9525 75.2741 64.0768 75.1725 64.1784ZM75.1725 61.2556C75.071 61.3572 74.9467 61.408 74.7997 61.408C74.6527 61.408 74.5284 61.3572 74.4268 61.2556C74.3252 61.154 74.2745 61.0298 74.2745 60.8827C74.2745 60.7357 74.3252 60.6114 74.4268 60.5099C74.5284 60.4083 74.6527 60.3575 74.7997 60.3575C74.9467 60.3575 75.071 60.4083 75.1725 60.5099C75.2741 60.6114 75.3249 60.7357 75.3249 60.8827C75.3249 61.0298 75.2741 61.154 75.1725 61.2556ZM76.455 60.1972C76.455 59.676 76.6421 59.2456 77.0163 58.9062C77.3932 58.564 77.869 58.393 78.4436 58.393C78.9943 58.393 79.4527 58.548 79.8188 58.8581C80.185 59.1681 80.3681 59.553 80.3681 60.0127C80.3681 60.3361 80.2786 60.6435 80.0995 60.9349C79.9204 61.2235 79.6077 61.5964 79.1613 62.0535L77.714 63.5088V63.5289H80.4603V64.2866H76.5032V63.6772L78.592 61.5483C78.9448 61.1794 79.1814 60.8961 79.3016 60.6983C79.4219 60.4979 79.4821 60.284 79.4821 60.0568C79.4821 59.8002 79.3791 59.5824 79.1733 59.4033C78.9675 59.2242 78.7149 59.1347 78.4156 59.1347C78.1002 59.1347 77.8356 59.2363 77.6217 59.4394C77.4106 59.6399 77.305 59.8911 77.305 60.1931V60.2052H76.455V60.1972ZM85.1587 63.585C84.7712 64.1249 84.2326 64.3949 83.543 64.3949C82.8534 64.3949 82.3121 64.1262 81.9192 63.589C81.529 63.0491 81.3339 62.3154 81.3339 61.3879C81.3339 60.4685 81.5303 59.7401 81.9232 59.2029C82.3162 58.6629 82.8561 58.393 83.543 58.393C84.2299 58.393 84.7685 58.6616 85.1587 59.1988C85.549 59.7334 85.7441 60.4618 85.7441 61.3839C85.7441 62.3114 85.549 63.0451 85.1587 63.585ZM82.5848 63.0437C82.812 63.442 83.1314 63.6411 83.543 63.6411C83.9546 63.6411 84.2727 63.442 84.4972 63.0437C84.7244 62.6428 84.838 62.0909 84.838 61.3879C84.838 60.693 84.7231 60.1464 84.4932 59.7481C84.266 59.3472 83.9493 59.1467 83.543 59.1467C83.1367 59.1467 82.8186 59.3472 82.5888 59.7481C82.3589 60.149 82.244 60.6956 82.244 61.3879C82.244 62.0909 82.3576 62.6428 82.5848 63.0437Z" fill="#1A202C"/>
<path d="M45.8323 74.1138V68.9779H47.6565V68.3284H43.2864V68.9779H45.1106V74.1138H45.8323ZM49.1315 74.1859C50.2821 74.1859 51.0599 73.356 51.0599 72.0289C51.0599 70.6979 50.2821 69.872 49.1315 69.872C47.9768 69.872 47.199 70.6979 47.199 72.0289C47.199 73.356 47.9768 74.1859 49.1315 74.1859ZM49.1315 73.5725C48.3938 73.5725 47.9086 73.0112 47.9086 72.0289C47.9086 71.0467 48.3938 70.4854 49.1315 70.4854C49.8692 70.4854 50.3503 71.0467 50.3503 72.0289C50.3503 73.0112 49.8692 73.5725 49.1315 73.5725ZM53.5212 74.1859C54.1226 74.1859 54.5997 73.8892 54.8683 73.4081H54.8803V74.1138H55.5459V68.3284H54.8482V70.6217H54.8322C54.5836 70.1646 54.1025 69.872 53.5051 69.872C52.4547 69.872 51.737 70.7219 51.737 72.0289C51.737 73.336 52.4587 74.1859 53.5212 74.1859ZM53.6535 70.4854C54.3711 70.4854 54.8523 71.0988 54.8523 72.0289C54.8523 72.9631 54.3711 73.5725 53.6535 73.5725C52.9158 73.5725 52.4507 72.9751 52.4507 72.0289C52.4507 71.0868 52.9158 70.4854 53.6535 70.4854ZM58.0392 73.5926C57.538 73.5926 57.2052 73.332 57.2052 72.935C57.2052 72.5421 57.526 72.2936 58.0873 72.2575L59.2019 72.1893V72.5301C59.2019 73.1315 58.6967 73.5926 58.0392 73.5926ZM57.8828 74.1859C58.4441 74.1859 58.9733 73.8732 59.2219 73.3961H59.2379V74.1138H59.8995V71.2311C59.8995 70.4012 59.282 69.872 58.3038 69.872C57.3175 69.872 56.7001 70.4252 56.652 71.1469H57.3255C57.4137 70.738 57.7505 70.4854 58.2877 70.4854C58.8651 70.4854 59.2019 70.7901 59.2019 71.2993V71.6481L58.0071 71.7162C57.0449 71.7724 56.4956 72.2214 56.4956 72.935C56.4956 73.6848 57.0529 74.1859 57.8828 74.1859ZM61.3063 75.6734C62.06 75.6734 62.4048 75.3807 62.7616 74.4064L64.4014 69.9441H63.6677L62.5131 73.4162H62.501L61.3464 69.9441H60.6006L62.1402 74.1178L62.044 74.4105C61.8836 74.8956 61.6671 75.084 61.2782 75.084C61.19 75.084 61.0818 75.08 61.0056 75.064V75.6493C61.0818 75.6654 61.2221 75.6734 61.3063 75.6734Z" fill="#718096"/>
<path d="M137.117 63.3616H111.91C111.253 63.3616 110.859 62.8341 110.859 62.3067V59.01C110.859 58.3507 111.385 57.9551 111.91 57.9551H137.117C137.773 57.9551 138.167 58.4825 138.167 59.01V62.3067C138.167 62.966 137.773 63.3616 137.117 63.3616Z" fill="#CED6E2"/>
<path d="M167.05 74.7024H111.91C111.253 74.7024 110.859 74.1749 110.859 73.6475V70.3508C110.859 69.6915 111.385 69.2959 111.91 69.2959H166.919C167.576 69.2959 167.969 69.8234 167.969 70.3508V73.6475C168.101 74.1749 167.576 74.7024 167.05 74.7024Z" fill="#CED6E2"/>
</g>
<g filter="url(#filter2_d_5935_69744)">
<path d="M170.785 74.8719H22.9788C19.7359 74.8719 17.1758 72.3004 17.1758 69.0433V35.6147C17.1758 32.3576 19.7359 29.7861 22.9788 29.7861H170.785C174.028 29.7861 176.589 32.3576 176.589 35.6147V69.0433C176.759 72.3004 174.028 74.8719 170.785 74.8719Z" fill="white"/>
<mask id="mask2_5935_69744" style="mask-type:alpha" maskUnits="userSpaceOnUse" x="17" y="29" width="160" height="46">
<path d="M170.785 74.8719H22.9788C19.7359 74.8719 17.1758 72.3004 17.1758 69.0433V35.6147C17.1758 32.3576 19.7359 29.7861 22.9788 29.7861H170.785C174.028 29.7861 176.589 32.3576 176.589 35.6147V69.0433C176.759 72.3004 174.028 74.8719 170.785 74.8719Z" fill="white"/>
</mask>
<g mask="url(#mask2_5935_69744)">
<rect x="0.46875" y="26.7378" width="20.994" height="51.3801" fill="#CDF0D5"/>
</g>
<path d="M30.7426 42.5645C30.3304 42.5645 29.9961 42.2302 29.9961 41.8188C29.9961 41.4066 30.3304 41.0723 30.7426 41.0723H34.007C34.3577 41.0723 34.6514 41.3141 34.7318 41.64L35.3064 43.477H56.7068C56.7741 43.4778 56.8424 43.4864 56.9107 43.5063C57.3065 43.6186 57.5363 44.0316 57.424 44.4274L55.9042 49.7153C55.899 49.7394 55.8922 49.7629 55.8843 49.7852L55.0324 52.7496C54.9538 53.0234 54.7204 53.2404 54.4199 53.2827L45.8853 54.5017C45.855 54.5078 45.8248 54.5122 45.7937 54.5148L38.2152 55.5974L37.1671 55.7833V57.577H53.9323C54.3445 57.577 54.678 57.9113 54.678 58.3236C54.678 58.7358 54.3437 59.0693 53.9323 59.0693H52.7115C53.1366 59.5826 53.3923 60.2417 53.3923 60.9607C53.3923 61.7797 53.0596 62.521 52.5231 63.0576C51.9865 63.5942 51.2444 63.9268 50.4253 63.9268C49.6063 63.9268 48.865 63.5941 48.3284 63.0576C47.7918 62.521 47.4592 61.7789 47.4592 60.9607C47.4592 60.2419 47.7149 59.5834 48.14 59.0693H42.1152C42.5402 59.5826 42.796 60.2417 42.796 60.9607C42.796 61.7797 42.4641 62.521 41.9267 63.0576C41.3901 63.5942 40.6488 63.9268 39.8298 63.9268C39.0108 63.9268 38.2695 63.5941 37.7329 63.0576C37.1964 62.521 36.8637 61.7789 36.8637 60.9607C36.8637 60.2419 37.1194 59.5834 37.5445 59.0693H36.4187C36.0064 59.0693 35.6721 58.735 35.6721 58.3236V55.1587C35.6721 54.8027 35.9279 54.4873 36.2899 54.4243L37.1202 54.2766L35.7232 49.8098C35.7119 49.7812 35.7033 49.7519 35.6955 49.7216L34.059 44.4892C34.0478 44.4607 34.0391 44.4314 34.0313 44.401L33.4567 42.5641H30.7395L30.7426 42.5645ZM36.9696 48.7966H40.0782L39.6609 44.969H35.7728L36.9696 48.7966ZM41.5756 48.7966H44.9868V44.969H41.1592L41.5764 48.7966H41.5756ZM46.4788 48.7966H50.0835L50.5007 44.969H46.4789L46.4788 48.7966ZM51.5817 48.7966H54.6171L55.717 44.969H51.999L51.5817 48.7966ZM54.1875 50.2889H51.4192L51.2075 52.2363L53.7321 51.8761L54.1883 50.2899L54.1875 50.2889ZM49.921 50.2889H46.4786V52.9111L49.6849 52.4533L49.9207 50.2889L49.921 50.2889ZM44.9866 50.2889H41.7388L42.093 53.5383L44.9875 53.1245V50.2889L44.9866 50.2889ZM40.2406 50.2889H37.4369L38.6085 54.0361L40.6172 53.7493L40.2406 50.2896L40.2406 50.2889ZM51.4684 59.9184C51.2015 59.6514 50.8334 59.4865 50.4264 59.4865C50.0194 59.4865 49.6514 59.6514 49.3844 59.9184C49.1174 60.1854 48.9524 60.5534 48.9524 60.9604C48.9524 61.3674 49.1174 61.7354 49.3844 62.0025C49.6513 62.2695 50.0194 62.4344 50.4264 62.4344C50.8334 62.4344 51.2023 62.2694 51.4684 62.0025C51.7354 61.7355 51.9004 61.3674 51.9004 60.9604C51.9004 60.5534 51.7354 60.1846 51.4684 59.9184ZM40.8742 59.9184C40.6072 59.6514 40.2391 59.4865 39.8321 59.4865C39.4251 59.4865 39.0563 59.6514 38.7901 59.9184C38.5231 60.1854 38.3582 60.5534 38.3582 60.9604C38.3582 61.3674 38.5231 61.7354 38.7901 62.0025C39.0563 62.2694 39.4251 62.4344 39.8321 62.4344C40.2391 62.4344 40.608 62.2694 40.8742 62.0025C41.1411 61.7355 41.3053 61.3674 41.3053 60.9604C41.3053 60.5534 41.1403 60.1846 40.8742 59.9184Z" fill="#A7B5C9"/>
<path d="M113.651 49.3616H69.286C68.1307 49.3616 67.4375 48.8341 67.4375 48.3067V45.01C67.4375 44.3507 68.3618 43.9551 69.286 43.9551H113.651C114.807 43.9551 115.5 44.4825 115.5 45.01V48.3067C115.5 48.966 114.807 49.3616 113.651 49.3616Z" fill="#CED6E2"/>
<path d="M166.335 60.7024H69.286C68.1307 60.7024 67.4375 60.1749 67.4375 59.6475V56.3508C67.4375 55.6915 68.3618 55.2959 69.286 55.2959H166.104C167.259 55.2959 167.952 55.8234 167.952 56.3508V59.6475C168.183 60.1749 167.259 60.7024 166.335 60.7024Z" fill="#CED6E2"/>
</g>
<defs>
<filter id="filter0_d_5935_69744" x="33.0195" y="48.7861" width="181.422" height="67.0859" filterUnits="userSpaceOnUse" color-interpolation-filters="sRGB">
<feFlood flood-opacity="0" result="BackgroundImageFix"/>
<feColorMatrix in="SourceAlpha" type="matrix" values="0 0 0 0 0 0 0 0 0 0 0 0 0 0 0 0 0 0 127 0" result="hardAlpha"/>
<feOffset dy="2"/>
<feGaussianBlur stdDeviation="5.5"/>
<feComposite in2="hardAlpha" operator="out"/>
<feColorMatrix type="matrix" values="0 0 0 0 0.917647 0 0 0 0 0.933333 0 0 0 0 0.976471 0 0 0 0.9 0"/>
<feBlend mode="normal" in2="BackgroundImageFix" result="effect1_dropShadow_5935_69744"/>
<feBlend mode="normal" in="SourceGraphic" in2="effect1_dropShadow_5935_69744" result="shape"/>
</filter>
<filter id="filter1_d_5935_69744" x="19.5977" y="34.7861" width="181.422" height="67.0859" filterUnits="userSpaceOnUse" color-interpolation-filters="sRGB">
<feFlood flood-opacity="0" result="BackgroundImageFix"/>
<feColorMatrix in="SourceAlpha" type="matrix" values="0 0 0 0 0 0 0 0 0 0 0 0 0 0 0 0 0 0 127 0" result="hardAlpha"/>
<feOffset dy="2"/>
<feGaussianBlur stdDeviation="5.5"/>
<feComposite in2="hardAlpha" operator="out"/>
<feColorMatrix type="matrix" values="0 0 0 0 0.917647 0 0 0 0 0.933333 0 0 0 0 0.976471 0 0 0 0.9 0"/>
<feBlend mode="normal" in2="BackgroundImageFix" result="effect1_dropShadow_5935_69744"/>
<feBlend mode="normal" in="SourceGraphic" in2="effect1_dropShadow_5935_69744" result="shape"/>
</filter>
<filter id="filter2_d_5935_69744" x="6.17578" y="20.7861" width="181.422" height="67.0859" filterUnits="userSpaceOnUse" color-interpolation-filters="sRGB">
<feFlood flood-opacity="0" result="BackgroundImageFix"/>
<feColorMatrix in="SourceAlpha" type="matrix" values="0 0 0 0 0 0 0 0 0 0 0 0 0 0 0 0 0 0 127 0" result="hardAlpha"/>
<feOffset dy="2"/>
<feGaussianBlur stdDeviation="5.5"/>
<feComposite in2="hardAlpha" operator="out"/>
<feColorMatrix type="matrix" values="0 0 0 0 0.917647 0 0 0 0 0.933333 0 0 0 0 0.976471 0 0 0 0.9 0"/>
<feBlend mode="normal" in2="BackgroundImageFix" result="effect1_dropShadow_5935_69744"/>
<feBlend mode="normal" in="SourceGraphic" in2="effect1_dropShadow_5935_69744" result="shape"/>
</filter>
<linearGradient id="paint0_linear_5935_69744" x1="65.2244" y1="11.2746" x2="65.2244" y2="8.44144" gradientUnits="userSpaceOnUse">
<stop stop-color="white"/>
<stop offset="1" stop-color="#E2E5EC"/>
</linearGradient>
</defs>
</svg>
