<svg width="19" height="18" viewBox="0 0 19 18" fill="none" xmlns="http://www.w3.org/2000/svg">
<path d="M18.449 9.11037C18.449 11.2741 17.5895 13.3492 16.0595 14.8792C14.5295 16.4092 12.4544 17.2687 10.2907 17.2687C10.0502 17.2687 9.81968 17.1732 9.64968 17.0032C9.47968 16.8332 9.38418 16.6026 9.38418 16.3622C9.38418 16.1218 9.47968 15.8912 9.64968 15.7213C9.81968 15.5513 10.0502 15.4557 10.2907 15.4557C11.4831 15.4561 12.6515 15.1205 13.662 14.4874C14.6725 13.8542 15.4841 12.9492 16.0038 11.8759C16.5235 10.8027 16.7303 9.60474 16.6004 8.41938C16.4706 7.23403 16.0093 6.10925 15.2696 5.17399C14.5299 4.23873 13.5416 3.53084 12.418 3.13146C11.2944 2.73208 10.081 2.65739 8.91696 2.91594C7.75288 3.17448 6.68522 3.75581 5.83635 4.59328C4.98748 5.43074 4.39177 6.49045 4.11751 7.65093L4.20816 7.56028C4.38157 7.41178 4.60464 7.33418 4.83278 7.34299C5.06092 7.3518 5.27733 7.44638 5.43877 7.60781C5.60021 7.76925 5.69478 7.98567 5.7036 8.21381C5.71241 8.44195 5.63481 8.66501 5.4863 8.83842L3.67333 10.6514C3.50349 10.8202 3.27374 10.915 3.03426 10.915C2.79478 10.915 2.56503 10.8202 2.39519 10.6514L0.582228 8.83842C0.433722 8.66501 0.356122 8.44195 0.364934 8.21381C0.373746 7.98567 0.468321 7.76925 0.629761 7.60781C0.791201 7.44638 1.00761 7.3518 1.23575 7.34299C1.46389 7.33418 1.68696 7.41178 1.86037 7.56028L2.22296 7.92287C2.52858 5.88939 3.59083 4.04631 5.19714 2.76248C6.80345 1.47864 8.83533 0.848736 10.8862 0.998825C12.937 1.14891 14.8555 2.06792 16.2578 3.57194C17.6601 5.07596 18.4427 7.05405 18.449 9.11037Z" fill="#111827"/>
</svg>
