<svg width="40" height="54" viewBox="0 0 40 54" fill="none" xmlns="http://www.w3.org/2000/svg">
<path d="M27.0365 28.4453H12.9658C12.3373 28.4453 11.7567 28.7806 11.4426 29.3247C11.1285 29.8689 11.1285 30.5394 11.4426 31.0836C11.7567 31.6277 12.3373 31.963 12.9658 31.963H27.0365C27.6651 31.963 28.2457 31.6277 28.5598 31.0836C28.8739 30.5394 28.8739 29.8689 28.5598 29.3247C28.2457 28.7806 27.6651 28.4453 27.0365 28.4453Z" fill="#1A202C"/>
<path d="M27.0365 34.8413H12.9658C12.3373 34.8413 11.7567 35.1766 11.4426 35.7207C11.1285 36.2649 11.1285 36.9354 11.4426 37.4796C11.7567 38.0237 12.3373 38.359 12.9658 38.359H27.0365C27.6651 38.359 28.2457 38.0237 28.5598 37.4796C28.8739 36.9354 28.8739 36.2649 28.5598 35.7207C28.2457 35.1766 27.6651 34.8413 27.0365 34.8413Z" fill="#1A202C"/>
<path d="M39.3487 7.61738C39.3487 5.75141 38.6075 3.96191 37.288 2.64279C35.9689 1.32326 34.1794 0.582031 32.3134 0.582031H7.68966C5.82368 0.582031 4.03419 1.32326 2.71506 2.64279C1.39553 3.96191 0.654306 5.75141 0.654306 7.61738V50.3049C0.652735 50.8942 0.861205 51.4654 1.24281 51.915C1.62403 52.3649 2.15325 52.664 2.73511 52.759C3.31695 52.8537 3.91373 52.7382 4.41817 52.4328L10.8905 48.5634H10.8909C11.0833 48.4381 11.3314 48.4381 11.5238 48.5634L18.7173 52.8725H18.7177C19.1079 53.0986 19.5504 53.2196 20.0014 53.2243C20.4486 53.2306 20.8879 53.1085 21.268 52.8725L28.4969 48.5634H28.4965C28.696 48.4393 28.9484 48.4393 29.1475 48.5634L35.5849 52.4328C36.0894 52.7382 36.6862 52.8537 37.268 52.759C37.8498 52.664 38.3791 52.3649 38.7603 51.915C39.1419 51.4654 39.3503 50.8942 39.3488 50.3049L39.3487 7.61738ZM35.8311 48.4747L30.9589 45.5372V45.5376C30.317 45.1497 29.5809 44.9444 28.831 44.9444C28.0807 44.9444 27.3446 45.1497 26.7027 45.5376L20.0014 49.53L13.3355 45.5372V45.5376C12.6948 45.1458 11.9583 44.9385 11.2072 44.9385C10.4562 44.9385 9.71966 45.1458 9.07894 45.5376L4.17188 48.4747V7.61736C4.17188 6.68456 4.54249 5.78978 5.20206 5.12986C5.86201 4.4703 6.75677 4.09969 7.68956 4.09969H32.3133C33.2461 4.09969 34.1409 4.4703 34.8008 5.12986C35.4604 5.78982 35.831 6.68458 35.831 7.61736L35.8311 48.4747Z" fill="#1A202C"/>
<path d="M31.5479 10.1724L31.5479 10.1724C30.9423 9.56687 29.9605 9.56687 29.3549 10.1724L18.8939 20.6334L14.737 16.4765C14.1314 15.8709 13.1496 15.8709 12.544 16.4765C11.9384 17.0821 11.9384 18.0639 12.544 18.6695L17.7974 23.9229C18.403 24.5285 19.3848 24.5285 19.9904 23.9229L31.5479 12.3654C32.1535 11.7599 32.1535 10.778 31.5479 10.1724Z" fill="#1A202C" stroke="#1A202C" stroke-linecap="round" stroke-linejoin="round"/>
</svg>
