<?xml version="1.0" standalone="no"?>
<!DOCTYPE svg PUBLIC "-//W3C//DTD SVG 20010904//EN"
 "http://www.w3.org/TR/2001/REC-SVG-20010904/DTD/svg10.dtd">
<svg version="1.0" xmlns="http://www.w3.org/2000/svg"
 width="500.000000pt" height="500.000000pt" viewBox="0 0 500.000000 500.000000"
 preserveAspectRatio="xMidYMid meet">
<metadata>
Created by potrace 1.11, written by Peter Selinger 2001-2013
</metadata>
<g transform="translate(0.000000,500.000000) scale(0.100000,-0.100000)"
fill="#000000" stroke="none">
<path d="M1230 2518 c0 -1023 3 -1857 8 -1855 4 2 23 11 42 19 19 9 83 39 143
67 143 67 192 83 252 80 75 -4 135 -22 232 -72 49 -24 117 -55 153 -67 36 -12
72 -25 80 -28 8 -3 22 -7 30 -8 8 -2 56 -12 105 -22 116 -25 349 -24 470 2 44
10 87 19 95 21 43 9 126 42 215 85 369 178 634 536 701 945 11 67 14 307 4
355 -4 25 -14 74 -21 110 -6 36 -15 70 -18 75 -5 10 -7 16 -14 50 -2 8 -6 18
-10 21 -4 4 -7 13 -7 20 0 21 -71 163 -119 239 -72 114 -189 244 -281 314 -19
14 -37 28 -40 32 -4 5 -78 52 -135 86 -56 34 -231 103 -296 117 -13 3 -42 10
-64 15 -124 32 -419 32 -501 0 -13 -4 -24 -7 -24 -4 0 2 -23 -3 -52 -11 -28
-9 -59 -17 -67 -19 -25 -5 -118 -43 -164 -67 -23 -12 -44 -22 -47 -23 -6 -1
-51 -28 -90 -55 -14 -9 -34 -22 -45 -28 l-21 -10 1 730 c0 401 -2 733 -5 737
-3 4 -119 8 -257 8 l-253 0 0 -1859z m1370 105 c36 -2 75 -9 75 -13 0 -1 9 -3
20 -5 78 -11 222 -89 309 -167 193 -174 281 -424 241 -688 -16 -110 -76 -241
-154 -340 -37 -47 -131 -139 -143 -140 -4 0 -13 -6 -21 -14 -27 -27 -152 -85
-232 -107 -136 -38 -320 -30 -448 17 -64 24 -87 36 -143 70 -219 136 -350 362
-358 617 -6 176 48 343 156 484 47 61 141 149 183 170 17 9 32 19 35 22 13 17
151 73 215 86 43 9 219 21 225 15 3 -3 21 -6 40 -7z"/>
</g>
</svg>
