<svg width="16" height="16" viewBox="0 0 16 16" fill="none" xmlns="http://www.w3.org/2000/svg">
<path d="M0 3C0 1.34315 1.34315 0 3 0H13C14.6569 0 16 1.34315 16 3V13C16 14.6569 14.6569 16 13 16H3C1.34315 16 0 14.6569 0 13V3Z" fill="#E5EAEE"/>
<path fill-rule="evenodd" clip-rule="evenodd" d="M6.48959 4.04978C6.48959 3.67865 6.79046 3.37779 7.16159 3.37779H9.37312C9.74425 3.37779 10.0451 3.67865 10.0451 4.04978V6.61687C10.0451 6.988 9.74425 7.28886 9.37312 7.28886H7.16159C6.79046 7.28886 6.48959 6.988 6.48959 6.61687V4.04978ZM7.16159 2.66669C6.39772 2.66669 5.77849 3.28592 5.77849 4.04978V6.61687C5.77849 7.38073 6.39772 7.99997 7.16159 7.99997H9.37312C10.137 7.99997 10.7562 7.38073 10.7562 6.61687V4.04978C10.7562 3.28592 10.137 2.66669 9.37312 2.66669H7.16159ZM5.12832 7.64972C5.27734 7.67577 5.39446 7.79463 5.41792 7.94453L5.59974 8.85366C5.75658 8.76299 5.93865 8.7111 6.13283 8.7111H10.3995C10.594 8.7111 10.7765 8.76321 10.9335 8.85423L11.1183 7.9302C11.1526 7.75868 11.305 7.64086 11.474 7.64439H12.1785C12.3748 7.64439 12.534 7.80358 12.534 7.99994C12.534 8.19631 12.3748 8.35549 12.1785 8.35549H11.7585L11.4652 9.82169C11.4422 10.3904 10.9738 10.8444 10.3995 10.8444H8.62194V12.622H10.4007C10.597 12.622 10.7562 12.7812 10.7562 12.9776C10.7562 13.1739 10.597 13.3331 10.4007 13.3331H8.27861L8.26639 13.3333L8.25417 13.3331H6.13404C5.93768 13.3331 5.77849 13.1739 5.77849 12.9776C5.77849 12.7812 5.93768 12.622 6.13404 12.622H7.91084V10.8444H6.13283C5.55618 10.8444 5.0864 10.3868 5.06681 9.81493L4.77492 8.35549H4.35555C4.15919 8.35549 4 8.19631 4 7.99994C4 7.80358 4.15919 7.64439 4.35555 7.64439H5.05939C5.08277 7.6439 5.10584 7.64574 5.12832 7.64972ZM5.77742 9.76759C5.7828 9.57592 5.93986 9.4222 6.13283 9.4222H10.3995C10.5958 9.4222 10.755 9.58139 10.755 9.77775C10.755 9.97412 10.5958 10.1333 10.3995 10.1333H6.13283C5.93997 10.1333 5.78298 9.97976 5.77743 9.78824C5.77763 9.78139 5.77763 9.7745 5.77742 9.76759Z" fill="#5E6278"/>
</svg>
