<svg width="13" height="16" viewBox="0 0 13 16" fill="none" xmlns="http://www.w3.org/2000/svg">
<path fill-rule="evenodd" clip-rule="evenodd" d="M3.92319 2.56851C3.92319 2.0582 4.33688 1.64452 4.84718 1.64452H7.88804C8.39835 1.64452 8.81203 2.0582 8.81203 2.56851V6.09825C8.81203 6.60855 8.39835 7.02224 7.88804 7.02224H4.84718C4.33688 7.02224 3.92319 6.60855 3.92319 6.09825V2.56851ZM4.84718 0.666748C3.79687 0.666748 2.94542 1.51819 2.94542 2.56851V6.09825C2.94542 7.14856 3.79687 8.00001 4.84718 8.00001H7.88804C8.93836 8.00001 9.7898 7.14856 9.7898 6.09825V2.56851C9.7898 1.51819 8.93836 0.666748 7.88804 0.666748H4.84718ZM2.05001 7.51816C2.2556 7.55348 2.41731 7.71719 2.44963 7.92378L2.69965 9.17384C2.9153 9.04916 3.16564 8.97781 3.43264 8.97781H9.29925C9.56682 8.97781 9.81765 9.04946 10.0336 9.17462L10.2877 7.90408C10.3349 7.66826 10.5444 7.50627 10.7767 7.51109H11.7454C12.0154 7.51109 12.2343 7.72997 12.2343 7.99997C12.2343 8.26998 12.0154 8.48886 11.7454 8.48886H11.1679L10.7647 10.5049C10.733 11.2869 10.089 11.9111 9.29925 11.9111H6.85517V14.3553H9.30092C9.57092 14.3553 9.7898 14.5742 9.7898 14.8442C9.7898 15.1142 9.57092 15.3331 9.30092 15.3331H6.38306L6.36629 15.3334L6.34951 15.3331H3.43431C3.1643 15.3331 2.94542 15.1142 2.94542 14.8442C2.94542 14.5742 3.1643 14.3553 3.43431 14.3553H5.8774V11.9111H3.43264C2.63974 11.9111 1.9938 11.2819 1.96686 10.4956L1.56552 8.48886H0.988884C0.718881 8.48886 0.5 8.26998 0.5 7.99997C0.5 7.72997 0.718881 7.51109 0.988884 7.51109H1.95673C1.98836 7.51043 2.01958 7.51287 2.05001 7.51816ZM2.94395 10.4305C2.95135 10.167 3.16731 9.95558 3.43264 9.95558H9.29925C9.56925 9.95558 9.78814 10.1745 9.78814 10.4445C9.78814 10.7145 9.56925 10.9334 9.29925 10.9334H3.43264C3.16746 10.9334 2.95159 10.7222 2.94397 10.4589C2.94424 10.4495 2.94424 10.44 2.94395 10.4305Z" fill="#111827"/>
</svg>
