<svg width="19" height="23" viewBox="0 0 19 23" fill="none" xmlns="http://www.w3.org/2000/svg">
<path fill-rule="evenodd" clip-rule="evenodd" d="M5.66578 3.49356C5.66578 2.6819 6.29243 2.02392 7.06544 2.02392H11.6717C12.4447 2.02392 13.0714 2.6819 13.0714 3.49356V9.10772C13.0714 9.91938 12.4447 10.5774 11.6717 10.5774H7.06544C6.29243 10.5774 5.66578 9.91938 5.66578 9.10772V3.49356ZM7.06544 0.46875C5.47443 0.46875 4.18467 1.823 4.18467 3.49356V9.10772C4.18467 10.7783 5.47443 12.1325 7.06544 12.1325H11.6717C13.2627 12.1325 14.5525 10.7783 14.5525 9.10772V3.49356C14.5525 1.823 13.2627 0.46875 11.6717 0.46875H7.06544ZM2.74258 11.3562C3.09306 11.376 3.37877 11.6517 3.43331 12.0085L3.81256 13.9995C4.1392 13.8013 4.51839 13.6878 4.92281 13.6878H13.8095C14.2147 13.6878 14.5946 13.8017 14.9217 14.0007L15.3066 11.9803C15.3769 11.6109 15.6857 11.3554 16.0311 11.355L16.0338 11.355H17.5149C17.9239 11.355 18.2555 11.7032 18.2555 12.1326C18.2555 12.5621 17.9239 12.9102 17.5149 12.9102H16.6399L16.0294 16.1153C15.982 17.3597 15.0063 18.3533 13.8095 18.3533H10.1071V22.2406H13.8119C14.2209 22.2406 14.5525 22.5888 14.5525 23.0182C14.5525 23.4477 14.2209 23.7958 13.8119 23.7958H9.40132C9.3898 23.7964 9.37822 23.7966 9.36657 23.7966C9.35492 23.7966 9.34333 23.7964 9.33182 23.7958H4.92523C4.51623 23.7958 4.18467 23.4477 4.18467 23.0182C4.18467 22.5888 4.51623 22.2406 4.92523 22.2406H8.62601V18.3533H4.92281C3.72155 18.3533 2.74297 17.3523 2.70245 16.1013L2.09462 12.9102H1.22103C0.812027 12.9102 0.480469 12.5621 0.480469 12.1326C0.480469 11.7032 0.812027 11.355 1.22103 11.355H2.70214C2.71568 11.355 2.72917 11.3554 2.74258 11.3562ZM4.18262 15.996C4.19499 15.5779 4.52165 15.243 4.92281 15.243H13.8095C14.2185 15.243 14.5501 15.5911 14.5501 16.0206C14.5501 16.45 14.2185 16.7981 13.8095 16.7981H4.92281C4.52196 16.7981 4.1955 16.4637 4.18265 16.0461C4.18315 16.0295 4.18315 16.0128 4.18262 15.996Z" fill="#842379"/>
</svg>
