<svg width="54" height="52" viewBox="0 0 54 52" fill="none" xmlns="http://www.w3.org/2000/svg">
<path fill-rule="evenodd" clip-rule="evenodd" d="M32.5124 8.12557L33.8788 2.31709C33.8836 2.06059 34.0589 1.69984 34.2845 1.59703C34.3976 1.54556 34.5215 1.53068 34.642 1.5614L37.895 2.38907C38.095 2.4331 38.2494 2.5959 38.2913 2.80669L38.4657 3.68535L42.7211 4.77204C43.2995 4.8679 43.5392 5.40308 43.3932 5.80366L42.0962 10.7029C41.8897 11.2687 41.2708 11.5768 40.777 11.4511L33.2557 9.53798C32.7391 9.40661 32.4184 8.84059 32.5124 8.12557Z" fill="#CDD9E4"/>
<path fill-rule="evenodd" clip-rule="evenodd" d="M32.4194 8.01046L33.6148 3.15178C33.756 2.77975 34.0818 2.56033 34.3804 2.63627L42.91 4.80581C43.271 4.89771 43.4468 5.37807 43.2855 5.83228L42.208 10.3336C41.9233 11.4528 41.2428 11.6357 40.7329 11.506L33.2584 9.60486C32.4903 9.40943 32.1359 8.96338 32.4194 8.01046Z" fill="#E8F1F9"/>
<path fill-rule="evenodd" clip-rule="evenodd" d="M38.0924 5.84702C37.5475 5.84702 37.0418 6.19973 36.8736 6.74703C36.6675 7.41839 37.046 8.13245 37.7176 8.33856C38.3891 8.54503 39.1033 8.1664 39.3096 7.49493C39.4094 7.16969 39.3768 6.82501 39.2174 6.52437C39.058 6.22372 38.7911 6.00322 38.4658 5.90328C38.3417 5.86513 38.2159 5.84702 38.0924 5.84702ZM38.0906 8.51465C37.9555 8.51465 37.818 8.49473 37.6822 8.4531C36.9474 8.22744 36.5331 7.44607 36.7589 6.71149C36.9845 5.97692 37.7659 5.56278 38.5008 5.78832C38.8568 5.89761 39.1488 6.139 39.3231 6.46795C39.4977 6.79691 39.5334 7.17398 39.424 7.52993C39.2402 8.1287 38.6869 8.51465 38.0906 8.51465Z" fill="#CDD9E4"/>
<path fill-rule="evenodd" clip-rule="evenodd" d="M37.7781 7.02466L37.9544 6.45024L38.7731 7.33022L38.1874 7.46459L37.6016 7.59896L37.7781 7.02466Z" fill="#CDD9E4"/>
<path fill-rule="evenodd" clip-rule="evenodd" d="M12.5602 38.4402L6.14553 41.9067C5.70226 42.1463 5.1487 41.9811 4.90906 41.5379L0.109941 32.6614C-0.129697 32.2183 0.035422 31.6647 0.478819 31.4251L4.54691 29.2268L9.45043 30.77L12.929 37.204C13.1685 37.6473 13.0035 38.2007 12.5602 38.4402Z" fill="#E8F1F9"/>
<path fill-rule="evenodd" clip-rule="evenodd" d="M8.63988 35.0438C8.63724 35.0393 8.69244 35.0132 8.77907 34.9394C8.86223 34.8645 8.97899 34.7334 9.03647 34.5254C9.06431 34.4225 9.07499 34.3016 9.05399 34.1736C9.04475 34.1093 9.02399 34.0447 8.99771 33.9798C8.96867 33.9165 8.93147 33.8513 8.89427 33.7835C8.74535 33.5114 8.57628 33.2027 8.38968 32.862C8.29632 32.6909 8.19852 32.512 8.09688 32.3256C8.046 32.2324 7.99404 32.1371 7.94124 32.0402C7.88808 31.9421 7.8372 31.8457 7.76388 31.7625C7.62024 31.5942 7.40545 31.4777 7.17169 31.4495C7.05493 31.4352 6.93373 31.4431 6.81721 31.4748C6.69973 31.5045 6.59317 31.5663 6.47869 31.6286C5.57462 32.1197 4.58151 32.6591 3.53896 33.2255C3.30148 33.3842 3.15172 33.6576 3.14392 33.9356C3.13732 34.0744 3.16492 34.213 3.22216 34.3372C3.28132 34.4606 3.35464 34.5863 3.4192 34.7091C3.68487 35.2023 3.94119 35.6779 4.18551 36.1312C4.24767 36.2419 4.30395 36.3621 4.36887 36.4608C4.43727 36.56 4.52631 36.6425 4.62663 36.703C4.82751 36.8249 5.07194 36.8545 5.28422 36.7955C5.39114 36.7679 5.4857 36.7124 5.58434 36.6599C5.68166 36.6078 5.77718 36.5566 5.8709 36.5063C6.0581 36.4062 6.23785 36.3099 6.40969 36.2181C7.09357 35.8543 7.64856 35.5592 8.03784 35.3521C8.2272 35.2532 8.376 35.1756 8.48244 35.12C8.53044 35.0958 8.56884 35.0765 8.59896 35.0614C8.62536 35.0487 8.63928 35.0426 8.63988 35.0438C8.64048 35.0449 8.628 35.0533 8.60268 35.0684C8.57352 35.0852 8.53632 35.1068 8.48976 35.1338C8.385 35.1923 8.23848 35.2742 8.05212 35.3785C7.6656 35.5906 7.11457 35.8932 6.43549 36.2659C6.26461 36.3591 6.08558 36.4569 5.8991 36.5585C5.80586 36.6094 5.71058 36.6613 5.61362 36.7141C5.5181 36.7657 5.41682 36.8262 5.30114 36.857C5.07302 36.922 4.80939 36.8916 4.59183 36.7609C4.48299 36.6963 4.38627 36.6072 4.31175 36.5002C4.23867 36.3892 4.18731 36.2782 4.12311 36.1648C3.87759 35.7123 3.61996 35.2373 3.35284 34.7449C3.28696 34.62 3.217 34.5016 3.15292 34.3685C3.09064 34.234 3.06052 34.0833 3.06736 33.9327C3.07564 33.6311 3.238 33.3341 3.49612 33.1616C4.54299 32.5851 5.5379 32.0564 6.44497 31.5661C6.55633 31.5061 6.67225 31.4395 6.79921 31.4077C6.92473 31.3742 7.05493 31.3663 7.18009 31.3823C7.43052 31.4137 7.6596 31.5398 7.81224 31.7207C7.89012 31.8102 7.94436 31.9151 7.99548 32.0109C8.04768 32.1082 8.09892 32.2038 8.14908 32.2974C8.24928 32.4847 8.34552 32.6644 8.43756 32.8361C8.62044 33.1788 8.78615 33.4894 8.93219 33.7631C8.96843 33.8312 9.00443 33.8961 9.03443 33.9642C9.06107 34.0327 9.08171 34.1007 9.09023 34.168C9.10991 34.302 9.09647 34.4275 9.06527 34.5337C9.00107 34.7477 8.87699 34.8789 8.78915 34.9513C8.6976 35.0224 8.63988 35.0438 8.63988 35.0438Z" fill="white"/>
<path fill-rule="evenodd" clip-rule="evenodd" d="M9.1335 34.2348C9.1323 34.2374 9.10746 34.2293 9.06102 34.2119C9.00678 34.1903 8.94018 34.1641 8.85954 34.132C8.67522 34.055 8.42646 33.9513 8.12407 33.825C7.96831 33.7589 7.79887 33.6868 7.61779 33.6097C7.52671 33.5707 7.43275 33.5305 7.33603 33.4891C7.28791 33.4688 7.23919 33.4481 7.18975 33.4272C7.14511 33.4105 7.09531 33.4045 7.04755 33.4154C6.95119 33.4339 6.86671 33.5142 6.848 33.6151C6.82868 33.7295 6.809 33.8461 6.78896 33.9649C6.74876 34.2038 6.70724 34.4507 6.66464 34.7037C6.64544 34.8169 6.62636 34.929 6.6086 35.0343L6.6014 35.0765L6.56036 35.0649C6.332 35.0005 6.10988 34.9379 5.89568 34.8774C5.84216 34.8623 5.78924 34.8473 5.7368 34.8324C5.68208 34.8168 5.63804 34.8022 5.59029 34.8065C5.49573 34.8108 5.40801 34.8672 5.36433 34.9461C5.34141 34.9834 5.33241 35.0308 5.31789 35.0797C5.30445 35.1273 5.29113 35.1742 5.27817 35.2203C5.25201 35.3124 5.22669 35.4019 5.20221 35.4885C5.15313 35.6602 5.10729 35.8205 5.06517 35.9678C4.98201 36.2512 4.91385 36.4834 4.86321 36.6563C4.83993 36.7301 4.82085 36.7912 4.80501 36.8415C4.79097 36.8837 4.78245 36.9053 4.78005 36.9045C4.77753 36.9038 4.78137 36.8809 4.79085 36.8376C4.80309 36.7862 4.81785 36.724 4.83573 36.6489C4.88073 36.4742 4.94121 36.2399 5.01501 35.9539C5.05437 35.806 5.09709 35.6448 5.14293 35.4722C5.16633 35.3852 5.19033 35.2954 5.21517 35.203C5.22765 35.1566 5.24025 35.1095 5.25309 35.0619C5.26629 35.0164 5.27517 34.9633 5.30433 34.9124C5.35797 34.8132 5.46681 34.7415 5.58609 34.7349C5.64572 34.729 5.70692 34.7484 5.75648 34.7622C5.80904 34.7767 5.86208 34.7914 5.9156 34.8061C6.13004 34.8658 6.3524 34.9275 6.58112 34.9911L6.533 35.0216C6.55076 34.9163 6.5696 34.8041 6.5888 34.6907C6.63188 34.4379 6.674 34.191 6.71468 33.9524C6.73544 33.8328 6.75596 33.7152 6.776 33.6001C6.80108 33.4703 6.91087 33.368 7.03363 33.3459C7.09471 33.3329 7.15855 33.3407 7.21471 33.3624C7.26487 33.3842 7.31419 33.4057 7.36303 33.4271C7.45915 33.4697 7.55275 33.5111 7.64335 33.5512C7.82311 33.6314 7.99123 33.7062 8.14591 33.7752C8.44422 33.9107 8.68962 34.022 8.87154 34.1045C8.9499 34.1419 9.01458 34.1726 9.06726 34.1978C9.11166 34.2197 9.13446 34.2326 9.1335 34.2348Z" fill="white"/>
<path fill-rule="evenodd" clip-rule="evenodd" d="M5.69564 33.8548C5.69228 33.849 5.729 33.8279 5.78036 33.7756C5.83076 33.7244 5.89472 33.6338 5.91152 33.5064C5.93 33.382 5.88836 33.2192 5.76164 33.1098C5.63972 32.9995 5.43117 32.9609 5.26269 33.0539C5.09253 33.1439 5.01045 33.3395 5.03613 33.502C5.05821 33.6678 5.17161 33.7919 5.28585 33.8445C5.40165 33.9003 5.51241 33.8963 5.58296 33.8824C5.65472 33.868 5.69264 33.8489 5.69564 33.8548C5.69768 33.858 5.66456 33.8867 5.5904 33.9114C5.51768 33.9353 5.39649 33.9497 5.26353 33.8942C5.13237 33.842 4.99593 33.7047 4.96593 33.5124C4.93161 33.3244 5.02545 33.092 5.22609 32.9862C5.42445 32.8764 5.6702 32.925 5.8088 33.0569C5.9534 33.1873 5.99336 33.3766 5.96528 33.5148C5.93912 33.6565 5.86052 33.75 5.80064 33.7978C5.73932 33.8463 5.69708 33.8583 5.69564 33.8548Z" fill="white"/>
<path fill-rule="evenodd" clip-rule="evenodd" d="M12.693 38.3692L6.01574 41.9776C5.64494 42.1779 5.18199 42.0398 4.98159 41.6693L3.625 39.1601L11.6449 34.8263L13.0015 37.3353C13.2019 37.706 13.0638 38.1689 12.693 38.3692Z" fill="#CDD9E4"/>
<path fill-rule="evenodd" clip-rule="evenodd" d="M4.54688 29.2268L5.89746 31.7249C6.1203 32.1372 6.63522 32.2907 7.04742 32.0681L9.4504 30.77L4.54688 29.2268Z" fill="#CEDBE8"/>
<path fill-rule="evenodd" clip-rule="evenodd" d="M6.04883 31.9265C6.04883 31.9265 6.34487 32.5496 7.1425 32.3759C7.1725 32.3694 7.20202 32.3605 7.23118 32.3509C7.57522 32.2375 9.839 31.4888 9.81332 31.4413C9.7856 31.39 9.45044 30.7699 9.45044 30.7699L7.0477 32.0684C7.0477 32.0684 6.43667 32.3722 6.04883 31.9265Z" fill="#C1D2E2"/>
<path fill-rule="evenodd" clip-rule="evenodd" d="M7.71352 38.8571L7.97728 38.7144L8.25076 39.2204C8.16928 39.3979 8.01028 39.5552 7.8322 39.6515C7.44016 39.8632 7.00613 39.7504 6.80285 39.3744C6.59957 38.9984 6.74285 38.5734 7.14016 38.3588C7.3594 38.2404 7.58152 38.217 7.77892 38.2924L7.68604 38.5634C7.54312 38.5163 7.41388 38.5286 7.28728 38.597C7.04501 38.728 6.96689 38.9795 7.09505 39.2165C7.22116 39.4498 7.47652 39.526 7.71532 39.397C7.7938 39.3546 7.85908 39.3008 7.91092 39.2222L7.71352 38.8571Z" fill="#FAF9F6"/>
<path fill-rule="evenodd" clip-rule="evenodd" d="M7.91602 37.9664L8.20473 37.8104L8.87889 39.0575L8.59017 39.2134L7.91602 37.9664Z" fill="#FAF9F6"/>
<path fill-rule="evenodd" clip-rule="evenodd" d="M8.91583 37.7264L9.09403 38.056L9.67146 37.744L9.79674 37.9755L9.21931 38.2877L9.46483 38.7419L9.17623 38.8978L8.50195 37.6509L9.44467 37.1415L9.56982 37.373L8.91583 37.7264Z" fill="#FAF9F6"/>
<path fill-rule="evenodd" clip-rule="evenodd" d="M43.4025 44.6773L38.8696 42.4877C38.5564 42.3365 38.4252 41.9599 38.5766 41.6467L41.6078 35.374C41.7592 35.0609 42.1359 34.9296 42.4491 35.081L45.3238 36.4696L46.4411 39.8376L44.2438 44.3842C44.0924 44.6974 43.7159 44.8286 43.4025 44.6773Z" fill="#E8F1F9"/>
<path fill-rule="evenodd" clip-rule="evenodd" d="M43.7206 41.1113C43.7221 41.108 43.759 41.1282 43.8354 41.1471C43.9108 41.1633 44.0316 41.1756 44.1711 41.1238C44.2401 41.0978 44.3121 41.0548 44.3752 40.9915C44.4075 40.9604 44.4353 40.9226 44.461 40.8816C44.4847 40.8398 44.5063 40.7927 44.5292 40.7444C44.6213 40.5512 44.7259 40.3317 44.8413 40.0895C44.8993 39.9682 44.96 39.8413 45.0232 39.709C45.0549 39.6429 45.0873 39.5753 45.1202 39.5067C45.1537 39.4372 45.1871 39.3698 45.2041 39.2951C45.2403 39.1467 45.2187 38.9794 45.1401 38.8373C45.101 38.7661 45.0476 38.7015 44.9827 38.6489C44.9185 38.5953 44.8408 38.5606 44.7598 38.5218C44.1195 38.2141 43.4162 37.8763 42.6777 37.5217C42.4929 37.4529 42.2793 37.4795 42.1204 37.5875C42.0402 37.6399 41.9736 37.7112 41.9274 37.7934C41.882 37.8766 41.8413 37.9683 41.7985 38.0541C41.6298 38.402 41.4671 38.7377 41.312 39.0575C41.2751 39.1371 41.2305 39.2172 41.2015 39.2933C41.1735 39.3717 41.1632 39.4549 41.1701 39.5355C41.1829 39.6972 41.2651 39.846 41.3839 39.9409C41.4426 39.9896 41.5119 40.0201 41.5811 40.0541C41.6496 40.0876 41.7169 40.1202 41.7828 40.1525C41.9146 40.2168 42.0411 40.2785 42.1621 40.3375C42.6421 40.5732 43.0316 40.7646 43.3048 40.8988C43.4366 40.9649 43.5403 41.0169 43.6143 41.054C43.6473 41.0711 43.6736 41.0847 43.6942 41.0955C43.7121 41.1051 43.7211 41.1105 43.7206 41.1113C43.7203 41.1122 43.7106 41.1083 43.692 41.1004C43.6707 41.0909 43.6436 41.0787 43.6096 41.0636C43.5345 41.0285 43.4294 40.9797 43.2958 40.9176C43.0208 40.7869 42.6286 40.6007 42.1456 40.3713C42.0243 40.3133 41.8974 40.2527 41.765 40.1893C41.6988 40.1578 41.6313 40.1254 41.5626 40.0925C41.495 40.0598 41.4203 40.0276 41.3564 39.9753C41.2277 39.8738 41.1381 39.714 41.1235 39.5393C41.1158 39.4525 41.1265 39.3623 41.1564 39.2773C41.1889 39.1917 41.2304 39.118 41.2677 39.0362C41.4222 38.716 41.5839 38.3798 41.7517 38.0314C41.795 37.9441 41.833 37.8571 41.8818 37.7674C41.9319 37.6782 42.004 37.6004 42.0912 37.5435C42.2634 37.4263 42.4954 37.397 42.6962 37.4719C43.4421 37.8248 44.14 38.1681 44.7812 38.4776C44.8597 38.5158 44.9439 38.5535 45.0129 38.612C45.0825 38.6686 45.1394 38.7383 45.1811 38.8147C45.2647 38.9677 45.2866 39.1468 45.247 39.3053C45.2283 39.3851 45.1917 39.4579 45.1585 39.5252C45.1251 39.5937 45.0925 39.661 45.0602 39.7269C44.9959 39.8586 44.9341 39.9852 44.8751 40.106C44.7571 40.3469 44.6501 40.5651 44.5559 40.7574C44.5324 40.8053 44.5106 40.8516 44.4847 40.8958C44.4571 40.9384 44.4273 40.9775 44.393 41.0095C44.3259 41.0746 44.2502 41.1177 44.1782 41.1431C44.0325 41.1937 43.9087 41.1774 43.8327 41.1575C43.7559 41.1349 43.7206 41.1113 43.7206 41.1113Z" fill="white"/>
<path fill-rule="evenodd" clip-rule="evenodd" d="M44.3731 41.0604C44.3714 41.0608 44.3657 41.0436 44.3569 41.0106C44.3469 40.9716 44.3348 40.9236 44.3201 40.8655C44.2887 40.7313 44.2463 40.5501 44.1947 40.3299C44.1689 40.2159 44.1409 40.0921 44.1109 39.9595C44.0959 39.8928 44.0804 39.8238 44.0644 39.753C44.0565 39.7179 44.0483 39.6823 44.0401 39.6461C44.0314 39.6145 44.0145 39.5841 43.9892 39.5618C43.94 39.5154 43.8609 39.5005 43.7968 39.5307C43.7249 39.5662 43.6516 39.6024 43.5771 39.6392C43.4271 39.7131 43.2721 39.7896 43.1131 39.868C43.042 39.903 42.9715 39.9378 42.9052 39.9703L42.8787 39.9833L42.8686 39.9557C42.8126 39.8019 42.7579 39.6521 42.7051 39.5079C42.6921 39.4718 42.679 39.4361 42.6662 39.4007C42.6529 39.3639 42.6431 39.3331 42.6214 39.3082C42.5809 39.2571 42.5137 39.2308 42.452 39.2381C42.4219 39.2405 42.3916 39.2546 42.3583 39.2662C42.3263 39.278 42.2947 39.2894 42.2636 39.3008C42.2016 39.3233 42.1412 39.3454 42.0828 39.3666C41.9667 39.4085 41.8584 39.4477 41.759 39.4836C41.5668 39.5516 41.4091 39.6073 41.2918 39.6487C41.2412 39.6656 41.1992 39.6795 41.1646 39.691C41.1354 39.7001 41.1198 39.7041 41.1192 39.7025C41.1186 39.7009 41.133 39.6937 41.1612 39.6815C41.1948 39.6676 41.2356 39.6507 41.285 39.6303C41.4009 39.5851 41.5566 39.5241 41.7465 39.45C41.8453 39.4122 41.9528 39.3711 42.068 39.3269C42.1261 39.3047 42.1861 39.282 42.2479 39.2584C42.2788 39.2468 42.3103 39.2348 42.3422 39.2228C42.3729 39.2119 42.4064 39.1953 42.4466 39.191C42.5239 39.181 42.608 39.2129 42.6598 39.2771C42.6873 39.3081 42.7011 39.3501 42.7133 39.3833C42.7265 39.4186 42.7397 39.4542 42.7531 39.4902C42.8063 39.6343 42.8617 39.7838 42.9183 39.9374L42.8819 39.9228C42.9481 39.8902 43.0185 39.8555 43.0897 39.8203C43.2487 39.7424 43.4039 39.6662 43.5539 39.5925C43.6293 39.5558 43.7033 39.5197 43.7761 39.4844C43.8589 39.446 43.9605 39.4662 44.0225 39.5259C44.0545 39.5549 44.0759 39.5937 44.0865 39.6339C44.0944 39.6709 44.1023 39.7072 44.1101 39.743C44.1251 39.8141 44.1398 39.8831 44.1538 39.95C44.1817 40.0831 44.2077 40.2076 44.2316 40.3219C44.2762 40.5436 44.3129 40.726 44.3403 40.8611C44.3511 40.92 44.36 40.9686 44.3673 41.0083C44.3729 41.0421 44.3749 41.06 44.3731 41.0604Z" fill="white"/>
<path fill-rule="evenodd" clip-rule="evenodd" d="M43.1977 38.9823C43.1995 38.9781 43.2263 38.9899 43.2762 38.9977C43.3253 39.005 43.402 39.0043 43.48 38.9622C43.5571 38.9224 43.6314 38.8331 43.6415 38.7182C43.654 38.6053 43.5913 38.473 43.4712 38.4162C43.352 38.3574 43.2094 38.3904 43.1288 38.4705C43.0447 38.5498 43.0211 38.6634 43.0379 38.7487C43.0534 38.836 43.1003 38.8965 43.1368 38.9303C43.1738 38.9646 43.1998 38.9781 43.1977 38.9823C43.1968 38.9845 43.1672 38.9777 43.1234 38.9461C43.0806 38.9151 43.0236 38.8532 43.001 38.7562C42.9773 38.6618 42.999 38.5298 43.0945 38.4354C43.186 38.3402 43.354 38.2989 43.4942 38.3684C43.636 38.4352 43.7081 38.5923 43.6902 38.7231C43.6756 38.8568 43.5857 38.9556 43.497 38.9957C43.407 39.0383 43.323 39.0322 43.272 39.018C43.22 39.0031 43.1963 38.9844 43.1977 38.9823Z" fill="white"/>
<path fill-rule="evenodd" clip-rule="evenodd" d="M43.2829 44.6194L38.9899 42.5457C38.6104 42.3624 38.4515 41.9063 38.6347 41.5269L39.3888 39.9665L45.0561 42.7039L44.302 44.2644C44.1187 44.6437 43.6624 44.8027 43.2829 44.6194Z" fill="#CDD9E4"/>
<path fill-rule="evenodd" clip-rule="evenodd" d="M45.3237 36.4695L44.4706 38.2348C44.3298 38.5261 44.4519 38.8763 44.7431 39.0172L46.441 39.8375L45.3237 36.4695Z" fill="#CEDBE8"/>
<path fill-rule="evenodd" clip-rule="evenodd" d="M44.4199 38.401C44.4199 38.401 44.1907 38.8184 44.6102 39.1947C44.6259 39.2088 44.6429 39.2219 44.6599 39.2342C44.8626 39.3809 46.1965 40.3454 46.2127 40.3119C46.2302 40.2757 46.442 39.8375 46.442 39.8375L44.744 39.0174C44.744 39.0174 44.3271 38.7981 44.4199 38.401Z" fill="#A9B8C5"/>
<path fill-rule="evenodd" clip-rule="evenodd" d="M41.2126 42.1329L41.399 42.2228L41.2262 42.5805C41.0939 42.6065 40.9416 42.5811 40.8156 42.5202C40.5387 42.3865 40.4265 42.0978 40.5549 41.8323C40.6833 41.5666 40.9792 41.4751 41.2599 41.6107C41.4147 41.6855 41.5178 41.8004 41.5552 41.9413L41.3658 41.9988C41.3344 41.8998 41.2754 41.8324 41.186 41.7893C41.0147 41.7066 40.8423 41.7645 40.7614 41.932C40.6817 42.0969 40.7422 42.2706 40.9109 42.352C40.9664 42.3788 41.0229 42.3937 41.0879 42.3909L41.2126 42.1329Z" fill="#FAF9F6"/>
<path fill-rule="evenodd" clip-rule="evenodd" d="M41.7931 41.8873L41.9971 41.9858L41.5711 42.867L41.3672 42.7684L41.7931 41.8873Z" fill="white"/>
<path fill-rule="evenodd" clip-rule="evenodd" d="M42.3301 42.3486L42.2175 42.5816L42.6255 42.7787L42.5465 42.9422L42.1383 42.7453L41.9833 43.0663L41.7793 42.9677L42.2052 42.0865L42.8713 42.4083L42.7923 42.572L42.3301 42.3486Z" fill="white"/>
<path fill-rule="evenodd" clip-rule="evenodd" d="M11.7986 7.08642L13.6465 15.1274L3.58615 17.4382L1.73828 9.39717L11.7986 7.08642Z" fill="white"/>
<path fill-rule="evenodd" clip-rule="evenodd" d="M11.7975 7.08642C11.7975 7.08642 11.7808 7.09122 11.749 7.09914C11.7159 7.10705 11.6692 7.11833 11.6082 7.13309C11.4828 7.1626 11.3001 7.20567 11.0624 7.26158C10.5844 7.37315 9.88769 7.53571 9.00438 7.7417C7.23799 8.15068 4.72749 8.73205 1.74312 9.4232L1.76328 9.39117C2.31407 11.7843 2.94575 14.5276 3.6139 17.4306L3.61414 17.4315L3.57838 17.4089C7.30315 16.5553 10.7648 15.7621 13.6397 15.1032L13.621 15.1329C13.0698 12.7105 12.613 10.7026 12.2934 9.29819C12.1348 8.59553 12.0104 8.04426 11.9252 7.66684C11.8833 7.4792 11.8511 7.33524 11.829 7.23614C11.8076 7.13837 11.7975 7.08642 11.7975 7.08642C11.7975 7.08642 11.8103 7.13405 11.8332 7.22978C11.8563 7.32744 11.89 7.46949 11.9337 7.65448C12.0215 8.03011 12.1498 8.57849 12.3132 9.27756C12.6398 10.6842 13.1064 12.6954 13.6696 15.1218L13.6752 15.1461L13.6509 15.1517C10.7765 15.8133 7.31575 16.61 3.5917 17.4673L3.56254 17.474L3.55582 17.4449L3.55558 17.4439C2.88959 14.5405 2.26007 11.7967 1.71108 9.40317L1.70508 9.37701L1.73112 9.37101C4.72497 8.68898 7.24339 8.11541 9.0153 7.71171C9.89741 7.51219 10.5933 7.35491 11.0705 7.24694C11.3066 7.19415 11.4882 7.15348 11.6127 7.12565C11.6728 7.11257 11.7186 7.1025 11.7513 7.09542C11.7822 7.08882 11.7975 7.08642 11.7975 7.08642Z" fill="#0A1629" fill-opacity="0.22465"/>
<path fill-rule="evenodd" clip-rule="evenodd" d="M3.81636 16.8522L13.1698 14.7039L11.5546 7.67518L2.20117 9.82361L3.81636 16.8522Z" fill="#E8F1F9"/>
<path fill-rule="evenodd" clip-rule="evenodd" d="M3.81641 16.8522L6.07935 11.7329L8.73121 14.0016L9.768 12.2249L13.1699 14.7039L3.81641 16.8522Z" fill="#CDD9E4"/>
<path fill-rule="evenodd" clip-rule="evenodd" d="M8.83794 10.5355C8.93142 10.9422 8.6775 11.3476 8.2707 11.4411C7.86391 11.5345 7.45843 11.2805 7.36507 10.874C7.27159 10.4673 7.52551 10.0619 7.93231 9.96843C8.3391 9.8751 8.74446 10.129 8.83794 10.5355Z" fill="#D4D5CF"/>
<mask id="mask0_359_5305" style="mask-type:alpha" maskUnits="userSpaceOnUse" x="6" y="0" width="18" height="14">
<path fill-rule="evenodd" clip-rule="evenodd" d="M6.83594 0H23.0196V13.1514H6.83594V0Z" fill="white"/>
</mask>
<g mask="url(#mask0_359_5305)">
<path fill-rule="evenodd" clip-rule="evenodd" d="M22.4631 -7.62939e-06L22.9812 12.4561L7.39706 13.1042L6.87891 0.648072L22.4631 -7.62939e-06Z" fill="white"/>
<path fill-rule="evenodd" clip-rule="evenodd" d="M22.4622 -1.21618e-05C22.4622 -1.21618e-05 22.4359 0.00262718 22.3867 0.00550647C22.3351 0.00814582 22.2628 0.0119849 22.1681 0.0169036C21.9737 0.0261414 21.6901 0.039578 21.3216 0.0569737C20.5808 0.0902055 19.5008 0.138793 18.1316 0.200338C15.3945 0.319109 11.5043 0.487907 6.87974 0.688497L6.9185 0.646388C7.07414 4.35383 7.25257 8.60366 7.44133 13.101L7.44145 13.1023L7.39441 13.059C13.164 12.8219 18.5258 12.6015 22.9788 12.4186L22.9428 12.4577C22.7949 8.70671 22.6722 5.59744 22.5864 3.42286C22.5454 2.33521 22.5131 1.48186 22.491 0.897486C22.4808 0.607397 22.473 0.384493 22.4676 0.231291C22.4627 0.080008 22.4622 -1.21618e-05 22.4622 -1.21618e-05C22.4622 -1.21618e-05 22.468 0.0743694 22.4755 0.222773C22.4829 0.374415 22.4934 0.5948 22.5073 0.881769C22.5337 1.46387 22.5724 2.31409 22.6217 3.39767C22.7171 5.57753 22.8534 8.69435 23.0179 12.4546L23.0196 12.4921L22.9819 12.4937C18.529 12.6811 13.1674 12.9066 7.39813 13.1493L7.35301 13.1513L7.35097 13.106V13.1047C7.16557 8.60738 6.99038 4.35719 6.83762 0.649867L6.83594 0.609317L6.87638 0.607637C11.5124 0.423123 15.4123 0.268001 18.156 0.158828C19.5218 0.106641 20.599 0.0654916 21.3379 0.0372986C21.7031 0.0242218 21.9841 0.0141443 22.1769 0.00718606C22.2696 0.00442674 22.3407 0.00226727 22.3912 0.00058769C22.4389 -0.000612013 22.4622 -1.21618e-05 22.4622 -1.21618e-05Z" fill="#0A1629" fill-opacity="0.248361"/>
</g>
<path fill-rule="evenodd" clip-rule="evenodd" d="M7.9021 12.2979L22.3914 11.6954L21.9385 0.807613L7.44922 1.4101L7.9021 12.2979Z" fill="#E8F1F9"/>
<path fill-rule="evenodd" clip-rule="evenodd" d="M7.90234 12.2979L12.6815 5.31968L15.9926 9.4235L18.0246 7.07148L22.3916 11.6954L7.90234 12.2979Z" fill="#CDD9E4"/>
<path fill-rule="evenodd" clip-rule="evenodd" d="M17.1127 4.30495C17.139 4.93491 16.6494 5.46674 16.0194 5.49301C15.3893 5.51917 14.8572 5.02969 14.8311 4.39984C14.8049 3.76988 15.2944 3.23805 15.9245 3.21178C16.5545 3.18562 17.0866 3.67498 17.1127 4.30495Z" fill="#CDD9E4"/>
<path fill-rule="evenodd" clip-rule="evenodd" d="M18.761 20.6748L16.3151 13.763C16.1499 13.4946 16.0916 13.0052 16.2565 12.7491C16.339 12.6208 16.4573 12.5232 16.6023 12.4748L20.515 11.1708C20.7509 11.0835 21.0187 11.1493 21.202 11.3394L21.9659 12.132L27.087 10.4302C27.7484 10.1451 28.3519 10.5391 28.4669 11.0503L30.3806 16.976C30.543 17.6981 30.1077 18.4274 29.5137 18.6255L20.4676 21.6414C19.8462 21.8486 19.1388 21.4765 18.761 20.6748Z" fill="#E46C62"/>
<path fill-rule="evenodd" clip-rule="evenodd" d="M20.1201 21.6979C19.5982 21.6979 19.0696 21.3297 18.761 20.6748L16.3152 13.7629C16.2183 13.6057 16.1582 13.3726 16.1582 13.1549C16.1582 13.0011 16.1882 12.8551 16.2565 12.7491C16.339 12.6208 16.4574 12.5232 16.6023 12.4748L20.515 11.1707C20.5841 11.1452 20.656 11.1328 20.7278 11.1328C20.9007 11.1328 21.0724 11.205 21.202 11.3394L21.9659 12.1319L27.087 10.4302C27.2405 10.3639 27.391 10.3344 27.5329 10.3344C28.0023 10.3344 28.3785 10.6577 28.4669 11.0503L30.3806 16.976C30.4039 17.0796 30.4149 17.1835 30.4148 17.2859C30.4147 17.8965 30.0224 18.4558 29.5137 18.6254L20.4676 21.6414C20.3538 21.6793 20.2371 21.6979 20.1201 21.6979Z" fill="#DCAB38"/>
<path fill-rule="evenodd" clip-rule="evenodd" d="M18.626 20.6062L16.6344 14.7898C16.5332 14.3115 16.7242 13.8683 17.0833 13.7486L27.3421 10.3283C27.7764 10.1835 28.2772 10.5635 28.4122 11.1402L30.2885 16.5088C30.7374 17.855 30.1553 18.4958 29.5422 18.7002L20.5522 21.6974C19.6285 22.0054 18.966 21.7796 18.626 20.6062Z" fill="#FDC748"/>
<path fill-rule="evenodd" clip-rule="evenodd" d="M26.0668 17.2504C26.0653 17.2464 26.1151 17.2326 26.198 17.1838C26.2781 17.1336 26.3945 17.0414 26.4728 16.8767C26.511 16.7951 26.5376 16.696 26.5388 16.5863C26.5404 16.5315 26.5326 16.4746 26.5202 16.4167C26.5053 16.3598 26.4838 16.3001 26.4628 16.2382C26.3784 15.99 26.2828 15.7081 26.1772 15.3971C26.1244 15.2412 26.0692 15.0778 26.0117 14.9078C25.9831 14.8228 25.9538 14.7359 25.9239 14.6475C25.894 14.558 25.8657 14.4703 25.8169 14.3903C25.7218 14.2292 25.5601 14.1008 25.3695 14.0431C25.2743 14.0143 25.1723 14.0031 25.0706 14.0125C24.9685 14.02 24.8705 14.056 24.7663 14.0911C23.9417 14.368 23.036 14.6722 22.0852 14.9916C21.8643 15.089 21.6997 15.2947 21.6524 15.5251C21.6267 15.6396 21.6294 15.7591 21.659 15.8708C21.6902 15.9824 21.7328 16.0977 21.7687 16.2094C21.9178 16.6588 22.0617 17.0922 22.1989 17.5053C22.2345 17.6066 22.2638 17.7149 22.3035 17.8065C22.3459 17.8992 22.408 17.9809 22.4828 18.0459C22.6322 18.1767 22.8314 18.2371 23.0168 18.2189C23.1098 18.2116 23.1967 18.1792 23.2864 18.1499C23.3751 18.1206 23.4621 18.092 23.5476 18.0639C23.7181 18.0077 23.8819 17.9539 24.0382 17.9024C24.6608 17.6994 25.1661 17.5347 25.5205 17.4192C25.6925 17.3646 25.8278 17.3216 25.9246 17.2909C25.9681 17.2778 26.0029 17.2673 26.0302 17.2591C26.0541 17.2523 26.0665 17.2493 26.0668 17.2504C26.0672 17.2514 26.0554 17.2565 26.0323 17.2655C26.0055 17.2752 25.9714 17.2877 25.9287 17.3034C25.8329 17.3369 25.6989 17.3837 25.5285 17.4433C25.1757 17.5635 24.6727 17.7349 24.0529 17.9461C23.8967 17.9989 23.7334 18.054 23.5634 18.1115C23.4782 18.1402 23.3914 18.1695 23.303 18.1993C23.2159 18.2284 23.1228 18.2639 23.022 18.2726C22.8225 18.2934 22.6074 18.2297 22.4452 18.089C22.3641 18.0193 22.2966 17.9311 22.2502 17.831C22.2055 17.728 22.179 17.6279 22.1421 17.5243C22.0038 17.1116 21.8586 16.6785 21.7082 16.2295C21.6716 16.1159 21.6306 16.007 21.5967 15.8868C21.5646 15.7657 21.5614 15.6358 21.5892 15.5115C21.6402 15.2616 21.8187 15.0379 22.0588 14.9319C23.0148 14.6049 23.9204 14.31 24.7473 14.0342C24.8488 14.0005 24.955 13.9619 25.0654 13.9541C25.1749 13.9445 25.2844 13.9569 25.3862 13.9885C25.5903 14.0512 25.7625 14.1897 25.8631 14.3626C25.915 14.4485 25.9449 14.5436 25.9733 14.6311C26.0026 14.7196 26.0313 14.8067 26.0594 14.892C26.1155 15.0625 26.1694 15.2262 26.2208 15.3825C26.323 15.6947 26.4156 15.9775 26.4974 16.2267C26.5175 16.2888 26.5379 16.3481 26.553 16.409C26.5653 16.47 26.5725 16.5297 26.5698 16.5869C26.5666 16.7014 26.537 16.804 26.4956 16.8877C26.4108 17.0566 26.2883 17.1478 26.2046 17.1952C26.1179 17.2411 26.0668 17.2504 26.0668 17.2504Z" fill="#FAF9F6"/>
<path fill-rule="evenodd" clip-rule="evenodd" d="M26.5953 16.6487C26.5941 16.6506 26.5746 16.6403 26.5385 16.619C26.4965 16.5932 26.445 16.5615 26.3825 16.5231C26.2401 16.432 26.0483 16.3093 25.8149 16.1602C25.6949 16.0822 25.5643 15.9975 25.4247 15.9068C25.3547 15.8611 25.2822 15.8138 25.2078 15.7653C25.1707 15.7413 25.133 15.7169 25.0951 15.6923C25.0602 15.672 25.0197 15.6598 24.9782 15.6618C24.8954 15.663 24.8133 15.7176 24.7829 15.7988C24.7502 15.8913 24.7167 15.9856 24.6828 16.0816C24.6144 16.2745 24.5437 16.474 24.4713 16.6786C24.4387 16.77 24.4065 16.8606 24.3762 16.9458L24.3641 16.9797L24.3317 16.9641C24.151 16.8771 23.9752 16.7926 23.8056 16.711C23.7632 16.6905 23.7214 16.6703 23.68 16.6503C23.6366 16.6293 23.6021 16.6107 23.5616 16.6073C23.4823 16.597 23.401 16.6312 23.3531 16.6906C23.3286 16.7183 23.3142 16.7564 23.2949 16.795C23.2768 16.8326 23.2589 16.8697 23.2414 16.9062C23.2061 16.9791 23.172 17.0499 23.1389 17.1185C23.0729 17.2543 23.0113 17.381 22.9548 17.4976C22.8442 17.7214 22.7534 17.9048 22.686 18.0413C22.6559 18.0994 22.631 18.1475 22.6104 18.1871C22.5926 18.22 22.5824 18.2368 22.5804 18.2359C22.5785 18.235 22.5851 18.2164 22.5992 18.1817C22.6169 18.1408 22.6384 18.0911 22.6643 18.031C22.7273 17.8923 22.8118 17.706 22.9151 17.4787C22.9694 17.3612 23.0285 17.2333 23.092 17.0962C23.124 17.0272 23.1572 16.956 23.1913 16.8827C23.2085 16.8458 23.2259 16.8085 23.2435 16.7707C23.2613 16.7347 23.2764 16.6918 23.3081 16.6538C23.3674 16.5789 23.4683 16.5351 23.5686 16.5471C23.6192 16.5508 23.6674 16.5759 23.7066 16.5946C23.7481 16.6144 23.7902 16.6343 23.8326 16.6545C24.0025 16.7355 24.1786 16.8193 24.3596 16.9057L24.3152 16.924C24.3454 16.8389 24.3775 16.7483 24.41 16.6568C24.4827 16.4524 24.5539 16.2531 24.6227 16.0603C24.6575 15.9638 24.6917 15.8689 24.7251 15.7759C24.7651 15.6714 24.8714 15.6023 24.9768 15.6019C25.0297 15.5999 25.0817 15.6159 25.1252 15.642C25.1637 15.6676 25.2018 15.6928 25.2393 15.7175C25.3131 15.7671 25.385 15.8153 25.4545 15.8618C25.5926 15.9548 25.7216 16.0418 25.8403 16.1218C26.0689 16.2781 26.2569 16.4066 26.3964 16.502C26.4561 16.5445 26.5055 16.5795 26.5458 16.6082C26.5795 16.633 26.5967 16.6469 26.5953 16.6487Z" fill="#FAF9F6"/>
<path fill-rule="evenodd" clip-rule="evenodd" d="M23.7882 15.8302C23.7863 15.8248 23.82 15.8126 23.8704 15.7766C23.9198 15.7412 23.9863 15.6752 24.0188 15.5716C24.0524 15.4707 24.0415 15.329 23.952 15.2195C23.8667 15.1098 23.6985 15.0473 23.5447 15.1001C23.3899 15.1501 23.2929 15.3011 23.2905 15.4401C23.2848 15.5814 23.361 15.7013 23.4485 15.7617C23.5367 15.8251 23.6295 15.838 23.6904 15.8366C23.7523 15.8352 23.7865 15.8247 23.7882 15.8302C23.7894 15.8331 23.7577 15.8522 23.6923 15.8619C23.6282 15.8713 23.5251 15.8656 23.4227 15.7998C23.3211 15.7371 23.2274 15.603 23.2305 15.4385C23.2295 15.2768 23.3417 15.0972 23.5242 15.0383C23.7054 14.9761 23.9029 15.0524 23.999 15.1823C24.1003 15.312 24.1059 15.4755 24.0624 15.5865C24.0199 15.7007 23.9407 15.767 23.8839 15.798C23.8259 15.8295 23.7889 15.8332 23.7882 15.8302Z" fill="#FAF9F6"/>
<path fill-rule="evenodd" clip-rule="evenodd" d="M9.6396 45.6146L5.15248 26.6486C4.96468 25.8549 5.21812 24.9993 5.83863 24.5058C6.14943 24.2585 6.52359 24.1156 6.92283 24.1156L19.345 23.723C20.0024 23.7022 20.612 24.0827 20.9091 24.6993L22.1477 27.2695L37.9239 27.2847C39.0825 27.2847 40.299 28.8923 40.1614 30.2411L41.5073 46.0445C41.3128 47.9495 39.6302 49.3835 37.9942 49.3835H13.0716C11.3598 49.3835 9.91344 47.8912 9.6396 45.6146Z" fill="#E46C62"/>
<path fill-rule="evenodd" clip-rule="evenodd" d="M41.3738 46.7166C41.4224 46.4924 41.4656 46.2497 41.503 45.987L41.5079 46.0446C41.4843 46.2761 41.4386 46.5008 41.3738 46.7166ZM9.8266 46.542C9.74212 46.2503 9.67888 45.9404 9.63964 45.6146L5.15252 26.6486C5.11172 26.4766 5.0918 26.3015 5.0918 26.1279C5.0918 25.501 5.35267 24.8924 5.83867 24.5058C6.14947 24.2586 6.52363 24.1157 6.92286 24.1157L19.345 23.723C19.3621 23.7225 19.3792 23.7222 19.3963 23.7222C20.034 23.7222 20.6197 24.0988 20.9091 24.6993L21.0385 24.9679L8.66693 25.1551L8.81105 27.706C8.00405 27.8258 7.1649 27.9504 6.29683 28.0793L6.26059 28.0845L6.26635 28.1188C6.79338 31.2577 7.39746 34.856 8.03681 38.6636L8.03693 38.6648L8.04341 38.7032L8.08397 38.6971C8.53229 38.6296 8.97809 38.5624 9.42064 38.4957L9.85396 46.1654C9.84112 46.296 9.832 46.4215 9.8266 46.542Z" fill="#DCAB38"/>
<path fill-rule="evenodd" clip-rule="evenodd" d="M9.85512 46.167L8.66797 25.1551L38.0913 24.71L39.1228 45.768L9.85512 46.167Z" fill="#CDD9E4"/>
<path fill-rule="evenodd" clip-rule="evenodd" d="M9.72172 26.0165C9.72172 26.134 9.63364 26.2291 9.52492 26.2291C9.41632 26.2291 9.32812 26.134 9.32812 26.0165C9.32812 25.8992 9.41632 25.804 9.52492 25.804C9.63364 25.804 9.72172 25.8992 9.72172 26.0165Z" fill="#9FB3C4"/>
<path fill-rule="evenodd" clip-rule="evenodd" d="M10.4833 26.0165C10.4833 26.134 10.3952 26.2291 10.2866 26.2291C10.1779 26.2291 10.0898 26.134 10.0898 26.0165C10.0898 25.8992 10.1779 25.804 10.2866 25.804C10.3952 25.804 10.4833 25.8992 10.4833 26.0165Z" fill="#9FB3C4"/>
<path fill-rule="evenodd" clip-rule="evenodd" d="M11.247 26.0165C11.247 26.134 11.1589 26.2291 11.0502 26.2291C10.9416 26.2291 10.8535 26.134 10.8535 26.0165C10.8535 25.8992 10.9416 25.804 11.0502 25.804C11.1589 25.804 11.247 25.8992 11.247 26.0165Z" fill="#9FB3C4"/>
<path fill-rule="evenodd" clip-rule="evenodd" d="M20.2671 26.0165L22.0421 36.5619L8.07764 38.6588L6.30273 28.1136L20.2671 26.0165Z" fill="white"/>
<path fill-rule="evenodd" clip-rule="evenodd" d="M20.2681 26.0165C20.2681 26.0165 20.2448 26.0213 20.2007 26.0287C20.1546 26.0362 20.0898 26.0464 20.0051 26.0602C19.8311 26.0872 19.5772 26.1266 19.2472 26.178C18.5836 26.28 17.6161 26.4284 16.3898 26.6164C13.9377 26.989 10.4526 27.5184 6.30948 28.1478L6.33996 28.1081C6.86951 31.2466 7.47659 34.8445 8.11894 38.6518L8.11906 38.6529L8.07214 38.6207C13.2424 37.8468 18.0471 37.1276 22.0376 36.5301L22.0093 36.567C21.4822 33.3905 21.0451 30.7575 20.7395 28.9161C20.5883 27.9949 20.4696 27.2721 20.3884 26.7772C20.3488 26.5314 20.3183 26.3426 20.2973 26.2127C20.277 26.0846 20.2681 26.0165 20.2681 26.0165C20.2681 26.0165 20.2812 26.0792 20.3035 26.2049C20.3261 26.333 20.3587 26.5194 20.4013 26.7621C20.4863 27.2548 20.6104 27.9743 20.7686 28.8912C21.0834 30.7363 21.5336 33.3744 22.0766 36.5569L22.082 36.5888L22.0483 36.5937C18.0585 37.1947 13.2544 37.9184 8.0851 38.6972L8.04454 38.7034L8.03806 38.665L8.03794 38.6638C7.39859 34.8562 6.79451 31.2579 6.26748 28.119L6.26172 28.0847L6.29796 28.0794C10.453 27.4625 13.9483 26.9438 16.4075 26.5788C17.6316 26.399 18.5974 26.257 19.2598 26.1597C19.5873 26.1124 19.8391 26.076 20.0119 26.0511C20.0952 26.0393 20.1589 26.0304 20.2042 26.0241C20.2471 26.0183 20.2681 26.0165 20.2681 26.0165Z" fill="#0A1629" fill-opacity="0.321432"/>
<path fill-rule="evenodd" clip-rule="evenodd" d="M8.44795 37.9227L21.4311 35.973L19.8798 26.7554L6.89648 28.705L8.44795 37.9227Z" fill="#87AADF"/>
<path fill-rule="evenodd" clip-rule="evenodd" d="M8.44727 37.9227L10.4535 34.3203L10.5176 37.6118L8.44727 37.9227Z" fill="#C1D7F9"/>
<path fill-rule="evenodd" clip-rule="evenodd" d="M10.7041 47.1635L10.3066 26.719L40.4004 26.6553L40.2763 46.8594L10.7041 47.1635Z" fill="#E8F1F9"/>
<path fill-rule="evenodd" clip-rule="evenodd" d="M12.0518 27.5197C12.0518 27.637 11.9637 27.7322 11.855 27.7322C11.7464 27.7322 11.6582 27.637 11.6582 27.5197C11.6582 27.4024 11.7464 27.3071 11.855 27.3071C11.9637 27.3071 12.0518 27.4024 12.0518 27.5197Z" fill="#CADEF0"/>
<path fill-rule="evenodd" clip-rule="evenodd" d="M12.7569 27.5197C12.7569 27.637 12.6688 27.7322 12.5601 27.7322C12.4515 27.7322 12.3633 27.637 12.3633 27.5197C12.3633 27.4024 12.4515 27.3071 12.5601 27.3071C12.6688 27.3071 12.7569 27.4024 12.7569 27.5197Z" fill="#CADEF0"/>
<path fill-rule="evenodd" clip-rule="evenodd" d="M11.3017 27.5197C11.3017 27.637 11.2136 27.7322 11.1049 27.7322C10.9963 27.7322 10.9082 27.637 10.9082 27.5197C10.9082 27.4024 10.9963 27.3071 11.1049 27.3071C11.2136 27.3071 11.3017 27.4024 11.3017 27.5197Z" fill="#CADEF0"/>
<path fill-rule="evenodd" clip-rule="evenodd" d="M11.4043 47.6623V28.2235L41.3741 28.1607L39.7649 48.0802L11.4043 47.6623Z" fill="#FAF9F6"/>
<path fill-rule="evenodd" clip-rule="evenodd" d="M9.94576 45.5102L11.7383 30.9035C11.8785 29.7611 12.6919 28.9152 13.6501 28.9152H41.0236C42.1821 28.9152 43.0801 30.135 42.9425 31.521L41.5089 45.9521C41.0894 48.9537 39.9364 49.3835 38.3002 49.3835H12.7194C11.0075 49.3835 9.35093 48.9537 9.94576 45.5102Z" fill="#FDC748"/>
<path fill-rule="evenodd" clip-rule="evenodd" d="M29.7884 43.371C29.7209 43.371 29.6513 43.355 29.5841 43.3197L28.0084 42.4915C27.9445 42.4578 27.8743 42.441 27.8042 42.441C27.734 42.441 27.6639 42.4578 27.5999 42.4915L26.0242 43.3197C25.957 43.355 25.8874 43.371 25.82 43.371C25.5642 43.371 25.3387 43.1407 25.3874 42.8571L25.6882 41.1029C25.7127 40.9606 25.6656 40.8153 25.562 40.7145L24.2872 39.4722C24.0268 39.2183 24.1706 38.7761 24.5306 38.7236L26.2922 38.4678C26.4352 38.4471 26.5588 38.3572 26.6227 38.2278L27.4106 36.6318C27.4911 36.4688 27.6476 36.3872 27.8042 36.3872C27.9607 36.3872 28.1173 36.4688 28.1978 36.6318L28.9856 38.2278C29.0495 38.3572 29.1731 38.4471 29.316 38.4678L31.0778 38.7236C31.4377 38.7761 31.5815 39.2183 31.321 39.4722L30.0462 40.7145C29.9429 40.8153 29.8956 40.9606 29.92 41.1029L30.221 42.8571C30.2697 43.1407 30.0441 43.371 29.7884 43.371Z" fill="white" fill-opacity="0.753988"/>
<path fill-rule="evenodd" clip-rule="evenodd" d="M46.9609 45.1496C46.9757 45.2641 47.2578 48.4627 47.2578 48.4627H48.7236L48.9805 45.1629L46.9609 45.1496Z" fill="#ED975D"/>
<path fill-rule="evenodd" clip-rule="evenodd" d="M47.093 48.2427L47.0893 48.3578C47.0893 48.3578 45.1153 49.0852 45.084 49.4547L48.9591 49.5463L48.9369 48.2558C48.3546 48.5091 47.7507 48.5249 47.093 48.2427Z" fill="#3F8CFF"/>
<path fill-rule="evenodd" clip-rule="evenodd" d="M48.3976 48.9112C48.3545 48.8699 48.329 48.8046 48.3484 48.7532C48.3695 48.697 48.4372 48.6515 48.498 48.6515C48.5021 48.6515 48.5061 48.6517 48.5102 48.6521C48.5124 48.6785 48.5147 48.7039 48.5169 48.7283C48.5075 48.7177 48.4983 48.7068 48.4893 48.6954L48.3976 48.9112Z" fill="#B3D0FD"/>
<path fill-rule="evenodd" clip-rule="evenodd" d="M45.0819 49.4702C45.0782 49.4515 45.0804 49.434 45.0869 49.4175C45.093 49.4175 45.0971 49.4175 45.1034 49.4175C45.0912 49.4357 45.0839 49.4532 45.0819 49.4702ZM45.147 49.3675C45.1383 49.3675 45.1305 49.3675 45.1218 49.3675C45.1587 49.3309 45.2135 49.3029 45.2571 49.2845C45.2125 49.3131 45.1754 49.3408 45.147 49.3675Z" fill="#FFFFFE"/>
<path fill-rule="evenodd" clip-rule="evenodd" d="M45.0855 49.4063C45.0901 49.3898 45.098 49.3745 45.108 49.3606C45.1136 49.3606 45.1187 49.3606 45.1243 49.3606C45.1127 49.3762 45.1032 49.3914 45.0962 49.4063C45.0921 49.4063 45.0895 49.4063 45.0855 49.4063Z" fill="#97A19F"/>
<path fill-rule="evenodd" clip-rule="evenodd" d="M48.2184 49.5288L45.084 49.4546C45.0853 49.439 45.09 49.423 45.0979 49.4063C45.1049 49.3914 45.1143 49.3762 45.126 49.3606C45.1443 49.3361 45.1683 49.3107 45.1971 49.2845C45.2222 49.2695 45.2415 49.2616 45.2415 49.2616L48.2956 49.2405L48.2184 49.5288Z" fill="#B3D0FD"/>
<path fill-rule="evenodd" clip-rule="evenodd" d="M48.25 45.7606C48.2648 45.875 48.5469 49.0736 48.5469 49.0736H50.0127L50.2695 45.7739L48.25 45.7606Z" fill="#FFB27D"/>
<path fill-rule="evenodd" clip-rule="evenodd" d="M50.0151 48.5974C50.0151 48.5974 48.986 49.3277 48.4877 48.6956L48.3575 49.0017L47.7722 51.1844C47.7344 51.3256 47.8008 51.4813 47.937 51.5347C48.0419 51.5757 48.1573 51.5526 48.2364 51.4774C48.6597 51.0748 50.2098 49.586 50.1946 49.3841L50.1886 48.8482C50.1873 48.737 50.1187 48.6378 50.0151 48.5974Z" fill="#3F8CFF"/>
<path fill-rule="evenodd" clip-rule="evenodd" d="M48.05 51.5563C48.0294 51.5563 48.0088 51.554 47.9883 51.5494C48.0068 51.553 48.0252 51.5548 48.0435 51.5548C48.115 51.5548 48.1844 51.5277 48.2373 51.4775C48.5871 51.1447 49.7063 50.0703 50.0759 49.5933C49.8852 49.8435 49.3863 50.3831 48.2457 51.4776C48.1925 51.5284 48.1221 51.5563 48.05 51.5563ZM50.1086 49.5505C50.1441 49.5019 50.1699 49.4613 50.184 49.4302C50.168 49.4752 50.1398 49.5098 50.1086 49.5505ZM50.1965 49.369C50.1962 49.369 50.196 49.369 50.1957 49.369L50.1938 49.2006L50.1965 49.1976L50.196 49.3147C50.1977 49.3345 50.1978 49.3525 50.1965 49.369Z" fill="#FFFFFE"/>
<path fill-rule="evenodd" clip-rule="evenodd" d="M48.0435 51.5546C48.0252 51.5546 48.0068 51.5528 47.9883 51.5492L50.1935 49.2004L50.1954 49.3689V49.3776C50.1933 49.3968 50.1892 49.4141 50.1835 49.43C50.1695 49.4611 50.1437 49.5018 50.1082 49.5504C50.1025 49.5576 50.0969 49.5651 50.0911 49.5728C50.0863 49.5793 50.0812 49.5861 50.0759 49.5931C49.7063 50.0701 48.5871 51.1444 48.2373 51.4772C48.1844 51.5275 48.115 51.5546 48.0435 51.5546Z" fill="#B3D0FD"/>
<path fill-rule="evenodd" clip-rule="evenodd" d="M49.9645 49.1453C49.9101 49.1453 49.8548 49.1188 49.8256 49.0722C49.7839 49.0057 49.8014 48.9098 49.8606 48.8587C49.884 48.8335 49.9189 48.8222 49.9556 48.8222C50.0085 48.8222 50.0653 48.8459 50.0962 48.8847C50.1487 48.9506 50.1171 49.0754 50.0468 49.1216C50.0223 49.1377 49.9935 49.1453 49.9645 49.1453Z" fill="#B3D0FD"/>
<path fill-rule="evenodd" clip-rule="evenodd" d="M44.8797 29.4214L44.8599 30.8145C44.8566 31.0428 44.8693 31.271 44.898 31.4975L45.7617 38.3102L47.0191 47.77L48.2291 47.7023L48.243 48.0744L50.2688 47.9579C50.2688 47.9579 51.5253 42.1439 51.4251 40.851C51.2198 38.2003 51.654 36.8701 51.9829 35.513C52.3381 34.0483 53.6422 30.5733 52.0826 27.9589L44.8797 29.4214Z" fill="#081B37"/>
<path fill-rule="evenodd" clip-rule="evenodd" d="M47.4815 30.9746C47.4806 30.9746 47.4803 30.9868 47.4806 31.0107C47.4812 31.0372 47.482 31.0722 47.4831 31.1169C47.4864 31.2132 47.4912 31.3501 47.4975 31.525C47.5125 31.8825 47.5338 32.3948 47.5602 33.0263C47.6184 34.2964 47.6986 36.0463 47.7872 37.979C47.8817 39.9125 47.9673 41.6625 48.0293 42.9324C48.0628 43.5638 48.0898 44.0758 48.1088 44.4331C48.1191 44.6079 48.1272 44.7448 48.133 44.8411C48.1361 44.8856 48.1388 44.9206 48.1406 44.9469C48.1426 44.9709 48.1442 44.983 48.145 44.983C48.1458 44.983 48.1462 44.9708 48.146 44.9467C48.1454 44.9203 48.1445 44.8851 48.1436 44.8406C48.1401 44.7442 48.1352 44.6072 48.1292 44.4322C48.1142 44.0749 48.0927 43.5626 48.0663 42.9309C48.0081 41.6609 47.9279 39.911 47.8392 37.9778C47.7448 36.0452 47.6592 34.2957 47.5972 33.0258C47.5638 32.3944 47.5367 31.8823 47.5178 31.525C47.5074 31.3501 47.4992 31.2131 47.4936 31.1167C47.4903 31.0722 47.4879 31.0371 47.486 31.0106C47.4839 30.9867 47.4825 30.9746 47.4815 30.9746Z" fill="#F5FCFE" fill-opacity="0.272372"/>
<path fill-rule="evenodd" clip-rule="evenodd" d="M48.1412 44.8856C48.1375 44.8858 48.1348 44.9304 48.1333 45.0113C48.1328 45.1029 48.1321 45.2174 48.1315 45.353C48.1322 45.6418 48.1367 46.0407 48.1485 46.4811C48.1605 46.9217 48.1792 47.3204 48.1983 47.6086C48.2078 47.7527 48.217 47.8692 48.2249 47.9497C48.2327 48.0301 48.2387 48.0745 48.2425 48.0742C48.2462 48.074 48.2471 48.0292 48.2457 47.9485C48.2431 47.8567 48.2399 47.7424 48.2361 47.6067C48.2271 47.3066 48.2151 46.914 48.202 46.4797C48.1894 46.0454 48.1779 45.6525 48.1693 45.3523C48.1631 45.2168 48.1581 45.1024 48.154 45.0108C48.1492 44.9302 48.1449 44.8855 48.1412 44.8856Z" fill="#334F55"/>
<path fill-rule="evenodd" clip-rule="evenodd" d="M41.0959 18.0942C41.0959 18.0942 44.4861 17.7912 44.7949 17.7274C45.1036 17.6636 46.0516 17.7032 46.0516 17.7032L44.9434 20.8009L40.3605 20.2714C39.5682 20.0116 38.9256 18.5324 38.9256 18.5324L37.4219 15.676L39.0187 15.5353L41.0959 18.0942Z" fill="#FFB27D"/>
<path fill-rule="evenodd" clip-rule="evenodd" d="M49.6104 17.8346C49.6697 17.8544 51.4302 18.4903 51.9422 18.8269C52.3034 19.0643 52.3376 19.6698 52.1621 20.0645L51.285 22.0345L50.7956 24.4709L52.3814 28.2827L52.5408 28.911L44.8796 29.4525L44.543 28.6587L44.9426 25.0553V20.5258L46.0508 17.7032L47.9487 17.7275L49.6104 17.8346Z" fill="#3F8CFF"/>
<path fill-rule="evenodd" clip-rule="evenodd" d="M51.6058 26.4186L51.4199 25.9717C51.5414 26.1005 51.6203 26.2559 51.6058 26.4186Z" fill="#A2A5A2"/>
<path fill-rule="evenodd" clip-rule="evenodd" d="M47.1237 28.0535C47.0754 28.0535 47.027 28.0506 46.9789 28.0446C46.6235 28 46.2929 27.7902 46.0981 27.4894C46.0665 27.4407 46.0361 27.3881 46.0039 27.337C46.0753 27.0308 46.1454 26.7309 46.2139 26.437C47.4471 26.1003 48.6999 25.8345 49.9656 25.6553C50.1409 25.6305 50.3204 25.6077 50.4974 25.6077C50.6546 25.6077 50.8097 25.6256 50.9587 25.6762C51.1204 25.731 51.2941 25.8369 51.4211 25.9717L51.6532 26.5296C51.1243 26.8534 50.5062 26.9966 49.8861 26.9966C49.8273 26.9966 49.7684 26.9953 49.7096 26.9928C49.5271 26.985 49.337 26.9642 49.1521 26.9642C48.9271 26.9642 48.7098 26.9948 48.5235 27.1162C48.2936 27.2661 48.1622 27.5257 47.9653 27.7166C47.7429 27.9324 47.4333 28.0535 47.1237 28.0535Z" fill="#2E75DE"/>
<path fill-rule="evenodd" clip-rule="evenodd" d="M51.8722 18.7797C51.8722 18.7797 52.1691 18.9038 52.4554 19.3307C52.7417 19.7577 53.696 22.5686 53.696 22.5686L51.2625 23.5778L50.6582 22.2858L51.8722 18.7797Z" fill="#3F8CFF"/>
<path fill-rule="evenodd" clip-rule="evenodd" d="M45.1733 17.695C44.743 17.698 43.0337 17.9104 43.0337 17.9104L42.8496 20.6815L44.9437 20.9359L46.3819 17.695C46.3819 17.695 45.6035 17.6922 45.1733 17.695Z" fill="#E46C62"/>
<path fill-rule="evenodd" clip-rule="evenodd" d="M44.2736 13.4745C44.2424 13.4446 44.2267 13.3973 44.2412 13.3562C44.2623 13.2963 44.3414 13.2651 44.3977 13.2944C44.3043 13.1767 44.4031 12.9684 44.5534 12.9663C44.4364 12.8319 44.5929 12.5796 44.7655 12.625C44.711 12.5771 44.6995 12.4877 44.74 12.4277C44.7806 12.3676 44.8677 12.3449 44.9325 12.3775C44.8755 12.2481 45.0435 12.0902 45.1691 12.1552C45.1321 12.0215 45.2906 11.8797 45.4193 11.9316C45.3995 11.8678 45.4348 11.792 45.4964 11.7661C45.5577 11.7401 45.6369 11.7678 45.6686 11.8264C45.6407 11.7487 45.6783 11.6532 45.7516 11.6152C45.8249 11.5773 45.9247 11.6018 45.9721 11.6694C45.9514 11.5967 45.9909 11.5119 46.0598 11.4807C46.1287 11.4497 46.2184 11.4762 46.2593 11.5398C46.2525 11.4392 46.3173 11.3377 46.4114 11.3014C46.5056 11.2652 46.6217 11.2972 46.684 11.3765C46.6779 11.2867 46.772 11.2158 46.862 11.2123C46.952 11.2088 47.0362 11.2529 47.1154 11.2956C47.1436 11.2227 47.2341 11.1902 47.3114 11.2026C47.3885 11.2149 47.4556 11.2611 47.5196 11.306C47.529 11.2591 47.5517 11.2151 47.584 11.1798C47.6308 11.1998 47.6776 11.2199 47.7243 11.24C47.6302 11.1809 47.5902 11.0489 47.6357 10.9477C47.6813 10.8463 47.8066 10.7885 47.9132 10.8196C47.83 10.7107 47.9265 10.5591 48.0189 10.4579C48.0462 10.4281 48.0734 10.3983 48.1007 10.3686C48.1254 10.3414 48.1511 10.3137 48.1841 10.2978C48.2513 10.2653 48.3419 10.2955 48.376 10.362C48.3626 10.2887 48.41 10.2091 48.4808 10.1862C48.5517 10.1633 48.6368 10.1999 48.6687 10.2672C48.7529 10.1229 49.0007 10.1245 49.083 10.2699C49.0831 10.1946 49.1952 10.1771 49.2615 10.2131C49.3276 10.2491 49.3839 10.3131 49.4591 10.3165C49.5049 10.3185 49.5483 10.2969 49.5936 10.2903C49.7037 10.2743 49.8179 10.3628 49.8299 10.4733C49.9715 10.418 50.1491 10.4812 50.2237 10.6137C50.4095 10.6015 50.581 10.7047 50.7383 10.8039C50.8131 10.8512 50.8959 10.9508 50.8325 11.0126C50.9806 10.9847 51.135 11.1246 51.1221 11.2746C51.276 11.2253 51.4415 11.4226 51.3658 11.5656C51.4747 11.532 51.5852 11.682 51.5209 11.776C51.6361 11.7435 51.7567 11.8861 51.7055 11.9943C51.7926 11.9686 51.8614 12.0929 51.8243 12.1758C51.7873 12.2588 51.6959 12.3006 51.612 12.3352C51.678 12.3289 51.7512 12.3296 51.8027 12.3716C51.8543 12.4136 51.8606 12.5107 51.8 12.5382C51.9502 12.5303 52.0848 12.6883 52.0531 12.8353C52.1712 12.8149 52.2575 12.9976 52.167 13.0758C52.2992 13.1345 52.3078 13.3565 52.1804 13.425C52.3528 13.5358 52.3926 13.8062 52.2595 13.9619C52.3656 14.0143 52.3432 14.2057 52.2278 14.2323C52.3297 14.3903 52.2088 14.6377 52.0216 14.6543C52.1142 14.6467 52.2044 14.7286 52.2058 14.8216C52.2067 14.8836 52.1675 14.9412 52.1141 14.9717L52.1131 14.9898C52.1078 15.0254 52.0853 15.0578 52.077 15.0931L52.0759 15.101C52.0855 15.1297 52.0915 15.159 52.0903 15.1892L52.0877 15.2086C52.0984 15.2446 52.1116 15.2807 52.1147 15.3177C52.1292 15.488 51.9416 15.6143 51.8195 15.7505C51.7508 15.8272 51.6992 15.9156 51.6689 16.009C51.6332 16.1187 51.577 16.2704 51.4508 16.2543C51.5402 16.3481 51.4556 16.5242 51.3152 16.5367C51.3818 16.5537 51.3724 16.6473 51.3191 16.6888C51.2658 16.7303 51.1917 16.7416 51.1305 16.7733C51.0627 16.8082 51.0138 16.8661 50.9507 16.9075C50.8876 16.9487 50.7936 16.97 50.7367 16.9252L50.7259 16.9463C50.7639 16.9736 50.751 17.0384 50.7132 17.0661C50.6757 17.094 50.6253 17.0954 50.5785 17.0958C50.5269 17.0961 50.475 17.0965 50.4233 17.0968C50.2126 17.1644 49.9929 17.2178 49.7797 17.1784C49.6984 17.2644 49.5431 17.2859 49.4411 17.2252C49.3164 17.3043 49.1455 17.3205 49.0093 17.266C48.8731 17.2117 48.777 17.0888 48.7662 16.9556C48.7042 16.9451 48.6423 16.9345 48.5804 16.924C48.3544 16.9985 48.1286 17.0729 47.9027 17.1472C47.7621 17.1937 47.6037 17.2399 47.4695 17.1866C47.3752 17.2694 47.2124 17.2797 47.1108 17.2095C46.9779 17.3098 46.771 17.3216 46.6311 17.2369C46.5789 17.325 46.4619 17.3807 46.352 17.3694C46.302 17.3643 46.2542 17.3467 46.2037 17.3477C46.106 17.3495 45.9956 17.4173 45.9205 17.3639C45.8761 17.3325 45.8719 17.2728 45.8357 17.234C45.7922 17.1873 45.7151 17.1813 45.6495 17.1632C45.5837 17.145 45.464 16.827 45.4882 16.7688C45.3316 16.7781 45.2179 16.5076 45.1485 16.2776C45.0374 16.1908 44.975 16.0272 45.0499 15.9089C44.8738 15.8318 44.7485 15.6502 44.7389 15.4584C44.6741 15.4638 44.6254 15.3979 44.6089 15.3352C44.5925 15.2723 44.593 15.2036 44.5603 15.1474C44.5298 15.0954 44.4729 15.0593 44.4545 15.0018C44.4422 14.9628 44.4496 14.9205 44.4574 14.8802C44.486 14.7307 44.5145 14.5813 44.5431 14.4318C44.4418 14.4146 44.3917 14.2688 44.4611 14.1928C44.4081 14.1594 44.3553 14.126 44.3025 14.0924C44.3123 14.0512 44.3414 14.0148 44.3795 13.9963C44.3326 13.9698 44.2858 13.9434 44.2389 13.917C44.2822 13.8779 44.3011 13.8139 44.2859 13.7576C44.3767 13.7336 44.4674 13.7096 44.558 13.6856L44.2712 13.7608C44.2096 13.7139 44.1513 13.6464 44.1589 13.5694C44.1643 13.5144 44.2239 13.4715 44.2736 13.4745Z" fill="#233862"/>
<path fill-rule="evenodd" clip-rule="evenodd" d="M49.6742 12.7832L47.8021 12.3778C47.1104 12.287 46.3429 12.9629 46.2815 13.6577C46.2132 14.4294 46.1602 15.3745 46.2373 15.9536C46.3921 17.1183 47.2776 17.2883 47.2776 17.2883L47.2639 17.7632C47.2442 18.4514 47.7804 19.0284 48.4686 19.0592C49.1612 19.0903 49.7491 18.5565 49.7848 17.8642L50.0236 13.2367C50.0334 13.0206 49.8858 12.829 49.6742 12.7832Z" fill="#FFB27D"/>
<path fill-rule="evenodd" clip-rule="evenodd" d="M47.277 17.2882C47.277 17.2882 48.0563 17.3583 48.8414 16.9132C48.8414 16.9132 48.4182 17.7059 47.2598 17.5681L47.277 17.2882Z" fill="#ED975D"/>
<path fill-rule="evenodd" clip-rule="evenodd" d="M49.8575 14.8366C49.8747 14.8292 50.551 14.6328 50.5278 15.3224C50.5045 16.0119 49.8169 15.8463 49.8164 15.8265C49.8158 15.8067 49.8575 14.8366 49.8575 14.8366Z" fill="#FFB27D"/>
<path fill-rule="evenodd" clip-rule="evenodd" d="M50.8872 16.4219C50.5503 16.5329 50.6665 14.9121 50.3797 14.7033C50.0931 14.4945 50.005 15.2967 49.6201 15.007C49.3702 14.8186 49.5437 14.7019 49.4019 14.423C49.2142 14.0543 48.6591 14.0004 48.4694 13.6326C48.3592 13.4189 48.4028 13.1483 48.2818 12.9404C48.168 12.7448 47.9369 12.6521 47.7166 12.6011C47.4963 12.55 47.2634 12.5246 47.0697 12.4081C46.8758 12.2915 46.7339 12.0447 46.8252 11.8377C47.7753 11.8376 48.7252 11.9512 49.6485 12.1752C49.8625 12.2272 50.0887 12.2933 50.2318 12.4607C50.383 12.6381 50.4069 12.8877 50.4237 13.1201C50.5063 14.2535 50.5889 15.3867 50.6716 16.5201" fill="#233862"/>
<path fill-rule="evenodd" clip-rule="evenodd" d="M50.0468 14.7098C50.0393 14.806 49.9665 14.8939 49.8734 14.9188C49.9173 14.9235 49.9276 14.9912 49.8965 15.0227C49.8656 15.0543 49.816 15.0569 49.772 15.0531C49.5582 15.0349 49.3568 14.9078 49.2483 14.7229C49.1313 14.6836 49.0832 14.5152 49.1616 14.42C49.0754 14.3925 49.0222 14.2886 49.0504 14.2025C48.963 14.2239 48.8684 14.1366 48.8826 14.0478C48.661 13.942 48.4611 13.7907 48.299 13.6062C48.2407 13.5368 48.2482 13.4215 48.3151 13.36C48.2225 13.3317 48.196 13.1873 48.2726 13.1279C48.2015 13.1135 48.1535 13.0296 48.1773 12.9613C48.0975 12.9544 47.6974 12.9208 47.6991 12.8408C47.4769 12.7735 47.3741 12.6606 47.3644 12.597C47.3553 12.5373 47.2384 12.5504 47.2311 12.4904C47.2213 12.409 47.3282 12.3697 47.41 12.3663C47.6535 12.3562 47.8993 12.4072 48.1186 12.5133C48.3716 12.6355 48.5837 12.8262 48.7923 13.0142C48.8876 13.0999 48.9828 13.1858 49.078 13.2717C49.15 13.3368 49.2292 13.4245 49.2016 13.5174C49.271 13.4828 49.3536 13.5432 49.3866 13.6134C49.4196 13.6836 49.4252 13.7648 49.4626 13.8328C49.4958 13.8933 49.5513 13.9379 49.5962 13.9905C49.6409 14.043 49.6766 14.113 49.6578 14.1794C49.7762 14.1641 49.8999 14.2427 49.9361 14.3564C49.9982 14.3161 50.085 14.3791 50.0966 14.452C50.108 14.5251 50.0708 14.596 50.0348 14.6605" fill="#233862"/>
<path fill-rule="evenodd" clip-rule="evenodd" d="M48.252 25.3426L51.648 24.2486L51.4281 23.4808L53.4162 22.6855C53.6982 23.4785 53.9064 23.9933 53.9833 24.5912C53.988 24.6277 53.9915 24.6637 53.9937 24.6993C54.0449 25.5205 53.424 26.2328 52.61 26.3547L48.5142 26.6289L48.252 25.3426Z" fill="#FFB27D"/>
<path fill-rule="evenodd" clip-rule="evenodd" d="M48.1718 18.0006L45.4028 29.7466L30.707 26.2842L33.4759 14.538L48.1718 18.0006Z" fill="#FAF9F6"/>
<path fill-rule="evenodd" clip-rule="evenodd" d="M48.1719 18.0004C48.1719 18.0004 48.1468 17.9961 48.1001 17.9859C48.0514 17.975 47.9829 17.9595 47.8934 17.9395C47.7098 17.8974 47.442 17.8358 47.0938 17.7559C46.3946 17.5936 45.3752 17.357 44.0828 17.0571C41.5004 16.4536 37.8301 15.5959 33.467 14.576L33.514 14.547C32.6913 18.0434 31.748 22.0516 30.7499 26.2929L30.7496 26.2942L30.7172 26.2415C36.1571 27.5262 41.2127 28.7199 45.4113 29.7112L45.3676 29.7383C46.2089 26.2032 46.9064 23.2729 47.394 21.2234C47.6398 20.1989 47.8325 19.3951 47.9644 18.8447C48.0308 18.5715 48.0816 18.3617 48.1167 18.2175C48.1515 18.0753 48.1719 18.0004 48.1719 18.0004C48.1719 18.0004 48.158 18.0712 48.1263 18.2117C48.0934 18.3548 48.0458 18.5631 47.9837 18.8341C47.8564 19.3837 47.6705 20.1862 47.4334 21.2093C46.9533 23.266 46.2668 26.207 45.4384 29.7551L45.4301 29.7905L45.3946 29.7821C41.1949 28.7948 36.1383 27.6058 30.697 26.3267L30.6543 26.3166L30.6644 26.2741L30.6647 26.2727C31.666 22.0323 32.6123 18.0248 33.4377 14.529L33.4468 14.4908L33.4848 14.4998C37.8545 15.5376 41.5303 16.4107 44.1165 17.0248C45.403 17.3326 46.418 17.5754 47.1142 17.7418C47.458 17.8249 47.7226 17.8889 47.9039 17.9328C47.9913 17.9542 48.058 17.9708 48.1055 17.9825C48.1504 17.9938 48.1719 18.0004 48.1719 18.0004Z" fill="#0A1629"/>
<path fill-rule="evenodd" clip-rule="evenodd" d="M31.3887 25.6639L45.052 28.8832L47.4724 18.6159L33.8088 15.3966L31.3887 25.6639Z" fill="#87AADF"/>
<path fill-rule="evenodd" clip-rule="evenodd" d="M31.3887 25.6639L37.6652 20.4064L39.6802 25.0958L42.1885 23.4336L45.052 28.8832L31.3887 25.6639Z" fill="#334F55"/>
<path fill-rule="evenodd" clip-rule="evenodd" d="M42.0603 20.6166C41.9203 21.2107 41.3251 21.5788 40.731 21.4388C40.1368 21.2988 39.7686 20.7037 39.9086 20.1098C40.0487 19.5157 40.6437 19.1477 41.2381 19.2877C41.8322 19.4276 42.2004 20.0227 42.0603 20.6166Z" fill="#334F55"/>
<path fill-rule="evenodd" clip-rule="evenodd" d="M45.052 28.8832L31.3887 25.6639L37.6652 20.4064L39.6802 25.0958L42.1885 23.4336L45.052 28.8832Z" fill="#C1D7F9"/>
<path fill-rule="evenodd" clip-rule="evenodd" d="M40.9853 21.4686C40.9014 21.4686 40.8161 21.459 40.7309 21.4388C40.2214 21.3187 39.8781 20.8642 39.8789 20.3626C39.879 20.2792 39.8886 20.1945 39.9085 20.1098C40.0285 19.601 40.4823 19.258 40.9834 19.258C41.0674 19.258 41.1527 19.2676 41.238 19.2878C41.7474 19.4077 42.0907 19.8623 42.09 20.3639C42.0899 20.4473 42.0802 20.532 42.0603 20.6167C41.9404 21.1255 41.4864 21.4686 40.9853 21.4686Z" fill="#C1D7F9"/>
<path fill-rule="evenodd" clip-rule="evenodd" d="M39.6196 16.0597C39.6649 15.9696 39.7079 15.8743 39.7084 15.7735C39.7088 15.6727 39.6556 15.565 39.5603 15.5321C39.4729 15.502 39.3779 15.5401 39.2958 15.5823C39.2136 15.6245 39.1272 15.673 39.0354 15.6637C38.967 15.6569 38.9059 15.6186 38.8387 15.6041C38.7716 15.5895 38.6851 15.6121 38.6686 15.6787C38.6575 15.7231 38.6837 15.7699 38.7206 15.7969C38.7574 15.8239 38.8031 15.8353 38.8474 15.8461C39.1164 15.9115 39.3853 15.9768 39.6541 16.0422" fill="#FFB27D"/>
<path fill-rule="evenodd" clip-rule="evenodd" d="M37.334 15.2025C37.334 15.2025 37.5262 15.8182 37.6175 15.8325C37.7087 15.8469 37.8286 15.7622 37.8286 15.7622C37.8286 15.7622 37.7942 16.3363 38.1671 16.408C38.1671 16.408 38.236 16.5828 38.3635 16.5957C38.4909 16.6085 38.5133 16.448 38.5133 16.448C38.5133 16.448 38.7188 16.6861 38.795 16.4219C38.8712 16.1577 38.9259 15.5537 38.9259 15.5537C38.9259 15.5537 38.8493 15.2813 38.7345 15.3078C38.6195 15.3343 38.5642 15.4018 38.5642 15.4018C38.5642 15.4018 38.4545 15.2446 38.3295 15.182C38.2045 15.1194 38.1256 15.2278 38.1256 15.2278C38.1256 15.2278 37.952 14.9616 37.8461 15.0392C37.7402 15.1168 37.7905 15.1909 37.7905 15.1909C37.7905 15.1909 37.5658 15.0189 37.4697 15.0627C37.3736 15.1065 37.334 15.2025 37.334 15.2025Z" fill="#FFB27D"/>
<path fill-rule="evenodd" clip-rule="evenodd" d="M38.5128 16.448C38.5272 16.4487 38.5504 16.2125 38.5645 15.9203C38.5788 15.6282 38.5787 15.3909 38.5643 15.3902C38.5499 15.3895 38.5267 15.6257 38.5124 15.9178C38.4983 16.2099 38.4983 16.4472 38.5128 16.448Z" fill="#ED975D"/>
<path fill-rule="evenodd" clip-rule="evenodd" d="M37.8286 15.7622C37.8421 15.7616 37.8536 15.6344 37.8493 15.4754C37.8454 15.3157 37.8103 15.1887 37.7962 15.1918C37.7821 15.1948 37.7933 15.3206 37.7971 15.4772C37.8013 15.6339 37.8133 15.7628 37.8286 15.7622Z" fill="#ED975D"/>
<path fill-rule="evenodd" clip-rule="evenodd" d="M38.171 16.4126C38.1854 16.412 38.1867 16.1463 38.1739 15.8192C38.1613 15.4919 38.1392 15.2272 38.1248 15.2278C38.1104 15.2284 38.109 15.494 38.1218 15.8213C38.1345 16.1484 38.1566 16.4132 38.171 16.4126Z" fill="#ED975D"/>
<path fill-rule="evenodd" clip-rule="evenodd" d="M48.2514 25.3427L46.7839 24.7681L44.6855 25.2355C44.6855 25.2355 44.7562 25.4612 45.0523 25.4922C45.3484 25.5234 46.1216 25.3756 46.1216 25.3756L44.8604 25.8072C44.8604 25.8072 45.1007 26.0611 45.3839 25.9987C45.6673 25.9365 46.3743 25.7904 46.3743 25.7904L45.527 26.2324C45.527 26.2324 45.6205 26.435 45.9166 26.4039C46.2127 26.3727 46.7435 26.1306 46.7435 26.1306C46.7435 26.1306 47.8317 26.6291 48.1727 26.6291C48.5136 26.6291 48.6578 26.6194 48.6578 26.6194L48.2514 25.3427Z" fill="#FFB27D"/>
<path fill-rule="evenodd" clip-rule="evenodd" d="M46.6719 24.7931L45.1379 24.7152C45.1379 24.7152 45.0903 24.8199 45.214 24.9152C45.338 25.0105 45.8141 25.0676 45.8141 25.0676L46.6719 24.7931Z" fill="#ED975D"/>
<path fill-rule="evenodd" clip-rule="evenodd" d="M46.6968 24.7623C46.6989 24.7707 46.5881 24.8044 46.4074 24.8521C46.2264 24.9 45.9754 24.9618 45.6974 25.0264C45.4191 25.091 45.1665 25.146 44.983 25.1828C44.7997 25.2196 44.6854 25.2381 44.6836 25.2297C44.6819 25.2213 44.7929 25.1874 44.9738 25.1397C45.1546 25.0918 45.4054 25.03 45.6831 24.9656C45.9609 24.9011 46.2131 24.8461 46.3966 24.8093C46.58 24.7725 46.6946 24.7539 46.6968 24.7623Z" fill="#ED975D"/>
<path fill-rule="evenodd" clip-rule="evenodd" d="M46.7012 25.3215C46.6977 25.3396 46.5534 25.3218 46.3789 25.3443C46.2042 25.3651 46.0686 25.4175 46.0609 25.4009C46.0527 25.3869 46.1846 25.3047 46.3712 25.2823C46.5577 25.2585 46.7057 25.306 46.7012 25.3215Z" fill="#ED975D"/>
<path fill-rule="evenodd" clip-rule="evenodd" d="M46.8801 25.8061C46.8683 25.8197 46.7728 25.7446 46.6319 25.7417C46.4909 25.7347 46.3904 25.8029 46.3797 25.7885C46.3748 25.7825 46.3934 25.7554 46.4379 25.7278C46.482 25.7002 46.5534 25.6765 46.634 25.6793C46.7145 25.6822 46.7842 25.7107 46.8262 25.7413C46.8687 25.7719 46.8855 25.8005 46.8801 25.8061Z" fill="#ED975D"/>
<path fill-rule="evenodd" clip-rule="evenodd" d="M4.97414 42.296C5.30846 42.4185 5.56586 42.706 5.70566 43.0334C5.84534 43.361 5.87737 43.7257 5.85782 44.0811C5.82002 44.7689 5.47166 45.4812 5.08526 46.0514C4.48059 45.5826 4.29735 44.7144 4.23207 44.2679C4.12887 43.5625 4.37091 42.2248 4.97414 42.296Z" fill="#3F8CFF"/>
<path fill-rule="evenodd" clip-rule="evenodd" d="M5.81993 47.1405C5.70533 46.7596 5.84153 46.3265 6.12269 46.0453C6.40397 45.7639 6.81173 45.6281 7.20952 45.6354C7.39336 45.6388 7.59436 45.6808 7.70788 45.8254C7.81408 45.9607 7.81456 46.1578 7.74376 46.3146C7.67308 46.4713 7.54204 46.5929 7.402 46.6926C6.92141 47.0344 6.39365 47.2769 5.81993 47.1405Z" fill="#3F8CFF"/>
<path fill-rule="evenodd" clip-rule="evenodd" d="M5.20226 49.2784C5.19878 49.2778 5.20382 49.2276 5.21462 49.137C5.22698 49.0372 5.24306 48.9083 5.26226 48.7536C5.3075 48.4328 5.36282 47.9738 5.58362 47.5186C5.8013 47.0646 6.1229 46.721 6.40021 46.5436C6.53773 46.453 6.65941 46.3968 6.74593 46.3662C6.78841 46.349 6.82357 46.3413 6.84649 46.3343C6.86989 46.3279 6.88225 46.3255 6.88273 46.3271C6.88753 46.338 6.68617 46.3863 6.42013 46.5728C6.15302 46.7543 5.8427 47.094 5.6285 47.5403C5.41202 47.986 5.35118 48.439 5.29718 48.7586C5.2715 48.9196 5.25074 49.0501 5.23382 49.14C5.21702 49.2297 5.20562 49.279 5.20226 49.2784Z" fill="#132529"/>
<path fill-rule="evenodd" clip-rule="evenodd" d="M4.88002 43.3309C4.88182 43.3308 4.8853 43.3518 4.89058 43.3918C4.89598 43.4371 4.90282 43.4954 4.91134 43.5672C4.92838 43.7198 4.95022 43.9408 4.97482 44.214C5.02438 44.7606 5.0821 45.5165 5.1271 46.3526C5.17198 47.1889 5.19538 47.9467 5.20462 48.4955C5.20942 48.7699 5.21134 48.9918 5.21062 49.1452C5.2099 49.2177 5.2093 49.2762 5.20894 49.322C5.20786 49.3623 5.20654 49.3835 5.20486 49.3836C5.20318 49.3836 5.20114 49.3624 5.19886 49.3221C5.19682 49.2765 5.1943 49.2179 5.19118 49.1456C5.18578 48.9859 5.17846 48.7658 5.16934 48.4963C5.1511 47.9482 5.12206 47.191 5.0773 46.3552C5.0323 45.5197 4.98022 44.7638 4.93966 44.2169C4.91986 43.948 4.90366 43.7282 4.8919 43.569C4.88722 43.4968 4.8835 43.4383 4.88062 43.3927C4.87858 43.3522 4.87834 43.3311 4.88002 43.3309Z" fill="#132529"/>
<path fill-rule="evenodd" clip-rule="evenodd" d="M4.8471 47.6142C4.66818 46.795 4.06747 46.0799 3.29144 45.762C3.0938 45.6812 2.83916 45.6355 2.68928 45.7877C2.53928 45.9401 2.58968 46.1952 2.67872 46.3897C3.04904 47.1989 3.94879 47.7331 4.83678 47.6711" fill="#3F8CFF"/>
<path fill-rule="evenodd" clip-rule="evenodd" d="M3.42391 46.4048C3.42523 46.4015 3.46963 46.4181 3.54919 46.451C3.58903 46.467 3.63775 46.4869 3.69139 46.5163C3.74503 46.5457 3.80935 46.5737 3.87355 46.6164C3.93883 46.6571 4.01166 46.7003 4.0833 46.756C4.15806 46.8075 4.2315 46.8708 4.30842 46.9379C4.45866 47.0758 4.61154 47.2419 4.74522 47.4364C4.8771 47.6323 4.9761 47.8354 5.0481 48.0262C5.0811 48.1229 5.1129 48.2145 5.1321 48.3034C5.1567 48.3909 5.1687 48.4746 5.18106 48.5507C5.19606 48.6263 5.19654 48.6964 5.20254 48.7571C5.2089 48.8181 5.20806 48.8708 5.20698 48.9138C5.20578 48.9998 5.20338 49.0471 5.1999 49.047C5.18862 49.0472 5.19714 48.8565 5.14614 48.5562C5.13186 48.4815 5.11794 48.3994 5.09202 48.3137C5.0715 48.2266 5.03862 48.1369 5.00502 48.0424C4.93182 47.8556 4.83342 47.6569 4.70394 47.4646C4.57266 47.2735 4.42362 47.1095 4.27746 46.9719C4.20258 46.9049 4.13118 46.8413 4.05846 46.7891C3.98898 46.7326 3.91831 46.6885 3.85495 46.6464C3.59743 46.4836 3.41947 46.4147 3.42391 46.4048Z" fill="#132529"/>
</svg>
