<svg width="171" height="185" viewBox="0 0 171 185" fill="none" xmlns="http://www.w3.org/2000/svg">
<g clip-path="url(#clip0_5578_67580)">
<path d="M80.3102 140.78C113.766 140.78 140.89 113.657 140.89 80.081C140.89 46.5052 113.647 19.3818 80.3102 19.3818C46.8539 19.3818 19.7305 46.5052 19.7305 80.081C19.7305 113.657 46.8539 140.78 80.3102 140.78Z" fill="#F3F6FF"/>
<path d="M123.359 27.0245C126.065 27.0245 128.258 24.8312 128.258 22.1256C128.258 19.42 126.065 17.2266 123.359 17.2266C120.653 17.2266 118.46 19.42 118.46 22.1256C118.46 24.8312 120.653 27.0245 123.359 27.0245Z" fill="#EAEEF9"/>
<path d="M103.639 11.6913C105.486 11.6913 106.984 10.1934 106.984 8.34563C106.984 6.49789 105.486 5 103.639 5C101.791 5 100.293 6.49789 100.293 8.34563C100.293 10.1934 101.791 11.6913 103.639 11.6913Z" fill="#EAEEF9"/>
<path d="M22.4784 40.2928C24.3262 40.2928 25.8241 38.7949 25.8241 36.9472C25.8241 35.0995 24.3262 33.6016 22.4784 33.6016C20.6307 33.6016 19.1328 35.0995 19.1328 36.9472C19.1328 38.7949 20.6307 40.2928 22.4784 40.2928Z" fill="#F1F3F9"/>
<path d="M20.2133 128.699C23.6448 128.699 26.4266 125.918 26.4266 122.486C26.4266 119.055 23.6448 116.273 20.2133 116.273C16.7818 116.273 14 119.055 14 122.486C14 125.918 16.7818 128.699 20.2133 128.699Z" fill="#EAEEF9"/>
<g filter="url(#filter0_d_5578_67580)">
<path d="M104.775 108.666L98.8493 110.654C98.2811 108.909 96.4141 108.016 94.6689 108.584C92.9237 109.153 91.9903 111.02 92.5991 112.765L86.633 114.753C86.0648 113.008 84.1978 112.075 82.4526 112.684C80.7074 113.252 79.8145 115.119 80.3828 116.864L74.4166 118.853C73.9702 117.513 72.7526 116.661 71.4133 116.62C71.048 116.62 70.6422 116.661 70.2363 116.783C68.4911 117.351 67.5577 119.218 68.1664 120.963L62.2409 122.952C60.4957 117.757 54.8949 114.956 49.6999 116.702C49.5376 116.742 49.4158 116.823 49.2535 116.864L22.751 38.1683C22.9133 38.1277 23.0757 38.0871 23.1974 38.0465C28.3924 36.3013 31.1928 30.6599 29.4476 25.5055L35.3731 23.5168C35.9413 25.262 37.8083 26.1955 39.5535 25.5867C41.2987 25.0185 42.1916 23.1515 41.6234 21.4063L47.5489 19.4176C48.1171 21.1628 50.0246 22.0963 51.7292 21.4875C53.4744 20.9193 54.4079 19.0524 53.7991 17.3072L59.7246 15.3185C60.2928 17.0637 62.1597 17.9566 63.9049 17.3884C65.6501 16.8202 66.543 14.9532 65.9748 13.208L71.9815 11.1787C73.7267 16.3737 79.3275 19.1335 84.5225 17.3884L94.466 46.9348L111.025 96.1247C105.83 97.8699 103.03 103.471 104.775 108.666Z" fill="url(#paint0_linear_5578_67580)"/>
</g>
<path d="M96.9414 96.8146L60.8607 108.95C59.1967 109.518 57.3703 108.625 56.8021 106.92L34.8046 41.5774C34.2364 39.9134 35.1293 38.087 36.8339 37.5188L72.9146 25.3837C74.5787 24.8155 76.405 25.7084 76.9732 27.413L98.9707 92.756C99.5389 94.4201 98.6054 96.2464 96.9414 96.8146Z" fill="#F1F3F9" stroke="#D6DCE8" stroke-width="2" stroke-miterlimit="10"/>
<path d="M38.2949 52.0077L80.5041 37.8027" stroke="#D6DCE8" stroke-width="2" stroke-miterlimit="10" stroke-linejoin="round"/>
<path d="M50.3896 40.7659L64.0671 36.1797" stroke="#D6DCE8" stroke-width="2" stroke-miterlimit="10" stroke-linecap="round" stroke-linejoin="round"/>
<path d="M53.2715 96.4081L95.4401 82.2031" stroke="#D6DCE8" stroke-width="2" stroke-miterlimit="10" stroke-linejoin="round"/>
<path d="M76.4268 61.2074L73.667 66.5241C73.5046 66.8489 73.5046 67.214 73.667 67.4981L76.508 72.7743C76.7921 73.3019 76.5891 73.9108 76.0615 74.1949C75.8586 74.3167 75.6151 74.3571 75.3716 74.3166L69.446 73.3831C69.0808 73.3425 68.7561 73.4238 68.5126 73.7079L64.3728 78.0504C63.967 78.4563 63.3176 78.4969 62.8711 78.091C62.7088 77.9287 62.5871 77.7259 62.5465 77.4823L61.613 71.5568C61.5724 71.232 61.3289 70.9073 61.0448 70.7856L55.6469 68.1881C55.1193 67.9446 54.9163 67.2952 55.1599 66.7676C55.241 66.5647 55.444 66.4024 55.6469 66.2807L61.0042 63.5613C61.3289 63.399 61.5318 63.1149 61.5724 62.7496L62.3841 56.8241C62.4653 56.2559 62.9929 55.85 63.5611 55.9312C63.8046 55.9718 64.0076 56.053 64.1699 56.2153L68.3908 60.4362C68.6343 60.6797 68.9996 60.8015 69.3243 60.7203L75.2498 59.6245C75.818 59.5028 76.3862 59.9086 76.4674 60.4768C76.5891 60.7609 76.5485 61.0044 76.4268 61.2074Z" fill="#D6DCE8"/>
<path d="M69.6689 97.9915L83.3057 93.4053" stroke="#D6DCE8" stroke-width="2" stroke-miterlimit="10" stroke-linecap="round" stroke-linejoin="round"/>
<g filter="url(#filter1_d_5578_67580)">
<path d="M148.973 60.6117L139.111 143.082C133.672 142.433 128.761 146.329 128.112 151.727L121.902 150.996C122.105 149.17 120.806 147.547 119.021 147.344C117.194 147.141 115.571 148.44 115.368 150.225L109.158 149.495C109.361 147.668 108.062 146.045 106.277 145.842C104.45 145.639 102.827 146.938 102.624 148.724L96.4148 147.993C96.6177 146.167 95.319 144.543 93.5332 144.34C91.7068 144.137 90.0834 145.436 89.8805 147.222L83.6709 146.491C84.3202 141.053 80.424 136.142 75.0261 135.493C74.8638 135.493 74.7014 135.452 74.5391 135.452L84.4014 52.9816C84.5637 53.0222 84.7261 53.0222 84.8884 53.0628C90.3269 53.7122 95.2378 49.8159 95.8872 44.418L102.096 45.1486C101.893 46.9749 103.192 48.5984 104.978 48.8013C106.764 49.0042 108.428 47.7055 108.631 45.9197L114.84 46.6502C114.637 48.4766 115.936 50.1 117.722 50.303C119.548 50.5059 121.172 49.2071 121.375 47.4214L127.584 48.1519C127.381 49.9783 128.68 51.6017 130.466 51.8046C132.292 52.0076 133.916 50.7088 134.118 48.923L140.328 49.6536C139.638 55.0515 143.534 59.9624 148.973 60.6117Z" fill="url(#paint1_linear_5578_67580)"/>
</g>
<path d="M126.123 137.644L88.2975 133.139C86.5523 132.936 85.2941 131.312 85.4971 129.567L93.6954 61.0992C93.8983 59.354 95.5218 58.0959 97.2669 58.2988L135.092 62.8038C136.838 63.0067 138.096 64.6302 137.893 66.3753L129.735 134.843C129.492 136.588 127.868 137.847 126.123 137.644Z" fill="#F1F3F9" stroke="#D6DCE8" stroke-width="2" stroke-miterlimit="10"/>
<path d="M92.3564 72.0166L136.554 77.2928" stroke="#D6DCE8" stroke-width="2" stroke-miterlimit="10" stroke-linejoin="round"/>
<path d="M108.103 67.0654L122.43 68.77" stroke="#D6DCE8" stroke-width="2" stroke-miterlimit="10" stroke-linecap="round" stroke-linejoin="round"/>
<path d="M100.96 127.051L115.246 128.756" stroke="#D6DCE8" stroke-width="2" stroke-miterlimit="10" stroke-linecap="round" stroke-linejoin="round"/>
<path d="M86.7949 118.569L130.993 123.845" stroke="#D6DCE8" stroke-width="2" stroke-miterlimit="10" stroke-linejoin="round"/>
<path d="M122.857 96.679L118.068 100.332C117.784 100.535 117.621 100.859 117.662 101.225L117.987 107.191C118.027 107.759 117.581 108.287 116.972 108.287C116.729 108.287 116.526 108.246 116.323 108.084L111.371 104.674C111.087 104.471 110.722 104.431 110.397 104.553L104.796 106.704C104.269 106.907 103.619 106.663 103.416 106.095C103.335 105.892 103.335 105.648 103.376 105.405L105.08 99.6824C105.162 99.3577 105.121 98.9924 104.878 98.7083L101.103 94.041C100.738 93.5945 100.819 92.9451 101.265 92.5393C101.428 92.3769 101.671 92.2958 101.915 92.2958L107.921 92.1334C108.287 92.1334 108.571 91.9305 108.774 91.6464L112.061 86.6543C112.386 86.1673 113.035 86.0456 113.522 86.3297C113.725 86.4514 113.847 86.6543 113.928 86.8573L115.917 92.4987C116.039 92.8234 116.323 93.0669 116.647 93.1481L122.451 94.6903C123.019 94.8527 123.344 95.4209 123.222 95.9891C123.182 96.3543 123.06 96.5573 122.857 96.679Z" fill="#D6DCE8"/>
<path d="M146.335 45.108L147.999 40.9277" stroke="#AAB2C5" stroke-width="3" stroke-miterlimit="10" stroke-linecap="round"/>
<path d="M150.434 49.1264L157.374 43.7285" stroke="#AAB2C5" stroke-width="3" stroke-miterlimit="10" stroke-linecap="round"/>
<path d="M153.762 54.1181L157.74 53.4688" stroke="#AAB2C5" stroke-width="3" stroke-miterlimit="10" stroke-linecap="round"/>
</g>
<defs>
<filter id="filter0_d_5578_67580" x="0.750977" y="0.178711" width="132.274" height="155.773" filterUnits="userSpaceOnUse" color-interpolation-filters="sRGB">
<feFlood flood-opacity="0" result="BackgroundImageFix"/>
<feColorMatrix in="SourceAlpha" type="matrix" values="0 0 0 0 0 0 0 0 0 0 0 0 0 0 0 0 0 0 127 0" result="hardAlpha"/>
<feOffset dy="11"/>
<feGaussianBlur stdDeviation="11"/>
<feColorMatrix type="matrix" values="0 0 0 0 0.397708 0 0 0 0 0.47749 0 0 0 0 0.575 0 0 0 0.27 0"/>
<feBlend mode="normal" in2="BackgroundImageFix" result="effect1_dropShadow_5578_67580"/>
<feBlend mode="normal" in="SourceGraphic" in2="effect1_dropShadow_5578_67580" result="shape"/>
</filter>
<filter id="filter1_d_5578_67580" x="52.5391" y="33.418" width="118.435" height="151.309" filterUnits="userSpaceOnUse" color-interpolation-filters="sRGB">
<feFlood flood-opacity="0" result="BackgroundImageFix"/>
<feColorMatrix in="SourceAlpha" type="matrix" values="0 0 0 0 0 0 0 0 0 0 0 0 0 0 0 0 0 0 127 0" result="hardAlpha"/>
<feOffset dy="11"/>
<feGaussianBlur stdDeviation="11"/>
<feColorMatrix type="matrix" values="0 0 0 0 0.397708 0 0 0 0 0.47749 0 0 0 0 0.575 0 0 0 0.27 0"/>
<feBlend mode="normal" in2="BackgroundImageFix" result="effect1_dropShadow_5578_67580"/>
<feBlend mode="normal" in="SourceGraphic" in2="effect1_dropShadow_5578_67580" result="shape"/>
</filter>
<linearGradient id="paint0_linear_5578_67580" x1="66.8592" y1="8.59333" x2="66.8592" y2="124.157" gradientUnits="userSpaceOnUse">
<stop stop-color="#FDFEFF"/>
<stop offset="0.9964" stop-color="#ECF0F5"/>
</linearGradient>
<linearGradient id="paint1_linear_5578_67580" x1="111.731" y1="41.9359" x2="111.731" y2="152.884" gradientUnits="userSpaceOnUse">
<stop stop-color="#FDFEFF"/>
<stop offset="0.9964" stop-color="#ECF0F5"/>
</linearGradient>
<clipPath id="clip0_5578_67580">
<rect width="171" height="185" fill="white"/>
</clipPath>
</defs>
</svg>
