<svg width="16" height="15" viewBox="0 0 16 15" fill="none" xmlns="http://www.w3.org/2000/svg">
<path fill-rule="evenodd" clip-rule="evenodd" d="M5.76677 10.7173V4.36393C5.76677 3.49034 6.46811 2.77558 7.34281 2.77558H14.435V1.98141C14.435 1.10782 13.7258 0.393066 12.859 0.393066H1.82665C0.95195 0.393066 0.25061 1.10782 0.25061 1.98141V13.0998C0.25061 13.9734 0.95195 14.6882 1.82665 14.6882H12.859C13.7258 14.6882 14.435 13.9734 14.435 13.0998V12.3057H7.34281C6.46811 12.3057 5.76677 11.5909 5.76677 10.7173ZM8.13833 4.86023C7.6995 4.86023 7.34045 5.21202 7.34045 5.64199V10.3326C7.34045 10.7625 7.6995 11.1143 8.13833 11.1143H15.3192V4.86023H8.13833ZM10.4476 9.32755C9.71177 9.32755 9.1178 8.72894 9.1178 7.98738C9.1178 7.24582 9.71177 6.64722 10.4476 6.64722C11.1834 6.64722 11.7774 7.24582 11.7774 7.98738C11.7774 8.72894 11.1834 9.32755 10.4476 9.32755Z" fill="#A12B94"/>
</svg>
