<svg width="24" height="24" viewBox="0 0 24 24" fill="none" xmlns="http://www.w3.org/2000/svg">
<g clip-path="url(#clip0_902_15096)">
<path d="M23.6114 21.7183L19.0785 17.1986C20.541 15.3354 21.3346 13.0345 21.3316 10.6658C21.3316 8.55632 20.7061 6.49419 19.5341 4.74021C18.3621 2.98622 16.6964 1.61916 14.7474 0.811891C12.7985 0.00462129 10.654 -0.206597 8.58502 0.204945C6.51605 0.616488 4.61559 1.63231 3.12395 3.12395C1.63231 4.61559 0.616488 6.51605 0.204945 8.58502C-0.206597 10.654 0.00462129 12.7985 0.811891 14.7474C1.61916 16.6964 2.98622 18.3621 4.74021 19.5341C6.49419 20.7061 8.55632 21.3316 10.6658 21.3316C13.0345 21.3346 15.3354 20.541 17.1986 19.0785L21.7183 23.6114C21.8422 23.7364 21.9897 23.8356 22.1521 23.9033C22.3146 23.971 22.4888 24.0058 22.6648 24.0058C22.8408 24.0058 23.0151 23.971 23.1776 23.9033C23.34 23.8356 23.4875 23.7364 23.6114 23.6114C23.7364 23.4875 23.8356 23.34 23.9033 23.1776C23.971 23.0151 24.0058 22.8408 24.0058 22.6648C24.0058 22.4888 23.971 22.3146 23.9033 22.1521C23.8356 21.9897 23.7364 21.8422 23.6114 21.7183ZM2.66646 10.6658C2.66646 9.08369 3.13561 7.5371 4.01459 6.22161C4.89357 4.90612 6.1429 3.88082 7.60459 3.27537C9.06628 2.66992 10.6747 2.51151 12.2264 2.82016C13.7781 3.12882 15.2035 3.89068 16.3222 5.00941C17.4409 6.12814 18.2028 7.55349 18.5115 9.10522C18.8201 10.6569 18.6617 12.2653 18.0563 13.727C17.4508 15.1887 16.4255 16.4381 15.11 17.317C13.7945 18.196 12.2479 18.6652 10.6658 18.6652C8.54425 18.6652 6.50958 17.8224 5.00941 16.3222C3.50924 14.822 2.66646 12.7874 2.66646 10.6658Z" fill="white"/>
<path d="M13.3323 9.33247H11.999V7.99924C11.999 7.64565 11.8586 7.30654 11.6085 7.05651C11.3585 6.80648 11.0194 6.66602 10.6658 6.66602C10.3122 6.66602 9.97311 6.80648 9.72308 7.05651C9.47305 7.30654 9.33259 7.64565 9.33259 7.99924V9.33247H7.99936C7.64577 9.33247 7.30666 9.47293 7.05663 9.72296C6.8066 9.97299 6.66614 10.3121 6.66614 10.6657C6.66614 11.0193 6.8066 11.3584 7.05663 11.6084C7.30666 11.8585 7.64577 11.9989 7.99936 11.9989H9.33259V13.3321C9.33259 13.6857 9.47305 14.0248 9.72308 14.2749C9.97311 14.5249 10.3122 14.6654 10.6658 14.6654C11.0194 14.6654 11.3585 14.5249 11.6085 14.2749C11.8586 14.0248 11.999 13.6857 11.999 13.3321V11.9989H13.3323C13.6859 11.9989 14.025 11.8585 14.275 11.6084C14.525 11.3584 14.6655 11.0193 14.6655 10.6657C14.6655 10.3121 14.525 9.97299 14.275 9.72296C14.025 9.47293 13.6859 9.33247 13.3323 9.33247Z" fill="white"/>
</g>
<defs>
<clipPath id="clip0_902_15096">
<rect width="24" height="24" fill="white"/>
</clipPath>
</defs>
</svg>
