<?xml version="1.0" encoding="UTF-8"?>
<svg width="155px" height="101px" viewBox="0 0 155 101" version="1.1" xmlns="http://www.w3.org/2000/svg" xmlns:xlink="http://www.w3.org/1999/xlink">
    <!-- Generator: Sketch 58 (84663) - https://sketch.com -->
    <title>En-logo</title>
    <desc>Created with Sketch.</desc>
    <defs>
        <path d="M1.76702897,0.642432 C1.8528331,0.628992 1.9379669,0.623616 2.02041931,0.623616 C2.98571586,0.623616 3.76867862,1.40784 3.76867862,2.376192 L3.76867862,30.146592 C3.76867862,31.1976 2.8442731,32.032896 1.76702897,31.881696 C0.880833103,31.75536 0.272830345,30.90864 0.272830345,30.012192 L0.272830345,2.511264 C0.272830345,1.614816 0.880833103,0.76608 1.76702897,0.642432 Z" id="path-1"></path>
        <path d="M1.61016828,0.642432 C1.6973131,0.628992 1.78177655,0.623616 1.86489931,0.623616 C2.83019586,0.623616 3.61315862,1.40784 3.61315862,2.376192 L3.61315862,53.745216 C3.61315862,54.795552 2.68808276,55.63152 1.61016828,55.477632 C0.724642759,55.353312 0.11798069,54.506592 0.11798069,53.6088 L0.11798069,2.511264 C0.11798069,1.614816 0.724642759,0.76608 1.61016828,0.642432 Z" id="path-3"></path>
        <path d="M1.71407172,0.333984 C1.80054621,0.321216 1.88568,0.316512 1.96880276,0.316512 C2.93342897,0.316512 3.71572138,1.100736 3.71572138,2.067744 L3.71572138,22.26 C3.71572138,23.31168 2.79265655,24.146976 1.71407172,23.994432 C0.828546207,23.86944 0.219873103,23.02272 0.219873103,22.124256 L0.219873103,2.202816 C0.219873103,1.305696 0.828546207,0.458304 1.71407172,0.333984 Z" id="path-5"></path>
        <path d="M1.74021517,0.342048 C1.82668966,0.330624 1.9111531,0.324576 1.99427586,0.324576 C2.96024276,0.324576 3.74320552,1.110144 3.74320552,2.077824 L3.74320552,33.012 C3.74320552,34.06368 2.8188,34.898976 1.74021517,34.746432 C0.85401931,34.62144 0.247357241,33.77472 0.247357241,32.876256 L0.247357241,2.21088 C0.247357241,1.315776 0.85401931,0.468384 1.74021517,0.342048 Z" id="path-7"></path>
        <path d="M1.68792828,0.37296 C1.77440276,0.360192 1.85886621,0.355488 1.94265931,0.355488 C2.90862621,0.355488 3.69024828,1.140384 3.69024828,2.108064 L3.69024828,22.311744 C3.69024828,23.363424 2.76584276,24.19872 1.68792828,24.046848 C0.802402759,23.920512 0.193729655,23.074464 0.193729655,22.178016 L0.193729655,2.24112 C0.193729655,1.346016 0.802402759,0.497952 1.68792828,0.37296 Z" id="path-9"></path>
        <path d="M1.66245517,0.56784 C1.74892966,0.556416 1.83205241,0.550368 1.91651586,0.550368 C2.88114207,0.550368 3.66410483,1.334592 3.66410483,2.302272 L3.66410483,55.885536 C3.66410483,56.937888 2.73969931,57.773184 1.66245517,57.619968 C0.77625931,57.494976 0.168256552,56.648256 0.168256552,55.750464 L0.168256552,2.436672 C0.168256552,1.539552 0.77625931,0.693504 1.66245517,0.56784 Z" id="path-11"></path>
        <path d="M1.63564138,0.159264 C1.72278621,0.147168 1.80724966,0.14112 1.89104276,0.14112 C2.85566897,0.14112 3.63796138,0.926016 3.63796138,1.893696 L3.63796138,37.716 C3.63796138,38.76768 2.7155669,39.602976 1.63564138,39.450432 C0.748775172,39.32544 0.142783448,38.47872 0.142783448,37.580256 L0.142783448,2.028096 C0.142783448,1.13232 0.748775172,0.284928 1.63564138,0.159264 Z" id="path-13"></path>
        <path d="M1.74490759,0.488544 C1.83071172,0.475104 1.91584552,0.469728 1.99896828,0.469728 C2.96359448,0.471072 3.74655724,1.254624 3.74655724,2.222304 L3.74655724,29.994048 C3.74655724,31.045056 2.82215172,31.87968 1.74490759,31.727808 C0.858711724,31.602816 0.250708966,30.756096 0.250708966,29.859648 L0.250708966,2.35872 C0.250708966,1.4616 0.858711724,0.613536 1.74490759,0.488544 Z" id="path-15"></path>
        <path d="M1.5880469,0.488544 C1.67452138,0.475104 1.75898483,0.469728 1.84277793,0.469728 C2.80807448,0.471072 3.59103724,1.254624 3.59103724,2.222304 L3.59103724,53.591328 C3.59103724,54.642336 2.66663172,55.477632 1.5880469,55.324416 C0.701851034,55.200096 0.0945186207,54.352704 0.0945186207,53.455584 L0.0945186207,2.35872 C0.0945186207,1.4616 0.701851034,0.613536 1.5880469,0.488544 Z" id="path-17"></path>
        <path d="M1.69195034,0.180768 C1.77775448,0.168672 1.86288828,0.163296 1.94668138,0.163296 C2.91197793,0.163296 3.69427034,0.948192 3.69427034,1.914528 L3.69427034,22.106784 C3.69427034,23.158464 2.77053517,23.993088 1.69195034,23.840544 C0.806424828,23.716224 0.197751724,22.868832 0.197751724,21.971712 L0.197751724,2.050272 C0.197751724,1.153152 0.806424828,0.305088 1.69195034,0.180768 Z" id="path-19"></path>
        <path d="M1.71876414,0.189504 C1.80456828,0.177408 1.88903172,0.17136 1.97215448,0.17136 C2.93946207,0.17136 3.72108414,0.956928 3.72108414,1.924608 L3.72108414,32.858784 C3.72108414,33.910464 2.79667862,34.745088 1.71876414,34.592544 C0.832568276,34.468224 0.224565517,33.620832 0.224565517,32.723712 L0.224565517,2.058336 C0.224565517,1.161888 0.832568276,0.315168 1.71876414,0.189504 Z" id="path-21"></path>
        <path d="M1.6658069,0.219072 C1.75295172,0.207648 1.83607448,0.200928 1.91986759,0.200928 C2.88583448,0.200928 3.66879724,0.987168 3.66879724,1.954848 L3.66879724,22.158528 C3.66879724,23.209536 2.74372138,24.044832 1.6658069,23.892288 C0.779611034,23.767296 0.172278621,22.921248 0.172278621,22.024128 L0.172278621,2.087904 C0.172278621,1.1928 0.779611034,0.344736 1.6658069,0.219072 Z" id="path-23"></path>
        <path d="M1.64100414,0.414624 C1.72747862,0.402528 1.81127172,0.39648 1.89506483,0.39648 C2.85902069,0.39648 3.64198345,1.181376 3.64198345,2.149056 L3.64198345,55.73232 C3.64198345,56.784672 2.71757793,57.619968 1.64100414,57.466752 C0.754137931,57.341088 0.146805517,56.494368 0.146805517,55.59792 L0.146805517,2.283456 C0.146805517,1.386336 0.754137931,0.539616 1.64100414,0.414624 Z" id="path-25"></path>
        <path d="M1.61352,0.678048 C1.70066483,0.665952 1.78579862,0.659232 1.86892138,0.659232 C2.83354759,0.659232 3.61584,1.445472 3.61584,2.411808 L3.61584,38.234784 C3.61584,39.286464 2.69277517,40.121088 1.61352,39.968544 C0.726653793,39.844224 0.120662069,38.996832 0.120662069,38.099712 L0.120662069,2.54688 C0.120662069,1.650432 0.726653793,0.80304 1.61352,0.678048 Z" id="path-27"></path>
    </defs>
    <g id="NEW-Android" stroke="none" stroke-width="1" fill="none" fill-rule="evenodd">
        <g id="00.01_Splash-Screen-En_Purple" transform="translate(-102.000000, -238.000000)">
            <g id="En-logo" transform="translate(102.000000, 238.000000)">
                <g id="Group-17" transform="translate(52.286897, 34.457472)" fill="#FFFFFE">
                    <path d="M1.76716303,0.6419616 C0.880967172,0.7662816 0.272964414,1.6150176 0.272964414,2.5114656 L0.272964414,30.0130656 C0.272964414,30.9088416 0.880967172,31.7555616 1.76716303,31.8812256 C2.84373683,32.0330976 3.76814234,31.1978016 3.76814234,30.1467936 L3.76814234,2.3763936 C3.76814234,1.4080416 2.98584993,0.6238176 2.02055338,0.6238176 C1.93810097,0.6238176 1.85296717,0.6291936 1.76716303,0.6419616" id="Fill-15"></path>
                </g>
                <g id="Group-20" transform="translate(52.286897, 34.457472)">
                    <mask id="mask-2" fill="white">
                        <use xlink:href="#path-1"></use>
                    </mask>
                    <g id="Clip-19"></g>
                    <polygon id="Fill-18" fill="#FFFFFE" mask="url(#mask-2)" points="-15.3933964 16.3283232 2.02082152 33.7855392 19.4343691 16.3283232 2.02082152 -1.1288928"></polygon>
                </g>
                <g id="Group-23" transform="translate(0.000000, 34.457472)" fill="#FFFFFE">
                    <path d="M1.61003421,0.6419616 C0.72450869,0.7662816 0.117176276,1.6150176 0.117176276,2.5114656 L0.117176276,53.6090016 C0.117176276,54.5061216 0.72450869,55.3535136 1.61003421,55.4778336 C2.68794869,55.6317216 3.61302455,54.7950816 3.61302455,53.7447456 L3.61302455,2.3763936 C3.61302455,1.4080416 2.83006179,0.6238176 1.86476524,0.6238176 C1.78164248,0.6238176 1.69717903,0.6291936 1.61003421,0.6419616" id="Fill-21"></path>
                </g>
                <g id="Group-26" transform="translate(0.000000, 34.457472)">
                    <mask id="mask-4" fill="white">
                        <use xlink:href="#path-3"></use>
                    </mask>
                    <g id="Clip-25"></g>
                    <polygon id="Fill-24" fill="#FFFFFE" mask="url(#mask-4)" points="0.117310345 55.63152 3.61315862 55.63152 3.61315862 0.623616 0.117310345 0.623616"></polygon>
                </g>
                <g id="Group-29" transform="translate(34.857931, 31.769472)" fill="#FFFFFE">
                    <path d="M1.71413876,0.3341856 C0.828613241,0.4585056 0.219940138,1.3058976 0.219940138,2.2030176 L0.219940138,22.1244576 C0.219940138,23.0222496 0.828613241,23.8689696 1.71413876,23.9939616 C2.79272359,24.1465056 3.71578841,23.3118816 3.71578841,22.2595296 L3.71578841,2.0679456 C3.71578841,1.1009376 2.933496,0.3167136 1.96886979,0.3167136 C1.88574703,0.3167136 1.80061324,0.3214176 1.71413876,0.3341856" id="Fill-27"></path>
                </g>
                <g id="Group-32" transform="translate(34.857931, 31.769472)">
                    <mask id="mask-6" fill="white">
                        <use xlink:href="#path-5"></use>
                    </mask>
                    <g id="Clip-31"></g>
                    <polygon id="Fill-30" fill="#FFFFFE" mask="url(#mask-6)" points="0.849326897 -1.030176 -8.91558621 19.853568 3.08626759 25.493664 12.8511807 4.609248"></polygon>
                </g>
                <g id="Group-35" transform="translate(43.572414, 21.017472)" fill="#FFFFFE">
                    <path d="M1.74028221,0.342384 C0.854086345,0.468048 0.246753931,1.31544 0.246753931,2.211216 L0.246753931,32.876592 C0.246753931,33.774384 0.854086345,34.621104 1.74028221,34.746096 C2.81819669,34.89864 3.74327255,34.064016 3.74327255,33.011664 L3.74327255,2.07816 C3.74327255,1.11048 2.96030979,0.32424 1.9943429,0.32424 C1.91122014,0.32424 1.82675669,0.330288 1.74028221,0.342384" id="Fill-33"></path>
                </g>
                <g id="Group-38" transform="translate(43.572414, 21.017472)">
                    <mask id="mask-8" fill="white">
                        <use xlink:href="#path-7"></use>
                    </mask>
                    <g id="Clip-37"></g>
                    <polygon id="Fill-36" fill="#FFFFFE" mask="url(#mask-8)" points="-16.9979338 17.6115744 1.99494621 36.6513504 20.9878262 17.6115744 1.99494621 -1.4282016"></polygon>
                </g>
                <g id="Group-41" transform="translate(26.143448, 49.241472)" fill="#FFFFFE">
                    <path d="M1.68792828,0.3725568 C0.802402759,0.4982208 0.193729655,1.3456128 0.193729655,2.2413888 L0.193729655,22.1776128 C0.193729655,23.0747328 0.802402759,23.9207808 1.68792828,24.0464448 C2.76584276,24.1989888 3.69024828,23.3630208 3.69024828,22.3113408 L3.69024828,2.1083328 C3.69024828,1.1406528 2.90795586,0.3550848 1.94265931,0.3550848 C1.85886621,0.3550848 1.77440276,0.3597888 1.68792828,0.3725568" id="Fill-39"></path>
                </g>
                <g id="Group-44" transform="translate(26.143448, 49.241472)">
                    <mask id="mask-10" fill="white">
                        <use xlink:href="#path-9"></use>
                    </mask>
                    <g id="Clip-43"></g>
                    <polygon id="Fill-42" fill="#FFFFFE" mask="url(#mask-10)" points="0.571804138 -0.7325472 -7.18542621 21.6255648 3.31351448 25.2859488 11.0707448 2.9285088"></polygon>
                </g>
                <g id="Group-47" transform="translate(17.428966, 6.905472)" fill="#FFFFFE">
                    <path d="M1.66238814,0.5677728 C0.776192276,0.6934368 0.168189517,1.5394848 0.168189517,2.4366048 L0.168189517,55.7510688 C0.168189517,56.6481888 0.776192276,57.4949088 1.66238814,57.6199008 C2.73963228,57.7731168 3.66403779,56.9378208 3.66403779,55.8854688 L3.66403779,2.3022048 C3.66403779,1.3345248 2.88107503,0.5503008 1.91711917,0.5503008 C1.83265572,0.5503008 1.74886262,0.5556768 1.66238814,0.5677728" id="Fill-45"></path>
                </g>
                <g id="Group-50" transform="translate(17.428966, 6.905472)">
                    <mask id="mask-12" fill="white">
                        <use xlink:href="#path-11"></use>
                    </mask>
                    <g id="Clip-49"></g>
                    <polygon id="Fill-48" fill="#FFFFFE" mask="url(#mask-12)" points="1.32527172 -1.0984512 -26.689109 38.8425408 2.50776 59.4225408 30.5221407 19.4815488"></polygon>
                </g>
                <g id="Group-53" transform="translate(8.714483, 16.313472)" fill="#FFFFFE">
                    <path d="M1.63624469,0.158928 C0.749378483,0.284592 0.142716414,1.131984 0.142716414,2.02776 L0.142716414,37.580592 C0.142716414,38.478384 0.749378483,39.325104 1.63624469,39.450096 C2.71482952,39.60264 3.63789434,38.768016 3.63789434,37.715664 L3.63789434,1.89336 C3.63789434,0.926352 2.85560193,0.140784 1.89097572,0.140784 C1.80718262,0.140784 1.72271917,0.146832 1.63624469,0.158928" id="Fill-51"></path>
                </g>
                <g id="Group-56" transform="translate(8.714483, 16.313472)">
                    <mask id="mask-14" fill="white">
                        <use xlink:href="#path-13"></use>
                    </mask>
                    <g id="Clip-55"></g>
                    <polygon id="Fill-54" fill="#FFFFFE" mask="url(#mask-14)" points="0.142783448 39.602304 3.63796138 39.602304 3.63796138 0.140448 0.142783448 0.140448"></polygon>
                </g>
                <g id="Group-59" transform="translate(52.286897, 34.457472)" fill="#FFFFFE">
                    <path d="M1.74490759,0.4884096 C0.858711724,0.6134016 0.250708966,1.4614656 0.250708966,2.3585856 L0.250708966,29.8595136 C0.250708966,30.7559616 0.858711724,31.6026816 1.74490759,31.7276736 C2.82215172,31.8795456 3.74655724,31.0449216 3.74655724,29.9939136 L3.74655724,2.2228416 C3.74655724,1.2551616 2.96359448,0.4709376 1.99896828,0.4702656 C1.91584552,0.4702656 1.83071172,0.4756416 1.74490759,0.4884096" id="Fill-57"></path>
                </g>
                <g id="Group-62" transform="translate(52.286897, 34.457472)">
                    <mask id="mask-16" fill="white">
                        <use xlink:href="#path-15"></use>
                    </mask>
                    <g id="Clip-61"></g>
                    <polygon id="Fill-60" fill="#FFFFFE" mask="url(#mask-16)" points="-15.4156519 16.174704 1.99923641 33.63192 19.412784 16.174704 1.99923641 -1.282512"></polygon>
                </g>
                <g id="Group-65" transform="translate(0.000000, 34.457472)" fill="#FFFFFE">
                    <path d="M1.58777876,0.4884096 C0.701582897,0.6134016 0.0942504828,1.4614656 0.0942504828,2.3585856 L0.0942504828,53.4561216 C0.0942504828,54.3525696 0.701582897,55.1999616 1.58777876,55.3249536 C2.66636359,55.4781696 3.5907691,54.6422016 3.5907691,53.5911936 L3.5907691,2.2228416 C3.5907691,1.2551616 2.80780634,0.4709376 1.84318014,0.4702656 C1.75871669,0.4702656 1.67492359,0.4756416 1.58777876,0.4884096" id="Fill-63"></path>
                </g>
                <g id="Group-68" transform="translate(0.000000, 34.457472)">
                    <mask id="mask-18" fill="white">
                        <use xlink:href="#path-17"></use>
                    </mask>
                    <g id="Clip-67"></g>
                    <polygon id="Fill-66" fill="#FFFFFE" mask="url(#mask-18)" points="0.0945186207 55.477632 3.59103724 55.477632 3.59103724 0.469728 0.0945186207 0.469728"></polygon>
                </g>
                <g id="Group-71" transform="translate(34.857931, 31.769472)" fill="#FFFFFE">
                    <path d="M1.69188331,0.1809696 C0.807028138,0.3052896 0.19768469,1.1526816 0.19768469,2.0504736 L0.19768469,21.9719136 C0.19768469,22.8690336 0.807028138,23.7157536 1.69188331,23.8407456 C2.77046814,23.9932896 3.69420331,23.1586656 3.69420331,22.1063136 L3.69420331,1.9147296 C3.69420331,0.9477216 2.91124055,0.1634976 1.94728469,0.1634976 C1.86349159,0.1634976 1.77835779,0.1682016 1.69188331,0.1809696" id="Fill-69"></path>
                </g>
                <g id="Group-74" transform="translate(34.857931, 31.769472)">
                    <mask id="mask-20" fill="white">
                        <use xlink:href="#path-19"></use>
                    </mask>
                    <g id="Clip-73"></g>
                    <polygon id="Fill-72" fill="#FFFFFE" mask="url(#mask-20)" points="0.827741793 -1.183392 -8.93717131 19.700352 3.06468248 25.340448 12.8295956 4.456032"></polygon>
                </g>
                <g id="Group-77" transform="translate(43.572414, 21.017472)" fill="#FFFFFE">
                    <path d="M1.7186971,0.189168 C0.832501241,0.314832 0.224498483,1.162224 0.224498483,2.058 L0.224498483,32.724048 C0.224498483,33.621168 0.832501241,34.467888 1.7186971,34.59288 C2.79661159,34.745424 3.7210171,33.9108 3.7210171,32.858448 L3.7210171,1.924944 C3.7210171,0.957264 2.93872469,0.171696 1.97208745,0.171696 C1.88896469,0.171696 1.80450124,0.177072 1.7186971,0.189168" id="Fill-75"></path>
                </g>
                <g id="Group-80" transform="translate(43.572414, 21.017472)">
                    <mask id="mask-22" fill="white">
                        <use xlink:href="#path-21"></use>
                    </mask>
                    <g id="Clip-79"></g>
                    <polygon id="Fill-78" fill="#FFFFFE" mask="url(#mask-22)" points="-17.0201892 17.4583584 1.97269076 36.4981344 20.9655708 17.4583584 1.97269076 -1.5814176"></polygon>
                </g>
                <g id="Group-86" transform="translate(26.143448, 49.241472)">
                    <mask id="mask-24" fill="white">
                        <use xlink:href="#path-23"></use>
                    </mask>
                    <g id="Clip-85"></g>
                    <polygon id="Fill-84" fill="#FFFFFE" mask="url(#mask-24)" points="0.54954869 -0.8860992 -7.20768166 21.4720128 3.29125903 25.1323968 11.0484894 2.7749568"></polygon>
                </g>
                <g id="Group-89" transform="translate(17.428966, 6.905472)" fill="#FFFFFE">
                    <path d="M1.64080303,0.4145568 C0.754607172,0.5402208 0.146604414,1.3862688 0.146604414,2.2833888 L0.146604414,55.5978528 C0.146604414,56.4949728 0.754607172,57.3410208 1.64080303,57.4666848 C2.71737683,57.6199008 3.64178234,56.7839328 3.64178234,55.7322528 L3.64178234,2.1489888 C3.64178234,1.1813088 2.85881959,0.3964128 1.89486372,0.3964128 C1.81107062,0.3964128 1.72727752,0.4024608 1.64080303,0.4145568" id="Fill-87"></path>
                </g>
                <g id="Group-92" transform="translate(17.428966, 6.905472)">
                    <mask id="mask-26" fill="white">
                        <use xlink:href="#path-25"></use>
                    </mask>
                    <g id="Clip-91"></g>
                    <polygon id="Fill-90" fill="#FFFFFE" mask="url(#mask-26)" points="1.30301628 -1.2520032 -26.7113644 38.6889888 2.4861749 59.2689888 30.4998852 19.3279968"></polygon>
                </g>
                <g id="Group-95" transform="translate(8.714483, 15.641472)" fill="#FFFFFE">
                    <path d="M1.6133189,0.677712 C0.727123034,0.803376 0.120460966,1.650768 0.120460966,2.546544 L0.120460966,38.100048 C0.120460966,38.997168 0.727123034,39.843888 1.6133189,39.96888 C2.69257407,40.121424 3.6156389,39.2868 3.6156389,38.234448 L3.6156389,2.412144 C3.6156389,1.445136 2.83334648,0.659568 1.86872028,0.659568 C1.78559752,0.659568 1.70046372,0.665616 1.6133189,0.677712" id="Fill-93"></path>
                </g>
                <g id="Group-98" transform="translate(8.714483, 15.641472)">
                    <mask id="mask-28" fill="white">
                        <use xlink:href="#path-27"></use>
                    </mask>
                    <g id="Clip-97"></g>
                    <polygon id="Fill-96" fill="#FFFFFE" mask="url(#mask-28)" points="0.120662069 40.121088 3.61584 40.121088 3.61584 0.659232 0.120662069 0.659232"></polygon>
                </g>
                <path d="M19.3237622,0.31752 C18.3712022,0.31752 17.5996353,1.090992 17.5996353,2.045904 C17.5996353,3.000144 18.3712022,3.77496 19.3237622,3.77496 C20.2756519,3.77496 21.0472188,3.000144 21.0472188,2.045904 C21.0472188,1.090992 20.2756519,0.31752 19.3237622,0.31752" id="Fill-99" fill="#FFFFFE"></path>
                <path d="M10.583069,12.7728384 C11.535629,12.7728384 12.3071959,11.9986944 12.3071959,11.0444544 C12.3071959,10.0895424 11.535629,9.3160704 10.583069,9.3160704 C9.63050897,9.3160704 8.85894207,10.0895424 8.85894207,11.0444544 C8.85894207,11.9986944 9.63050897,12.7728384 10.583069,12.7728384" id="Fill-101" fill="#FFFFFE"></path>
                <path d="M1.84244276,31.398864 C2.79500276,31.398864 3.56656966,30.62472 3.56656966,29.67048 C3.56656966,28.715568 2.79500276,27.942096 1.84244276,27.942096 C0.890553103,27.942096 0.118315862,28.715568 0.118315862,29.67048 C0.118315862,30.62472 0.890553103,31.398864 1.84244276,31.398864" id="Fill-102" fill="#FFFFFE"></path>
                <path d="M28.0598301,45.915072 C29.0117197,45.915072 29.783957,45.140256 29.783957,44.186688 C29.783957,43.231776 29.0117197,42.457632 28.0598301,42.457632 C27.1072701,42.457632 26.3357032,43.231776 26.3357032,44.186688 C26.3357032,45.140256 27.1072701,45.915072 28.0598301,45.915072" id="Fill-103" fill="#FFFFFE"></path>
                <path d="M36.8005233,28.3853472 C37.752413,28.3853472 38.5239799,27.6118752 38.5239799,26.6569632 C38.5239799,25.7020512 37.752413,24.9279072 36.8005233,24.9279072 C35.8479633,24.9279072 35.0763964,25.7020512 35.0763964,26.6569632 C35.0763964,27.6118752 35.8479633,28.3853472 36.8005233,28.3853472" id="Fill-104" fill="#FFFFFE"></path>
                <path d="M45.5451046,17.6605632 C46.4969942,17.6605632 47.2692314,16.8864192 47.2692314,15.9321792 C47.2692314,14.9772672 46.4969942,14.2037952 45.5451046,14.2037952 C44.5925446,14.2037952 43.821648,14.9772672 43.821648,15.9321792 C43.821648,16.8864192 44.5925446,17.6605632 45.5451046,17.6605632" id="Fill-105" fill="#FFFFFE"></path>
                <path d="M54.2864011,31.398864 C55.2382908,31.398864 56.0091873,30.62472 56.0091873,29.67048 C56.0091873,28.715568 55.2382908,27.942096 54.2864011,27.942096 C53.3338411,27.942096 52.5622742,28.715568 52.5622742,29.67048 C52.5622742,30.62472 53.3338411,31.398864 54.2864011,31.398864" id="Fill-106" fill="#FFFFFE"></path>
                <path d="M38.7008839,73.0152864 C37.4661087,73.0152864 36.4270742,73.7417184 35.9906797,74.9116704 L27.5389721,97.5338784 L19.0872646,74.9109984 C18.6501997,73.7417184 17.6111652,73.0152864 16.3763901,73.0152864 C14.8312452,73.0152864 13.5689859,74.1012384 13.4288839,75.5467104 L10.1777114,98.8691424 L10.1683266,99.0909024 C10.1683266,99.8737824 10.8487266,100.53503 11.6551514,100.53503 C12.389179,100.53503 13.009248,100.012214 13.1299101,99.2918304 L16.3341583,75.9821664 C16.3361694,75.9814944 16.3375101,75.9801504 16.3401914,75.9788064 L24.7992728,98.6218464 C25.2142163,99.8018784 26.2733611,100.53503 27.5617639,100.53503 C28.7838025,100.53503 29.8757942,99.7662624 30.2726383,98.6393184 L38.726357,75.9734304 C38.7350714,75.9788064 38.7411046,75.9835104 38.7444563,75.9875424 L41.9487046,99.2918304 C42.0680259,100.012214 42.6880949,100.53503 43.4227928,100.53503 C44.2285473,100.53503 44.9096177,99.8737824 44.9096177,99.0909024 L44.9096177,98.9336544 L41.6483901,75.5467104 C41.5089583,74.1012384 40.246699,73.0152864 38.7008839,73.0152864" id="Fill-107" fill="#FFFFFE"></path>
                <path d="M66.2741106,91.6002528 C66.2741106,94.7277408 63.6383148,97.3707168 60.5178596,97.3707168 L55.4299423,97.3707168 C53.1795948,97.3707168 51.4159175,95.6033568 51.4159175,93.3467808 C51.4159175,91.1533728 53.2164637,89.3685408 55.4299423,89.3685408 L66.2741106,89.3685408 L66.2741106,91.6002528 Z M60.5178596,79.1729568 L52.4046761,79.1729568 C51.5593713,79.1729568 50.8715975,79.8825888 50.8715975,80.7555168 C50.8715975,81.6029088 51.5593713,82.2917088 52.4046761,82.2917088 L60.5178596,82.2917088 C62.9793658,82.2917088 65.2129548,83.9313888 65.9925658,86.2497888 L55.4299423,86.2497888 C51.5010513,86.2497888 48.3048472,89.4330528 48.3048472,93.3467808 C48.3048472,97.2853728 51.5010513,100.489469 55.4299423,100.489469 L60.5178596,100.489469 C65.3497051,100.489469 69.4314348,96.4184928 69.4314348,91.6002528 L69.4314348,88.0621728 C69.4314348,83.2439328 65.3497051,79.1729568 60.5178596,79.1729568 L60.5178596,79.1729568 Z" id="Fill-108" fill="#FFFFFE"></path>
                <path d="M76.1021032,72.9230208 C75.2574687,72.9230208 74.5696949,73.6124928 74.5696949,74.4598848 L74.5696949,98.9529408 C74.5696949,99.8003328 75.2574687,100.489133 76.1021032,100.489133 C76.9728811,100.489133 77.6807652,99.8003328 77.6807652,98.9529408 L77.6807652,74.4598848 C77.6807652,73.6124928 76.9728811,72.9230208 76.1021032,72.9230208" id="Fill-109" fill="#FFFFFE"></path>
                <path d="M132.184559,79.1731584 L132.184559,79.1731584 L132.183889,79.1731584 L132.183218,79.1731584 L126.609972,79.1731584 C121.82438,79.1731584 117.846554,83.1097344 117.74265,87.9501504 L117.74265,98.9064384 C117.74265,99.7941504 118.435787,100.488998 119.321312,100.488998 C120.165947,100.488998 120.853721,99.7800384 120.853721,98.9064384 L120.853721,87.9488064 C120.932151,84.8817984 123.567947,82.2919104 126.609972,82.2919104 L132.184559,82.2919104 C133.069414,82.2912384 133.762551,81.5957184 133.762551,80.7093504 C133.762551,79.8626304 133.054667,79.1738304 132.184559,79.1731584" id="Fill-110" fill="#FFFFFE"></path>
                <path d="M85.1072474,72.9230208 C84.262613,72.9230208 83.5748392,73.6124928 83.5748392,74.4598848 L83.5748392,98.9529408 C83.5748392,99.8003328 84.262613,100.489133 85.1072474,100.489133 C85.9786957,100.489133 86.6859095,99.8003328 86.6859095,98.9529408 L86.6859095,74.4598848 C86.6859095,73.6124928 85.9786957,72.9230208 85.1072474,72.9230208" id="Fill-111" fill="#FFFFFE"></path>
                <path d="M145.629397,88.3262016 C141.452479,87.7314816 138.915223,87.1999296 138.915223,84.8452416 C138.915223,83.4857856 140.060843,82.3380096 141.41695,82.3380096 L151.05919,82.3380096 L151.05919,82.2916416 C151.944046,82.2916416 152.637182,81.5967936 152.637182,80.7097536 C152.637182,79.8623616 151.928628,79.1728896 151.05919,79.1728896 L141.41695,79.1728896 C138.296495,79.1728896 135.757899,81.7170816 135.757899,84.8452416 C135.757899,90.2555136 141.598614,90.9886656 145.863348,91.5235776 C146.756247,91.6358016 147.59887,91.7419776 148.296699,91.8790656 C150.753513,92.3582016 151.848186,93.2654016 151.848186,94.8170496 C151.848186,96.1765056 150.702567,97.3249536 149.34713,97.3249536 L136.84788,97.3249536 C135.963025,97.3249536 135.269218,98.0198016 135.269218,98.9075136 C135.269218,99.7542336 135.977102,100.443706 136.84788,100.443706 L136.84788,100.489402 L149.34713,100.489402 C152.466914,100.489402 155.00551,97.9452096 155.00551,94.8170496 C155.00551,89.6621376 149.806316,88.9209216 145.629397,88.3262016" id="Fill-112" fill="#FFFFFE"></path>
                <path d="M110.423222,90.2480544 L95.3820248,90.2480544 L95.3820248,88.0620384 C95.3820248,84.9345504 98.0178207,82.2915744 101.137606,82.2915744 L104.667641,82.2915744 C107.786756,82.2915744 110.423222,84.9345504 110.423222,88.0620384 L110.423222,90.2480544 Z M104.667641,79.1728224 L101.137606,79.1728224 C96.3312331,79.1728224 92.2702841,83.2444704 92.2702841,88.0620384 L92.2702841,91.2332064 C92.2702841,96.4230624 96.1649876,100.489334 101.137606,100.489334 L109.664392,100.489334 C110.509026,100.489334 111.1968,99.7797024 111.1968,98.9067744 C111.1968,98.0600544 110.509026,97.3705824 109.664392,97.3705824 L101.137606,97.3705824 C98.8939614,97.3705824 96.7890786,95.9909664 95.9002014,93.9380064 L95.6501628,93.3668064 L111.497785,93.3668064 C112.620612,93.3668064 113.534963,92.4307104 113.534963,91.2782304 L113.534963,88.0620384 C113.534963,83.2444704 109.474014,79.1728224 104.667641,79.1728224 L104.667641,79.1728224 Z" id="Fill-113" fill="#FFFFFE"></path>
            </g>
        </g>
    </g>
</svg>