<?xml version="1.0" encoding="UTF-8"?>
<svg width="156px" height="108px" viewBox="0 0 156 108" version="1.1" xmlns="http://www.w3.org/2000/svg" xmlns:xlink="http://www.w3.org/1999/xlink">
    <!-- Generator: Sketch 58 (84663) - https://sketch.com -->
    <title>ar-logo</title>
    <desc>Created with Sketch.</desc>
    <defs>
        <path d="M17.9152819,75.0033214 C18.2997274,74.6591779 18.7563341,74.4858593 19.2857242,74.4858593 C19.8157363,74.4858593 20.272343,74.6591779 20.6567885,75.0033214 C21.0399898,75.3493352 21.2328346,75.7869959 21.2328346,76.3175503 C21.2328346,76.8749131 21.0399898,77.3194317 20.6567885,77.6504828 C20.272343,77.9827807 19.8157363,78.1486179 19.2857242,78.1486179 C18.7563341,78.1486179 18.2997274,77.9827807 17.9152819,77.6504828 C17.5314586,77.3194317 17.34048,76.8749131 17.34048,76.3175503 C17.34048,75.7869959 17.5314586,75.3493352 17.9152819,75.0033214 Z" id="path-1"></path>
        <path d="M142.723192,84.8949517 C144.047601,83.5813462 145.808087,82.9248552 148.005896,82.9248552 C150.255959,82.9248552 152.030753,83.6087779 153.328412,84.9747531 C154.624827,86.3419752 155.274278,88.3114483 155.274278,90.8862897 C155.274278,93.6456717 154.565729,95.7018041 153.149253,97.0553103 C151.732777,98.4088166 149.740255,99.0852579 147.171686,99.0852579 L137.758994,99.0852579 L137.362107,99.0852579 L131.88096,99.0852579 L131.483451,99.0852579 L126.003548,99.0852579 L125.606039,99.0852579 L120.126136,99.0852579 L119.728005,99.0852579 L114.24748,99.0852579 L113.850593,99.0852579 L109.878612,99.0852579 C109.666483,100.013572 109.3486,100.869567 108.925586,101.652618 C108.501327,102.435046 107.94581,103.171338 107.257167,103.862119 C106.568525,104.551652 105.728717,105.208143 104.735255,105.832215 C103.742415,106.455663 102.557353,107.08597 101.18069,107.723134 C101.157673,107.733109 101.138388,107.733109 101.115994,107.741214 C100.925015,107.819768 100.717862,107.86341 100.493292,107.86341 C100.086451,107.86341 99.7362202,107.736226 99.4419763,107.481236 C99.1471104,107.226869 99.0002995,106.886466 99.0002995,106.458781 C99.0002995,106.052292 99.1471104,105.716877 99.4419763,105.451912 C99.5371546,105.365876 99.6404198,105.29979 99.7474176,105.241186 C99.8177126,105.19131 99.8954726,105.142681 99.9894067,105.095923 C100.942433,104.617738 101.782241,104.153269 102.510697,103.702516 C103.238531,103.251139 103.874918,102.787294 104.417372,102.309732 C104.959826,101.831548 105.410212,101.334036 105.767908,100.817197 C106.124982,100.299112 106.409272,99.7224221 106.621402,99.0852579 L103.365435,99.0852579 C100.981624,99.0852579 99.1352909,98.4225324 97.8245683,97.095211 C96.5132237,95.7685131 95.8587955,93.6986648 95.8587955,90.8862897 C95.8587955,88.4716745 96.507625,86.5408552 97.8046618,85.0944552 C99.1016986,83.6486786 100.888934,82.9248552 103.166369,82.9248552 C104.225149,82.9248552 105.191862,83.0782234 106.065884,83.3830897 C106.939284,83.6879559 107.69449,84.1530483 108.329633,84.7758731 C108.964777,85.3993214 109.454976,86.1823724 109.798986,87.1237793 C110.142996,88.0664331 110.315313,89.1873931 110.315313,90.4879062 L110.315313,94.2292193 C110.315313,94.5216166 110.309092,94.8002979 110.295406,95.0652634 C110.28172,95.3308524 110.2755,95.5964414 110.2755,95.8614069 L113.850593,95.8614069 L114.24748,95.8614069 L119.728005,95.8614069 L120.126136,95.8614069 L125.606039,95.8614069 L126.003548,95.8614069 L131.483451,95.8614069 L131.88096,95.8614069 L137.362107,95.8614069 L137.758994,95.8614069 L142.366118,95.8614069 C141.836106,95.1712497 141.432998,94.3551559 141.154929,93.4131255 C140.877481,92.4717186 140.737513,91.5222069 140.737513,90.5670841 C140.737513,88.0994759 141.399406,86.2085572 142.723192,84.8949517 Z M144.2927,93.6319559 C144.57077,94.4817159 144.973878,95.2242428 145.50389,95.8614069 L147.6482,95.8614069 C148.945859,95.8614069 150.018324,95.4829738 150.865597,94.726731 C151.712248,93.9704883 152.136507,92.7304497 152.136507,91.0047448 C152.136507,90.3950124 152.076787,89.7915145 151.957348,89.194251 C151.839153,88.597611 151.620803,88.0664331 151.302298,87.6019641 C150.984415,87.1381186 150.5614,86.76592 150.031388,86.4872386 C149.501376,86.2085572 148.826419,86.0695283 148.005896,86.0695283 C147.18475,86.0695283 146.509793,86.2085572 145.980403,86.4872386 C145.450391,86.76592 145.027377,87.1381186 144.708872,87.6019641 C144.392233,88.0664331 144.173261,88.597611 144.054444,89.194251 C143.934382,89.7915145 143.875907,90.3950124 143.875907,91.0047448 C143.875907,91.9074979 144.014008,92.7834428 144.2927,93.6319559 Z M101.795927,95.6419531 C102.444134,95.7884634 103.218624,95.8614069 104.120018,95.8614069 L107.178163,95.8614069 C107.203668,95.51664 107.223575,95.1643917 107.237261,94.8065324 C107.250947,94.4480497 107.257167,94.0696166 107.257167,93.6718566 L107.257167,90.4879062 C107.257167,89.1612083 106.952348,88.1063338 106.343954,87.3232828 C105.734316,86.5408552 104.715348,86.1493297 103.285809,86.1493297 C101.855025,86.1493297 100.783181,86.5738979 100.068411,87.4230345 C99.3530189,88.272171 98.995945,89.4130814 98.995945,90.8457655 C98.995945,91.8545048 99.0948557,92.683691 99.2945434,93.3333241 C99.4929869,93.9842041 99.7965619,94.4948083 100.207757,94.86576 C100.617085,95.2379586 101.147098,95.4966897 101.795927,95.6419531 Z" id="path-3"></path>
        <path d="M82.5288653,69.7445352 C82.8305741,69.4739586 83.1895142,69.3380469 83.6056858,69.3380469 C84.0218573,69.3380469 84.3807974,69.4739586 84.6825062,69.7445352 C84.983593,70.0157352 85.1347584,70.3598786 85.1347584,70.7769655 C85.1347584,70.7794593 85.1341363,70.7819531 85.1341363,70.7844469 L85.1347584,70.7844469 L85.1347584,70.7900579 L85.1347584,94.5478014 C85.1347584,96.0602869 84.7235635,97.1949628 83.9042842,97.9505821 C83.0831386,98.7074483 81.7587302,99.0852579 79.9316813,99.0852579 L77.0340326,99.0852579 L76.6359014,99.0852579 L71.1547546,99.0852579 L70.7584896,99.0852579 L65.2773427,99.0852579 L64.8804557,99.0852579 L59.3993088,99.0852579 L59.0017997,99.0852579 L53.5212749,99.0852579 L53.1243878,99.0852579 L47.643241,99.0852579 L47.2457318,99.0852579 L41.7658291,99.0852579 L41.36832,99.0852579 L37.7546573,99.0852579 C37.5692774,100.093997 37.2974285,100.996127 36.9403546,101.79227 C36.5832806,102.588414 36.119831,103.324706 35.5506278,104.001148 C34.9808026,104.678212 34.2859392,105.314753 33.4660378,105.912017 C32.7008794,106.468132 31.8162816,107.029859 30.8228198,107.597821 C30.7686989,107.633981 30.7127117,107.665153 30.6561024,107.693832 C30.6393062,107.703183 30.6231322,107.713159 30.6057139,107.723134 C30.442729,107.814781 30.2965402,107.854681 30.1646592,107.844083 C30.0893875,107.854058 30.0122496,107.86341 29.9326234,107.86341 C29.525783,107.86341 29.1761741,107.736226 28.8813082,107.481236 C28.5864422,107.226869 28.4396314,106.886466 28.4396314,106.458781 C28.4396314,106.052292 28.5864422,105.716877 28.8813082,105.451912 C28.9845734,105.359018 29.0971699,105.289192 29.2134989,105.228094 C29.2775731,105.183829 29.3372928,105.138941 29.4138086,105.095923 C30.4470835,104.484943 31.3273267,103.881446 32.0551603,103.284806 C32.7829939,102.687542 33.3658829,101.984292 33.802583,101.175057 C34.2399053,100.365197 34.5577882,99.4100745 34.7556096,98.3090648 C34.9546752,97.2080552 35.0535859,95.8614069 35.0535859,94.26912 L35.0535859,83.7216221 C35.0535859,83.7085297 35.0579405,83.7004248 35.0585626,83.6879559 C35.0579405,83.6711228 35.0535859,83.6555366 35.0535859,83.63808 C35.0535859,83.2197462 35.2053734,82.8737324 35.5089485,82.6012855 C35.8112794,82.3294621 36.1720858,82.1929269 36.5901235,82.1929269 C37.0087834,82.1929269 37.3689677,82.3294621 37.6719206,82.6012855 C37.9748736,82.8737324 38.1266611,83.2197462 38.1266611,83.63808 C38.1266611,83.6948138 38.1173299,83.7459366 38.1123533,83.7995531 L38.1123533,95.8614069 L41.36832,95.8614069 L41.7658291,95.8614069 L47.2457318,95.8614069 L47.643241,95.8614069 L53.1243878,95.8614069 L53.5212749,95.8614069 L59.0017997,95.8614069 L59.3993088,95.8614069 L64.8804557,95.8614069 L65.2773427,95.8614069 L70.7584896,95.8614069 L71.1547546,95.8614069 L76.6359014,95.8614069 L77.0340326,95.8614069 L79.2971597,95.8614069 C80.4623155,95.8614069 81.2162765,95.655669 81.5596646,95.2448166 C81.904919,94.8333407 82.0772352,94.0440552 82.0772352,92.8757131 L82.0772352,70.7844469 L82.0778573,70.7844469 C82.0778573,70.7819531 82.0772352,70.7794593 82.0772352,70.7769655 C82.0772352,70.3598786 82.2271565,70.0157352 82.5288653,69.7445352 Z" id="path-5"></path>
        <path d="M18.187753,82.5994152 C18.4894618,82.3288386 18.8484019,82.1929269 19.2651955,82.1929269 C19.681367,82.1929269 20.0403072,82.3288386 20.3426381,82.5994152 C20.6437248,82.8706152 20.7955123,83.2153821 20.7955123,83.632469 C20.7955123,83.6511724 20.7911578,83.6680055 20.7911578,83.686709 C20.7911578,83.6991779 20.7955123,83.7079062 20.7955123,83.7216221 L20.7955123,94.8258593 C20.7955123,96.5515641 20.6692301,98.0509572 20.4179098,99.3246621 C20.1659674,100.598367 19.7560166,101.725561 19.1868134,102.707492 C18.6169882,103.6888 17.8499635,104.571603 16.8832512,105.354654 C15.9445325,106.114014 14.7837312,106.880855 13.4083123,107.653308 C13.3940045,107.663283 13.3784525,107.670764 13.3635226,107.680116 C13.3380173,107.694455 13.3150003,107.708171 13.288873,107.723134 C13.1588582,107.796701 13.0387968,107.832861 12.9293107,107.841589 C12.8136038,107.86528 12.6954086,107.882113 12.5703706,107.882113 C12.1635302,107.882113 11.8132992,107.75493 11.5190554,107.500563 C11.2241894,107.246819 11.0773786,106.905793 11.0773786,106.478108 C11.0773786,106.070996 11.2241894,105.734957 11.5190554,105.470615 C11.6416051,105.360888 11.7753523,105.279217 11.9165645,105.215625 C11.97504,105.175101 12.0279168,105.133953 12.0969677,105.095923 C13.1296205,104.484943 14.0104858,103.881446 14.7389414,103.284806 C15.466153,102.687542 16.0490419,101.984292 16.4857421,101.175057 C16.9230643,100.365197 17.2409472,99.4100745 17.4387686,98.3090648 C17.6378342,97.2080552 17.736745,95.8614069 17.736745,94.26912 L17.736745,83.7216221 C17.736745,83.7104 17.7404774,83.7041655 17.7404774,83.6935669 C17.7398554,83.6723697 17.7348787,83.6542897 17.7348787,83.632469 C17.7348787,83.2153821 17.8854221,82.8706152 18.187753,82.5994152 Z" id="path-7"></path>
        <path d="M17.627881,2.21012414 C17.627881,1.25749517 18.3992602,0.485666207 19.3491763,0.485666207 C20.2997146,0.485666207 21.0704717,1.25749517 21.0704717,2.21012414 C21.0704717,3.16337655 20.2997146,3.93520552 19.3491763,3.93520552 C18.3992602,3.93520552 17.627881,3.16337655 17.627881,2.21012414 Z" id="path-9"></path>
        <path d="M8.90258688,11.1908966 C8.90258688,10.2382676 9.673344,9.46581517 10.6238822,9.46581517 C11.5750426,9.46581517 12.3451776,10.2382676 12.3451776,11.1908966 C12.3451776,12.1429021 11.5750426,12.9159779 10.6238822,12.9159779 C9.673344,12.9159779 8.90258688,12.1429021 8.90258688,11.1908966 Z" id="path-11"></path>
        <path d="M0.1772928,29.7796303 C0.1772928,28.8263779 0.94804992,28.054549 1.89858816,28.054549 C2.8491264,28.054549 3.61988352,28.8263779 3.61988352,29.7796303 C3.61988352,30.7316359 2.8491264,31.5053352 1.89858816,31.5053352 C0.94804992,31.5053352 0.1772928,30.7316359 0.1772928,29.7796303 Z" id="path-13"></path>
        <path d="M26.3488205,44.2660745 C26.3488205,43.3134455 27.1195776,42.5416166 28.0694938,42.5416166 C29.0206541,42.5416166 29.7914112,43.3134455 29.7914112,44.2660745 C29.7914112,45.2187034 29.0206541,45.9911559 28.0694938,45.9911559 C27.1195776,45.9911559 26.3488205,45.2187034 26.3488205,44.2660745 Z" id="path-15"></path>
        <path d="M35.0741146,26.7721159 C35.0741146,25.8188634 35.8448717,25.0470345 36.7954099,25.0470345 C37.7459482,25.0470345 38.5167053,25.8188634 38.5167053,26.7721159 C38.5167053,27.7247448 37.7459482,28.4971972 36.7954099,28.4971972 C35.8448717,28.4971972 35.0741146,27.7247448 35.0741146,26.7721159 Z" id="path-17"></path>
        <path d="M52.5296794,29.7796303 C52.5296794,28.8263779 53.2998144,28.054549 54.2503526,28.054549 C55.2008909,28.054549 55.971648,28.8263779 55.971648,29.7796303 C55.971648,30.7316359 55.2008909,31.5053352 54.2503526,31.5053352 C53.2998144,31.5053352 52.5296794,30.7316359 52.5296794,29.7796303 Z" id="path-19"></path>
        <path d="M43.8037632,16.0687559 C43.8037632,15.1155034 44.5745203,14.3436745 45.5250586,14.3436745 C46.4762189,14.3436745 47.2463539,15.1155034 47.2463539,16.0687559 C47.2463539,17.0207614 46.4762189,17.7932138 45.5250586,17.7932138 C44.5745203,17.7932138 43.8037632,17.0207614 43.8037632,16.0687559 Z" id="path-21"></path>
        <path d="M53.996544,35.044651 C54.082391,35.0321821 54.1669939,35.026571 54.2503526,35.026571 C55.2139546,35.026571 55.995287,35.8089986 55.995287,36.7753434 L55.995287,64.4907366 C55.995287,65.54 55.0727424,66.3735503 53.996544,66.2208055 C53.1119462,66.0967393 52.5054182,65.25072 52.5054182,64.3560717 L52.5054182,36.9093848 C52.5054182,36.0147366 53.1119462,35.1693407 53.996544,35.044651 Z" id="path-23"></path>
        <path d="M1.6454016,35.044651 C1.73124864,35.0321821 1.81585152,35.026571 1.89921024,35.026571 C2.86281216,35.026571 3.64414464,35.8089986 3.64414464,36.7753434 L3.64414464,88.0396248 C3.64414464,89.0895117 2.72222208,89.9230621 1.6454016,89.7703172 C0.76080384,89.646251 0.15365376,88.8002317 0.15365376,87.9055834 L0.15365376,36.9093848 C0.15365376,36.0147366 0.76080384,35.1693407 1.6454016,35.044651 Z" id="path-25"></path>
        <path d="M36.5453338,32.0545931 C36.6311808,32.0421241 36.7157837,32.0365131 36.7985203,32.0365131 C37.7627443,32.0365131 38.5446989,32.8195641 38.5446989,33.7852855 L38.5446989,53.9363807 C38.5446989,54.9856441 37.6221542,55.8191945 36.5453338,55.6670731 C35.6613581,55.5423834 35.0548301,54.6969876 35.0548301,53.8023393 L35.0548301,33.9199503 C35.0548301,33.0253021 35.6613581,32.1792828 36.5453338,32.0545931 Z" id="path-27"></path>
        <path d="M45.2712499,21.3331531 C45.357097,21.3213076 45.4416998,21.3150731 45.5250586,21.3156539 C46.4886605,21.3156539 47.269993,22.0987476 47.269993,23.064469 L47.269993,53.9363807 C47.269993,54.9856441 46.3480704,55.8191945 45.2712499,55.6670731 C44.3866522,55.5423834 43.7795021,54.6969876 43.7795021,53.8023393 L43.7795021,23.1991338 C43.7795021,22.3032386 44.3866522,21.4578428 45.2712499,21.3331531 Z" id="path-29"></path>
        <path d="M27.8206618,49.5310952 C27.9065088,49.5186262 27.9911117,49.5130152 28.0744704,49.5130152 C29.0380723,49.5130152 29.8194048,50.2960662 29.8194048,51.2617876 L29.8194048,71.4253517 C29.8194048,72.4746152 28.8974822,73.3081655 27.8206618,73.1560441 C26.936064,73.0313545 26.3289139,72.1853352 26.3289139,71.2906869 L26.3289139,51.3964524 C26.3289139,50.5011807 26.936064,49.6557848 27.8206618,49.5310952 Z" id="path-31"></path>
        <path d="M19.0947456,7.47389793 C19.1805926,7.46205241 19.2651955,7.45644138 19.3479322,7.45644138 C20.3121562,7.45644138 21.0934886,8.23886897 21.0934886,9.20521379 L21.0934886,62.6808662 C21.0934886,63.7301297 20.1715661,64.5643034 19.0947456,64.4121821 C18.2107699,64.286869 17.6042419,63.4414731 17.6042419,62.5462014 L17.6042419,9.33987862 C17.6042419,8.4446069 18.2107699,7.59921103 19.0947456,7.47389793 Z" id="path-33"></path>
        <path d="M10.3706957,16.4559172 C10.4559206,16.4434483 10.5411456,16.4378372 10.6245043,16.4378372 C11.5874842,16.4378372 12.3688166,17.2202648 12.3688166,18.1866097 L12.3688166,53.9363807 C12.3688166,54.9856441 11.446272,55.8191945 10.3706957,55.6670731 C9.48609792,55.5423834 8.87894784,54.6969876 8.87894784,53.8023393 L8.87894784,18.3212745 C8.87894784,17.4260028 9.48609792,16.5799834 10.3706957,16.4559172 Z" id="path-35"></path>
    </defs>
    <g id="NEW-Android" stroke="none" stroke-width="1" fill="none" fill-rule="evenodd">
        <g id="00.02_Splash-Screen-AR_Purple" transform="translate(-102.000000, -238.000000)">
            <g id="ar-logo" transform="translate(102.000000, 238.000000)">
                <mask id="mask-2" fill="white">
                    <use xlink:href="#path-1"></use>
                </mask>
                <use id="Clip-70" fill="#FFFFFF" xlink:href="#path-1"></use>
                <mask id="mask-4" fill="white">
                    <use xlink:href="#path-3"></use>
                </mask>
                <use id="Clip-73" fill="#FFFFFF" xlink:href="#path-3"></use>
                <mask id="mask-6" fill="white">
                    <use xlink:href="#path-5"></use>
                </mask>
                <use id="Clip-76" fill="#FFFFFF" xlink:href="#path-5"></use>
                <mask id="mask-8" fill="white">
                    <use xlink:href="#path-7"></use>
                </mask>
                <use id="Clip-79" fill="#FFFFFF" xlink:href="#path-7"></use>
                <mask id="mask-10" fill="white">
                    <use xlink:href="#path-9"></use>
                </mask>
                <use id="Clip-82" fill="#FFFFFF" xlink:href="#path-9"></use>
                <mask id="mask-12" fill="white">
                    <use xlink:href="#path-11"></use>
                </mask>
                <use id="Clip-85" fill="#FFFFFF" xlink:href="#path-11"></use>
                <mask id="mask-14" fill="white">
                    <use xlink:href="#path-13"></use>
                </mask>
                <use id="Clip-88" fill="#FFFFFF" xlink:href="#path-13"></use>
                <mask id="mask-16" fill="white">
                    <use xlink:href="#path-15"></use>
                </mask>
                <use id="Clip-91" fill="#FFFFFF" xlink:href="#path-15"></use>
                <mask id="mask-18" fill="white">
                    <use xlink:href="#path-17"></use>
                </mask>
                <use id="Clip-94" fill="#FFFFFF" xlink:href="#path-17"></use>
                <mask id="mask-20" fill="white">
                    <use xlink:href="#path-19"></use>
                </mask>
                <use id="Clip-97" fill="#FFFFFF" xlink:href="#path-19"></use>
                <mask id="mask-22" fill="white">
                    <use xlink:href="#path-21"></use>
                </mask>
                <use id="Clip-100" fill="#FFFFFF" xlink:href="#path-21"></use>
                <mask id="mask-24" fill="white">
                    <use xlink:href="#path-23"></use>
                </mask>
                <use id="Clip-103" fill="#FFFFFF" xlink:href="#path-23"></use>
                <mask id="mask-26" fill="white">
                    <use xlink:href="#path-25"></use>
                </mask>
                <use id="Clip-106" fill="#FFFFFF" xlink:href="#path-25"></use>
                <mask id="mask-28" fill="white">
                    <use xlink:href="#path-27"></use>
                </mask>
                <use id="Clip-109" fill="#FFFFFF" xlink:href="#path-27"></use>
                <mask id="mask-30" fill="white">
                    <use xlink:href="#path-29"></use>
                </mask>
                <use id="Clip-112" fill="#FFFFFF" xlink:href="#path-29"></use>
                <mask id="mask-32" fill="white">
                    <use xlink:href="#path-31"></use>
                </mask>
                <use id="Clip-115" fill="#FFFFFF" xlink:href="#path-31"></use>
                <mask id="mask-34" fill="white">
                    <use xlink:href="#path-33"></use>
                </mask>
                <use id="Clip-118" fill="#FFFFFF" xlink:href="#path-33"></use>
                <mask id="mask-36" fill="white">
                    <use xlink:href="#path-35"></use>
                </mask>
                <use id="Clip-121" fill="#FFFFFF" xlink:href="#path-35"></use>
            </g>
        </g>
    </g>
</svg>