<svg width="23" height="22" viewBox="0 0 23 22" fill="none" xmlns="http://www.w3.org/2000/svg">
<path fill-rule="evenodd" clip-rule="evenodd" d="M15.7763 0.87868L7.24563 9.46447C7.0593 9.652 6.95462 9.90636 6.95462 10.1716V14.1716C6.95462 14.7239 7.39946 15.1716 7.9482 15.1716H11.9225C12.186 15.1716 12.4387 15.0662 12.6251 14.8787L21.1557 6.29289C22.3197 5.12132 22.3197 3.22183 21.1557 2.05025L19.9917 0.87868C18.8276 -0.292893 16.9403 -0.292893 15.7763 0.87868ZM19.7506 3.46447L19.8332 3.55867C20.1363 3.95096 20.1087 4.5182 19.7506 4.87868L11.5092 13.1716H8.94177V10.5856L17.1814 2.29289C17.5694 1.90237 18.1985 1.90237 18.5865 2.29289L19.7506 3.46447ZM10.9595 2.17157C10.9595 1.61929 10.5147 1.17157 9.96596 1.17157H5.96104L5.74555 1.17619C3.10184 1.28975 0.993164 3.48282 0.993164 6.17157V16.1716L0.997754 16.3885C1.11059 19.0493 3.28956 21.1716 5.96104 21.1716H15.8968L16.1123 21.167C18.756 21.0534 20.8647 18.8603 20.8647 16.1716V11.2533L20.858 11.1366C20.8006 10.6393 20.3806 10.2533 19.8711 10.2533C19.3224 10.2533 18.8775 10.701 18.8775 11.2533V16.1716L18.8725 16.3478C18.7818 17.9227 17.4842 19.1716 15.8968 19.1716H5.96104L5.7859 19.1665C4.22121 19.0752 2.98032 17.7693 2.98032 16.1716V6.17157L2.98538 5.9953C3.07604 4.42049 4.37363 3.17157 5.96104 3.17157H9.96596L10.0818 3.16485C10.576 3.10708 10.9595 2.68441 10.9595 2.17157Z" fill="#5E6278"/>
</svg>
