<svg width="79" height="79" viewBox="0 0 79 79" fill="none" xmlns="http://www.w3.org/2000/svg">
<rect width="79" height="79" fill="#E5E5E5"/>
<g clip-path="url(#clip0)">
<rect width="1152" height="1698" transform="translate(-755 -249)" fill="#F6F6F6"/>
<rect x="-706.5" y="-92.5" width="849" height="318" rx="2.5" fill="white" stroke="#EAEAEA"/>
<circle cx="39.5" cy="39.5" r="39.5" fill="#F6F6F6"/>
<path d="M42.5007 62.9359C42.5007 62.9359 37.5477 49.2963 50.1555 42.2072C50.1555 42.2072 46.1029 41.22 44.1219 39.0665L44.2118 35.0284L53.3073 35.2079C53.3073 35.2079 53.5775 34.0412 53.1271 32.1569C52.6768 30.2726 51.0559 27.9396 51.8663 19.5941C52.6768 11.2486 43.3111 5.0573 43.3111 5.0573C43.3111 5.0573 35.9264 2.45471 29.5328 5.4161C23.1391 8.3775 20.7973 14.3896 21.2474 19.0557C21.6974 23.7218 21.6075 29.0163 20.1668 31.5289C18.7261 34.0416 19.5365 35.0287 19.5365 35.0287L28.632 35.1183L28.722 38.7077C28.722 38.7077 27.8213 40.8612 19.4463 43.1047C11.0713 45.3481 10.0806 52.9756 10.0806 52.9756L9 62.6667L42.5007 62.9359Z" stroke="#93278F" stroke-width="0.5" stroke-miterlimit="10"/>
<path d="M57.3858 69C64.2615 69 69.8353 63.446 69.8353 56.5948C69.8353 49.7437 64.2615 44.1897 57.3858 44.1897C50.5101 44.1897 44.9363 49.7437 44.9363 56.5948C44.9363 63.446 50.5101 69 57.3858 69Z" stroke="#787878" stroke-width="0.5" stroke-miterlimit="10"/>
<path d="M54.6568 54.5906V49.7627L59.0804 49.7104L59.1856 54.5906H64.1359V59.2607L59.0804 59.3132L59.1328 64.2459L54.6568 64.2985L54.604 59.2607L49.3377 59.3132V54.748L54.6568 54.5906Z" stroke="#989DC8" stroke-width="0.5" stroke-miterlimit="10"/>
</g>
<defs>
<clipPath id="clip0">
<rect width="1152" height="1698" fill="white" transform="translate(-755 -249)"/>
</clipPath>
</defs>
</svg>
