<svg width="18" height="19" viewBox="0 0 18 19" fill="none" xmlns="http://www.w3.org/2000/svg">
<path fill-rule="evenodd" clip-rule="evenodd" d="M9.31056 0.199729C9.1978 0.085079 9.04373 0.0205078 8.88292 0.0205078C8.72211 0.0205078 8.56804 0.085079 8.45528 0.199729L0.656543 8.12924C0.424259 8.36542 0.427417 8.74519 0.663596 8.97747C0.899776 9.20976 1.27954 9.2066 1.51183 8.97042L8.88292 1.47572L14.434 7.11986C14.4474 7.13497 14.4616 7.14939 14.4765 7.16308L16.254 8.97042C16.4863 9.2066 16.8661 9.20976 17.1022 8.97747C17.3384 8.74519 17.3416 8.36542 17.1093 8.12924L15.4822 6.47482V1.82023C15.4822 1.48896 15.2136 1.22042 14.8823 1.22042H12.4827C12.1515 1.22042 11.8829 1.48896 11.8829 1.82023V2.81523L9.31056 0.199729ZM14.2825 2.42004V5.25508L13.0825 4.03496V2.42004H14.2825ZM3.48324 9.61863C3.48324 9.28736 3.2147 9.01882 2.88344 9.01882C2.55217 9.01882 2.28363 9.28736 2.28363 9.61863V16.2176C2.28363 16.6948 2.47323 17.1526 2.81072 17.4901C3.14821 17.8276 3.60595 18.0172 4.08324 18.0172H7.0643C7.0701 18.0173 7.07593 18.0174 7.08178 18.0174H10.6812C10.687 18.0174 10.6929 18.0173 10.6987 18.0172H13.6817C14.159 18.0172 14.6167 17.8276 14.9542 17.4901C15.2917 17.1526 15.4813 16.6948 15.4813 16.2176V9.61863C15.4813 9.28736 15.2128 9.01882 14.8815 9.01882C14.5502 9.01882 14.2817 9.28736 14.2817 9.61863V16.2176C14.2817 16.3767 14.2185 16.5293 14.1059 16.6418C13.9934 16.7543 13.8408 16.8176 13.6817 16.8176H11.2811V14.418C11.2811 13.7816 11.0283 13.1712 10.5783 12.7212C10.1283 12.2712 9.5179 12.0184 8.88149 12.0184C8.24507 12.0184 7.63472 12.2712 7.18471 12.7212C6.73469 13.1712 6.48188 13.7816 6.48188 14.418V16.8176H4.08324C3.92411 16.8176 3.7715 16.7543 3.65898 16.6418C3.54646 16.5293 3.48324 16.3767 3.48324 16.2176V9.61863ZM10.0813 16.8176H7.68168V14.418C7.68168 14.0998 7.80809 13.7946 8.0331 13.5696C8.2581 13.3446 8.56328 13.2182 8.88149 13.2182C9.19969 13.2182 9.50487 13.3446 9.72988 13.5696C9.95488 13.7946 10.0813 14.0998 10.0813 14.418V16.8176Z" fill="#5E6278"/>
</svg>
