<svg width="79" height="79" viewBox="0 0 79 79" fill="none" xmlns="http://www.w3.org/2000/svg">
<rect width="79" height="79" fill="#E5E5E5"/>
<g clip-path="url(#clip0)">
<rect width="1152" height="1698" transform="translate(-107 -249)" fill="#F6F6F6"/>
<rect x="-58.5" y="-92.5" width="849" height="318" rx="2.5" fill="white" stroke="#EAEAEA"/>
<circle cx="39.5" cy="39.5" r="39.5" fill="#F6F6F6"/>
<g clip-path="url(#clip1)">
<path d="M8.17141 35.8028C8.4283 35.5924 8.70984 35.4141 9.00979 35.2718C9.30763 35.1189 9.64058 35.0472 9.97497 35.0642C10.1442 35.0767 10.3076 35.1312 10.4504 35.2227C10.5882 35.3189 10.7047 35.4424 10.7928 35.5856C10.961 35.8747 11.0729 36.1931 11.1224 36.5239V36.5318L5.2426 59.864V59.8545C5.1539 60.4428 5.19611 61.0435 5.36622 61.6137C5.45193 61.8915 5.592 62.1496 5.77828 62.3728C5.96476 62.5914 6.20051 62.7625 6.4661 62.8721C6.53267 62.9006 6.6024 62.9212 6.66897 62.9465L6.88451 63.0036L7.32826 63.1209L8.21737 63.3586L9.99557 63.8341L17.1068 65.7359L31.3293 69.5284L45.547 73.3432L52.6566 75.245L54.4396 75.7221L55.3287 75.9598L55.7725 76.0802C56.4583 76.2791 57.1949 76.1988 57.8217 75.8568C58.3142 75.5597 58.7108 75.1273 58.9644 74.6111L58.9469 74.6539L61.8662 64.6487L61.8852 64.5837L61.9312 64.5441C62.1822 64.3166 62.4665 64.129 62.7743 63.9878C63.1051 63.8234 63.4829 63.7796 63.8425 63.8642C64.0283 63.9174 64.1985 64.0147 64.3386 64.1479C64.4704 64.2716 64.5817 64.4155 64.6682 64.5742C64.8272 64.8727 64.9409 65.1932 65.0058 65.5251L65.0185 65.579L65.0042 65.636L62.31 75.8805V75.9122L62.2957 75.9344C62.0651 76.3142 61.7998 76.6717 61.5033 77.0026C61.2139 77.333 60.8991 77.6404 60.5619 77.9218C59.8822 78.4878 59.1044 78.924 58.267 79.2087C57.4263 79.488 56.5389 79.5995 55.6552 79.5368C54.7794 79.4691 53.9188 79.2703 53.102 78.9472L53.1258 78.9552L30.0757 72.8344L7.03824 66.6773H7.05567C6.34109 66.5429 5.65558 66.2844 5.03023 65.9134C3.76668 65.1776 2.8221 63.998 2.38035 62.6042C2.16223 61.9189 2.03801 61.2071 2.01108 60.4884C1.98189 59.7747 2.02116 59.0599 2.12836 58.3536C2.17274 58.0002 2.24564 57.65 2.31537 57.2997C2.38511 56.9495 2.49605 56.6151 2.5848 56.2711L3.70371 52.1727L8.17141 35.8028ZM8.17141 35.8028L3.8511 52.2234L2.7734 56.3234C2.68781 56.6642 2.5848 57.0049 2.51348 57.3488C2.44216 57.6928 2.38035 58.0367 2.34073 58.3853C2.24054 59.0789 2.20816 59.7806 2.24406 60.4805C2.27615 61.177 2.40087 61.8661 2.61491 62.5297C2.82925 63.1899 3.16224 63.8054 3.59752 64.346C4.48366 65.4233 5.7219 66.153 7.09371 66.4063H7.11114L30.1803 72.4462L53.2399 78.5257H53.251H53.2636C54.0387 78.8307 54.8549 79.0187 55.6853 79.0835C56.5113 79.1392 57.3401 79.0315 58.1244 78.7666C58.9073 78.4959 59.6337 78.0833 60.2671 77.5494C60.5861 77.2835 60.8834 76.9925 61.1562 76.6793C61.4299 76.3719 61.6745 76.0398 61.8868 75.6872L61.8662 75.7411L64.5415 65.4934V65.6043C64.4863 65.3209 64.3902 65.0471 64.2562 64.7913C64.2022 64.6781 64.1264 64.5767 64.0331 64.493C63.9398 64.4092 63.8309 64.3447 63.7126 64.3032C63.4581 64.2493 63.1929 64.2845 62.9614 64.403C62.702 64.5222 62.4621 64.6798 62.2498 64.8706L62.3132 64.766L59.3748 74.7711V74.7933L59.3637 74.8123C59.0706 75.4048 58.6128 75.9001 58.0451 76.2387C57.4645 76.5659 56.7922 76.6929 56.1322 76.6001C55.9674 76.5806 55.8046 76.5467 55.6457 76.4986L55.2019 76.3782L54.3144 76.1389L52.5394 75.6634L45.4376 73.7442L31.2326 69.9056L17.0339 66.0418L9.93376 64.1098L8.16031 63.6344L7.27279 63.3919L6.82904 63.2714L6.59289 63.2017C6.51682 63.1732 6.43441 63.151 6.36467 63.1177C6.06154 62.9904 5.79275 62.7932 5.58017 62.5424C5.37308 62.2924 5.21791 62.0036 5.12373 61.6929C5.03181 61.3891 4.97856 61.075 4.96525 60.7579C4.94767 60.4403 4.962 60.1217 5.00804 59.8069V59.7974L11.0812 36.5302C11.0355 36.2028 10.9279 35.8871 10.7642 35.5999C10.6793 35.4588 10.5666 35.3364 10.433 35.2401C10.2959 35.1487 10.1388 35.0916 9.97497 35.0737C9.6435 35.0543 9.31276 35.1226 9.01613 35.2718C8.71396 35.4137 8.43028 35.592 8.17141 35.8028Z" fill="#231F20"/>
<path d="M17.5442 52.2377C17.5326 45.6405 17.5057 39.0296 17.4634 32.4049L17.4159 22.4425L17.4016 17.4534V16.8305C17.4076 16.6122 17.4357 16.395 17.4856 16.1823C17.5828 15.7585 17.7633 15.3582 18.0165 15.0048C18.275 14.6514 18.6105 14.3614 18.9976 14.1569L19.2923 14.0158C19.3938 13.9794 19.4984 13.9477 19.5998 13.9144C19.6521 13.8985 19.7028 13.8779 19.7583 13.8668L19.9168 13.8367L20.2337 13.7749H20.2528L45.7784 13.721L71.304 13.7004H71.3405L71.3722 13.7099C71.6846 13.8158 71.9865 13.9506 72.274 14.1125C72.5633 14.2769 72.8315 14.476 73.0727 14.7052C73.3271 14.9406 73.53 15.226 73.6686 15.5436C73.7356 15.7088 73.7809 15.8819 73.8034 16.0587C73.8248 16.2345 73.8248 16.4122 73.8034 16.588V16.5548V45.4387V46.0283L73.4198 45.5829L59.7156 29.6805L59.7378 29.7027C59.2765 29.3428 58.765 29.0523 58.2195 28.8405C57.6763 28.6259 57.0996 28.5084 56.5158 28.4935C56.2256 28.4905 55.9358 28.5154 55.6505 28.5679C55.3666 28.6225 55.0886 28.7037 54.82 28.8104C54.2836 29.0443 53.7898 29.3656 53.3588 29.7613L53.3746 29.7439L41.0318 44.4688L40.9398 44.5781L40.8384 44.4799L35.7051 39.4892L35.7241 39.5034C35.3311 39.2825 34.9091 39.1177 34.4705 39.0137C34.0305 38.904 33.5784 38.8508 33.1249 38.8552C32.6701 38.8553 32.217 38.9122 31.7762 39.0248C31.5552 39.0773 31.3377 39.1435 31.1249 39.2229C30.9109 39.299 30.7065 39.402 30.4909 39.4908L30.5131 39.4749L24.0104 45.865L17.5442 52.2377ZM17.5442 52.2377L23.993 45.7826L30.399 39.3513L30.4101 39.3402H30.4212C30.6351 39.2467 30.8443 39.1405 31.063 39.0597C31.282 38.9759 31.5059 38.9055 31.7334 38.8489C32.1873 38.7295 32.6541 38.6667 33.1234 38.6619C33.5936 38.6559 34.0627 38.7092 34.5196 38.8204C34.9812 38.926 35.4257 39.0962 35.8398 39.3259H35.8477L35.8572 39.3354L41.0223 44.2929L40.8289 44.3024L53.0957 29.5236V29.5141H53.1052C53.5651 29.0853 54.0932 28.7361 54.6678 28.4808C54.9594 28.3593 55.2619 28.2659 55.5712 28.2018C55.8819 28.1417 56.1978 28.1131 56.5142 28.1163C57.1445 28.1299 57.7675 28.2549 58.3542 28.4855C58.9427 28.709 59.4941 29.02 59.9898 29.4079L60.0009 29.4158L60.012 29.4285L73.7526 45.2929L73.3675 45.4371L73.3358 16.5516V16.5183C73.3524 16.383 73.3524 16.2463 73.3358 16.111C73.3187 15.9762 73.2846 15.8442 73.2344 15.718C73.1201 15.4597 72.954 15.2278 72.7463 15.0365C72.5316 14.8347 72.2925 14.6606 72.0347 14.5182C71.7815 14.3703 71.5151 14.2462 71.2391 14.1474L71.3072 14.1569L45.7816 14.1363L20.2559 14.084H20.2765L19.9833 14.1379L19.8359 14.1648C19.7868 14.1759 19.7409 14.1949 19.6933 14.2092L19.4112 14.2995L19.1449 14.4247C18.7941 14.6058 18.489 14.8643 18.2527 15.1807C18.0224 15.5022 17.8571 15.8656 17.7661 16.2505C17.7205 16.4413 17.694 16.6361 17.6869 16.8321V17.4502L17.671 22.4013L17.6235 32.3161C17.5844 38.9355 17.558 45.5761 17.5442 52.2377Z" fill="#231F20"/>
<path d="M18.0672 56.4266L26.1183 48.2186L30.1612 44.098L31.1756 43.0678L31.4291 42.8095C31.5131 42.7271 31.5971 42.6352 31.6938 42.5512C31.8809 42.3876 32.0843 42.2436 32.3008 42.1217C32.7385 41.851 33.2572 41.7422 33.7668 41.8142C34.0232 41.8603 34.266 41.9638 34.4768 42.1169C34.6818 42.266 34.8639 42.4444 35.0172 42.6463V42.6383L39.5024 47.5118L39.4849 47.4943C39.8499 47.7754 40.2832 47.9543 40.7401 48.0126C40.9608 48.037 41.1842 48.0124 41.3943 47.9406C41.6044 47.8689 41.7961 47.7516 41.9557 47.5973C42.035 47.5181 42.1142 47.4278 42.1855 47.3438L42.4201 47.0617L42.8876 46.4943L43.8227 45.3611L47.5677 40.8268L55.0736 31.7678L55.0831 31.7551H55.091C55.322 31.5507 55.5855 31.3862 55.8707 31.2686C56.1644 31.1435 56.4851 31.0949 56.8026 31.1275C57.1246 31.1707 57.4275 31.3049 57.6759 31.5142C57.7345 31.5643 57.7905 31.6172 57.8439 31.6727C57.9009 31.7282 57.9532 31.7821 58.0024 31.8312L58.2781 32.1482L60.4969 34.695L64.925 39.7904L69.3372 44.8904L73.7526 49.9952L73.8081 50.0602V50.1442V53.8686V54.8195C73.7716 55.1439 73.6977 55.463 73.5878 55.7704C73.378 56.4057 72.9752 56.9597 72.4356 57.3553C72.1578 57.5461 71.8473 57.6841 71.5196 57.7626C71.2002 57.8364 70.8726 57.8689 70.5449 57.8593H68.6811H64.963L57.5253 57.8482L50.0876 57.8133L35.2122 57.7578L20.3367 57.6643C20.1125 57.6633 19.89 57.6264 19.6774 57.555C19.466 57.486 19.2625 57.3946 19.0704 57.2824C18.8804 57.1682 18.7007 57.0377 18.5332 56.8925C18.4476 56.8212 18.3747 56.734 18.2907 56.6659L18.0672 56.4266ZM18.0672 56.4266L18.2954 56.6675C18.3779 56.7419 18.4539 56.8259 18.5411 56.8909C18.7107 57.0323 18.8921 57.159 19.0831 57.2697C19.2748 57.3782 19.4778 57.4654 19.6885 57.5296C19.8969 57.5967 20.1147 57.6299 20.3336 57.6279L35.209 57.5344L50.0844 57.4773L57.5221 57.4504L64.9599 57.4393H68.6779H70.5417C70.8342 57.4483 71.1267 57.4195 71.4118 57.3537C71.6877 57.287 71.9488 57.1699 72.182 57.0082C72.6469 56.6628 72.9921 56.1807 73.1694 55.6294C73.2667 55.3541 73.3321 55.0685 73.3643 54.7783V53.8512V50.1379L73.4198 50.2868L68.987 45.1979L64.5684 40.0962L60.153 34.9914L57.9453 32.4398L57.6695 32.1228C57.622 32.0674 57.5776 32.0214 57.5332 31.9786C57.4889 31.9358 57.4461 31.8867 57.3985 31.8471C57.2157 31.6907 56.9918 31.5901 56.7535 31.557C56.278 31.4968 55.7645 31.7425 55.3889 32.0658L55.408 32.0468L47.8799 41.0804L44.1064 45.583L43.1555 46.7098L42.68 47.2724L42.4423 47.5545C42.3535 47.6512 42.2711 47.7511 42.176 47.8414C41.9803 48.0268 41.7464 48.1672 41.4907 48.2526C41.2349 48.338 40.9636 48.3664 40.6958 48.3359C40.435 48.3085 40.1803 48.2395 39.9414 48.1314C39.7029 48.0279 39.4778 47.8959 39.271 47.7384H39.2631L39.2535 47.7273L34.7969 42.8253C34.5428 42.451 34.1568 42.1861 33.7161 42.0836C33.2658 42.0208 32.8076 42.116 32.4197 42.3531C32.2177 42.4657 32.0276 42.5984 31.8523 42.7493C31.7651 42.8222 31.6859 42.9078 31.6003 42.9933L31.3467 43.2469L30.3292 44.2581L26.253 48.3074L18.0672 56.4266Z" fill="#231F20"/>
<path d="M14.5124 15.8623C14.6882 15.2869 14.9257 14.7321 15.2209 14.2077C15.5104 13.6793 15.8638 13.1886 16.2732 12.7465C16.4777 12.5261 16.6992 12.3221 16.9357 12.1363C17.1721 11.9494 17.4252 11.7844 17.6916 11.6435C18.2273 11.3592 18.8118 11.1786 19.4144 11.1109L45.6437 11.0428L71.873 11H71.8889C72.5335 11.1172 73.1508 11.3525 73.7099 11.6942C74.268 12.0279 74.7738 12.4423 75.2107 12.924C75.4246 13.1679 75.6221 13.4257 75.8019 13.6958C75.8874 13.8321 75.9873 13.9621 76.0634 14.1047L76.29 14.5326C76.3264 14.604 76.3708 14.6737 76.4009 14.7482L76.4944 14.9716L76.6799 15.4186C76.7876 15.7229 76.8764 16.0335 76.9746 16.3394V16.3536V16.3742L76.9953 55.6532V55.6802C76.8696 56.2992 76.6689 56.9006 76.3978 57.4711C76.1316 58.0453 75.7853 58.5789 75.3692 59.0559C75.1604 59.2956 74.9295 59.5153 74.6798 59.712C74.5593 59.8151 74.4246 59.9006 74.2947 59.9926C74.1647 60.0845 74.0237 60.1621 73.8794 60.2287C73.3127 60.5209 72.695 60.7011 72.06 60.7596C71.9015 60.7802 71.743 60.785 71.5846 60.7897C71.4261 60.7945 71.2676 60.7897 71.1186 60.7897H64.6493L49.8515 60.7818L20.2559 60.7517H20.267C19.8946 60.7681 19.5216 60.7356 19.1576 60.655C18.7955 60.577 18.4427 60.4607 18.1053 60.3079C17.4309 59.9973 16.8269 59.5524 16.3303 59.0004C15.8388 58.4521 15.4337 57.8322 15.1289 57.162C14.8232 56.4962 14.5859 55.8011 14.4205 55.0874V55.0637L14.5124 15.8623ZM14.5124 15.8623L14.6107 55.0557V55.0336C14.7741 55.7335 15.0089 56.4148 15.3112 57.0669C15.609 57.7175 16.0045 58.3188 16.484 58.8499C16.9623 59.3788 17.5437 59.8043 18.1925 60.1003C18.5158 60.2456 18.8537 60.3561 19.2004 60.43C19.5438 60.5049 19.8954 60.5347 20.2464 60.5187H20.2575L49.8531 60.4886L64.6508 60.4807H71.125C71.2834 60.4807 71.4419 60.4807 71.583 60.4807C71.724 60.4807 71.8841 60.4712 72.0331 60.4522C72.6292 60.3965 73.2092 60.227 73.7416 59.9529C73.8763 59.8895 73.9999 59.8055 74.1298 59.7295C74.2598 59.6534 74.3771 59.5631 74.4912 59.4664C74.7258 59.2807 74.9427 59.0738 75.1394 58.8483C75.5347 58.3936 75.8635 57.8851 76.1157 57.3379C76.3739 56.7933 76.566 56.2197 76.6878 55.6295V55.6548L76.71 16.3758V16.4107C76.6133 16.1127 76.5277 15.8116 76.4247 15.5152L76.244 15.0826L76.1521 14.8639C76.1236 14.791 76.0808 14.7244 76.0459 14.6547L75.8351 14.2299C75.7607 14.092 75.6656 13.9668 75.5831 13.8353C75.4103 13.576 75.2208 13.3282 75.0158 13.0936C74.5985 12.6313 74.1145 12.2339 73.5799 11.9145C73.3129 11.7556 73.0336 11.6183 72.7447 11.504C72.4587 11.3927 72.1625 11.3099 71.8603 11.2567H71.873L45.6405 11.2187L19.4144 11.1521C18.5165 11.2519 17.6643 11.5999 16.9531 12.1569C16.7154 12.34 16.4928 12.542 16.2875 12.7608C15.8772 13.1998 15.5222 13.6873 15.2304 14.2125C14.9322 14.7349 14.6915 15.2881 14.5124 15.8623Z" fill="#231F20"/>
<path d="M33.1423 26.4111C33.1418 27.0618 32.9505 27.698 32.5921 28.2411C32.2338 28.7842 31.7241 29.2104 31.1261 29.4669C30.5282 29.7233 29.8681 29.7989 29.2276 29.6843C28.5871 29.5696 27.9943 29.2697 27.5225 28.8217C27.1983 28.5105 26.9396 28.1376 26.7617 27.7249C26.5832 27.3097 26.4911 26.8624 26.4911 26.4103C26.4911 25.9583 26.5832 25.511 26.7617 25.0957C26.9382 24.6841 27.1959 24.3124 27.5194 24.0027C27.8429 23.6931 28.2256 23.4519 28.6445 23.2937C29.1483 23.1043 29.6905 23.0399 30.2246 23.106C30.7587 23.1721 31.2688 23.3668 31.7112 23.6733C32.1536 23.9798 32.515 24.389 32.7645 24.8658C33.0141 25.3427 33.1443 25.8729 33.1439 26.4111H33.1423ZM33.1423 26.4111C33.1379 25.9902 33.0518 25.5741 32.8888 25.186C32.6069 24.5304 32.1075 23.9921 31.4748 23.6619C30.8421 23.3318 30.1148 23.2301 29.4158 23.374C28.7168 23.5179 28.0889 23.8985 27.638 24.4517C27.1871 25.0049 26.9408 25.6967 26.9408 26.4103C26.9408 27.124 27.1871 27.8158 27.638 28.3689C28.0889 28.9221 28.7168 29.3027 29.4158 29.4466C30.1148 29.5905 30.8421 29.4888 31.4748 29.1587C32.1075 28.8286 32.6069 28.2902 32.8888 27.6346C33.0516 27.247 33.1377 26.8315 33.1423 26.4111Z" fill="#A73393"/>
<path d="M36.152 26.5077C36.152 28.1329 35.5173 29.6939 34.3833 30.8581C33.5263 31.7402 32.4275 32.3488 31.2252 32.6074C30.0229 32.8661 28.7709 32.7631 27.6271 32.3114C26.8588 32.0079 26.1585 31.5549 25.5668 30.9786C24.9709 30.3969 24.4958 29.7032 24.1689 28.9373C23.8436 28.1683 23.676 27.3419 23.676 26.5069C23.676 25.672 23.8436 24.8455 24.1689 24.0765C24.7297 22.7506 25.7318 21.6595 27.0052 20.988C28.2786 20.3164 29.745 20.1059 31.1559 20.3921C32.5668 20.6783 33.8353 21.4435 34.7465 22.5581C35.6576 23.6727 36.1553 25.0681 36.1552 26.5077H36.152ZM36.152 26.5077C36.1475 25.7044 35.986 24.9098 35.6765 24.1685C35.1369 22.8905 34.1719 21.8385 32.9451 21.1909C31.7184 20.5432 30.3053 20.3398 28.9457 20.6151C27.5861 20.8904 26.3635 21.6275 25.4853 22.7013C24.6071 23.7752 24.1273 25.1197 24.1273 26.5069C24.1273 27.8941 24.6071 29.2387 25.4853 30.3125C26.3635 31.3863 27.5861 32.1234 28.9457 32.3987C30.3053 32.674 31.7184 32.4706 32.9451 31.8229C34.1719 31.1753 35.1369 30.1233 35.6765 28.8454C35.9858 28.1046 36.1473 27.3105 36.152 26.5077Z" fill="#A73393"/>
</g>
</g>
<defs>
<clipPath id="clip0">
<rect width="1152" height="1698" fill="white" transform="translate(-107 -249)"/>
</clipPath>
<clipPath id="clip1">
<rect width="75" height="68.5528" fill="white" transform="translate(2 11)"/>
</clipPath>
</defs>
</svg>
