<svg width="79" height="79" viewBox="0 0 79 79" fill="none" xmlns="http://www.w3.org/2000/svg">
<rect width="79" height="79" fill="#E5E5E5"/>
<g clip-path="url(#clip0)">
<rect width="1152" height="1698" transform="translate(-583 -249)" fill="#F6F6F6"/>
<rect x="-534.5" y="-92.5" width="849" height="318" rx="2.5" fill="white" stroke="#EAEAEA"/>
<circle cx="39.5" cy="39.5" r="39.5" fill="#F6F6F6"/>
<path d="M14.2586 15.7987C14.2586 15.7987 13.3776 4.88916 24.452 5.26537L55.6612 5.39078C55.6612 5.39078 63.9669 5.26537 63.9669 14.9209L64.0927 60.314C64.0927 60.314 62.9601 67.2106 55.913 67.5868H21.8094C21.8094 67.5868 15.5171 66.8344 14.133 59.1854L14.2586 15.7987Z" stroke="#787878" stroke-width="0.4" stroke-miterlimit="10"/>
<path d="M13.1312 14.9941C13.1312 14.9941 12.2126 3.61746 23.7611 4.00993L56.3068 4.14064C56.3068 4.14064 64.968 4.00993 64.968 14.0788L65.0992 61.4157C65.0992 61.4157 63.9183 68.6079 56.5692 69H21.0053C21.0053 69 14.4436 68.2154 13 60.2386L13.1312 14.9941Z" stroke="#787878" stroke-width="0.4" stroke-miterlimit="10"/>
<path d="M49.7491 32.0815C49.7491 32.0815 49.9036 30.284 43.565 28.1787L43.4618 26.4326C43.4618 26.4326 47.1209 21.1434 43.565 15.7514C43.565 15.7514 39.1329 11.8486 35.0616 15.8542C35.0616 15.8542 31.4541 19.7056 34.701 26.2787L34.9444 26.4423L34.9294 27.9498C34.9294 27.9498 34.8129 28.3144 33.4768 28.8014C33.4768 28.8014 30.2182 29.7104 29.3712 30.9767C29.3712 30.9767 28.8825 31.2365 28.6544 32.0158L28.3285 31.9833C28.3285 31.9833 23.3433 26.1065 26.5039 18.3467C26.5039 18.3467 29.86 9.45061 39.9286 9.97014C39.9286 9.97014 52.0242 10.431 52.8362 23.2129C52.8359 23.2129 53.32 28.6939 49.7491 32.0815Z" stroke="#989DC8" stroke-width="0.4" stroke-miterlimit="10"/>
<path d="M39.281 38.808C47.7086 38.808 54.5405 32.0004 54.5405 23.6028C54.5405 15.2053 47.7086 8.39771 39.281 8.39771C30.8534 8.39771 24.0215 15.2053 24.0215 23.6028C24.0215 32.0004 30.8534 38.808 39.281 38.808Z" stroke="#989DC8" stroke-width="0.4" stroke-miterlimit="10"/>
<path d="M48.5062 33.491C48.5062 33.491 40.3012 42.132 29.8793 33.6848C29.8793 33.6848 29.6849 31.5148 32.5625 30.8562C32.5625 30.8562 35.7511 29.8099 36.3734 28.8415L36.4899 25.9741C36.4899 25.9741 32.8449 21.3314 36.6071 16.2191C36.6071 16.2191 39.258 14.2594 41.9089 16.3896C44.5598 18.5198 43.0206 24.5694 43.0206 24.5694L42.0801 25.6771L41.9089 29C41.9089 29 43.4481 30.1078 47.3815 31.5562C47.3819 31.5559 49.1175 32.4437 48.5062 33.491Z" stroke="#989DC8" stroke-width="0.4" stroke-miterlimit="10"/>
<path d="M21.6502 42.8354H56.6364C56.6364 42.8354 57.6106 43.5414 56.6364 44.3356L21.6945 44.2915C21.6945 44.2919 20.3661 43.5855 21.6502 42.8354Z" stroke="#93278F" stroke-width="0.4" stroke-miterlimit="10"/>
<path d="M21.7511 48.5615H56.7373C56.7373 48.5615 57.7115 49.2675 56.7373 50.0617L21.7954 50.0176C21.7954 50.0176 20.467 49.3116 21.7511 48.5615Z" stroke="#93278F" stroke-width="0.4" stroke-miterlimit="10"/>
<path d="M21.7511 54.2871H56.7373C56.7373 54.2871 57.7115 54.9931 56.7373 55.7873L21.7954 55.7432C21.7954 55.7435 20.467 55.0372 21.7511 54.2871Z" stroke="#93278F" stroke-width="0.4" stroke-miterlimit="10"/>
<path d="M21.5507 60.0134H44.0035C44.0035 60.0134 44.6288 60.7194 44.0035 61.5136L21.579 61.4695C21.5793 61.4695 20.7266 60.7635 21.5507 60.0134Z" stroke="#93278F" stroke-width="0.4" stroke-miterlimit="10"/>
</g>
<defs>
<clipPath id="clip0">
<rect width="1152" height="1698" fill="white" transform="translate(-583 -249)"/>
</clipPath>
</defs>
</svg>
