<svg width="16" height="19" viewBox="0 0 16 19" fill="none" xmlns="http://www.w3.org/2000/svg">
<path fill-rule="evenodd" clip-rule="evenodd" d="M4.9492 2.35408C4.9492 1.72791 5.45682 1.22029 6.083 1.22029H9.81432C10.4405 1.22029 10.9481 1.72791 10.9481 2.35408V6.68529C10.9481 7.31147 10.4405 7.81909 9.81432 7.81909H6.083C5.45682 7.81909 4.9492 7.31147 4.9492 6.68529V2.35408ZM6.083 0.0205078C4.7942 0.0205078 3.74942 1.06528 3.74942 2.35408V6.68529C3.74942 7.97409 4.7942 9.01887 6.083 9.01887H9.81432C11.1031 9.01887 12.1479 7.97409 12.1479 6.68529V2.35408C12.1479 1.06528 11.1031 0.0205078 9.81432 0.0205078H6.083ZM2.55026 8.41866C2.54974 8.41866 2.54922 8.41866 2.5487 8.41866H1.34891C1.0176 8.41866 0.749023 8.68724 0.749023 9.01855C0.749023 9.34986 1.0176 9.61844 1.34891 9.61844H2.05671L2.54937 12.0817C2.58271 13.0463 3.3752 13.8181 4.34795 13.8181H7.34792V16.8172H4.34931C4.018 16.8172 3.74942 17.0858 3.74942 17.4171C3.74942 17.7484 4.018 18.017 4.34931 18.017H7.93377L7.94781 18.0172L7.96186 18.017H11.548C11.8793 18.017 12.1479 17.7484 12.1479 17.4171C12.1479 17.0858 11.8793 16.8172 11.548 16.8172H8.5477V13.8181H11.5466C12.5164 13.8181 13.3071 13.051 13.3449 12.0904L13.8393 9.61844H14.547C14.8783 9.61844 15.1469 9.34986 15.1469 9.01855C15.1469 8.68724 14.8783 8.41866 14.547 8.41866H13.3472C13.3366 8.41865 13.3259 8.41893 13.3154 8.41949C13.0315 8.43433 12.7999 8.64654 12.7551 8.92148L12.4474 10.46C12.1825 10.3066 11.8748 10.2187 11.5466 10.2187H4.34795C4.02028 10.2187 3.71307 10.3063 3.44843 10.4593L3.14035 8.91892C3.09298 8.63552 2.84693 8.41941 2.55026 8.41866ZM3.74823 12.0036C3.7561 11.6791 4.02159 11.4185 4.34795 11.4185H11.5466C11.8779 11.4185 12.1465 11.6871 12.1465 12.0184C12.1465 12.3497 11.8779 12.6183 11.5466 12.6183H7.96139L7.94781 12.6181L7.93423 12.6183H4.34795C4.02171 12.6183 3.75629 12.3579 3.74824 12.0336C3.74849 12.0236 3.74849 12.0136 3.74823 12.0036Z" fill="#5E6278"/>
</svg>
