<svg width="79" height="79" viewBox="0 0 79 79" fill="none" xmlns="http://www.w3.org/2000/svg">
<rect width="79" height="79" fill="#E5E5E5"/>
<g clip-path="url(#clip0)">
<rect width="1152" height="1698" transform="translate(-412 -249)" fill="#F6F6F6"/>
<rect x="-363.5" y="-92.5" width="849" height="318" rx="2.5" fill="white" stroke="#EAEAEA"/>
<circle cx="39.5" cy="39.5" r="39.5" fill="#F6F6F6"/>
<path d="M16.0524 29.1689C16.0524 29.1689 14.7158 29.886 14.5615 33.4723C14.4072 37.0583 13.9958 48.2267 13.9958 48.2267H26.6948L26.3865 33.1651C26.3865 33.1651 25.9238 29.7841 24.7412 29.2716" stroke="#989DC8" stroke-width="0.4" stroke-miterlimit="10"/>
<path d="M16.0011 27.7856C16.0011 27.7856 13.6875 29.3224 13.4305 33.4723L13.0192 48.585C13.0192 48.585 12.8649 49.1998 13.4305 49.2509H26.9521C26.9521 49.2509 27.9804 49.507 27.7747 48.4312L27.2608 32.4988C27.2608 32.4988 26.9525 29.1178 24.6902 27.8368" stroke="#989DC8" stroke-width="0.4" stroke-miterlimit="10"/>
<path d="M16.0558 26.467C16.0558 26.467 16.0115 22.0825 20.3673 21.7722C20.3673 21.7722 24.1454 21.6837 24.6344 25.4483L24.6788 35.5023C24.6788 35.5023 25.1234 38.9569 20.9895 39.9756C20.9895 39.9756 16.4113 40.5513 16.0558 35.6353V26.467Z" stroke="#93278F" stroke-width="0.4" stroke-miterlimit="10"/>
<path d="M16.6884 26.9281C16.6884 26.9281 16.651 23.0162 20.3233 22.7394C20.3233 22.7394 23.5087 22.6603 23.9207 26.0192L23.9581 34.9891C23.9581 34.9891 24.333 38.0713 20.848 38.9801C20.848 38.9801 16.9881 39.494 16.6884 35.1077V26.9281Z" stroke="#93278F" stroke-width="0.4" stroke-miterlimit="10"/>
<path d="M34.8513 25.7329L30.7555 26.5903C30.7555 26.5903 29.4477 26.8304 29.8951 28.0994C29.8951 28.0994 30.2048 30.3971 32.098 31.666C32.098 31.666 33.0274 32.6263 33.7502 31.2202L36.2971 27.825L34.8513 25.7329Z" stroke="#93278F" stroke-width="0.4" stroke-miterlimit="10"/>
<path d="M35.3333 24.4636L37.5362 27.893L34.1289 32.5914C34.1289 32.5914 32.9931 33.4829 31.6163 32.6944C31.6163 32.6944 29.207 31.4254 28.794 27.1729C28.794 27.1729 28.7253 26.1783 30.1018 25.6296L35.3333 24.4636Z" stroke="#93278F" stroke-width="0.4" stroke-miterlimit="10"/>
<path d="M49.0234 20.4268L51.0869 23.2598C51.0869 23.2598 51.683 24.0822 53.1046 23.1685L65.3489 13.938C65.3489 13.938 68.192 11.1051 66.5412 7.54087C66.5412 7.54087 65.3489 4.47949 61.8635 4.0223C61.8635 4.0223 60.1208 3.79388 58.5158 4.79914L45.538 12.1103C45.538 12.1103 44.2541 12.4759 45.0795 14.3037L46.6846 16.817L35.3333 24.4637L35.8164 25.179L47.1892 17.8222L48.3357 19.4671L37.0545 27.0524L37.5362 27.8931L49.0234 20.4268Z" stroke="#787878" stroke-width="0.4" stroke-miterlimit="10"/>
<path d="M45.9514 13.812L51.5711 22.3368C51.5711 22.3368 51.9484 22.8383 52.4936 22.3786L64.5717 13.1852C64.5717 13.1852 67.3396 10.8032 65.2008 7.04233C65.2008 7.04233 62.7264 3.74112 58.8682 5.83042L46.035 13.0182C46.0354 13.0182 45.4902 13.3942 45.9514 13.812Z" stroke="#787878" stroke-width="0.4" stroke-miterlimit="10"/>
<path d="M48.2195 56.228H52.8844L52.8424 57.7772L48.1776 57.8194L48.2195 56.228Z" stroke="#787878" stroke-width="0.4" stroke-miterlimit="10"/>
<path d="M48.2615 59.4939L52.8844 59.4099L52.8425 67.2408L48.3035 67.2826L48.2615 59.4939Z" stroke="#787878" stroke-width="0.4" stroke-miterlimit="10"/>
<path d="M46.6645 55.4736C46.6645 55.4736 46.4963 54.7617 47.5471 54.7617L53.9772 54.8875C53.9772 54.8875 54.5234 54.8875 54.5657 55.5994L54.5237 68.2043C54.5237 68.2043 54.6919 68.8744 53.9775 68.958L46.9592 68.9998C46.9592 68.9998 46.455 68.7904 46.5809 68.3298L46.6645 55.4736Z" stroke="#787878" stroke-width="0.4" stroke-miterlimit="10"/>
<path d="M53.7542 54.7192L53.6609 48.2708C53.6609 48.2708 53.3498 45.3878 48.9319 44.7056C48.9319 44.7056 47.5939 44.5816 47.5006 46.0077L47.5471 54.762" stroke="#93278F" stroke-width="0.4" stroke-miterlimit="10"/>
<path d="M49.0144 54.7145L48.9319 46.3262C48.9319 46.3262 51.2014 45.8327 52.1506 48.2997L52.1918 54.7141" stroke="#93278F" stroke-width="0.4" stroke-miterlimit="10"/>
<path d="M58.2189 49.9502H61.3669L61.4519 66.0993C61.4519 66.0993 59.8354 69.236 58.2189 66.0568V49.9502Z" stroke="#787878" stroke-width="0.4" stroke-miterlimit="10"/>
<path d="M62.8342 35.8486L56.744 35.7273C56.744 35.7273 56.683 44.9515 58.084 48.1073H61.5556C61.5556 48.1073 62.5908 43.9805 62.5908 42.0992H60.2766C60.2766 42.0992 59.1193 41.0677 60.2766 40.3392L62.6518 40.2784C62.6515 40.2788 63.017 36.8196 62.8342 35.8486Z" stroke="#787878" stroke-width="0.4" stroke-miterlimit="10"/>
<path d="M61.386 34.0425H63.2081C63.2081 34.0425 65.1759 28.4509 65.4675 28.378C65.7592 28.3054 65.832 26.635 64.5201 26.3447C63.2081 26.0541 60.2929 23.9482 55.5559 26.2721C55.5559 26.2721 53.2964 26.9256 54.3167 28.6686L56.3573 34.1151L57.9606 34.1877L57.3048 31.1377C57.3048 31.1377 57.7421 29.3221 58.8352 30.7745C58.8352 30.7745 59.6371 33.3887 59.491 33.8971C59.3454 34.4054 60.2929 34.0422 60.2929 34.0422C60.2929 34.0422 60.1472 30.629 60.9487 30.2658C61.7505 29.9027 62.0418 31.2099 62.0418 31.2099L61.386 34.0425Z" stroke="#787878" stroke-width="0.4" stroke-miterlimit="10"/>
<path d="M56.6899 66.5768C56.6899 66.5768 57.2378 68.6046 59.4293 68.9167C59.4293 68.9167 62.795 68.9167 62.795 66.1089L62.9514 49.418C62.9514 49.418 64.9081 41.4627 64.5953 34.8329L67.0999 28.9835C67.0999 28.9835 67.7262 25.5517 64.7517 24.9279C64.7517 24.9279 59.429 21.73 54.1849 25.3958C54.1849 25.3958 51.5235 26.2539 52.8542 29.7634C54.1849 33.273 55.1241 34.7552 55.1241 34.7552C55.1241 34.7552 55.2805 43.4127 56.5331 48.7942L56.6899 66.5768Z" stroke="#787878" stroke-width="0.4" stroke-miterlimit="10"/>
<path d="M40.3679 40.7158C40.3679 40.7158 40.7886 41.7325 40.5108 42.0812C40.5108 42.0812 41.7607 41.6644 42.2254 41.9426C42.2254 41.9426 41.8599 40.7331 41.9452 40.2151C41.9452 40.2151 41.5918 41.0116 40.3679 40.7158Z" stroke="#989DC8" stroke-width="0.4" stroke-miterlimit="10"/>
<path d="M32.1753 39.8997C32.1753 39.8997 32.596 40.9163 32.3182 41.265C32.3182 41.265 33.5681 40.8482 34.0328 41.1264C34.0328 41.1264 33.6673 39.9169 33.7529 39.3989C33.7526 39.3989 33.3988 40.1955 32.1753 39.8997Z" stroke="#989DC8" stroke-width="0.4" stroke-miterlimit="10"/>
<path d="M39.8352 33.3997C39.8352 33.3997 40.2559 34.4163 39.9781 34.765C39.9781 34.765 41.228 34.3482 41.6927 34.6264C41.6927 34.6264 41.3272 33.4169 41.4125 32.8989C41.4125 32.8989 41.0587 33.6951 39.8352 33.3997Z" stroke="#989DC8" stroke-width="0.4" stroke-miterlimit="10"/>
<path d="M39.1492 39.2331C39.1492 39.2331 41.0948 39.7131 42.3249 38.7068C43.555 37.7005 43.4024 39.4408 43.4024 39.4408C43.4024 39.4408 42.9662 41.2567 44.0576 42.3076C45.149 43.3585 43.2949 43.3633 43.2949 43.3633C43.2949 43.3633 41.0993 43.1356 40.2257 43.8467C39.3521 44.5579 39.4246 42.8785 39.4246 42.8785L39.031 40.305C39.0306 40.305 38.2642 39.3986 39.1492 39.2331Z" stroke="#989DC8" stroke-width="0.4" stroke-miterlimit="10"/>
<path d="M30.9563 38.4167C30.9563 38.4167 32.9019 38.8967 34.132 37.8904C35.3621 36.8841 35.2095 38.6244 35.2095 38.6244C35.2095 38.6244 34.7732 40.4403 35.8646 41.4912C36.956 42.5421 35.102 42.5469 35.102 42.5469C35.102 42.5469 32.9064 42.3192 32.0328 43.0304C31.1592 43.7415 31.2316 42.0621 31.2316 42.0621L30.838 39.4886C30.838 39.4886 30.0716 38.5822 30.9563 38.4167Z" stroke="#989DC8" stroke-width="0.4" stroke-miterlimit="10"/>
<path d="M38.6162 31.9159C38.6162 31.9159 40.5618 32.3959 41.7919 31.3896C43.022 30.3833 42.8694 32.1236 42.8694 32.1236C42.8694 32.1236 42.4331 33.9396 43.5245 34.9905C44.6159 36.0414 42.7619 36.0462 42.7619 36.0462C42.7619 36.0462 40.5663 35.8185 39.6927 36.5297C38.8191 37.2408 38.8916 35.5614 38.8916 35.5614L38.4979 32.9879C38.4979 32.9879 37.7315 32.0818 38.6162 31.9159Z" stroke="#989DC8" stroke-width="0.4" stroke-miterlimit="10"/>
</g>
<defs>
<clipPath id="clip0">
<rect width="1152" height="1698" fill="white" transform="translate(-412 -249)"/>
</clipPath>
</defs>
</svg>
