<svg width="79" height="79" viewBox="0 0 79 79" fill="none" xmlns="http://www.w3.org/2000/svg">
<rect width="79" height="79" fill="#E5E5E5"/>
<g clip-path="url(#clip0)">
<rect width="1152" height="1698" transform="translate(-257 -249)" fill="#F6F6F6"/>
<rect x="-208.5" y="-92.5" width="849" height="318" rx="2.5" fill="white" stroke="#EAEAEA"/>
<circle cx="39.5" cy="39.5" r="39.5" fill="#F6F6F6"/>
<path d="M39.6163 72C57.6297 72 72.2326 57.4493 72.2326 39.5C72.2326 21.5508 57.6297 7 39.6163 7C21.6028 7 7 21.5508 7 39.5C7 57.4493 21.6028 72 39.6163 72Z" stroke="#787878" stroke-width="0.4" stroke-miterlimit="10"/>
<path d="M39.6275 69.8223C56.4541 69.8223 70.0947 56.2302 70.0947 39.4636C70.0947 22.697 56.4541 9.10498 39.6275 9.10498C22.8009 9.10498 9.16031 22.697 9.16031 39.4636C9.16031 56.2302 22.8009 69.8223 39.6275 69.8223Z" stroke="#787878" stroke-width="0.4" stroke-miterlimit="10"/>
<path d="M21.5144 22.9199C22.5944 22.9199 23.4698 22.0475 23.4698 20.9714C23.4698 19.8953 22.5944 19.0229 21.5144 19.0229C20.4345 19.0229 19.559 19.8953 19.559 20.9714C19.559 22.0475 20.4345 22.9199 21.5144 22.9199Z" stroke="#787878" stroke-width="0.4" stroke-miterlimit="10"/>
<path d="M39.6033 15.6132C40.6832 15.6132 41.5587 14.7409 41.5587 13.6648C41.5587 12.5887 40.6832 11.7163 39.6033 11.7163C38.5233 11.7163 37.6479 12.5887 37.6479 13.6648C37.6479 14.7409 38.5233 15.6132 39.6033 15.6132Z" stroke="#787878" stroke-width="0.4" stroke-miterlimit="10"/>
<path d="M57.6922 23.018C58.7721 23.018 59.6476 22.1456 59.6476 21.0695C59.6476 19.9934 58.7721 19.1211 57.6922 19.1211C56.6122 19.1211 55.7368 19.9934 55.7368 21.0695C55.7368 22.1456 56.6122 23.018 57.6922 23.018Z" stroke="#787878" stroke-width="0.4" stroke-miterlimit="10"/>
<path d="M65.1232 40.9447C66.2032 40.9447 67.0786 40.0724 67.0786 38.9963C67.0786 37.9202 66.2032 37.0479 65.1232 37.0479C64.0433 37.0479 63.1678 37.9202 63.1678 38.9963C63.1678 40.0724 64.0433 40.9447 65.1232 40.9447Z" stroke="#787878" stroke-width="0.4" stroke-miterlimit="10"/>
<path d="M57.6922 58.7743C58.7721 58.7743 59.6476 57.902 59.6476 56.8259C59.6476 55.7498 58.7721 54.8774 57.6922 54.8774C56.6122 54.8774 55.7368 55.7498 55.7368 56.8259C55.7368 57.902 56.6122 58.7743 57.6922 58.7743Z" stroke="#787878" stroke-width="0.4" stroke-miterlimit="10"/>
<path d="M39.6033 66.2761C40.6832 66.2761 41.5587 65.4037 41.5587 64.3276C41.5587 63.2515 40.6832 62.3792 39.6033 62.3792C38.5233 62.3792 37.6479 63.2515 37.6479 64.3276C37.6479 65.4037 38.5233 66.2761 39.6033 66.2761Z" stroke="#787878" stroke-width="0.4" stroke-miterlimit="10"/>
<path d="M21.6124 58.872C22.6924 58.872 23.5678 57.9997 23.5678 56.9236C23.5678 55.8475 22.6924 54.9751 21.6124 54.9751C20.5325 54.9751 19.657 55.8475 19.657 56.9236C19.657 57.9997 20.5325 58.872 21.6124 58.872Z" stroke="#787878" stroke-width="0.4" stroke-miterlimit="10"/>
<path d="M14.0834 40.9447C15.1633 40.9447 16.0388 40.0724 16.0388 38.9963C16.0388 37.9202 15.1633 37.0479 14.0834 37.0479C13.0034 37.0479 12.128 37.9202 12.128 38.9963C12.128 40.0724 13.0034 40.9447 14.0834 40.9447Z" stroke="#787878" stroke-width="0.4" stroke-miterlimit="10"/>
<path d="M40.1214 40.9281L51.0678 30.1578C51.0678 30.1578 52.3071 28.923 53.0642 29.8148C53.8217 30.7067 53.1332 31.667 53.1332 31.667L41.3607 43.6034C41.3607 43.6034 40.397 45.0438 38.9511 43.6034L24.9066 29.609C24.9066 29.609 24.4247 28.2369 25.1132 27.8252C25.8016 27.4135 26.6967 27.4135 27.1096 28.0995C27.5228 28.7862 40.1214 40.9281 40.1214 40.9281Z" stroke="#93278F" stroke-width="0.4" stroke-miterlimit="10"/>
</g>
<defs>
<clipPath id="clip0">
<rect width="1152" height="1698" fill="white" transform="translate(-257 -249)"/>
</clipPath>
</defs>
</svg>
