<svg width="26" height="26" viewBox="0 0 26 26" fill="none" xmlns="http://www.w3.org/2000/svg">
<path d="M6.75 6.75V1.75C6.75 1.41848 6.8817 1.10054 7.11612 0.866116C7.35054 0.631696 7.66848 0.5 8 0.5H24.25C24.5815 0.5 24.8995 0.631696 25.1339 0.866116C25.3683 1.10054 25.5 1.41848 25.5 1.75V18C25.5 18.3315 25.3683 18.6495 25.1339 18.8839C24.8995 19.1183 24.5815 19.25 24.25 19.25H19.25V24.2412C19.25 24.9363 18.6887 25.5 17.9912 25.5H1.75875C1.5934 25.5002 1.42965 25.4677 1.27685 25.4045C1.12406 25.3413 0.985232 25.2486 0.868313 25.1317C0.751395 25.0148 0.658682 24.8759 0.595482 24.7231C0.532282 24.5704 0.499836 24.4066 0.500001 24.2412L0.503751 8.00875C0.503751 7.31375 1.065 6.75 1.7625 6.75H6.75ZM9.25 6.75H17.9912C18.6862 6.75 19.25 7.31125 19.25 8.00875V16.75H23V3H9.25V6.75ZM3.00375 9.25L3 23H16.75V9.25H3.00375Z" fill="#718096"/>
</svg>
