<svg width="23" height="28" viewBox="0 0 23 28" fill="none" xmlns="http://www.w3.org/2000/svg">
<path fill-rule="evenodd" clip-rule="evenodd" d="M6.9216 4.04676C6.9216 3.07277 7.67357 2.2832 8.60118 2.2832H14.1287C15.0563 2.2832 15.8083 3.07277 15.8083 4.04676V10.7838C15.8083 11.7577 15.0563 12.5473 14.1287 12.5473H8.60118C7.67357 12.5473 6.9216 11.7577 6.9216 10.7838V4.04676ZM8.60118 0.416992C6.69197 0.416992 5.14426 2.04209 5.14426 4.04676V10.7838C5.14426 12.7884 6.69197 14.4135 8.60118 14.4135H14.1287C16.0379 14.4135 17.5856 12.7884 17.5856 10.7838V4.04676C17.5856 2.04209 16.0379 0.416992 14.1287 0.416992H8.60118ZM3.41376 13.4819C3.83433 13.5057 4.17719 13.8365 4.24263 14.2647L4.69773 16.6539C5.0897 16.416 5.54472 16.2799 6.03003 16.2799H16.6941C17.1803 16.2799 17.6362 16.4165 18.0287 16.6553L18.4905 14.2308C18.5749 13.7876 18.9455 13.481 19.36 13.4805L19.3632 13.4805H21.1405C21.6313 13.4805 22.0292 13.8983 22.0292 14.4137C22.0292 14.929 21.6313 15.3468 21.1405 15.3468H20.0905L19.3579 19.1929C19.3011 20.6862 18.1302 21.8785 16.6941 21.8785H12.2512V26.5433H16.697C17.1878 26.5433 17.5856 26.961 17.5856 27.4764C17.5856 27.9917 17.1878 28.4095 16.697 28.4095H11.4042C11.3904 28.4101 11.3765 28.4105 11.3625 28.4105C11.3486 28.4105 11.3347 28.4101 11.3209 28.4095H6.03293C5.54213 28.4095 5.14426 27.9917 5.14426 27.4764C5.14426 26.961 5.54213 26.5433 6.03293 26.5433H10.4739V21.8785H6.03003C4.58852 21.8785 3.41422 20.6772 3.36559 19.176L2.6362 15.3468H1.58789C1.09709 15.3468 0.699219 14.929 0.699219 14.4137C0.699219 13.8983 1.09709 13.4805 1.58789 13.4805H3.36523C3.38147 13.4805 3.39766 13.481 3.41376 13.4819ZM5.1418 19.0497C5.15664 18.548 5.54864 18.1461 6.03003 18.1461H16.6941C17.1849 18.1461 17.5827 18.5638 17.5827 19.0792C17.5827 19.5945 17.1849 20.0123 16.6941 20.0123H6.03003C5.54901 20.0123 5.15726 19.611 5.14184 19.1098C5.14244 19.0899 5.14243 19.0698 5.1418 19.0497Z" fill="#718096"/>
</svg>
