<svg width="25" height="25" viewBox="0 0 25 25" fill="none" xmlns="http://www.w3.org/2000/svg">
<path d="M6.25 5V1.25C6.25 0.918479 6.3817 0.600537 6.61612 0.366116C6.85054 0.131696 7.16848 0 7.5 0H17.5C17.8315 0 18.1495 0.131696 18.3839 0.366116C18.6183 0.600537 18.75 0.918479 18.75 1.25V5H23.75C24.0815 5 24.3995 5.1317 24.6339 5.36612C24.8683 5.60054 25 5.91848 25 6.25V23.75C25 24.0815 24.8683 24.3995 24.6339 24.6339C24.3995 24.8683 24.0815 25 23.75 25H1.25C0.918479 25 0.600537 24.8683 0.366116 24.6339C0.131696 24.3995 0 24.0815 0 23.75V6.25C0 5.91848 0.131696 5.60054 0.366116 5.36612C0.600537 5.1317 0.918479 5 1.25 5H6.25ZM2.5 18.75V22.5H22.5V18.75H2.5ZM2.5 16.25H22.5V7.5H2.5V16.25ZM8.75 2.5V5H16.25V2.5H8.75ZM11.25 12.5H13.75V15H11.25V12.5Z" fill="#718096"/>
</svg>
