<svg width="26" height="24" viewBox="0 0 26 24" fill="none" xmlns="http://www.w3.org/2000/svg">
<path d="M21.166 23.5002H4.83268C4.52326 23.5002 4.22652 23.3773 4.00772 23.1585C3.78893 22.9397 3.66602 22.643 3.66602 22.3336V11.8336H0.166016L12.2142 0.880899C12.429 0.685456 12.7089 0.577148 12.9993 0.577148C13.2898 0.577148 13.5697 0.685456 13.7845 0.880899L25.8327 11.8336H22.3327V22.3336C22.3327 22.643 22.2098 22.9397 21.991 23.1585C21.7722 23.3773 21.4754 23.5002 21.166 23.5002ZM5.99935 21.1669H19.9993V9.6834L12.9993 3.3204L5.99935 9.6834V21.1669ZM8.33268 16.5002H17.666V18.8336H8.33268V16.5002Z" fill="#718096"/>
</svg>
