<svg width="22" height="20" viewBox="0 0 22 20" fill="none" xmlns="http://www.w3.org/2000/svg">
<path d="M21.5117 9.10567V18.7244C21.5117 19.0079 21.3991 19.2797 21.1987 19.4801C20.9983 19.6806 20.7264 19.7932 20.443 19.7932H1.20547C0.922019 19.7932 0.650178 19.6806 0.449748 19.4801C0.249319 19.2797 0.136719 19.0079 0.136719 18.7244V9.10567H21.5117ZM21.5117 4.83066H0.136719V1.62441C0.136719 1.34096 0.249319 1.06912 0.449748 0.868694C0.650178 0.668264 0.922019 0.555664 1.20547 0.555664H20.443C20.7264 0.555664 20.9983 0.668264 21.1987 0.868694C21.3991 1.06912 21.5117 1.34096 21.5117 1.62441V4.83066Z" fill="#718096"/>
</svg>
