<svg width="19" height="20" viewBox="0 0 19 20" fill="none" xmlns="http://www.w3.org/2000/svg">
<path d="M15.2292 19.125C14.2622 19.125 13.3349 18.7409 12.6512 18.0572C11.9674 17.3734 11.5833 16.4461 11.5833 15.4792C11.5833 14.5122 11.9674 13.5849 12.6512 12.9012C13.3349 12.2174 14.2622 11.8333 15.2292 11.8333C16.1961 11.8333 17.1234 12.2174 17.8072 12.9012C18.4909 13.5849 18.875 14.5122 18.875 15.4792C18.875 16.4461 18.4909 17.3734 17.8072 18.0572C17.1234 18.7409 16.1961 19.125 15.2292 19.125ZM3.77083 7.66667C3.29206 7.66667 2.81797 7.57236 2.37563 7.38914C1.9333 7.20592 1.53139 6.93737 1.19284 6.59883C0.854293 6.26028 0.585743 5.85837 0.402522 5.41603C0.219302 4.9737 0.125 4.49961 0.125 4.02083C0.125 3.54206 0.219302 3.06797 0.402522 2.62563C0.585743 2.1833 0.854293 1.78139 1.19284 1.44284C1.53139 1.10429 1.9333 0.835743 2.37563 0.652522C2.81797 0.469302 3.29206 0.375 3.77083 0.375C4.73777 0.375 5.6651 0.759114 6.34883 1.44284C7.03255 2.12657 7.41667 3.0539 7.41667 4.02083C7.41667 4.98777 7.03255 5.9151 6.34883 6.59883C5.6651 7.28255 4.73777 7.66667 3.77083 7.66667ZM16.8656 0.911458L18.3385 2.38437L2.13542 18.5885L0.6625 17.1156L16.8646 0.911458H16.8656Z" fill="#718096"/>
</svg>
