<svg width="25" height="22" viewBox="0 0 25 22" fill="none" xmlns="http://www.w3.org/2000/svg">
<path d="M11.149 11.252L15.5006 4L24.834 21.5H0.333984L8.50065 6.33333L11.149 11.252ZM12.4556 13.611L15.4855 19.1667H20.9455L15.3805 8.73433L12.4556 13.611ZM4.23998 19.1667H12.7613L8.50065 11.2555L4.23998 19.1667ZM4.41732 6.33333C3.64377 6.33333 2.9019 6.02604 2.35492 5.47906C1.80794 4.93208 1.50065 4.19021 1.50065 3.41667C1.50065 2.64312 1.80794 1.90125 2.35492 1.35427C2.9019 0.807291 3.64377 0.5 4.41732 0.5C5.19087 0.5 5.93273 0.807291 6.47971 1.35427C7.02669 1.90125 7.33398 2.64312 7.33398 3.41667C7.33398 4.19021 7.02669 4.93208 6.47971 5.47906C5.93273 6.02604 5.19087 6.33333 4.41732 6.33333Z" fill="#718096"/>
</svg>
