<svg width="24" height="24" viewBox="0 0 24 24" fill="none" xmlns="http://www.w3.org/2000/svg">
<path d="M5.88167 16.012C6.69874 16.3359 7.37613 16.9364 7.79565 17.7088C8.21517 18.4811 8.35018 19.3762 8.17711 20.2379C8.00405 21.0997 7.5339 21.8732 6.84871 22.4237C6.16352 22.9742 5.3068 23.2666 4.42804 23.2499C3.54927 23.2332 2.70428 22.9084 2.04049 22.3323C1.37671 21.7562 0.936292 20.9654 0.796089 20.0977C0.655886 19.23 0.824802 18.3407 1.27336 17.5848C1.72192 16.829 2.42164 16.2547 3.25042 15.962V8.03705C2.41605 7.74217 1.7128 7.1618 1.26497 6.39854C0.817138 5.63528 0.653563 4.73827 0.803157 3.86606C0.952751 2.99386 1.40588 2.20262 2.08246 1.63221C2.75903 1.0618 3.61548 0.74894 4.50042 0.74894C5.38536 0.74894 6.24181 1.0618 6.91839 1.63221C7.59496 2.20262 8.04809 2.99386 8.19768 3.86606C8.34728 4.73827 8.1837 5.63528 7.73587 6.39854C7.28804 7.1618 6.58479 7.74217 5.75042 8.03705V11.9995C6.79542 11.2145 8.09292 10.7495 9.50042 10.7495H14.5004C15.3231 10.7496 16.1229 10.4792 16.7768 9.98003C17.4307 9.48087 17.9023 8.7806 18.1192 7.98705C17.2981 7.66193 16.6181 7.05759 16.1988 6.28041C15.7796 5.50324 15.6479 4.60307 15.827 3.73837C16.0061 2.87367 16.4846 2.09988 17.1781 1.55323C17.8716 1.00657 18.7357 0.722108 19.6184 0.749907C20.501 0.777707 21.3455 1.11599 22.0033 1.7052C22.661 2.29441 23.0898 3.09677 23.2141 3.97103C23.3385 4.84529 23.1505 5.7354 22.6831 6.48464C22.2157 7.23389 21.499 7.79424 20.6592 8.06705C20.4074 9.5179 19.6516 10.8333 18.5249 11.7814C17.3982 12.7295 15.973 13.2494 14.5004 13.2495H9.50042C8.67778 13.2495 7.87794 13.5199 7.22406 14.0191C6.57017 14.5182 6.0985 15.2185 5.88167 16.012Z" fill="#718096"/>
</svg>
