<svg width="24" height="26" viewBox="0 0 24 26" fill="none" xmlns="http://www.w3.org/2000/svg">
<path d="M22 25.5H2C1.66848 25.5 1.35054 25.3683 1.11612 25.1339C0.881696 24.8995 0.75 24.5815 0.75 24.25V1.75C0.75 1.41848 0.881696 1.10054 1.11612 0.866116C1.35054 0.631696 1.66848 0.5 2 0.5H22C22.3315 0.5 22.6495 0.631696 22.8839 0.866116C23.1183 1.10054 23.25 1.41848 23.25 1.75V24.25C23.25 24.5815 23.1183 24.8995 22.8839 25.1339C22.6495 25.3683 22.3315 25.5 22 25.5ZM20.75 23V3H3.25V23H20.75ZM7 6.75H17V9.25H7V6.75ZM7 11.75H17V14.25H7V11.75ZM7 16.75H13.25V19.25H7V16.75Z" fill="#718096"/>
</svg>
