<svg width="22" height="21" viewBox="0 0 22 21" fill="none" xmlns="http://www.w3.org/2000/svg">
<path d="M10.7975 0C16.5506 0 21.2142 4.66354 21.2142 10.4167C21.2142 16.1698 16.5506 20.8333 10.7975 20.8333C5.0444 20.8333 0.380859 16.1698 0.380859 10.4167H2.46419C2.46419 15.0187 6.19544 18.75 10.7975 18.75C15.3996 18.75 19.1309 15.0187 19.1309 10.4167C19.1309 5.81458 15.3996 2.08333 10.7975 2.08333C7.93294 2.08333 5.40586 3.52813 3.9069 5.72917H6.63086V7.8125H0.380859V1.5625H2.46419V4.16667C4.36419 1.63542 7.39023 0 10.7975 0ZM11.8392 5.20833V9.98438L15.2173 13.3625L13.7434 14.8365L9.75586 10.8469V5.20833H11.8392Z" fill="#718096"/>
</svg>
