<svg width="21" height="19" viewBox="0 0 21 19" fill="none" xmlns="http://www.w3.org/2000/svg">
<path d="M0.0839844 1.16667C0.0839844 0.890399 0.193731 0.625447 0.389081 0.430097C0.584432 0.234747 0.849384 0.125 1.12565 0.125H19.8757C20.1519 0.125 20.4169 0.234747 20.6122 0.430097C20.8076 0.625447 20.9173 0.890399 20.9173 1.16667V6.89583C20.2267 6.89583 19.5643 7.1702 19.0759 7.65858C18.5875 8.14695 18.3132 8.80933 18.3132 9.5C18.3132 10.1907 18.5875 10.853 19.0759 11.3414C19.5643 11.8298 20.2267 12.1042 20.9173 12.1042V17.8333C20.9173 18.1096 20.8076 18.3746 20.6122 18.5699C20.4169 18.7653 20.1519 18.875 19.8757 18.875H1.12565C0.849384 18.875 0.584432 18.7653 0.389081 18.5699C0.193731 18.3746 0.0839844 18.1096 0.0839844 17.8333V1.16667ZM6.42253 16.7917C6.52989 16.4865 6.72935 16.2221 6.99337 16.0351C7.25739 15.8481 7.57295 15.7477 7.89648 15.7477C8.22002 15.7477 8.53558 15.8481 8.7996 16.0351C9.06362 16.2221 9.26308 16.4865 9.37044 16.7917H18.834V13.7C18.0515 13.3122 17.3929 12.7135 16.9324 11.9714C16.472 11.2293 16.228 10.3733 16.228 9.5C16.228 8.62666 16.472 7.77069 16.9324 7.0286C17.3929 6.28651 18.0515 5.68781 18.834 5.3V2.20833H9.37044C9.26308 2.51354 9.06362 2.77788 8.7996 2.96489C8.53558 3.15189 8.22002 3.25232 7.89648 3.25232C7.57295 3.25232 7.25739 3.15189 6.99337 2.96489C6.72935 2.77788 6.52989 2.51354 6.42253 2.20833H2.16732V16.7917H6.42253ZM7.89648 8.45833C7.48208 8.45833 7.08466 8.29371 6.79163 8.00069C6.4986 7.70766 6.33398 7.31023 6.33398 6.89583C6.33398 6.48143 6.4986 6.084 6.79163 5.79098C7.08466 5.49795 7.48208 5.33333 7.89648 5.33333C8.31089 5.33333 8.70831 5.49795 9.00134 5.79098C9.29436 6.084 9.45899 6.48143 9.45899 6.89583C9.45899 7.31023 9.29436 7.70766 9.00134 8.00069C8.70831 8.29371 8.31089 8.45833 7.89648 8.45833ZM7.89648 13.6667C7.48208 13.6667 7.08466 13.502 6.79163 13.209C6.4986 12.916 6.33398 12.5186 6.33398 12.1042C6.33398 11.6898 6.4986 11.2923 6.79163 10.9993C7.08466 10.7063 7.48208 10.5417 7.89648 10.5417C8.31089 10.5417 8.70831 10.7063 9.00134 10.9993C9.29436 11.2923 9.45899 11.6898 9.45899 12.1042C9.45899 12.5186 9.29436 12.916 9.00134 13.209C8.70831 13.502 8.31089 13.6667 7.89648 13.6667Z" fill="#718096"/>
</svg>
