<svg width="23" height="21" viewBox="0 0 23 21" fill="none" xmlns="http://www.w3.org/2000/svg">
<path d="M18.25 4.875H21.625C21.9234 4.875 22.2095 4.99353 22.4205 5.20451C22.6315 5.41548 22.75 5.70163 22.75 6V19.5C22.75 19.7984 22.6315 20.0845 22.4205 20.2955C22.2095 20.5065 21.9234 20.625 21.625 20.625H1.375C1.07663 20.625 0.790483 20.5065 0.579505 20.2955C0.368526 20.0845 0.25 19.7984 0.25 19.5V1.5C0.25 1.20163 0.368526 0.915483 0.579505 0.704505C0.790483 0.493526 1.07663 0.375 1.375 0.375H18.25V4.875ZM2.5 7.125V18.375H20.5V7.125H2.5ZM2.5 2.625V4.875H16V2.625H2.5ZM14.875 11.625H18.25V13.875H14.875V11.625Z" fill="#718096"/>
</svg>
