<svg width="16" height="17" viewBox="0 0 16 17" fill="none" xmlns="http://www.w3.org/2000/svg">
<path d="M2 8.43652L3.33333 7.10319M3.33333 7.10319L8 2.43652L12.6667 7.10319M3.33333 7.10319V13.7699C3.33333 14.138 3.63181 14.4365 4 14.4365H6M12.6667 7.10319L14 8.43652M12.6667 7.10319V13.7699C12.6667 14.138 12.3682 14.4365 12 14.4365H10M6 14.4365C6.36819 14.4365 6.66667 14.138 6.66667 13.7699V11.1032C6.66667 10.735 6.96514 10.4365 7.33333 10.4365H8.66667C9.03486 10.4365 9.33333 10.735 9.33333 11.1032V13.7699C9.33333 14.138 9.63181 14.4365 10 14.4365M6 14.4365H10" stroke="#718096" stroke-width="1.33333" stroke-linecap="round" stroke-linejoin="round"/>
</svg>
