<svg width="18" height="17" viewBox="0 0 18 17" fill="none" xmlns="http://www.w3.org/2000/svg">
<path d="M9.26691 16.8439C4.67089 16.8439 0.945312 13.1183 0.945312 8.52228C0.945312 4.79587 3.39436 1.64198 6.77043 0.581813V2.34932C5.33988 2.9302 4.15562 3.99009 3.4202 5.34769C2.68479 6.70528 2.44393 8.27622 2.73883 9.79178C3.03372 11.3073 3.84605 12.6733 5.03685 13.6561C6.22764 14.6389 7.72292 15.1774 9.26691 15.1796C10.5932 15.1795 11.8893 14.7835 12.989 14.0422C14.0888 13.3009 14.9422 12.2481 15.4399 11.0188H17.2074C16.1472 14.3948 12.9933 16.8439 9.26691 16.8439ZM17.5469 9.35444H8.43475V0.242292C8.70853 0.21483 8.98647 0.200684 9.26691 0.200684C13.8629 0.200684 17.5885 3.92626 17.5885 8.52228C17.5885 8.80272 17.5744 9.08066 17.5469 9.35444ZM10.0991 1.9166V7.69012H15.8726C15.6874 6.22353 15.0195 4.86022 13.9742 3.81495C12.929 2.76967 11.5657 2.10182 10.0991 1.9166Z" fill="#1A202C"/>
</svg>
