<svg width="19" height="22" viewBox="0 0 19 22" fill="none" xmlns="http://www.w3.org/2000/svg">
<path d="M4.0614 0.665771H15.259C15.417 0.665771 15.5729 0.702566 15.7142 0.77324C15.8556 0.843915 15.9785 0.946529 16.0733 1.07296L18.8218 4.73761V20.007C18.8218 20.277 18.7146 20.5359 18.5237 20.7268C18.3328 20.9177 18.0738 21.025 17.8039 21.025H1.5165C1.24652 21.025 0.987594 20.9177 0.796689 20.7268C0.605784 20.5359 0.498535 20.277 0.498535 20.007V4.73761L3.24703 1.07296C3.34185 0.946529 3.4648 0.843915 3.60615 0.77324C3.7475 0.702566 3.90336 0.665771 4.0614 0.665771ZM16.7859 6.77354H2.53446V18.9891H16.7859V6.77354ZM16.2769 4.73761L14.75 2.70169H4.57038L3.04344 4.73761H16.2769ZM6.6063 8.80946V10.8454C6.6063 11.6553 6.92805 12.4321 7.50076 13.0048C8.07347 13.5775 8.85024 13.8993 9.66018 13.8993C10.4701 13.8993 11.2469 13.5775 11.8196 13.0048C12.3923 12.4321 12.7141 11.6553 12.7141 10.8454V8.80946H14.75V10.8454C14.75 12.1953 14.2137 13.4899 13.2592 14.4444C12.3047 15.3989 11.0101 15.9352 9.66018 15.9352C8.31028 15.9352 7.01567 15.3989 6.06115 14.4444C5.10662 13.4899 4.57038 12.1953 4.57038 10.8454V8.80946H6.6063Z" fill="#595B6C"/>
</svg>
