<svg width="19" height="22" viewBox="0 0 19 22" fill="none" xmlns="http://www.w3.org/2000/svg">
<path d="M4.06189 0.665527H15.2595C15.4175 0.665527 15.5734 0.702322 15.7147 0.772996C15.8561 0.843671 15.979 0.946285 16.0738 1.07271L18.8223 4.73737V20.0068C18.8223 20.2768 18.7151 20.5357 18.5242 20.7266C18.3333 20.9175 18.0743 21.0247 17.8044 21.0247H1.51698C1.247 21.0247 0.988082 20.9175 0.797177 20.7266C0.606273 20.5357 0.499023 20.2768 0.499023 20.0068V4.73737L3.24752 1.07271C3.34234 0.946285 3.46529 0.843671 3.60664 0.772996C3.74799 0.702322 3.90385 0.665527 4.06189 0.665527ZM16.7864 6.77329H2.53495V18.9888H16.7864V6.77329ZM16.2774 4.73737L14.7505 2.70145H4.57087L3.04393 4.73737H16.2774ZM6.60679 8.80921V10.8451C6.60679 11.6551 6.92853 12.4318 7.50125 13.0046C8.07396 13.5773 8.85073 13.899 9.66067 13.899C10.4706 13.899 11.2474 13.5773 11.8201 13.0046C12.3928 12.4318 12.7146 11.6551 12.7146 10.8451V8.80921H14.7505V10.8451C14.7505 12.195 14.2142 13.4896 13.2597 14.4442C12.3052 15.3987 11.0106 15.9349 9.66067 15.9349C8.31077 15.9349 7.01616 15.3987 6.06164 14.4442C5.10711 13.4896 4.57087 12.195 4.57087 10.8451V8.80921H6.60679Z" fill="#1A202C"/>
</svg>
