<svg width="20" height="27" viewBox="0 0 20 27" fill="none" xmlns="http://www.w3.org/2000/svg">
<path d="M16.1489 0H4.38064C3.3757 0.00132519 2.41227 0.401103 1.7017 1.11186C0.990958 1.82237 0.591145 2.7858 0.589844 3.79079V25.5071C0.589623 25.7251 0.670242 25.9354 0.816235 26.0973C0.962228 26.2592 1.16322 26.3611 1.38012 26.3831C1.59701 26.4052 1.81435 26.346 1.98993 26.2171L6.21893 23.1165L9.68703 26.1676C9.84738 26.3085 10.0539 26.3865 10.2675 26.3865C10.4811 26.3865 10.6876 26.3087 10.848 26.1678L14.3108 23.1165L18.5371 26.2168C18.6888 26.3279 18.8724 26.3876 19.0603 26.3867C19.1986 26.3871 19.3349 26.3546 19.4579 26.2917C19.603 26.2184 19.7247 26.1062 19.8098 25.9677C19.8948 25.8292 19.9398 25.6697 19.9398 25.5072V3.79081C19.9385 2.78588 19.5387 1.82245 18.828 1.11187C18.1175 0.401132 17.1539 0.00130048 16.1489 0ZM18.1807 23.7705L14.7839 21.2787C14.6223 21.1601 14.4248 21.1007 14.2247 21.1095C14.0244 21.1186 13.8331 21.1957 13.6827 21.3282L10.2647 24.3354L6.84678 21.3282C6.69636 21.1957 6.50509 21.1186 6.30476 21.1095C6.10465 21.1007 5.9072 21.1603 5.74552 21.2789L2.34877 23.7705V3.79062C2.34922 3.25192 2.56346 2.7353 2.94445 2.35455C3.32523 1.97354 3.84184 1.75932 4.38052 1.75887H16.1488C16.6875 1.75931 17.2041 1.97356 17.5848 2.35455C17.9658 2.73533 18.1801 3.25194 18.1805 3.79062L18.1807 23.7705Z" fill="#1A202C"/>
<path d="M11.018 10.5536H9.51038C9.15124 10.5536 8.81926 10.3621 8.63974 10.0509C8.46017 9.73991 8.46017 9.35672 8.63974 9.04574C8.81931 8.73475 9.15127 8.54304 9.51038 8.54304H12.1491C12.4634 8.54304 12.7536 8.3754 12.9109 8.10329C13.068 7.83118 13.068 7.49591 12.9109 7.22377C12.7537 6.95165 12.4634 6.78402 12.1491 6.78402H11.1437V6.15588C11.1437 5.84181 10.9761 5.55139 10.704 5.39431C10.4319 5.23705 10.0966 5.23705 9.82446 5.39431C9.55235 5.55135 9.38471 5.84179 9.38471 6.15588V6.79708C8.41353 6.83971 7.53644 7.38987 7.07573 8.24576C6.61502 9.10165 6.63863 10.1368 7.1378 10.9708C7.63718 11.8048 8.53836 12.3146 9.51039 12.3128H11.018C11.3772 12.3128 11.7092 12.5043 11.8887 12.8155C12.0683 13.1265 12.0683 13.5097 11.8887 13.8207C11.7091 14.1319 11.3772 14.3234 11.018 14.3234H8.37931C8.06501 14.3234 7.77481 14.491 7.61751 14.7631C7.46047 15.0352 7.46047 15.3705 7.61751 15.6426C7.77476 15.915 8.06499 16.0826 8.37931 16.0826H9.38469V16.7105C9.38469 17.0248 9.55233 17.315 9.82444 17.4723C10.0966 17.6294 10.4318 17.6294 10.704 17.4723C10.9761 17.3151 11.1437 17.0248 11.1437 16.7105V16.0702C12.1105 16.0216 12.9811 15.4699 13.4381 14.6167C13.8951 13.7632 13.8717 12.7329 13.3763 11.9011C12.8808 11.0695 11.9859 10.5582 11.018 10.5536L11.018 10.5536Z" fill="#1A202C"/>
</svg>
