<svg width="22" height="22" viewBox="0 0 22 22" fill="none" xmlns="http://www.w3.org/2000/svg">
<rect width="22" height="22" rx="3" fill="white"/>
<path fill-rule="evenodd" clip-rule="evenodd" d="M8.92319 5.56826C8.92319 5.05796 9.33688 4.64427 9.84718 4.64427H12.888C13.3983 4.64427 13.812 5.05796 13.812 5.56826V9.098C13.812 9.60831 13.3983 10.022 12.888 10.022H9.84718C9.33688 10.022 8.92319 9.60831 8.92319 9.098V5.56826ZM9.84718 3.6665C8.79687 3.6665 7.94542 4.51795 7.94542 5.56826V9.098C7.94542 10.1483 8.79687 10.9998 9.84718 10.9998H12.888C13.9384 10.9998 14.7898 10.1483 14.7898 9.098V5.56826C14.7898 4.51795 13.9384 3.6665 12.888 3.6665H9.84718ZM7.05001 10.5179C7.2556 10.5532 7.41731 10.7169 7.44963 10.9235L7.69965 12.1736C7.9153 12.0489 8.16564 11.9776 8.43264 11.9776H14.2993C14.5668 11.9776 14.8176 12.0492 15.0336 12.1744L15.2877 10.9038C15.3349 10.668 15.5444 10.506 15.7767 10.5108H16.7454C17.0154 10.5108 17.2343 10.7297 17.2343 10.9997C17.2343 11.2697 17.0154 11.4886 16.7454 11.4886H16.1679L15.7647 13.5046C15.733 14.2866 15.089 14.9109 14.2993 14.9109H11.8552V17.3551H14.3009C14.5709 17.3551 14.7898 17.574 14.7898 17.844C14.7898 18.114 14.5709 18.3328 14.3009 18.3328H11.3831L11.3663 18.3331L11.3495 18.3328H8.43431C8.1643 18.3328 7.94542 18.114 7.94542 17.844C7.94542 17.574 8.1643 17.3551 8.43431 17.3551H10.8774V14.9109H8.43264C7.63974 14.9109 6.9938 14.2817 6.96686 13.4953L6.56552 11.4886H5.98888C5.71888 11.4886 5.5 11.2697 5.5 10.9997C5.5 10.7297 5.71888 10.5108 5.98888 10.5108H6.95673C6.98836 10.5102 7.01958 10.5126 7.05001 10.5179ZM7.94395 13.4302C7.95135 13.1667 8.16731 12.9553 8.43264 12.9553H14.2993C14.5693 12.9553 14.7881 13.1742 14.7881 13.4442C14.7881 13.7142 14.5693 13.9331 14.2993 13.9331H8.43264C8.16746 13.9331 7.95159 13.722 7.94397 13.4586C7.94424 13.4492 7.94424 13.4397 7.94395 13.4302Z" fill="#718096"/>
</svg>
