<svg width="27" height="27" viewBox="0 0 27 27" fill="none" xmlns="http://www.w3.org/2000/svg">
<g opacity="0.8">
<path fill-rule="evenodd" clip-rule="evenodd" d="M13.3811 23.625C12.6152 23.625 11.9438 23.5392 11.9152 23.537C11.5674 23.4907 11.2901 23.2178 11.2417 22.87L11.026 21.2963C10.5417 21.1422 10.0751 20.9441 9.62829 20.7042L8.38247 21.6396C8.10293 21.8487 7.71554 21.8465 7.43821 21.633C7.4162 21.6154 6.88133 21.1994 6.33986 20.6601L6.25622 20.5743C5.71476 20.0328 5.30095 19.498 5.28334 19.476C5.06764 19.1986 5.06543 18.809 5.27894 18.5295L6.23861 17.2595C6.0053 16.8104 5.81601 16.3416 5.67073 15.8552L4.12777 15.6373C3.78 15.5866 3.50927 15.3137 3.46304 14.9637C3.46084 14.9373 3.375 14.2638 3.375 13.5V13.3789C3.375 12.6152 3.46084 11.9438 3.46304 11.9152C3.50927 11.5652 3.7822 11.2901 4.12997 11.2417L5.71035 11.026C5.86223 10.5439 6.06033 10.0773 6.30024 9.63269L5.36038 8.38247C5.15128 8.10293 5.15348 7.71554 5.36698 7.43821C5.38459 7.4162 5.8006 6.88133 6.33986 6.33986L6.42571 6.25622C6.96717 5.71476 7.50204 5.29875 7.52405 5.28334C7.80139 5.06764 8.19098 5.06543 8.47052 5.27894L9.74274 6.24302C10.1918 6.0097 10.6606 5.82041 11.1448 5.67514L11.3627 4.12777C11.4134 3.78 11.6885 3.50707 12.0363 3.46304C12.0627 3.46084 12.7362 3.375 13.5 3.375H13.6211C14.3848 3.375 15.0562 3.46084 15.0848 3.46304C15.4348 3.50927 15.7099 3.7822 15.7583 4.12997L15.974 5.71035C16.4561 5.86443 16.9205 6.06033 17.3673 6.30024L18.6175 5.36038C18.8971 5.15128 19.2845 5.15348 19.5618 5.36698C19.5838 5.38459 20.1187 5.8006 20.6601 6.33986L20.7438 6.42571C21.2852 6.96717 21.7013 7.50204 21.7189 7.52405C21.9324 7.80359 21.9346 8.19098 21.7211 8.47052L20.757 9.74054C20.9925 10.1896 21.1818 10.6584 21.3271 11.1426L22.8744 11.3627C23.22 11.4134 23.4929 11.6885 23.537 12.0363C23.5414 12.0627 23.625 12.7362 23.625 13.5V13.6211C23.625 14.3848 23.5414 15.0562 23.537 15.0848C23.4929 15.4348 23.2178 15.7099 22.87 15.7583L21.294 15.974C21.14 16.4561 20.9419 16.9227 20.702 17.3695L21.6396 18.6175C21.8509 18.8971 21.8465 19.2845 21.633 19.5618C21.6154 19.5838 21.1994 20.1187 20.6601 20.6601L20.5743 20.7438C20.035 21.2852 19.498 21.7013 19.476 21.7167C19.1986 21.9324 18.809 21.9346 18.5295 21.7211L17.2573 20.7548C16.8082 20.9881 16.3394 21.1774 15.8574 21.3227L15.6373 22.8722C15.5888 23.22 15.3137 23.4929 14.9659 23.537C14.9373 23.5392 14.2638 23.625 13.5 23.625H13.3811Z" stroke="white" stroke-width="1.5"/>
<circle cx="13.4985" cy="13.5006" r="4.5" stroke="white" stroke-width="1.5"/>
</g>
</svg>
